<?xml version='1.0' encoding='utf-8'?>
<svg xmlns="http://www.w3.org/2000/svg" id="Layer_1" data-name="Layer 1" viewBox="0 0 75 100">

  <path fill="#2E3192" d="m11.17,44.59c1.14,0,2.22,0,3.37,0,0-.33,0-.63,0-.92,0-10.33,0-20.65,0-30.97,0-2.71,1.52-4.84,3.94-5.55,3.72-1.1,7.25,1.59,7.26,5.54,0,8.89,0,17.78,0,26.67,0,1.73,0,3.46,0,5.23,1.11,0,2.17,0,3.32,0,0-.3,0-.59,0-.88,0-12.66,0-25.33,0-37.99,0-3.29,2.4-5.73,5.6-5.72,3.19.01,5.58,2.48,5.58,5.77,0,12.62,0,25.23,0,37.85,0,.3,0,.6,0,.96,1.09,0,2.16,0,3.32,0,0-.3,0-.59,0-.88,0-10.05,0-20.09,0-30.14,0-2.99,1.95-5.19,4.97-5.64,3.08-.45,6.18,2.1,6.19,5.15.02,3.82,0,7.64,0,11.46,0,12.71,0,25.42,0,38.13,0,.79.16,1.47.94,1.87.85.44,1.73.15,2.27-.77,2.14-3.62,4.28-7.24,6.41-10.87,1.64-2.79,4.42-3.73,7.43-2.48,3.04,1.26,4.15,4.73,2.41,7.7-2.95,5.03-5.91,10.05-8.88,15.08-2.17,3.68-4.29,7.4-6.55,11.03-.75,1.2-1.78,2.27-2.81,3.27-4.29,4.19-9.14,7.59-14.76,9.87-5.01,2.03-10.23,3.03-15.63,2.51-9.85-.94-17.1-5.78-21.71-14.35-2.1-3.91-3.22-8.13-3.58-12.52-.17-2.07-.25-4.16-.25-6.23C0,52.86,0,38.97,0,25.08c0-3.26,2.54-5.77,5.74-5.7,3,.07,5.42,2.48,5.42,5.41,0,6.32,0,12.64,0,18.96,0,.27,0,.54,0,.84Z" />
</svg>