<?xml version="1.0" encoding="utf-8"?>
<!-- Generator: Adobe Illustrator 27.1.0, SVG Export Plug-In . SVG Version: 6.00 Build 0)  -->
<svg version="1.1" id="Layer_1" xmlns="http://www.w3.org/2000/svg" xmlns:xlink="http://www.w3.org/1999/xlink" x="0px" y="0px"
	 viewBox="0 0 201.1 208.2" style="enable-background:new 0 0 201.1 208.2;" xml:space="preserve">
<style type="text/css">
	.st0{fill:#2E3192;}
</style>
<g>
	<path class="st0" d="M157.5,208.2c-5,0-10-4.1-11.8-5.8l28.2-27.6h-14.3C14.1,174.8,0,150.2,0,13.2C0-4.9,18.7-4,18.7,13.5
		c0,132.4,10.9,143.9,152.8,143.9h2.5l-28.4-26.7c1.8-1.6,6.7-5.6,11.7-5.6c1.8,0,3.5,0.5,5,1.6c8.5,6.2,34.5,35.2,38.8,39.9
		c-4,4.6-28.2,32.3-38.8,40C160.9,207.6,159.2,208.2,157.5,208.2z"/>
</g>
<text transform="matrix(1 0 0 1 -234.8873 -539.4838)" style="font-family:'ArialMT'; font-size:60px;">from antiradial</text>
</svg>
