<?xml version="1.0" encoding="UTF-8"?>
<svg id="Layer_2" data-name="Layer 2" xmlns="http://www.w3.org/2000/svg" viewBox="0 0 80 45">
  <defs>
    <style>
      .cls-1 {
        fill: #010101;
      }
    </style>
  </defs>
  <g id="Layer_1-2" data-name="Layer 1">
    <g>
      <path class="cls-1" d="m30,36.54v8.46H0v-8.46h9.81V12.52H0V3.72l3.31-.34c2.28-.23,3.71-.27,7.06-1.18,3.44-.93,5.83-2.21,5.83-2.21h3.99v36.54h9.81Z"/>
      <path class="cls-1" d="m80,29.31c0,9.11-7.34,15.69-17.31,15.69-5.24,0-9.34-1.43-11.43-2.74l-1.26-.77,2.62-7.79,1.99,1.21c1.78.88,4.83,1.98,7.97,1.98,3.99,0,7.97-2.41,7.97-6.91-.1-5.93-5.56-7.13-10.07-7.13-2.1,0-3.78.22-5.14.33l-2.94.33L55.77,0h23.39v8.34h-16.15l-1.05,6.48h1.26c3.57,0,7.13.88,9.97,2.41,4.3,2.41,6.82,6.8,6.82,12.07Z"/>
      <circle class="cls-1" cx="40" cy="38.75" r="6.25"/>
    </g>
  </g>
</svg>