<?xml version="1.0" encoding="UTF-8"?>
<svg id="Layer_2" data-name="Layer 2" xmlns="http://www.w3.org/2000/svg" viewBox="0 0 8 4.5">
  <defs>
    <style>
      .cls-1 {
        fill: #231f20;
      }
    </style>
  </defs>
  <g id="Layer_1-2" data-name="Layer 1">
    <g>
      <path d="m3,3.65v.85H0v-.85h.98V1.25h-.98V.37l.33-.03c.23-.02.37-.03.71-.12s.58-.22.58-.22h.4v3.65h.98Z"/>
      <path class="cls-1" d="m8,2.93c0,.91-.73,1.57-1.73,1.57-.52,0-.93-.14-1.14-.27l-.13-.08.26-.78.2.12c.18.09.48.2.8.2.4,0,.8-.24.8-.69-.01-.59-.56-.71-1.01-.71-.21,0-.38.02-.51.03l-.29.03.34-2.35h2.34v.83h-1.62l-.1.65h.13c.36,0,.71.09,1,.24.43.24.68.68.68,1.21Z"/>
      <circle class="cls-1" cx="4" cy="3.88" r=".62"/>
    </g>
  </g>
</svg>