<?xml version="1.0" encoding="UTF-8"?>
<svg id="Layer_2" data-name="Layer 2" xmlns="http://www.w3.org/2000/svg" viewBox="0 0 8.37 4.5">
  <defs>
    <style>
      .cls-1 {
        fill: #231f20;
      }
    </style>
  </defs>
  <g id="Layer_1-2" data-name="Layer 1">
    <g>
      <path d="m2.99,4.45l-.03.05H0v-.16c.01-.05.01-.09.02-.11.01-.08.02-.14.05-.21.07-.24.18-.46.32-.66.08-.12.19-.24.28-.34.16-.17.32-.34.49-.5l.04-.04c.15-.14.28-.27.42-.41.02-.03.06-.06.09-.11.03-.03.06-.06.08-.11.09-.12.15-.23.17-.33v-.02c.01-.06.02-.11.02-.17,0,0,0-.02-.01-.04,0-.04,0-.06-.01-.11-.05-.13-.13-.21-.26-.25-.08-.03-.22-.03-.35.01-.1.04-.18.11-.22.21-.02.05-.03.12-.04.17s-.02.1-.02.13v.12h-.11c-.14-.02-.27-.03-.4-.04-.14-.01-.26-.03-.39-.04h-.09v-.14c.01-.11.02-.21.06-.31.03-.15.07-.27.14-.38.08-.16.21-.29.4-.41.13-.09.27-.15.45-.19.07-.02.15-.03.24-.04C1.48,0,1.59,0,1.7,0c.1,0,.23.02.33.04.19.05.34.13.48.24.17.13.29.29.39.5.04.09.07.18.08.31.01.1.02.18.01.27,0,.21-.05.44-.16.64-.07.15-.17.29-.24.4-.09.11-.18.2-.26.29-.11.13-.24.25-.37.35-.11.12-.24.23-.35.35-.04.04-.07.08-.1.12h1.48v.11c.01.77,0,.78-.01.81Z"/>
      <path class="cls-1" d="m8.37,2.93c0,.91-.73,1.57-1.73,1.57-.52,0-.93-.14-1.14-.27l-.13-.08.26-.78.2.12c.18.09.48.2.8.2.4,0,.8-.24.8-.69-.01-.59-.56-.71-1.01-.71-.21,0-.38.02-.51.03l-.29.03L5.94,0h2.34v.83h-1.62l-.1.65h.13c.36,0,.71.09,1,.24.43.24.68.68.68,1.21Z"/>
      <circle class="cls-1" cx="4.37" cy="3.88" r=".62"/>
    </g>
  </g>
</svg>