<?xml version="1.0" encoding="UTF-8"?>
<svg id="Layer_2" data-name="Layer 2" xmlns="http://www.w3.org/2000/svg" viewBox="0 0 3 4.5">
  <g id="Layer_1-2" data-name="Layer 1">
    <path d="m2.99,3.02c.04.48-.12.88-.48,1.17-.17.15-.39.24-.63.28-.13.02-.25.02-.36.03-.38,0-.68-.1-.94-.29-.28-.23-.46-.48-.56-.8-.01-.01-.01-.04-.02-.07-.02-.09.01-.15.09-.17l.68-.18.05.13c.02.06.03.1.05.16.11.25.28.38.53.42.17.01.31,0,.43-.07.14-.08.23-.19.27-.33.04-.2,0-.38-.12-.54-.09-.09-.17-.15-.31-.16-.08-.01-.17-.01-.25-.01h-.1c-.05-.01-.09-.01-.14-.01h-.08c-.07,0-.11-.04-.11-.11v-.56c0-.07.04-.11.11-.11h.13c.09,0,.17,0,.26-.01.14,0,.26-.04.37-.13.1-.07.15-.17.15-.31.01-.09,0-.17-.02-.25-.03-.1-.11-.18-.2-.23-.23-.11-.45-.09-.65.05-.1.08-.19.19-.26.38-.02.09-.05.12-.17.1-.12-.03-.24-.06-.38-.08l-.14-.02s-.07-.02-.09-.06c-.02-.03-.01-.08-.01-.11.08-.32.24-.57.48-.78C.79.16,1.04.06,1.3.02,1.59-.02,1.84,0,2.06.09c.23.07.41.2.57.37.15.18.23.39.25.64.02.21-.01.4-.07.57-.09.23-.22.38-.37.48.01,0,.01.01.01.01.33.18.5.46.54.84Z"/>
  </g>
</svg>