<?xml version="1.0" encoding="UTF-8"?>
<svg id="Layer_2" data-name="Layer 2" xmlns="http://www.w3.org/2000/svg" viewBox="0 0 30 45">
  <defs>
    <style>
      .cls-1 {
        fill: #010101;
      }
    </style>
  </defs>
  <g id="Layer_1-2" data-name="Layer 1">
    <path class="cls-1" d="m29.93,30.15c.44,4.84-1.2,8.77-4.8,11.7-1.74,1.46-3.92,2.36-6.32,2.81-1.31.23-2.51.23-3.6.34-3.82,0-6.76-1.01-9.37-2.93-2.83-2.25-4.58-4.84-5.56-7.99-.11-.11-.11-.45-.22-.67-.22-.9.11-1.46.87-1.69l6.76-1.8.54,1.35c.22.56.33,1.01.54,1.58,1.09,2.47,2.83,3.83,5.34,4.16,1.74.11,3.05,0,4.25-.67,1.42-.79,2.29-1.91,2.72-3.26.44-2.02,0-3.83-1.2-5.4-.87-.9-1.74-1.46-3.05-1.57-.76-.11-1.74-.11-2.51-.11h-.98c-.54-.11-.87-.11-1.42-.11h-.76c-.65,0-1.09-.45-1.09-1.13v-5.62c0-.67.44-1.12,1.09-1.12h1.31c.87,0,1.74,0,2.62-.11,1.42,0,2.62-.45,3.71-1.35.98-.67,1.53-1.69,1.53-3.15.11-.9,0-1.69-.22-2.48-.33-1.01-1.09-1.8-1.96-2.25-2.29-1.12-4.47-.9-6.54.45-.98.79-1.85,1.91-2.62,3.82-.22.9-.55,1.24-1.74,1.01-1.2-.34-2.4-.56-3.81-.79l-1.42-.23c-.22-.11-.65-.22-.87-.56-.22-.34-.11-.79-.11-1.12.76-3.15,2.4-5.74,4.8-7.76C7.91,1.57,10.42.56,13.04.22,15.87-.22,18.38,0,20.56.9c2.29.67,4.14,2.03,5.67,3.71,1.53,1.8,2.29,3.94,2.51,6.41.22,2.14-.11,4.05-.65,5.74-.87,2.25-2.18,3.82-3.71,4.84.11,0,.11.11.11.11,3.27,1.8,5.01,4.61,5.45,8.44Z"/>
  </g>
</svg>