<?xml version="1.0" encoding="utf-8"?>
<!-- Generator: Adobe Illustrator 27.1.0, SVG Export Plug-In . SVG Version: 6.00 Build 0)  -->
<svg version="1.1" id="Layer_1" xmlns="http://www.w3.org/2000/svg" xmlns:xlink="http://www.w3.org/1999/xlink" x="0px" y="0px"
	 viewBox="0 0 42.4 45" style="enable-background:new 0 0 42.4 45;" xml:space="preserve">
<g>
	<g>
		<path d="M39.6,40.5l1.3-0.4l-0.7,3.2l-0.4,0.1c-1.4,0.6-2.6,1-3.3,1.2c-0.8,0.3-1.8,0.4-2.8,0.4c-1.5,0-2.6-0.4-3.4-1.2
			C29.4,43,29,42,29,40.8c0-0.4,0-0.8,0.1-1.3c0.1-0.4,0.2-0.9,0.3-1.5l6-25.9c0-0.1,0.1-0.3,0.1-0.6c0-0.5-0.1-0.8-0.2-0.9
			c-0.1-0.2-0.3-0.3-0.5-0.4c-0.3-0.1-0.6-0.2-1-0.2c-0.5,0-1-0.1-1.6-0.2l-0.8-0.1L32,7l9.8-0.6l0.6,1l-6.7,28.8
			c-0.1,0.6-0.3,1.2-0.4,1.8c-0.1,0.6-0.1,1-0.1,1.3c0,0.6,0.1,1.1,0.3,1.3c0.1,0.1,0.5,0.3,1.5,0.3c0.3,0,0.7,0,1.3-0.1
			C39,40.6,39.4,40.5,39.6,40.5z"/>
	</g>
	<g>
		<path d="M31.5,3.3c0,0.8-0.2,1.5-0.7,2.1c-0.5,0.7-1.3,1-2.3,1c-0.6,0-1.1-0.1-1.6-0.4c-0.4-0.2-0.8-0.6-1.1-0.9
			c-0.3-0.4-0.6-0.8-0.8-1.2c-0.1-0.2-0.2-0.4-0.4-0.6C24.1,3.5,23.6,4,23,4.9c-0.7,1.2-1.4,3.2-2,6.2l-0.3,1.4h5.5L25.5,16H20
			l-3.7,17.4c-0.7,3.4-2.3,6.2-4.5,8.3C9.4,43.9,7,45,4.5,45c-1.5,0-2.5-0.3-3.3-0.9C0.4,43.5,0,42.7,0,41.7c0-0.8,0.3-1.5,0.7-2.1
			c0.5-0.7,1.3-1,2.2-1c0.6,0,1.1,0.1,1.6,0.4c0.4,0.3,0.8,0.6,1.1,0.9c0.2,0.3,0.5,0.6,0.7,1.1l0.4,0.7c0.7-0.2,1.3-0.8,1.8-1.8
			c0.8-1.3,1.4-3.3,2-5.9l3.8-18h-4.2l0.8-3.5h4.2l0.2-0.9c0.3-1.8,0.9-3.4,1.7-4.8c0.8-1.4,1.7-2.6,2.7-3.6c1-1,2.2-1.8,3.4-2.3
			C24.5,0.3,25.8,0,27,0c1.5,0,2.6,0.3,3.3,0.9C31.1,1.5,31.5,2.3,31.5,3.3z"/>
	</g>
</g>
<g>
	<path d="M-2615.1,111.2l0.3-0.1l-0.2,0.8l-0.1,0c-0.4,0.2-0.7,0.3-0.9,0.3c-0.2,0.1-0.5,0.1-0.7,0.1c-0.4,0-0.7-0.1-0.9-0.3
		c-0.2-0.2-0.3-0.5-0.3-0.8c0-0.1,0-0.2,0-0.3c0-0.1,0-0.2,0.1-0.4l1.5-6.7c0,0,0-0.1,0-0.1c0-0.1,0-0.2,0-0.2c0,0-0.1-0.1-0.1-0.1
		c-0.1,0-0.2,0-0.3-0.1c-0.1,0-0.3,0-0.4,0l-0.2,0l0.2-0.7l2.5-0.2l0.2,0.2l-1.7,7.5c0,0.2-0.1,0.3-0.1,0.5c0,0.1,0,0.3,0,0.3
		c0,0.2,0,0.3,0.1,0.3c0,0,0.1,0.1,0.4,0.1c0.1,0,0.2,0,0.3,0C-2615.2,111.2-2615.1,111.2-2615.1,111.2z"/>
</g>
<g>
	<path d="M-2606.3,103.1c0,0.2,0,0.3-0.1,0.5c-0.1,0.1-0.3,0.2-0.5,0.2c-0.1,0-0.2,0-0.3-0.1c-0.1,0-0.2-0.1-0.2-0.2
		c-0.1-0.1-0.1-0.2-0.2-0.3c0,0,0-0.1-0.1-0.1c-0.1,0-0.3,0.1-0.4,0.3c-0.2,0.3-0.3,0.7-0.4,1.4l-0.1,0.3h1.2l-0.2,0.8h-1.2
		l-0.8,3.9c-0.2,0.7-0.5,1.4-1,1.8c-0.5,0.5-1.1,0.7-1.6,0.7c-0.3,0-0.6-0.1-0.7-0.2c-0.2-0.1-0.3-0.3-0.3-0.5
		c0-0.2,0.1-0.3,0.2-0.5c0.1-0.1,0.3-0.2,0.5-0.2c0.1,0,0.2,0,0.3,0.1c0.1,0.1,0.2,0.1,0.2,0.2c0,0.1,0.1,0.1,0.2,0.2l0.1,0.1
		c0.1,0,0.3-0.2,0.4-0.4c0.2-0.3,0.3-0.7,0.4-1.3l0.8-4h-0.9l0.2-0.8h0.9l0-0.2c0.1-0.4,0.2-0.7,0.4-1.1c0.2-0.3,0.4-0.6,0.6-0.8
		c0.2-0.2,0.5-0.4,0.8-0.5c0.3-0.1,0.6-0.2,0.8-0.2c0.3,0,0.6,0.1,0.7,0.2C-2606.4,102.7-2606.3,102.9-2606.3,103.1z"/>
</g>
</svg>
