<?xml version="1.0" encoding="utf-8"?>
<!-- Generator: Adobe Illustrator 27.1.0, SVG Export Plug-In . SVG Version: 6.00 Build 0)  -->
<svg version="1.1" id="Layer_1" xmlns="http://www.w3.org/2000/svg" xmlns:xlink="http://www.w3.org/1999/xlink" x="0px" y="0px"
	 viewBox="0 0 143.8 92.7" style="enable-background:new 0 0 143.8 92.7;" xml:space="preserve">
<style type="text/css">
	.st0{fill:#CE9462;}
	.st1{fill:#010101;}
</style>
<g id="hand">
	<path class="st0" d="M98.3,74c-7.1,0-14.2,0-21.3,0c-2.1,0-4.2-0.1-6.2-0.2c-4.4-0.4-8.5-1.5-12.1-3.5C50.5,65.8,45.9,58.8,45,49.4
		c-0.5-4.9,0.4-10,2.4-15.2c2.1-5.2,5.3-10,9.7-14.4c0.9-0.9,1.9-1.9,3.1-2.7c2.6-1.6,5.4-3.2,8-4.8c1-0.6,2-1.2,3-1.8l3.9-2.3
		c3.7-2.2,7.4-4.4,11.2-6.6C87,1.2,87.8,1,88.7,1c1.7,0,3.2,1,3.8,2.6c1.1,2.5,0.3,4.8-2.1,6.2c-3.6,2.1-7.2,4.3-10.9,6.4
		c-1.4,0.8-1.8,2.3-1.1,3.6c0.8,1.5,2.3,1.5,2.8,1.5c0,0,45,0,45,0c1.5,0,3.1,0,4.6,0c1.1,0,2.2,0.6,3.1,1.5c0.9,1,1.3,2.3,1.1,3.5
		c-0.4,2.5-2.2,4.1-4.6,4.1l-31,0c-0.6,0-1,0.4-1,1v3.3c0,0.6,0.4,1,1,1h38.8c2.8,0,4.8,1.9,4.8,4.6c0,1.3-0.5,2.4-1.3,3.2
		c-0.9,0.9-2.1,1.4-3.4,1.4H99.2c-0.6,0-1,0.4-1,1v3.3c0,0.6,0.4,1,1,1l20.8,0c3.7,0,7.4,0,11.1,0c1.6,0,3,0.7,3.9,1.9
		c0.9,1.2,1.1,2.6,0.7,4.1c-0.6,2-2.3,3.2-4.6,3.2l-31.9,0c-0.6,0-1,0.4-1,1v3.4c0,0.6,0.4,1,1,1l19.8,0c2.4,0,4.4,2,4.4,4.4
		c0,1.3-0.4,2.4-1.3,3.3c-0.9,0.9-2.1,1.4-3.4,1.4L98.3,74z"/>
	<path class="st1" d="M88.7,2c1.3,0,2.4,0.7,2.9,2c0.9,2.1,0.3,3.8-1.6,4.9c-3.6,2.1-7.2,4.3-10.9,6.4c-1.8,1.1-2.5,3.1-1.5,4.9
		c0.7,1.3,1.9,2,3.7,2c8,0,15.9,0,23.9,0l7.1,0l7.1,0l3.4,0l3.4,0c1.5,0,3,0,4.6,0c0.8,0,1.7,0.4,2.3,1.2c0.7,0.8,1,1.8,0.9,2.7
		c-0.3,2-1.7,3.3-3.7,3.3l-13.5,0l-8.3,0l-8.3,0h-0.9c-1.1,0-2,0.9-2,2v3.3c0,1.1,0.9,2,2,2h1l10.4,0l10.4,0l17.1,0
		c2.2,0,3.8,1.5,3.8,3.6c0,1-0.3,1.9-1,2.5c-0.7,0.7-1.6,1.1-2.7,1.1l-16.3,0l-10.9,0h-10.9h-0.9c-1.1,0-2,0.9-2,2v3.3
		c0,1.1,0.9,2,2,2h5.2h0.1l7.7,0l7.7,0c3.8,0,7.5,0,11.3,0c1.3,0,2.4,0.5,3.1,1.5c0.7,0.9,0.9,2.1,0.5,3.2c-0.5,1.6-1.8,2.5-3.6,2.5
		l-14.2,0l-8.4,0l-8.4,0h-0.3h-0.6c-1.1,0-2,0.9-2,2v3.4c0,1.1,0.9,2,2,2h0.8l5.5,0l5.5,0l8,0c1.8,0,3.4,1.6,3.4,3.5
		c0,1-0.3,1.9-1,2.6c-0.7,0.7-1.6,1.1-2.7,1.1l-6.1,0l-14.2,0c-7.1,0-14.3,0-21.4,0c-2.1,0-4.2-0.1-6.1-0.2
		c-4.3-0.4-8.3-1.5-11.7-3.4c-8-4.3-12.4-11.1-13.3-20.1c-0.5-4.8,0.3-9.6,2.4-14.7c2.1-5.1,5.2-9.7,9.4-14.1
		c0.9-0.9,1.9-1.9,2.9-2.5c2.6-1.6,5.3-3.2,8-4.8c1-0.6,2-1.2,3-1.8l3.9-2.3c3.7-2.2,7.5-4.4,11.2-6.6C87.4,2.2,88,2,88.7,2L88.7,2
		 M88.7,0c-1,0-2,0.3-2.9,0.8c-5,2.9-10.1,5.9-15.1,8.9c-3.7,2.2-7.4,4.3-11,6.5c-1.2,0.7-2.3,1.8-3.3,2.8
		c-4.2,4.3-7.6,9.1-9.9,14.8c-2,5-3,10.2-2.5,15.6c0.9,9.8,5.8,17.1,14.4,21.7c3.9,2.1,8.1,3.2,12.5,3.6c2.1,0.2,4.2,0.2,6.2,0.2
		c7.1,0,14.3,0,21.4,0c6.8,0,13.5,0,20.3,0c3.3,0,5.8-2.5,5.7-5.7c-0.1-3-2.5-5.4-5.4-5.4c-2.7,0-5.3,0-8,0c-3.7,0-7.3,0-11,0
		c-0.3,0-0.5,0-0.8,0c0-1.1,0-2.2,0-3.4c0.2,0,0.4,0,0.6,0c0.1,0,0.2,0,0.3,0c5.6,0,11.2,0,16.8,0c4.7,0,9.5,0,14.2,0
		c2.7,0,4.8-1.5,5.6-3.9c1.1-3.7-1.6-7.3-5.5-7.3c-3.8,0-7.5,0-11.3,0c-5.1,0-10.2,0-15.3,0c0,0,0,0-0.1,0c-1.7,0-3.5,0-5.2,0
		c0-1.1,0-2.2,0-3.3c0.3,0,0.6,0,0.9,0c7.2,0,14.5,0,21.7,0c5.4,0,10.9,0,16.3,0c3.3,0,5.7-2.4,5.7-5.6c0-3.2-2.5-5.6-5.8-5.6
		c-5.7,0-11.4,0-17.1,0c-6.9,0-13.9,0-20.8,0c-0.3,0-0.6,0-1,0c0-1.1,0-2.2,0-3.3c0.3,0,0.6,0,0.9,0c5.6,0,11.1,0,16.7,0
		c4.5,0,9,0,13.5,0c3,0,5.2-1.9,5.6-5c0.5-3.1-2.1-6.2-5.2-6.2c-1.5,0-3.1,0-4.6,0c-2.3,0-4.6,0-6.9,0c-4.7,0-9.5,0-14.2,0
		c-8,0-15.9,0-23.9,0c0,0,0,0,0,0c-0.8,0-1.5-0.2-1.9-0.9c-0.4-0.9-0.1-1.7,0.8-2.3c3.6-2.1,7.2-4.3,10.9-6.4
		c2.8-1.6,3.7-4.4,2.5-7.4C92.6,1.2,90.7,0,88.7,0L88.7,0z"/>
</g>
</svg>
