<?xml version="1.0" encoding="utf-8"?>
<svg version="1.1" id="Layer_1"
	xmlns="http://www.w3.org/2000/svg"
	xmlns:xlink="http://www.w3.org/1999/xlink" viewBox="0 0 200 350" xml:space="preserve">
	<style type="text/css">
	.st0{fill:#2E3192;}
	</style>
	<path fill="#2E3192" d="M142.1,89.7c32.6,34.3,55.4,112.3,14.7,113.4c1.2-20-10.8-42.2-28.8-52c-14.5-7.8-30-5.9-42.5,5.2
	c-11.8,12.1-14.3,27-6.9,41.3c9.7,18.6,33.4,31.5,54.3,29.7c-8,47.3-84.4,11.6-98.9-1.8l33.9-8.6c0,0-3.3-14.8-13.4-14
	c-13.3,1.2-54.4,14.4-54.4,14.4s7.4,42.6,12.5,54.9c4,9.3,18.6,5.4,18.6,5.4l-8.5-35.4c25.9,21.4,123.3,61.7,132.5-17.5
	c65.2-0.1,52.8-97.4,1.5-149.7c-4.4-4.4-9-4.6-13.8-0.8l0,0C138.9,77.5,138.4,85.7,142.1,89.7L142.1,89.7z M103.2,197.8
	c-6.3-6.3-13.2-20.9-5.1-29s22-1.2,28.6,5.4c6.6,6.6,12.6,14.6,11.8,27.1c-0.2,3-2.5,5.6-5.5,6.1
	C121.5,208.9,109.7,204.1,103.2,197.8L103.2,197.8z"/>
</svg>
