<?xml version="1.0" encoding="utf-8"?>
<svg version="1.1" id="Layer_1"
	xmlns="http://www.w3.org/2000/svg"
	xmlns:xlink="http://www.w3.org/1999/xlink" viewBox="0 0 200 350" xml:space="preserve">
	<style type="text/css">
	.st0{fill:#2E3192;}
	</style>
	<path fill="#2E3192" d="M153.2,321.4l-36.4-0.2c30.8-38.9,54.9-99.9,23.1-145.7c37.5-47.9,11.3-116.8-34.4-160.6
	c-2.4-2.5-8.4-6.1-14.3-1.5c-0.4,0.4-0.7,0.6-1,0.8c-4.6,4.6-2.4,11.6-0.4,14.8c46.3,51.7,57.8,93,36.1,130
	c-13.1-15.2-37.2-22.8-56.9-17.3c-15.9,4.6-25.6,16.8-26.9,33.4c-0.1,16.9,8.6,29.3,23.8,34.4c19.9,6.6,45.9-0.8,59.7-16.5
	c23.4,39.7-6.9,91.1-22.4,113.2l-0.2-35c0,0-15.1-0.3-16.8,9.7c-2.1,13.2,1,56.3,1,56.3s43.1,3,56.3,1
	C153.6,336.5,153.2,321.4,153.2,321.4L153.2,321.4z M81.9,192.5c-16.6-0.9-22.4-11.1-21.9-17.3c0.7-8.5,15.5-16.9,26.4-16.1
	c9.2,0.7,19,2.1,28.6,15.3C106.2,186.6,94.4,193.1,81.9,192.5L81.9,192.5z"/>
</svg>
