<?xml version="1.0" encoding="utf-8"?>
<!-- Generator: Adobe Illustrator 27.1.0, SVG Export Plug-In . SVG Version: 6.00 Build 0)  -->
<svg version="1.1" id="hoop" xmlns="http://www.w3.org/2000/svg" xmlns:xlink="http://www.w3.org/1999/xlink" x="0px" y="0px"
	 viewBox="0 0 616 316" style="enable-background:new 0 0 616 316;" xml:space="preserve">
<style type="text/css">
	.st2{fill:#DAB762;}
	.st3{fill:#231F20;}
</style>
		<path fill="#2E3192" d="M458,316c-87.1,0-158-70.9-158-158C300,70.9,370.9,0,458,0s158,70.9,158,158C616,245.1,545.1,316,458,316z
			 M458,16c-78.3,0-142,63.7-142,142s63.7,142,142,142s142-63.7,142-142S536.3,16,458,16z"/>

		<path fill="none" d="M158,316C70.9,316,0,245.1,0,158C0,70.9,70.9,0,158,0s158,70.9,158,158C316,245.1,245.1,316,158,316z M158,16
			C79.7,16,16,79.7,16,158s63.7,142,142,142s142-63.7,142-142S236.3,16,158,16z"/>

		<path class="st2" d="M310.8,181.5c-4.5,0-9,0-13.6,0c-1.4,0-2.7-0.1-4-0.2c-2.9-0.2-5.5-1-7.8-2.2c-5.3-2.9-8.3-7.4-8.9-13.5
			c-0.3-3.2,0.2-6.5,1.6-9.8c1.4-3.4,3.4-6.4,6.2-9.3c0.6-0.6,1.3-1.3,2-1.7c1.7-1,3.4-2.1,5.1-3l1.9-1.1l2.5-1.4
			c2.4-1.4,4.8-2.8,7.2-4.2c0.5-0.3,1.1-0.5,1.6-0.5c1.1,0,2.1,0.7,2.6,1.8c0.7,1.7,0.2,3.2-1.4,4.1c-2.3,1.4-4.6,2.7-7,4.1
			c-0.8,0.5-1.1,1.3-0.7,2.1c0.4,0.8,1.1,0.9,1.6,0.9l28.8,0c1,0,2,0,2.9,0c0.8,0,1.5,0.4,2.1,1c0.6,0.7,0.9,1.5,0.7,2.4
			c-0.2,1.7-1.4,2.8-3.1,2.8l-20.4,0v3.1l25.3,0c1.8,0,3.2,1.3,3.2,3.1c0,0.8-0.3,1.6-0.9,2.2c-0.6,0.6-1.4,0.9-2.3,0.9H311v3.1
			l20.9,0c1.1,0,2,0.5,2.6,1.3c0.6,0.8,0.7,1.8,0.5,2.7c-0.4,1.3-1.6,2.2-3.1,2.2l-20.9,0v3.2l13.2,0c1.6,0,2.9,1.3,3,3
			c0,0.8-0.3,1.6-0.9,2.2c-0.6,0.6-1.4,0.9-2.3,0.9L310.8,181.5z"/>
		<path class="st3" d="M304.7,135c0.9,0,1.8,0.6,2.1,1.5c0.6,1.5,0.2,2.7-1.2,3.5c-2.3,1.4-4.6,2.7-7,4.1c-1,0.6-1.4,1.8-0.9,2.8
			c0.4,0.8,1.1,1.1,2.1,1.1c5.1,0,10.2,0,15.3,0l4.5,0l4.5,0l2.2,0l2.2,0c1,0,2,0,2.9,0c0.6,0,1.2,0.3,1.7,0.8
			c0.5,0.6,0.7,1.3,0.6,2c-0.2,1.4-1.2,2.3-2.6,2.3l-8.6,0l-5.4,0l-5.4,0h-0.6h-1v1v2.1v1h1h0.6l6.9,0l6.9,0l10.5,0
			c1.6,0,2.7,1.1,2.7,2.6c0,0.7-0.3,1.4-0.7,1.8c-0.5,0.5-1.2,0.8-1.9,0.8l-10.4,0H319l-6.9,0h-0.6h-1v1v2.1v1h1h3.4l4.9,0l4.9,0
			c2.4,0,4.8,0,7.2,0c0.9,0,1.7,0.4,2.2,1.1c0.5,0.6,0.6,1.5,0.4,2.3c-0.3,1.1-1.3,1.8-2.6,1.8l-9.1,0l-5.4,0l-5.4,0h-0.6h-1v1v2.2
			v1h1h0.5l3.5,0l3.5,0l5.1,0c1.3,0,2.4,1.1,2.5,2.5c0,0.7-0.2,1.4-0.7,1.9c-0.5,0.5-1.2,0.8-1.9,0.8l-3.9,0l-9,0
			c-4.6,0-9.1,0-13.7,0c-1.4,0-2.7-0.1-3.9-0.2c-2.8-0.2-5.4-1-7.6-2.2c-5.2-2.8-8.1-7.2-8.7-13.1c-0.3-3.1,0.2-6.2,1.5-9.5
			c1.3-3.3,3.3-6.3,6.1-9.1c0.6-0.6,1.2-1.2,1.9-1.6c1.7-1,3.4-2.1,5.1-3.1c0.6-0.4,1.3-0.8,1.9-1.1l2.5-1.5
			c2.4-1.4,4.8-2.8,7.2-4.2C303.8,135.1,304.2,135,304.7,135 M304.7,134c-0.6,0-1.3,0.2-1.9,0.5c-3.2,1.9-6.4,3.8-9.7,5.7
			c-2.4,1.4-4.7,2.7-7.1,4.2c-0.8,0.5-1.5,1.1-2.1,1.8c-2.7,2.7-4.9,5.8-6.3,9.5c-1.3,3.2-1.9,6.5-1.6,10c0.6,6.3,3.7,10.9,9.2,13.9
			c2.5,1.3,5.2,2.1,8,2.3c1.3,0.1,2.7,0.2,4,0.2c4.6,0,9.1,0,13.7,0c4.3,0,8.7,0,13,0c2.1,0,3.7-1.6,3.6-3.7c0-1.9-1.6-3.5-3.5-3.5
			c-1.7,0-3.4,0-5.1,0c-2.3,0-4.7,0-7,0c-0.2,0-0.3,0-0.5,0c0-0.7,0-1.4,0-2.2c0.2,0,0.4,0,0.6,0c3.6,0,7.2,0,10.7,0
			c3,0,6.1,0,9.1,0c1.7,0,3.1-1,3.6-2.5c0.7-2.4-1-4.6-3.5-4.6c-2.4,0-4.8,0-7.2,0c-3.3,0-6.6,0-9.8,0c0,0,0,0,0,0
			c-1.1,0-2.2,0-3.4,0c0-0.7,0-1.4,0-2.1c0.2,0,0.4,0,0.6,0c4.6,0,9.3,0,13.9,0c3.5,0,6.9,0,10.4,0c2.1,0,3.7-1.5,3.7-3.6
			c0-2-1.6-3.6-3.7-3.6c-3.5,0-7,0-10.5,0c-4.6,0-9.1,0-13.7,0c-0.2,0-0.4,0-0.6,0c0-0.7,0-1.4,0-2.1c0.2,0,0.4,0,0.6,0
			c3.6,0,7.1,0,10.7,0c2.9,0,5.7,0,8.6,0c1.9,0,3.3-1.2,3.6-3.2c0.3-2-1.3-4-3.3-4c-1,0-2,0-2.9,0c-1.5,0-2.9,0-4.4,0
			c-3,0-6.1,0-9.1,0c-5.1,0-10.2,0-15.3,0c0,0,0,0,0,0c-0.5,0-0.9-0.1-1.2-0.6c-0.3-0.5-0.1-1.1,0.5-1.5c2.3-1.4,4.6-2.7,7-4.1
			c1.8-1.1,2.4-2.8,1.6-4.8C307.2,134.7,306,134,304.7,134L304.7,134z"/>
</svg>
