<?xml version="1.0" encoding="utf-8"?>
<!-- Generator: Adobe Illustrator 27.1.0, SVG Export Plug-In . SVG Version: 6.00 Build 0)  -->
<svg version="1.1" id="minihoop" xmlns="http://www.w3.org/2000/svg" xmlns:xlink="http://www.w3.org/1999/xlink" x="0px" y="0px"
	 viewBox="0 0 616 316" style="enable-background:new 0 0 616 316;" xml:space="preserve">
<style type="text/css">
	.st0{fill:#2E3192;}
	.st1{fill:none;}
</style>
<path class="st0" d="M458,316c-87.1,0-158-70.9-158-158S370.9,0,458,0s158,70.9,158,158S545.1,316,458,316z M458,16
	c-78.3,0-142,63.7-142,142s63.7,142,142,142s142-63.7,142-142S536.3,16,458,16z"/>
<path class="st1" d="M158,316C70.9,316,0,245.1,0,158S70.9,0,158,0s158,70.9,158,158S245.1,316,158,316z M158,16
	C79.7,16,16,79.7,16,158s63.7,142,142,142s142-63.7,142-142S236.3,16,158,16z"/>
</svg>
