<?xml version="1.0" encoding="utf-8"?>
<!-- Generator: Adobe Illustrator 27.1.0, SVG Export Plug-In . SVG Version: 6.00 Build 0)  -->
<svg version="1.1" id="bigtriad" xmlns="http://www.w3.org/2000/svg" xmlns:xlink="http://www.w3.org/1999/xlink" x="0px" y="0px"
	 viewBox="0 0 600 525.3" style="enable-background:new 0 0 600 525.3;" xml:space="preserve">
<style type="text/css">
	.st1{fill:none;}
	.st0{fill:#2E3192;}
</style>
<g>
	<path class="st1" d="M0.1,261.1V261c0.1-9.6,7.9-17.5,17.5-17.5l2.3,0l263.2,0.1h6l3-5.2L424.5,8.7c3.1-5.3,8.9-8.7,15.2-8.7
		c3,0,6,0.8,8.6,2.3l2.9,1.7c4,2.3,6.8,6,8.1,10.5c1.2,4.5,0.6,9.2-1.7,13.3L324.8,257.6l-3,5.2l3,5.2l132.5,229.8l0,0.1l0,0.1
		c2.2,3.8,2.8,8.3,1.7,12.8c-1.2,4.5-4.1,8.4-8,10.7l-0.1,0.1l-0.1,0.1l-2.8,1.7c-2.6,1.4-5.5,2.2-8.4,2.2c-6.3,0-12.1-3.3-15.3-8.7
		L291.8,286.6l-3-5.2l-6,0l-265.3,0.3c-9.3-0.1-17.2-8.1-17.5-17.4L0.1,261.1z"/>
	<g>
		<path class="st0" d="M142.7,27.7c-4.5-8.1-1.6-19,6.3-23.8l2.8-1.5l0.1,0l0.1,0c2.6-1.5,5.6-2.3,8.7-2.3c6.3,0,12.1,3.3,15.2,8.6
			l132.7,230l3,5.2h271.1c9.6,0,17.4,7.8,17.4,17.4v3.3c0,9.6-7.8,17.4-17.4,17.4H311.2l-3,5.2L175.5,516.7l0,0.1l0,0.1
			c-2.9,5.2-8.7,8.5-15,8.5c-3,0-5.9-0.8-8.5-2.2l-0.1-0.1l-0.1-0.1l-2.9-1.6c-8.1-4.8-10.9-15.5-6.3-23.8l132.9-229.9l3-5.2l-3-5.2
			L142.7,27.7z"/>
	</g>
</g>
</svg>
