<?xml version="1.0" encoding="utf-8"?>
<!-- Generator: Adobe Illustrator 27.1.0, SVG Export Plug-In . SVG Version: 6.00 Build 0)  -->
<svg version="1.1" id="Layer_2_00000076579043315778404160000000526771150963367302_"
	 xmlns="http://www.w3.org/2000/svg" xmlns:xlink="http://www.w3.org/1999/xlink" x="0px" y="0px" viewBox="0 0 259.8 133.1"
	 style="enable-background:new 0 0 259.8 133.1;" xml:space="preserve">
<style type="text/css">
	.st0{fill:#2E3192;}
</style>
<g id="Layer_1-2">
	<path class="st0" d="M191.7,133.1c-8.1,0-16.1-1.4-24-4.1c-20.2-7.1-35.7-22.1-42.1-41.1c-0.2-0.9-1-4.1-2.8-11.4l-2.3-10
		c-0.6-2.4-1-4.2-1.2-4.7C112.1,36.9,84.9,20,60,25.2c-22.2,2.8-40.7,19-46.1,40.4l-0.2,1.3c-0.7,1.5-1.6,3.7-4,4.9
		C8,72.4,6.3,72.6,4.6,72C0,70.3,0,65.3,0,63.5c0-3,0.5-7,1.5-12.4C6.8,33.1,18.3,18.3,33.2,10C50-0.8,71.5-3,92,4.1
		c20.2,7,35.5,22,42.1,41.1c0.6,1.7,1.8,7.2,3.7,15.4c0.5,2.2,0.9,4.3,1.4,6.1c0.4,1.6,0.7,2.9,0.8,3.7l0.2,0.8
		c7.4,25,34.7,41.8,59.7,36.7c22.1-2.8,40.4-19.1,45.9-40.5l0.5-1.3c0.2-0.8,1.1-3.6,4-4.8c1.6-0.7,3.3-0.8,5.1-0.1
		c5.9,2.4,4.9,10,3,20.6l-0.1,0.7c-5.1,17.5-16.7,32.3-31.6,40.6C216.3,129.6,204.2,133,191.7,133.1L191.7,133.1z"/>
</g>
</svg>
