<?xml version="1.0" encoding="UTF-8"?>
<svg id="Layer_2" data-name="Layer 2" xmlns="http://www.w3.org/2000/svg" viewBox="0 0 259.78 133.05">
  <defs>
    <style>
      .st0 {
        fill: #2e3192;
      }
    </style>
  </defs>
  <g id="Layer_1-2" data-name="Layer 1">
    <path class="st0" d="m191.7,133.05c-8.05,0-16.1-1.38-24.03-4.14-20.24-7.13-35.65-22.08-42.09-41.06-.23-.92-1.03-4.14-2.76-11.39l-2.3-10c-.57-2.41-1.03-4.25-1.15-4.71-7.25-24.84-34.5-41.75-59.34-36.57-22.19,2.76-40.71,18.97-46.12,40.37l-.23,1.26c-.69,1.5-1.61,3.68-4.03,4.94-1.61.69-3.33.81-5.06.23-4.6-1.73-4.6-6.67-4.6-8.51,0-2.99.46-7.02,1.5-12.42C6.78,33.11,18.28,18.28,33.24,10,50.02-.81,71.53-3,92,4.13c20.24,7.01,35.53,21.97,42.09,41.06.57,1.73,1.84,7.25,3.68,15.41.46,2.19.92,4.25,1.38,6.09.35,1.61.69,2.88.81,3.68l.23.81c7.36,24.95,34.73,41.75,59.69,36.69,22.08-2.76,40.37-19.09,45.88-40.48l.46-1.26c.23-.81,1.15-3.56,4.03-4.83,1.61-.69,3.33-.81,5.06-.12,5.86,2.41,4.94,10,2.99,20.58l-.11.69c-5.06,17.48-16.68,32.31-31.63,40.6-10.24,6.56-22.31,10-34.85,10Z"/>
  </g>
</svg>