<?xml version="1.0" encoding="utf-8"?>
<svg version="1.1" id="Layer_1"
	xmlns="http://www.w3.org/2000/svg"
	xmlns:xlink="http://www.w3.org/1999/xlink" viewBox="0 0 300 150" style="enable-background:new 0 0 300 150;" xml:space="preserve">
	<style type="text/css">
	.st0{fill:#2C2F8B;}
	</style>
	<g>
		<path fill="#2E3191" d="M292.2,66.6c-15.4-1.2-28.7-7.9-39.7-18.7c-11-10.8-17.7-25.1-19-40.2c-0.4-4.3-4.1-7.7-8.6-7.7
		c-4.4,0-8.1,3.4-8.5,7.7c-2.8,33.2-32.6,59.2-66.4,59.2h0c-33.8,0-63.6-26-66.4-59.2C83.2,3.4,79.5,0,75.1,0
		c-4.5,0-8.2,3.4-8.6,7.7c-1.3,15.1-8,29.4-19,40.2c-11,10.8-24.3,17.4-39.7,18.7C3.4,67,0,70.6,0,75c0,0,0,0,0,0s0,0,0,0
		c0,4.3,3.4,8,7.8,8.4c15.4,1.2,28.7,7.9,39.7,18.7c11,10.8,17.7,25.1,19,40.2c0.4,4.3,4.1,7.7,8.6,7.7c4.4,0,8.1-3.4,8.5-7.7
		c2.8-33.2,32.6-59.2,66.4-59.2h0c33.8,0,63.6,26,66.4,59.2c0.4,4.3,4.1,7.7,8.5,7.7c4.5,0,8.2-3.4,8.6-7.7c1.3-15.1,8-29.4,19-40.2
		c11-10.8,24.3-17.4,39.7-18.7c4.4-0.4,7.8-4,7.8-8.4c0,0,0,0,0,0s0,0,0,0C300,70.6,296.6,67,292.2,66.6z M75,112.4
		c-4-8.1-9.3-15.4-15.8-21.9C52.7,84.1,45.2,78.9,37,75c8.2-3.9,15.6-9.1,22.2-15.6C65.7,53,71,45.7,75,37.6
		C83,53.8,96.5,67.1,113,75C96.5,82.9,83,96.2,75,112.4z M240.8,90.6c-6.5,6.4-11.8,13.8-15.8,21.9C217,96.2,203.5,82.9,187,75
		c16.4-7.9,29.9-21.2,37.9-37.4c4,8.1,9.3,15.4,15.8,21.9c6.5,6.4,14,11.6,22.2,15.6C254.8,78.9,247.3,84.1,240.8,90.6z"/>
	</g>
</svg>
