<?xml version="1.0" encoding="utf-8"?>
<!-- Generator: Adobe Illustrator 27.1.0, SVG Export Plug-In . SVG Version: 6.00 Build 0)  -->
<svg version="1.1" id="Layer_2_00000132047937408295612930000009781182997869612199_"
	 xmlns="http://www.w3.org/2000/svg" xmlns:xlink="http://www.w3.org/1999/xlink" x="0px" y="0px" viewBox="0 0 258.6 244.9"
	 style="enable-background:new 0 0 258.6 244.9;" xml:space="preserve">
<style type="text/css">
	.st0{fill:#2E3192;}
	.st1{fill:none;}
</style>
<g id="Layer_1-2">
	<g>
		<path class="st0" d="M191.4,243.4c2.7-1.7,66.7-42.9,67.2-121c-0.5-78.1-64.5-119.3-67.2-121c-2.3-1.4-4.3-1.8-6.1-1.1
			c-3.2,1.3-4.4,5.6-5.6,9.8c-0.2,0.7-0.4,1.5-0.6,2.2c-1.8,6-13.2,32-17.7,41.2c-2.9,5.9-11.4,21.8-29.1,44c-0.8,0-1.7,0-2.3,0.1
			h-1.6c-13.9,1.3-23.6,11.4-23.6,24.8s9.7,23.5,23.6,24.8h1.6c0.6,0.1,1.5,0.1,2.3,0.1c17.7,22.2,26.2,38.1,29.1,44
			c4.5,9.2,15.9,35.2,17.7,41.2c0.2,0.7,0.4,1.5,0.6,2.2c1.2,4.2,2.4,8.5,5.6,9.8C187.1,245.2,189.1,244.8,191.4,243.4L191.4,243.4z
			 M164.4,78.4c4.8-7.6,8.8-14.6,10.3-17.6c3.6-7.3,14.2-30.2,18.1-40.2c7.6,6.1,19.7,17.2,30,33.2l-73.1,46
			C154.1,94.2,159.7,86,164.4,78.4L164.4,78.4z M230.2,66.4c7.9,15.7,12.5,32,13.6,48.7h-90.7c-0.1-0.1-0.1-0.1-0.1-0.2L230.2,66.4z
			 M120.3,132.1c-1.1-1.1-2-2.4-2.8-4.1c-0.6-1.4-0.9-3.2-0.9-4.9v-1.4c0-1.7,0.3-3.5,0.9-4.9c0.8-1.7,1.7-3,2.8-4.1
			c2.3-2.4,5.5-3.7,9-3.7c3.5,0,6.6,1.3,9,3.8c1.2,1.1,2.2,2.4,2.8,4.1c0.6,1.3,1,3.1,1,4.8v1.4c0,1.7-0.4,3.5-1,4.8
			c-0.6,1.7-1.6,3-2.8,4.1c-2.4,2.5-5.5,3.8-9,3.8S122.6,134.5,120.3,132.1L120.3,132.1z M153,129.9c0-0.1,0-0.1,0.1-0.2h90.7
			c-1.1,16.7-5.7,33-13.6,48.7L153,129.9z M174.7,184c-1.5-3-5.5-10-10.3-17.6c-4.7-7.6-10.3-15.8-14.7-21.4l73.1,46
			c-10.3,16-22.4,27.1-30,33.2C188.9,214.2,178.3,191.3,174.7,184L174.7,184z"/>
		<path class="st1" d="M73.3,244.5c3.2-1.3,4.4-5.6,5.6-9.8c0.2-0.7,0.4-1.5,0.6-2.2c1.8-6,13.2-32,17.7-41.2
			c2.9-5.9,11.4-21.8,29.1-44c0.8,0,1.7,0,2.3-0.1h1.6c13.9-1.3,23.6-11.4,23.6-24.8s-9.7-23.5-23.6-24.8h-1.6
			c-0.6-0.1-1.5-0.1-2.3-0.1c-17.7-22.2-26.2-38.1-29.1-44c-4.5-9.2-15.9-35.2-17.7-41.2c-0.2-0.7-0.4-1.5-0.6-2.2
			c-1.2-4.2-2.4-8.5-5.6-9.8c-1.8-0.7-3.8-0.3-6.1,1.1C64.5,3.1,0.5,44.3,0,122.4c0.5,78.1,64.5,119.3,67.2,121
			C69.5,244.8,71.5,245.2,73.3,244.5L73.3,244.5z M108.9,99.8l-73.1-46c10.3-16,22.4-27.1,30-33.2c3.9,10,14.5,32.9,18.1,40.2
			c1.5,3,5.5,10,10.3,17.6C98.9,86,104.5,94.2,108.9,99.8z M105.6,114.9c0,0.1,0,0.1-0.1,0.2H14.8c1.1-16.7,5.7-33,13.6-48.7
			C28.4,66.4,105.6,114.9,105.6,114.9z M129.3,135.8c-3.5,0-6.6-1.3-9-3.8c-1.2-1.1-2.2-2.4-2.8-4.1c-0.6-1.3-1-3.1-1-4.8v-1.4
			c0-1.7,0.4-3.5,1-4.8c0.6-1.7,1.6-3,2.8-4.1c2.4-2.5,5.5-3.8,9-3.8s6.7,1.3,9,3.7c1.1,1.1,2,2.4,2.8,4.1c0.6,1.4,0.9,3.2,0.9,4.9
			c0,0.2,0,1.2,0,1.4c0,1.7-0.3,3.5-0.9,4.9c-0.8,1.7-1.7,3-2.8,4.1C136,134.5,132.8,135.8,129.3,135.8L129.3,135.8z M28.4,178.4
			c-7.9-15.7-12.5-32-13.6-48.7h90.7c0.1,0.1,0.1,0.1,0.1,0.2L28.4,178.4z M65.8,224.2c-7.6-6.1-19.7-17.2-30-33.2l73.1-46
			c-4.4,5.6-10,13.8-14.7,21.4C89.4,174,85.4,181,83.9,184C80.3,191.3,69.7,214.2,65.8,224.2z"/>
	</g>
</g>
</svg>
