<?xml version="1.0" encoding="UTF-8"?>
<svg id="Layer_2" data-name="Layer 2" xmlns="http://www.w3.org/2000/svg" viewBox="0 0 258.6 244.87">
  <defs>
    <style>
      ..st0 {
        fill: #2e3192;
      }

      .transparent {
        fill: none;
      }
    </style>
  </defs>
  <g id="Layer_1-2" data-name="Layer 1">
    <g>
      <path class=".st0" d="m191.4,243.44c2.7-1.7,66.7-42.9,67.2-121-.5-78.1-64.5-119.3-67.2-121-2.3-1.4-4.3-1.8-6.1-1.1-3.2,1.3-4.4,5.6-5.6,9.8-.2.7-.4,1.5-.6,2.2-1.8,6-13.2,32-17.7,41.2-2.9,5.9-11.4,21.8-29.1,44-.8,0-1.7,0-2.3.1h-1.6c-13.9,1.3-23.6,11.4-23.6,24.8s9.7,23.5,23.6,24.8h1.6c.6.1,1.5.1,2.3.1,17.7,22.2,26.2,38.1,29.1,44,4.5,9.2,15.9,35.2,17.7,41.2.2.7.4,1.5.6,2.2,1.2,4.2,2.4,8.5,5.6,9.8,1.8.7,3.8.3,6.1-1.1Zm-27-165c4.8-7.6,8.8-14.6,10.3-17.6,3.6-7.3,14.2-30.2,18.1-40.2,7.6,6.1,19.7,17.2,30,33.2l-73.1,46c4.4-5.6,10-13.8,14.7-21.4Zm65.8-12c7.9,15.7,12.5,32,13.6,48.7h-90.7q-.1-.1-.1-.2l77.2-48.5Zm-109.9,65.7c-1.1-1.1-2-2.4-2.8-4.1-.6-1.4-.9-3.2-.9-4.9v-1.4c0-1.7.3-3.5.9-4.9.8-1.7,1.7-3,2.8-4.1,2.3-2.4,5.5-3.7,9-3.7s6.6,1.3,9,3.8c1.2,1.1,2.2,2.4,2.8,4.1.6,1.3,1,3.1,1,4.8v1.4c0,1.7-.4,3.5-1,4.8-.6,1.7-1.6,3-2.8,4.1-2.4,2.5-5.5,3.8-9,3.8s-6.7-1.3-9-3.7Zm32.7-2.2q0-.1.1-.2h90.7c-1.1,16.7-5.7,33-13.6,48.7l-77.2-48.5Zm21.7,54.1c-1.5-3-5.5-10-10.3-17.6-4.7-7.6-10.3-15.8-14.7-21.4l73.1,46c-10.3,16-22.4,27.1-30,33.2-3.9-10-14.5-32.9-18.1-40.2Z"/>
      <path class="transparent" d="m73.3,244.54c3.2-1.3,4.4-5.6,5.6-9.8.2-.7.4-1.5.6-2.2,1.8-6,13.2-32,17.7-41.2,2.9-5.9,11.4-21.8,29.1-44,.8,0,1.7,0,2.3-.1h1.6c13.9-1.3,23.6-11.4,23.6-24.8,0-13.4-9.7-23.5-23.6-24.8h-1.6c-.6-.1-1.5-.1-2.3-.1-17.7-22.2-26.2-38.1-29.1-44-4.5-9.2-15.9-35.2-17.7-41.2-.2-.7-.4-1.5-.6-2.2-1.2-4.2-2.4-8.5-5.6-9.8-1.8-.7-3.8-.3-6.1,1.1C64.5,3.14.5,44.34,0,122.44c.5,78.1,64.5,119.3,67.2,121,2.3,1.4,4.3,1.8,6.1,1.1Zm35.6-144.7L35.8,53.84c10.3-16,22.4-27.1,30-33.2,3.9,10,14.5,32.9,18.1,40.2,1.5,3,5.5,10,10.3,17.6,4.7,7.6,10.3,15.8,14.7,21.4Zm-3.3,15.1q0,.1-.1.2H14.8c1.1-16.7,5.7-33,13.6-48.7l77.2,48.5Zm23.7,20.9c-3.5,0-6.6-1.3-9-3.8-1.2-1.1-2.2-2.4-2.8-4.1-.6-1.3-1-3.1-1-4.8v-1.4c0-1.7.4-3.5,1-4.8.6-1.7,1.6-3,2.8-4.1,2.4-2.5,5.5-3.8,9-3.8,3.5,0,6.7,1.3,9,3.7,1.1,1.1,2,2.4,2.8,4.1.6,1.4.9,3.2.9,4.9,0,.2,0,1.2,0,1.4,0,1.7-.3,3.5-.9,4.9-.8,1.7-1.7,3-2.8,4.1-2.3,2.4-5.5,3.7-9,3.7Zm-100.9,42.6c-7.9-15.7-12.5-32-13.6-48.7h90.7q.1.1.1.2l-77.2,48.5Zm37.4,45.8c-7.6-6.1-19.7-17.2-30-33.2l73.1-46c-4.4,5.6-10,13.8-14.7,21.4-4.8,7.6-8.8,14.6-10.3,17.6-3.6,7.3-14.2,30.2-18.1,40.2Z"/>
    </g>
  </g>
</svg>