<?xml version="1.0" encoding="UTF-8"?>
<svg id="Layer_2" data-name="Layer 2" xmlns="http://www.w3.org/2000/svg" viewBox="0 0 257.28 137.09">
  <defs>
    <style>
      .st0 {
        fill: #2e3192;
        stroke: #2e3192;
        stroke-miterlimit: 10;
        stroke-width: .5px;
      }

      .transparent {
        fill: none;
      }
    </style>
  </defs>
  <g id="Layer_1-2" data-name="Layer 1">
    <g>
      <path class=".st0" d="m188.73,136.75c37.7,0,68.3-30.6,68.3-68.2,0-37.7-30.6-68.3-68.3-68.3-37.6,0-68.2,30.6-68.2,68.3,0,37.6,30.6,68.2,68.2,68.2Zm0-120.5c28.9,0,52.3,23.4,52.3,52.3,0,28.8-23.4,52.2-52.3,52.2-28.8,0-52.2-23.4-52.2-52.2,0-28.9,23.4-52.3,52.2-52.3Z"/>
      <path class="transparent" d="m68.3.59C30.6.59,0,31.19,0,68.79c0,37.7,30.6,68.3,68.3,68.3,37.6,0,68.2-30.6,68.2-68.3,0-37.6-30.6-68.2-68.2-68.2Zm0,120.5c-28.9,0-52.3-23.4-52.3-52.3,0-28.8,23.4-52.2,52.3-52.2,28.8,0,52.2,23.4,52.2,52.2,0,28.9-23.4,52.3-52.2,52.3Z"/>
    </g>
  </g>
</svg>