<?xml version="1.0" encoding="UTF-8"?>
<svg id="Layer_2" data-name="Layer 2" xmlns="http://www.w3.org/2000/svg" viewBox="0 0 248.76 219.09">
  <defs>
    <style>
      ..st0 {
        fill: #2e3192;
        stroke: #2e3192;
        stroke-miterlimit: 10;
        stroke-width: .5px;
      }

      .transparent {
        fill: none;
      }
    </style>
  </defs>
  <g id="Layer_1-2" data-name="Layer 1">
    <g>
      <path class=".st0" d="m78.12,5.76l53.13,92.07h106.15c6.16,0,11.11,5.06,11.11,11.11v1.32c0,6.05-4.95,11.11-11.11,11.11h-106.26s-53.13,91.96-53.13,91.96c-2.97,5.28-9.9,7.04-15.07,4.07l-1.21-.66c-5.28-3.08-7.04-9.9-4.07-15.18l53.24-92.07L57.66,17.53c-2.97-5.28-1.1-12.1,4.07-15.18l1.21-.66c5.28-2.97,12.1-1.21,15.18,4.07Z"/>
      <path class="transparent" d="m11.15,97.72l106.3.02L170.52,5.82c3.08-5.33,9.94-7.09,15.18-4.07l1.14.66c5.24,3.02,7.15,9.84,4.07,15.18l-53.13,92.02,53.07,91.99c3.09,5.21,1.15,12.09-4.01,15.09l-1.18.72c-5.31,3.03-12.09,1.15-15.18-4.07l-53.11-92.14-106.26.13c-6.06-.07-11.03-5.1-11.11-11.11l.03-1.38c.07-6.06,5-11.08,11.11-11.11Z"/>
    </g>
  </g>
</svg>