<?xml version="1.0" encoding="UTF-8"?>
<svg id="Layer_2" data-name="Layer 2" xmlns="http://www.w3.org/2000/svg" viewBox="0 0 74.98 99.96">
  <defs>
    <style>
      .cls-1 {
        fill: #231f20;
      }
    </style>
  </defs>
  <g id="Layer_1-2" data-name="Layer 1">
    <path class="cls-1" d="m74.12,90.1c-8.8-29.9-23.1-68.4-24.8-73.1-1.8-4.6-7.8-17-11.8-17s-10.1,12.4-11.9,17c-1.7,4.7-16,43.2-24.7,73.1-2.4,8.4.5,9.1,1.7,9.4,16.1,2.1,13.2-3,15.7-14,2.3-10,2.2-14.6,10-14.6,3.8,0,5.6.1,9.2.1s5.3-.1,9.1-.1c7.8,0,7.7,4.6,10,14.6,2.5,11-.4,16.1,15.7,14,1.2-.3,4.1-1,1.8-9.4Zm-29.1-33.7h-15.1c-1.4,0-2.3-.7-1.9-2.3l9.5-34.5,9.4,34.5c.4,1.6-.5,2.3-1.9,2.3Z"/>
  </g>
</svg>