<?xml version="1.0" encoding="UTF-8"?>
<svg id="Layer_2" data-name="Layer 2" xmlns="http://www.w3.org/2000/svg" viewBox="0 0 72.93 100">
  <defs>
    <style>
      .cls-1 {
        fill: #231f20;
      }
    </style>
  </defs>
  <g id="Layer_1-2" data-name="Layer 1">
    <path class="cls-1" d="m72.41,76.34c-2.48,11.88-14.46,23.66-32.38,23.66h-1.09c-10-.4-27.82-2.57-35.15-12.48-3.86-5.25-4.65-11.29-1.88-14.36,2.38-2.67,6.83-2.38,12.28.79,10.79,10.59,25.25,10.79,34.16,6.44,5.25-2.57,8.22-6.54,7.72-10.3-.3-3.27-3.56-9.41-21.19-13.47C9.93,50.99-.66,36.83.03,25.25.63,14.95,10.43,2.87,35.97.1c.69-.1,1.29-.1,1.98-.1,10.79,0,26.63,8.32,29.6,15.94,1.29,3.17.4,5.94-2.57,8.22-1.88,1.39-5.94-.49-10.99-2.97-4.75-2.28-10.1-4.85-15.15-5.55-1.39-.2-2.67-.3-3.96-.3-9.51,0-16.83,4.75-18.22,9.9-1.29,4.65,2.28,9.01,9.6,11.98l29.9,12.08c14.95,6.24,18.22,18.02,16.24,27.03Z"/>
  </g>
</svg>