<?xml version="1.0" encoding="UTF-8"?>
<svg id="Layer_2" data-name="Layer 2" xmlns="http://www.w3.org/2000/svg" viewBox="0 0 76.79 100">
  <defs>
    <style>
      .cls-1 {
        fill: #231f20;
      }
    </style>
  </defs>
  <g id="Layer_1-2" data-name="Layer 1">
    <path class="cls-1" d="m76.02,13.49c-.59,2.94-19.69,55.35-30.18,79.36-3.23,7.25-6.07,7.15-7.45,7.15s-4.21.1-7.45-7.15C20.47,68.84,1.36,16.43.77,13.49-1.48,3.5,1.56,1.93,5.18.46c2.84-1.27,8.62-.2,11.17,6.96,1.57,4.21,22.04,58.59,22.04,58.59,0,0,20.48-54.37,22.04-58.59C62.98.26,68.77-.81,71.61.46c3.62,1.47,6.66,3.04,4.41,13.03Z"/>
  </g>
</svg>