<?xml version="1.0" encoding="UTF-8"?>
<svg id="Layer_1" data-name="Layer 1" xmlns="http://www.w3.org/2000/svg" viewBox="0 0 211.03 202.15">
  <defs>
    <style>
      .cls-1 {
        fill: #2e3192;
      }
    </style>
  </defs>
  <path d="m30.89,31.88c.52,4.41-1.13,7.98-4.87,10.65-1.85,1.3-4.02,2.15-6.44,2.47-1.45.24-2.69.36-3.86.32-3.86,0-7.04-.89-9.65-2.67-2.9-2.03-4.75-4.33-5.75-7.17-.08-.24-.2-.49-.24-.73-.08-.2-.12-.45,0-.69.16-.24.4-.32.6-.36l6.84-1.7.12.32c.08.24.2.49.28.69.2.53.36.97.6,1.42,1.25,2.51,3.22,3.85,6.03,4.09,1.89.2,3.38,0,4.71-.61,1.69-.77,2.74-1.82,3.14-3.28.56-1.94.08-3.77-1.41-5.35-.84-.93-2.01-1.5-3.42-1.62-.93-.08-1.85-.08-2.78-.08l-.97-.04h-2.29c-.56,0-.84-.28-.84-.85v-5.06c0-.4.16-.85.84-.85h1.33c.93,0,1.85,0,2.78-.04,1.61-.04,3.02-.49,4.18-1.3,1.13-.77,1.69-1.82,1.81-3.24.04-.89-.04-1.7-.32-2.39-.36-1.09-1.13-1.9-2.25-2.35-2.57-1.05-5.07-.93-7.36.45-1.21.73-2.13,1.9-2.86,3.69-.36.81-.52.89-1.37.77-1.29-.24-2.53-.45-3.78-.69l-1.77-.28c-.28-.08-.56-.16-.68-.36-.16-.24-.12-.53-.04-.73.72-2.88,2.37-5.27,4.83-7.13,2.17-1.66,4.71-2.67,7.56-3,2.82-.32,5.35-.12,7.72.61,2.33.73,4.26,1.86,5.83,3.44,1.53,1.58,2.41,3.52,2.61,5.79.16,1.94-.08,3.65-.8,5.23-.97,2.19-2.49,3.77-4.42,4.62.28.12.6.24.88.41,3.26,1.62,5.07,4.21,5.47,7.61Z"/>
  <path class="cls-1" d="m79.34,64.01c6.73-9.13,19.58-38.43,21.01-41.31-2.79-1.65-29.92-18.56-40.7-22.3-7.79-2.62-13.32,8.4-13.32,8.4l26.98,14.16C21.41,38.28,17.07,91.67,17.07,104.93c0,57.38,43.75,97.22,96.5,97.22,55.47,0,97.46-43.06,97.46-98.52,0-41.89-27.55-76.77-67.86-88.87-13.86-4.01-18,12.1-4.46,16.32,33.42,10.33,55.35,37.97,55.35,72.55,0,46.13-34.36,81.56-80.49,81.56-43.41,0-79.65-36.87-79.65-80.28,0-13.25,2.19-51.02,44-67.16l-14.37,26.88s10.82,5.96,15.79-.6Z"/>
</svg>