<?xml version="1.0" encoding="UTF-8"?>
<svg id="Layer_2" data-name="Layer 2" xmlns="http://www.w3.org/2000/svg" viewBox="0 0 193.96 202.15">
  <defs>
    <style>
      .cls-1 {
        fill: #2e3192;
      }
    </style>
  </defs>
  <g id="Layer_1-2" data-name="Layer 1">
    <path class="cls-1" d="m62.27,64.01c6.73-9.13,19.58-38.43,21.01-41.31-2.79-1.65-29.92-18.56-40.7-22.3-7.79-2.62-13.32,8.4-13.32,8.4l26.98,14.16C4.34,38.28,0,91.67,0,104.93c0,57.38,43.75,97.22,96.5,97.22,55.47,0,97.46-43.06,97.46-98.52,0-41.89-27.55-76.77-67.86-88.87-13.86-4.01-18,12.1-4.46,16.32,33.42,10.33,55.35,37.97,55.35,72.55,0,46.13-34.36,81.56-80.49,81.56-43.41,0-79.65-36.87-79.65-80.28,0-13.25,2.19-51.02,44-67.16l-14.37,26.88s10.82,5.96,15.79-.6Z"/>
  </g>
</svg>