<?xml version="1.0" encoding="UTF-8"?>
<svg id="Layer_2" data-name="Layer 2" xmlns="http://www.w3.org/2000/svg" viewBox="0 0 250.2 264.19">
  <defs>
    <style>
      .cls-1 {
        fill: #2e3192;
      }
    </style>
  </defs>
  <g id="Layer_1-2" data-name="Layer 1">
    <path class="cls-1" d="m19.4,12.35c0,8.01-4.36,36.13,10.6,50.95,18.06,17.88,48.59,7.42,69.25-.29l4.62-1.84-1.36,4.79c-9.93,34.56-13.55,57.47-2.75,68.07,18.6,18.4,67.85-3.13,68.35-3.33l6.2-2.7-2.9,6.1c-12.2,25.5-16.3,46.8-8.5,59.7,6.4,10.7,21.2,17.1,41,17.1,2.7-.1,9.9.2,14,.1l-25.9-25.4s10.5-10.8,18.7-4.7c9.4,6.9,39.5,40.7,39.5,40.7,0,0-27.7,32.3-39.5,40.8-8.2,6-18.7-5-18.7-5l22-22.3c.6-.4,1.1-.9,1.5-1.5l2.2-2.3c-30,1.1-54.4-5.6-68.6-24.1-13.1-17-9.8-41-8-49.7-10.3,2.1-38.4,8.8-55.4-7.8-17.4-17-10.56-45.87-10.27-56.48-9.38,2.49-39.23,3.18-57.33-14.52C.1,61,.08,52.49,0,12.35-.03-3.82,19.41-4.42,19.4,12.35Z"/>
  </g>
</svg>