<?xml version="1.0" encoding="UTF-8"?>
<svg id="Layer_2" data-name="Layer 2" xmlns="http://www.w3.org/2000/svg" viewBox="0 0 268.55 240.85">
  <defs>
    <style>
      .cls-1 {
        fill: #2e3192;
      }
    </style>
  </defs>
  <g id="Layer_1-2" data-name="Layer 1">
    <path class="cls-1" d="m261.8,183.05l-25.9,25.5c-5.7-49.3-31.8-109.5-86.7-119.3C141.8,28.85,74.6-1.35,11.3.05,7.9-.05,1.1,1.65.1,9.05c0,.5-.1.9-.1,1.3,0,6.5,6.5,9.9,10.2,10.8,69.3,3.8,106.6,24.9,117.5,66.4-20-1.5-42.4,10.2-52.4,28-8.1,14.4-6.4,29.9,4.5,42.6,11.9,12,26.8,14.7,41.2,7.5,18.7-9.4,31.9-33,30.5-53.9,44.6,11.5,59.6,69.3,64.2,95.9l-24.9-24.6s-10.9,10.5-5,18.7c7.9,10.8,40.5,39.1,40.5,39.1,0,0,32.6-28.3,40.5-39.1,5.9-8.2-5-18.7-5-18.7Zm-141.62-40.65c-12.44,11.11-23.68,7.99-27.67,3.28-5.52-6.5-.98-22.92,7.29-30.01,7.04-6.04,14.93-11.98,31.09-9.35,2.29,14.69-1.38,27.74-10.71,36.07Z"/>
  </g>
</svg>