<?xml version="1.0" encoding="UTF-8"?>
<svg id="Layer_2" data-name="Layer 2" xmlns="http://www.w3.org/2000/svg" viewBox="0 0 8 4.5">
  <defs>
    <style>
      .cls-1 {
        fill: #231f20;
      }
    </style>
  </defs>
  <g id="Layer_1-2" data-name="Layer 1">
    <g>
      <path class="cls-1" d="m1.52,0c-.35,0-1.52.16-1.52,2.26s1.17,2.24,1.52,2.24,1.48-.16,1.48-2.24S1.87,0,1.52,0Zm0,3.81c-.13,0-.57,0-.57-1.55s.44-1.56.57-1.56c.45,0,.54.85.54,1.56s-.09,1.55-.54,1.55Z"/>
      <path class="cls-1" d="m8,2.93c0,.91-.73,1.57-1.73,1.57-.52,0-.93-.14-1.14-.27l-.13-.08.26-.78.2.12c.18.09.48.2.8.2.4,0,.8-.24.8-.69-.01-.59-.56-.71-1.01-.71-.21,0-.38.02-.51.03l-.29.03.34-2.35h2.34v.83h-1.62l-.1.65h.13c.36,0,.71.09,1,.24.43.24.68.68.68,1.21Z"/>
      <circle class="cls-1" cx="4" cy="3.88" r=".62"/>
    </g>
  </g>
</svg>