<svg xmlns="http://www.w3.org/2000/svg" width="750" height="900" viewBox="0 0 750 900">
  <!-- STAVES -->
  <g id="staves"><rect id="N_staff" fill="#2e3192" x="200" y="169.4" width="25" height="250" rx="9.9" ry="9.9" transform="matrix(1.0, 0.0, 0.0, 1.0, 797.2873900293255, 288.2696629213483)"/>

<rect id="E_staff" fill="#ed1c24" x="343.1" y="312.5" width="250" height="25" rx="9.9" ry="9.9" transform="matrix(1.0, 0.0, 0.0, 1.0, 864.5894428152493, 977.5280898876405)"/>

</g>
  <!-- ARROWS -->
  <g id="arrows"><path class="cls-1" d="m11.95,0c118.91.05,226.81,95.74,227.18,213.81l24.12-26.47s11.13,10.07,5.36,18.48c-6.47,9.52-39.27,40.82-39.27,40.82,0,0-33.18-26.6-42.12-37.97-6.33-8.08,4.34-18.91,4.34-18.91l27.78,26.11c-.28-89.27-73.15-187.86-207.39-195.03C-3.73,20.01-4.23,0,11.95,0Z" transform="matrix(1.0, 0.0, 0.0, 1.0, 461.5, 32.0)" fill="#ed1c24"/>
  <path class="cls-1" d="m246.64,258.32c-.05-118.91-95.74-226.81-213.81-227.18L59.31,7.02s-10.07-11.13-18.48-5.36C31.3,8.13,0,40.93,0,40.93c0,0,26.6,33.18,37.97,42.12,8.08,6.33,18.91-4.34,18.91-4.34l-26.11-27.78c89.27.28,187.86,73.15,195.03,207.39.84,15.69,20.85,16.19,20.84,0Z" transform="matrix(1.0, 0.0, 0.0, 1.0, 413.0, 66.5)" fill="#2e3192"/>
  </g>
  <!-- GRID -->
  <g id="grid"><circle id="center_point" class="black" cx="375.0" cy="375.0" r="11.25"/>
        <circle id="N_outer_point" class="black" cx="375.0" cy="75.0" r="25"/>
            <circle id="E_outer_point" class="black" cx="675.0" cy="375.0" r="25"/>
            <circle id="S_outer_point" class="black" cx="375.0" cy="675.0" r="25"/>
            <circle id="W_outer_point" class="black" cx="75.0" cy="375.0" r="25"/>
        <circle id="NE_layer2_point" class="black" cx="518.0899999999999" cy="231.91" r="8.75"/>
            <circle id="SE_layer2_point" class="black" cx="518.0899999999999" cy="518.0899999999999" r="8.75"/>
            <circle id="SW_layer2_point" class="black" cx="231.91" cy="518.0899999999999" r="8.75"/>
            <circle id="NW_layer2_point" class="black" cx="231.91" cy="231.91" r="8.75"/>
        </g>

</svg>
