<svg xmlns="http://www.w3.org/2000/svg" width="750" height="900" viewBox="0 0 750 900">
  <!-- staffs -->
  <g id="staffs"/>
  <!-- ARROWS -->
  <g id="arrows"><path id="pro_0" class="st0" d="M14.3,14.3c118.9,0.1,226.8,95.7,227.2,213.8l24.1-26.5c0,0,11.1,10.1,5.4,18.5   c-6.5,9.5-39.3,40.8-39.3,40.8s-33.2-26.6-42.1-38c-6.3-8.1,4.3-18.9,4.3-18.9l27.8,26.1c-0.3-89.3-73.2-187.9-207.4-195   C-1.4,34.3-1.9,14.3,14.3,14.3z" transform="matrix(1.0, 0.0, 0.0, 1.0, -60.739999999999995, 85.74000000000001)" fill="#2E3192"/>

</g>
  <!-- GRID -->
  <g id="grid"><circle id="center_point" class="black" cx="375.0" cy="375.0" r="11.2"/>
		<circle id="N_outer_point" class="black" cx="375.0" cy="75.0" r="25"/>
			<circle id="E_outer_point" class="black" cx="675.0" cy="375.0" r="25"/>
			<circle id="S_outer_point" class="black" cx="375.0" cy="675.0" r="25"/>
			<circle id="W_outer_point" class="black" cx="75.0" cy="375.0" r="25"/>
		<circle id="N_hand_point" class="black" cx="375.0" cy="231.9" r="4.2"/>
			<circle id="E_hand_point" class="black" cx="518.1" cy="375.0" r="4.2"/>
			<circle id="S_hand_point" class="black" cx="375.0" cy="518.1" r="4.2"/>
			<circle id="W_hand_point" class="black" cx="231.9" cy="375.0" r="4.2"/>
		<circle id="NE_layer2_point" class="black" cx="518.1" cy="231.9" r="8.8"/>
			<circle id="SE_layer2_point" class="black" cx="518.1" cy="518.1" r="8.8"/>
			<circle id="SW_layer2_point" class="black" cx="231.9" cy="518.1" r="8.8"/>
			<circle id="NW_layer2_point" class="black" cx="231.9" cy="231.9" r="8.8"/>
		</g>

</svg>
