<svg xmlns="http://www.w3.org/2000/svg" width="750" height="900" viewBox="0 0 750 900">
  <!-- STAVES -->
  <g id="staves"><rect id="S_staff" fill="#2e3192" x="200" y="455.6" width="25" height="250" rx="9.9" ry="9.9" transform="matrix(1.0, 0.0, 0.0, 1.0, 362.5, 393.1)"/>

<rect id="E_staff" fill="#ed1c24" x="343.1" y="312.5" width="250" height="25" rx="9.9" ry="9.9" transform="matrix(1.0, 0.0, 0.0, 1.0, 393.1, 362.5)"/>

</g>
  <!-- ARROWS -->
  <g id="arrows"><path class="cls-1" d="m.01,246.11c0-212.34-5.37-212.7,201.5-212.7l-27.24-26.62s10.44-10.98,18.68-4.99c11.76,8.55,39.51,40.84,39.51,40.84,0,0-30.12,33.78-39.51,40.67-8.24,6.05-18.68-4.75-18.68-4.75l27.24-25.61c-191.09,0-180.77-8.42-180.77,192.87,0,15.08-20.73,15.08-20.73.31Z" transform="matrix(1.0, 0.0, 0.0, 1.0, 435.5, 408.0)" fill="#ed1c24"/>
  <path class="cls-1" d="m246.11.01c-212.34,0-212.7-5.37-212.7,201.5l-26.62-27.24s-10.98,10.44-4.99,18.68c8.55,11.76,40.84,39.51,40.84,39.51,0,0,33.78-30.12,40.67-39.51,6.05-8.24-4.75-18.68-4.75-18.68l-25.61,27.24C52.93,10.43,44.51,20.74,245.8,20.74c15.08,0,15.08-20.73.31-20.73Z" transform="matrix(1.0, 0.0, 0.0, 1.0, 446.0, 502.5)" fill="#2e3192"/>
  </g>
  <!-- GRID -->
  <g id="grid"><circle id="center_point" class="black" cx="375.0" cy="375.0" r="11.25"/>
        <circle id="N_outer_point" class="black" cx="375.0" cy="75.0" r="25"/>
            <circle id="E_outer_point" class="black" cx="675.0" cy="375.0" r="25"/>
            <circle id="S_outer_point" class="black" cx="375.0" cy="675.0" r="25"/>
            <circle id="W_outer_point" class="black" cx="75.0" cy="375.0" r="25"/>
        <circle id="NE_layer2_point" class="black" cx="518.0899999999999" cy="231.91" r="8.75"/>
            <circle id="SE_layer2_point" class="black" cx="518.0899999999999" cy="518.0899999999999" r="8.75"/>
            <circle id="SW_layer2_point" class="black" cx="231.91" cy="518.0899999999999" r="8.75"/>
            <circle id="NW_layer2_point" class="black" cx="231.91" cy="231.91" r="8.75"/>
        </g>

</svg>
