<svg xmlns="http://www.w3.org/2000/svg" width="750" height="900" viewBox="0 0 750 900">
  <!-- STAVES -->
  <g id="staves"/>
  <!-- ARROWS -->
  <g id="arrows"><path class="cls-1" d="m11.95,246.64c118.91-.05,226.81-95.74,227.18-213.81l24.12,26.47s11.13-10.07,5.36-18.48C262.14,31.3,229.33,0,229.33,0c0,0-33.18,26.6-42.12,37.97-6.33,8.08,4.34,18.91,4.34,18.91l27.78-26.11c-.28,89.27-73.15,187.86-207.39,195.03-15.69.84-16.19,20.85,0,20.84Z" transform="matrix(1.0, 0.0, 0.0, 1.0, 449.0, 458.5)" fill="#ed1c24"/>
  <path class="cls-1" d="m11.95,246.64c118.91-.05,226.81-95.74,227.18-213.81l24.12,26.47s11.13-10.07,5.36-18.48C262.14,31.3,229.33,0,229.33,0c0,0-33.18,26.6-42.12,37.97-6.33,8.08,4.34,18.91,4.34,18.91l27.78-26.11c-.28,89.27-73.15,187.86-207.39,195.03-15.69.84-16.19,20.85,0,20.84Z" transform="matrix(1.0, 0.0, 0.0, 1.0, 394.0, 405.5)" fill="#2e3192"/>
  </g>
  <!-- GRID -->
  <g id="grid"><circle id="center_point" class="black" cx="375.0" cy="375.0" r="11.25"/>
        <circle id="N_outer_point" class="black" cx="375.0" cy="75.0" r="25"/>
            <circle id="E_outer_point" class="black" cx="675.0" cy="375.0" r="25"/>
            <circle id="S_outer_point" class="black" cx="375.0" cy="675.0" r="25"/>
            <circle id="W_outer_point" class="black" cx="75.0" cy="375.0" r="25"/>
        <circle id="NE_layer2_point" class="black" cx="518.0899999999999" cy="231.91" r="8.75"/>
            <circle id="SE_layer2_point" class="black" cx="518.0899999999999" cy="518.0899999999999" r="8.75"/>
            <circle id="SW_layer2_point" class="black" cx="231.91" cy="518.0899999999999" r="8.75"/>
            <circle id="NW_layer2_point" class="black" cx="231.91" cy="231.91" r="8.75"/>
        </g>

</svg>
