<svg xmlns="http://www.w3.org/2000/svg" width="750" height="900" viewBox="0 0 750 900">
  <!-- STAVES -->
  <g id="staves"><rect id="E_staff" fill="#2e3192" x="393.1" y="362.5" width="250" height="25" rx="9.9" ry="9.9" transform="matrix(1.0, 0.0, 0.0, 1.0, 0, 0)"/>

<rect id="N_staff" fill="#ed1c24" x="362.5" y="106.9" width="25" height="250" rx="9.9" ry="9.9" transform="matrix(1.0, 0.0, 0.0, 1.0, 0, 0)"/>

</g>
  <!-- ARROWS -->
  <g id="arrows"><path class="cls-1" d="m0,258.32C.05,139.41,95.74,31.5,213.81,31.14l-26.47-24.12s10.07-11.13,18.48-5.36c9.52,6.47,40.82,39.27,40.82,39.27,0,0-26.6,33.18-37.97,42.12-8.08,6.33-18.91-4.34-18.91-4.34l26.11-27.78c-89.27.28-187.86,73.15-195.03,207.39-.84,15.69-20.85,16.19-20.84,0Z" transform="matrix(1.0, 0.0, 0.0, 1.0, 51.5, 40.0)" fill="#ed1c24"/>
  <path class="cls-1" d="m.01,11.03c0,212.34-5.37,212.7,201.5,212.7l-27.24,26.62s10.44,10.98,18.68,4.99c11.76-8.55,39.51-40.84,39.51-40.84,0,0-30.12-33.78-39.51-40.67-8.24-6.05-18.68,4.75-18.68,4.75l27.24,25.61c-191.09,0-180.77,8.42-180.77-192.87,0-15.08-20.73-15.08-20.73-.31Z" transform="matrix(1.0, 0.0, 0.0, 1.0, 434.0, 46.5)" fill="#2e3192"/>
  </g>
  <!-- GRID -->
  <g id="grid"><circle id="center_point" class="black" cx="375.0" cy="375.0" r="11.25"/>
        <circle id="N_outer_point" class="black" cx="375.0" cy="75.0" r="25"/>
            <circle id="E_outer_point" class="black" cx="675.0" cy="375.0" r="25"/>
            <circle id="S_outer_point" class="black" cx="375.0" cy="675.0" r="25"/>
            <circle id="W_outer_point" class="black" cx="75.0" cy="375.0" r="25"/>
        <circle id="NE_layer2_point" class="black" cx="518.0899999999999" cy="231.91" r="8.75"/>
            <circle id="SE_layer2_point" class="black" cx="518.0899999999999" cy="518.0899999999999" r="8.75"/>
            <circle id="SW_layer2_point" class="black" cx="231.91" cy="518.0899999999999" r="8.75"/>
            <circle id="NW_layer2_point" class="black" cx="231.91" cy="231.91" r="8.75"/>
        </g>

</svg>
