<svg xmlns="http://www.w3.org/2000/svg" width="750" height="900" viewBox="0 0 750 900"><circle id="center_point" class="black" cx="325" cy="325" r="11.25"/>
        <circle id="N_outer_point" class="black" cx="325" cy="25" r="25"/>
            <circle id="E_outer_point" class="black" cx="625" cy="325" r="25"/>
            <circle id="S_outer_point" class="black" cx="325" cy="625" r="25"/>
            <circle id="W_outer_point" class="black" cx="25" cy="325" r="25"/>
        <circle id="NE_layer2_point" class="black" cx="468.09" cy="181.91" r="8.75"/>
            <circle id="SE_layer2_point" class="black" cx="468.09" cy="468.09" r="8.75"/>
            <circle id="SW_layer2_point" class="black" cx="181.91" cy="468.09" r="8.75"/>
            <circle id="NW_layer2_point" class="black" cx="181.91" cy="181.91" r="8.75"/>
        <rect id="E_staff" fill="#2e3192" x="343.1" y="312.5" width="250" height="25" rx="9.9" ry="9.9" transform="matrix(1.0, 0.0, 0.0, 1.0, 393.1, 362.5)"/>
<rect id="S_staff" fill="#ed1c24" x="200" y="455.6" width="25" height="250" rx="9.9" ry="9.9" transform="matrix(1.0, 0.0, 0.0, 1.0, 362.5, 393.1)"/>
<path class="cls-1" d="m0,11.95c.05,118.91,95.74,226.81,213.81,227.18l-26.47,24.12s10.07,11.13,18.48,5.36c9.52-6.47,40.82-39.27,40.82-39.27,0,0-26.6-33.18-37.97-42.12-8.08-6.33-18.91,4.34-18.91,4.34l26.11,27.78c-89.27-.28-187.86-73.15-195.03-207.39-.84-15.69-20.85-16.19-20.84,0Z" transform="matrix(1.0, 0.0, 0.0, 1.0, 51.5, 415.0)" fill="#ed1c24"/>
  <path class="cls-1" d="m11.95,246.64c118.91-.05,226.81-95.74,227.18-213.81l24.12,26.47s11.13-10.07,5.36-18.48C262.14,31.3,229.33,0,229.33,0c0,0-33.18,26.6-42.12,37.97-6.33,8.08,4.34,18.91,4.34,18.91l27.78-26.11c-.28,89.27-73.15,187.86-207.39,195.03-15.69.84-16.19,20.85,0,20.84Z" transform="matrix(1.0, 0.0, 0.0, 1.0, 415.0, 426.5)" fill="#2e3192"/>
  </svg>
