<svg xmlns="http://www.w3.org/2000/svg" version="1.1" id="Layer_2_00000081640049398363003310000011625420178690402190_" style="style=&quot;enable-background:new 0 0 200.0 100.0&quot;" viewBox="15.64 -0.06 88.72 100.04">  	<g id="Layer_1-2"> 		<path fill="#00000" d="M17.6,68.8c-5.5-29.8,0.3-46.9,21-62.4C57.2-7.5,87.8,3.1,96.4,18.8c7.3,13.2,15.4,40.9-4.7,64.9   c-6.7,8-15.9,14-26.2,15.7C40.9,103.5,20.7,85.4,17.6,68.8L17.6,68.8z M39.9,73.8c11.4,11.3,34.1,11.1,44.5-7   C94.6,49.1,85,30.1,78.1,24c-5.5-4.9-25.3-11.9-37.6,4.1C29.4,42.6,32.1,66.1,39.9,73.8z"></path> 	</g> </svg>