<?xml version="1.0" encoding="UTF-8"?>
<svg id="Layer_1" data-name="Layer 1" xmlns="http://www.w3.org/2000/svg" viewBox="0 0 14 14">
  <defs>
    <style>
      .cls-1 {
        fill: black;
      }
    </style>
  </defs>
  <path class="cls-1" d="m10.03,8.04h-5.72c-.59,0-1.07-.38-1.07-.84v-.09c0-.46.48-.84,1.07-.84h5.72c.59,0,1.07.38,1.07.84v.09c0,.46-.48.84-1.07.84Z"/>
  <path class="cls-1" d="m7,14c-3.86,0-7-3.14-7-7S3.14,0,7,0s7,3.14,7,7-3.14,7-7,7Zm0-12.8C3.8,1.2,1.2,3.8,1.2,7s2.6,5.8,5.8,5.8,5.8-2.6,5.8-5.8S10.2,1.2,7,1.2Z"/>
</svg>