<?xml version="1.0" encoding="utf-8"?>
<!-- Generator: Adobe Illustrator 27.1.0, SVG Export Plug-In . SVG Version: 6.00 Build 0)  -->
<svg version="1.1" id="buugeng" xmlns="http://www.w3.org/2000/svg" xmlns:xlink="http://www.w3.org/1999/xlink" x="0px" y="0px"
	 viewBox="0 0 600 293.1" style="enable-background:new 0 0 600 293.1;" xml:space="preserve">
<style type="text/css">
	.st0{fill:#2E3192;}
</style>
<g>
	<g>
		<g>
			<g>
				<path class="st0" d="M596.7,180.9l-0.2,1.1c-11.4,38.2-36.6,70.5-69.3,88.6l-0.7,0.4c-22.6,14.2-49.3,21.8-77.1,22
					c-17.6,0-35.6-3.1-53.3-9.1c-44.7-15.7-78.5-48.4-92.6-89.7c-0.3-1.4-0.9-3.8-1.9-7.8l-1.5-6.3c-0.9-3.6-1.9-7.8-3.2-12.9
					l-5.6-24.2l-0.1-0.2c-0.3-1.3-0.6-2.4-0.9-3.5l-0.4-1.4c-0.9-4-1.4-5.9-2-7.4c-16.9-57.6-75-101-135.1-101
					c-8.3,0-16.7,0.8-24.7,2.5C68.9,39.7,19.4,83.4,4.9,140.7l-0.1,0.6l-0.3,1.9c-0.6,1.3-1.1,2.2-1.6,2.7C2.2,146,1.9,146,1.7,146
					c-0.1,0-0.2,0-0.2,0c-1-0.4-1.5-2.7-1.5-6.9c0-6,1.1-14.7,3.3-26.6c11.7-39.2,37.1-72,69.7-90.2l0.7-0.5C96,7.6,122.4,0,150.2,0
					c17.8,0,35.7,3.1,53.2,9.1c44.5,15.4,78.4,48.4,92.9,90.4l0.1,0.2c0.8,2.4,3.1,12.2,5.5,22.7l3,13c0.4,1.7,0.7,3.3,1.1,4.9
					c0.7,3.3,1.5,6.9,2.4,10.3c0.9,3.8,1.5,6.1,1.6,7.1l0.1,0.8l0.7,3l0.2,0.5c17.4,58.8,74.8,101.5,136.4,101.5
					c8.2,0,16.5-0.8,24.5-2.4c58.4-7.6,107.7-51,122.7-108l1.2-3.1l0.3-0.9c0.2-0.7,0.7-1.5,1-1.7l0.3-0.2c0.3-0.1,0.5-0.2,0.6-0.2
					c0,0,0.2,0,0.5,0.1c0.4,0.2,1.2,0.5,1.6,5C600.4,159.1,598.7,169.7,596.7,180.9z"/>
			</g>
		</g>
	</g>
</g>
</svg>
