<?xml version="1.0" encoding="utf-8"?>
<!-- Generator: Adobe Illustrator 27.1.0, SVG Export Plug-In . SVG Version: 6.00 Build 0)  -->
<svg version="1.1" id="bigtriad"
	xmlns="http://www.w3.org/2000/svg"
	xmlns:xlink="http://www.w3.org/1999/xlink" x="0px" y="0px" viewBox="0 0 600 523.5" style="enable-background:new 0 0 600 523.5;" xml:space="preserve">
	<style type="text/css">
	.st0{fill:#2E3192;}
	.st1{fill:none;}
	</style>
	<g>
		<path class="st0" d="M600,260.2v3.4c0,5.3-4.3,9.7-9.7,9.7H306.7l-2.4,4.1l-3.1,5.3L164.9,518.4l-0.8,1.5
		c-1.7,2.1-4.5,3.4-7.4,3.4c-1.3,0-2.6-0.3-3.9-0.8l-0.1-0.1l-1-0.6l-2.8-1.6c-4.4-2.7-5.9-8.7-3.4-13.3l136.5-236.1l3.1-5.3
		l2.4-4.1l-2.4-4.1l-3.1-5.4L145.5,16.2c-2.4-4.4-0.8-10.6,3.4-13.3l0.8-0.4h0.3l1.9-1.1c1.4-0.8,3.1-1.3,4.8-1.3
		c3.5,0,6.8,1.8,8.5,4.7l136.3,236.3l3.1,5.3l2.4,4.1h283.2C595.7,250.5,600,254.9,600,260.2z"/>
		<path class="st1" d="M454.4,507.5c1.2,2,1.5,4.5,0.9,7c-0.7,2.5-2.3,4.7-4.4,5.9l-0.9,0.5l-0.2,0.2l-1.8,1.1
		c-1.5,0.8-3.1,1.2-4.6,1.2c-3.6,0-6.8-1.8-8.6-4.9L298.6,282.1l-3.1-5.3l-2.4-4.1h-10.9L9.8,272.9c-5-0.1-9.5-4.6-9.8-9.7l0.1-3
		v-0.3c0.1-5.4,4.4-9.8,9.8-9.8h2.4l270.4,0.1h10.9l2.4-4.1l3.1-5.3l136-235.9c1.8-3,5-4.9,8.5-4.9c1.6,0,3.3,0.4,4.7,1.3l2.9,1.7
		l0,0l0,0c2.2,1.2,3.7,3.3,4.5,5.9c0.7,2.5,0.3,5.1-1,7.4l-136.4,236l-3.1,5.3l-2.4,4.1l2.4,4.1l3.1,5.3l135,234.1v0.2L454.4,507.5z
		"/>
	</g>
</svg>
