<?xml version="1.0" encoding="utf-8"?>
<!-- Generator: Adobe Illustrator 27.1.0, SVG Export Plug-In . SVG Version: 6.00 Build 0)  -->
<svg version="1.1" id="quiad" xmlns="http://www.w3.org/2000/svg" xmlns:xlink="http://www.w3.org/1999/xlink" x="0px" y="0px"
	 viewBox="0 0 250 250" style="enable-background:new 0 0 250 250;" xml:space="preserve">
<style type="text/css">
	.st0{fill:#2E3191;}
</style>
<path id="quiad_00000069384161571048816860000002474116809314108564_" class="st0" d="M229.7,104.8c-5,0-11.8-0.5-11.8,4.3v6h-82.9
	V32.2h6c4.8,0,4.3-6.9,4.3-11.9S145.7,0,140.9,0h-31.8c-4.8,0-4.3,15.3-4.3,20.3s-0.5,11.9,4.3,11.9h6v82.9H32.2v-6
	c0-4.8-6.8-4.3-11.8-4.3S0,104.3,0,109.1v31.8c0,4.8,15.4,4.3,20.4,4.3s11.8,0.5,11.8-4.3v-6h82.9v82.9h-6c-4.8,0-4.3,6.8-4.3,11.8
	s-0.5,20.4,4.3,20.4h31.8c4.8,0,4.3-15.4,4.3-20.4s0.5-11.8-4.3-11.8h-6v-82.9h82.9v6c0,4.8,6.8,4.3,11.8,4.3s20.3,0.5,20.3-4.3
	v-31.8C250,104.3,234.7,104.8,229.7,104.8z M125,132.2c-4,0-7.2-3.2-7.2-7.2s3.2-7.2,7.2-7.2s7.2,3.2,7.2,7.2S129,132.2,125,132.2z"
	/>
</svg>
