<?xml version="1.0" encoding="utf-8"?>
<!-- Generator: Adobe Illustrator 27.1.0, SVG Export Plug-In . SVG Version: 6.00 Build 0)  -->
<svg version="1.1" id="Layer_1" xmlns="http://www.w3.org/2000/svg" xmlns:xlink="http://www.w3.org/1999/xlink" x="0px" y="0px"
	 viewBox="0 0 150.9 386.3" style="enable-background:new 0 0 150.9 386.3;" xml:space="preserve">
<style type="text/css">
	.st0{fill:#2E3192;}
</style>
<path class="st0" d="M47.7,6.2C35.5,27.8,12.6,65,17,120.4c-38.3,55.2-14.6,198.1,100.6,235.3l-29.1,21.8c0,0,8.7,12.4,17.7,7.8
	c11.9-6.2,44.8-34.1,44.8-34.1s-23.1-36.5-32.6-45.9c-7.2-7.1-19.2,2.1-19.2,2.1l20.6,28.3C9.9,291.3,7.8,177.6,31.3,138
	C45,153.7,65.6,157,78.3,155.5c12.6-1.6,30.8-17.6,32.2-35.6c1.4-18-19.3-33.5-31.4-34.8c-17.2-1.8-32.7-0.1-45.8,15.1
	C33.9,69,51.6,37.1,63.8,14.5C70.6,1.9,54.8-6.3,47.7,6.2L47.7,6.2z M37.6,119.9c9.6-13.3,20.1-17.1,32.7-17.7
	c12.5-0.5,22.6,9.3,22.5,17.8c-0.1,7.2-10.7,18.2-24,18.2C54.5,138.2,46.3,131.9,37.6,119.9z"/>
</svg>
