<?xml version="1.0" encoding="utf-8"?>
<!-- Generator: Adobe Illustrator 27.1.0, SVG Export Plug-In . SVG Version: 6.00 Build 0)  -->
<svg version="1.1" id="Layer_2_00000059991765102987092050000005636071613671701654_"
	 xmlns="http://www.w3.org/2000/svg" xmlns:xlink="http://www.w3.org/1999/xlink" x="0px" y="0px" viewBox="0 0 275 275"
	 style="enable-background:new 0 0 275 275;" xml:space="preserve">
<style type="text/css">
	.st0{fill:#2E3192;}
</style>
<g id="Layer_1-2">
	<path class="st0" d="M253.7,223.4c0,0-30.1-33.8-39.5-40.7c-8.2-6.1-18.7,4.7-18.7,4.7l27,26.5c-73.1,3.3-79.1-41.2-62.8-102.9
		c-63.4,14.3-118,29-118-91.9c0-13.5-20.5-13.6-20.5-0.1c0,83.8,31.9,139.4,112.6,119.8c-8.8,65.4,17.2,90.5,88.6,93.1l-26.9,27.3
		c0,0,10.5,11,18.7,5C226,255.7,253.7,223.4,253.7,223.4z"/>
</g>
</svg>
