<?xml version="1.0" encoding="UTF-8"?>
<svg id="Layer_1" data-name="Layer 1" xmlns="http://www.w3.org/2000/svg" viewBox="0 0 150.91 386.34">
  <defs>
    <style>
      .cls-1 {
        fill: #2e3192;
      }
    </style>
  </defs>
  <path class="cls-1" d="m47.67,6.24c-12.19,21.61-35.08,58.8-30.71,114.21-38.32,55.15-14.57,198.09,100.57,235.34l-29.11,21.77s8.74,12.36,17.73,7.76c11.87-6.18,44.75-34.15,44.75-34.15,0,0-23.07-36.49-32.56-45.92-7.22-7.07-19.24,2.13-19.24,2.13l20.57,28.32C9.9,291.27,7.84,177.66,31.25,137.99c13.79,15.77,34.36,19.07,47.05,17.5,12.56-1.56,30.85-17.55,32.22-35.57,1.36-18.03-19.33-33.54-31.42-34.78-17.2-1.77-32.67-.08-45.75,15.12.52-31.21,18.28-63.16,30.45-85.72,6.78-12.58-9.02-20.84-16.11-8.28Zm-10.11,113.68c9.57-13.28,20.12-17.14,32.65-17.66,12.53-.52,22.6,9.3,22.5,17.82-.09,7.24-10.72,18.2-23.98,18.16-14.25-.05-22.4-6.31-31.17-18.32Z"/>
</svg>