<?xml version="1.0" encoding="utf-8"?>
<!-- Generator: Adobe Illustrator 27.1.0, SVG Export Plug-In . SVG Version: 6.00 Build 0)  -->
<svg version="1.1" id="Layer_1" xmlns="http://www.w3.org/2000/svg" xmlns:xlink="http://www.w3.org/1999/xlink" x="0px" y="0px"
	 viewBox="0 0 258.1 267.9" style="enable-background:new 0 0 258.1 267.9;" xml:space="preserve">
<style type="text/css">
	.st0{fill:#2E3192;}
</style>
<path class="st0" d="M218.6,266.1c-8.2,5.9-18.7-5-18.7-5l22.1-22.3c0.6-0.4,1.1-0.9,1.5-1.5l2.2-2.3c-30,1.1-46.2-3-60.4-17.3
	s-13.8-33.2-10.2-46.6c-12.9,4.6-31.6,4.8-42.8-6.4s-10.1-24.2-5.7-42.1c-16.3,6.1-34,2.4-42.4-6c-8.4-8.4-9.8-23.7-4.9-41.3
	c-16.7,6.3-27.9,8.5-44-7.6C-1,51.6,0,23.4,0,13.1C0-4.8,18.6-4.1,18.6,13.8s2.9,33.3,10,40.4s20,4.9,29.1,1.6
	c9.2-3.3,27.7-11.7,28.9-12.3s4.8-2.5,4.8-2.5S89.9,44,89,46c-0.8,2-9,20.5-11.5,29.6s-6,21.5-0.1,27.5c5.9,5.9,21.2,3.7,29.1,1.6
	c7.9-2.1,25.4-11.4,28.2-12.8s4.9-2.6,4.9-2.6s-1.3,2.3-2.6,4.9c-1.3,2.6-10.1,19.6-12.8,28.3s-6.7,20.9,1.2,28.7s19.7,2.2,27.8,0.2
	c8-2,26.3-9.5,29.2-10.9c3-1.4,5.6-2.8,5.6-2.8s-2.1,4-3,5.7c-0.8,1.8-8.7,20.4-10.5,29.3c-2.7,13.3-4.4,24.4,3.3,32
	c7.7,7.7,14,9.9,33.8,9.9c2.7-0.1,9.9,0.1,14,0l-25.9-25.4c0,0,10.5-10.8,18.7-4.7c9.4,7,39.5,40.8,39.5,40.8
	S230.4,257.5,218.6,266.1L218.6,266.1z"/>
</svg>
