<?xml version="1.0" encoding="utf-8"?>
<!-- Generator: Adobe Illustrator 27.1.0, SVG Export Plug-In . SVG Version: 6.00 Build 0)  -->
<svg version="1.1" id="Layer_1"
	xmlns="http://www.w3.org/2000/svg"
	xmlns:xlink="http://www.w3.org/1999/xlink" x="0px" y="0px" viewBox="0 0 418.4 207.8" style="enable-background:new 0 0 418.4 207.8;" xml:space="preserve">
	<style type="text/css">
	.st0{fill:#2E3192;}
	</style>
	<text transform="matrix(1 0 0 1 -120.6676 -929.1667)" style="font-family:'ArialMT'; font-size:60px;">from nonradial</text>
	<g>
		<g>
			<g>
				<path class="st0" d="M4.6,62.7c213-132.8,376.9-26,408.8,58c21.2,55.9-28.3,122.3-102.8,50.6l1.2,36.6
				c-3.4-0.2-13.7-0.8-15.3-8.5c-2.2-11.8-1.1-49-1-55.2c6.2-0.6,43.2-4.3,55.1-3c7.7,1.1,9,11.4,9.3,14.5l-37.2,2.9
				c56.4,46.6,81.1,15.4,69.8-28.5C375.1,61.9,213.9-43.8,19.2,77.9C3.3,87.4-6.2,69.2,4.6,62.7z"/>
			</g>
		</g>
	</g>
</svg>
