<?xml version="1.0" encoding="utf-8"?>
<!-- Generator: Adobe Illustrator 27.1.0, SVG Export Plug-In . SVG Version: 6.00 Build 0)  -->
<svg version="1.1" id="Layer_1"
	xmlns="http://www.w3.org/2000/svg"
	xmlns:xlink="http://www.w3.org/1999/xlink" x="0px" y="0px" viewBox="0 0 211.5 188.2" style="enable-background:new 0 0 211.5 188.2;" xml:space="preserve">
	<style type="text/css">
	.st0{fill:#2E3192;}
	</style>
	<g id="pro_0.0">
		<path class="st0" d="M171.5,188.2c-4.8-3.9-33.2-28.3-41.3-38.6c-4.8-6.2,1.5-14.2,3.6-16.7l28.8,26.1l0,0
		c0-76.3-34.7-141.1-150.6-141.1c-7.4-0.4-12.1-4.3-12-9C0.1,4.4,3.5,0,11,0c132.6,0,169.4,73.9,169.4,158.9l0,0l25.1-26.1
		c2.3,2.3,8.9,10.3,4.5,16.7C204.2,158,176.1,183.8,171.5,188.2z"/>
	</g>
	<text transform="matrix(1 0 0 1 -203.3064 -642.1396)" style="font-family:'MyriadPro-Regular'; font-size:60px;">from nonradial</text>
</svg>
