<?xml version="1.0" encoding="utf-8"?>
<!-- Generator: Adobe Illustrator 27.1.0, SVG Export Plug-In . SVG Version: 6.00 Build 0)  -->
<svg version="1.1" id="Layer_1"
	xmlns="http://www.w3.org/2000/svg"
	xmlns:xlink="http://www.w3.org/1999/xlink" x="0px" y="0px" viewBox="0 0 342.5 227.3" style="enable-background:new 0 0 342.5 227.3;" xml:space="preserve">
	<style type="text/css">
	.st0{fill:#2E3192;}
	</style>
	<text transform="matrix(1 0 0 1 -17.0922 -673.2587)" style="font-family:'ArialMT'; font-size:60px;">from nonradial</text>
	<g>
		<path class="st0" d="M320.8,192.1c-41.8,61.9-131.7,33-137.5-15.4l-11.5,35.4c-3.1-1.3-12.6-5.4-11.5-13.2
		c2-11.9,15.6-46.5,17.8-52.2c6.1,1.6,42.1,10.6,52.8,16c6.9,3.6,4.7,13.7,3.8,16.8l-36.1-10c12.8,44.3,79.9,49.2,106.4,10
		c78.1-116-152-158.7-290.6-158.7C-4.1,20.9-4.7,2.1,12.1,0.9C147.6-7.8,421.3,43.2,320.8,192.1z"/>
	</g>
</svg>
