<?xml version="1.0" encoding="utf-8"?>
<!-- Generator: Adobe Illustrator 27.1.0, SVG Export Plug-In . SVG Version: 6.00 Build 0)  -->
<svg version="1.1" id="Layer_1"
	xmlns="http://www.w3.org/2000/svg"
	xmlns:xlink="http://www.w3.org/1999/xlink" x="0px" y="0px" viewBox="0 0 387.3 143" style="enable-background:new 0 0 387.3 143;" xml:space="preserve">
	<style type="text/css">
	.st0{fill:#2E3192;}
	</style>
	<g>
		<path class="st0" d="M374.1,143c-6.3-1.1-44.6-7.6-54.4-11.5c-7.2-2.8-6.1-13-5.5-16.3l37.7,9.3l-1.6-2.2
		C250.1-18.9,25.3,23.8,13.8,25.6C8.1,26.6,0.4,24.2,0,16.9S5.8,8,10.9,7C22,4.9,265.4-37,365,112l1.3,2l8.6-36.8
		c3.1,0.8,12.9,4.2,12.4,11.9C386.5,101.9,375.9,137.2,374.1,143z"/>
	</g>
	<text transform="matrix(1 0 0 1 -54.8114 -693.3678)" style="font-family:'ArialMT'; font-size:60px;">from nonradial</text>
</svg>
