<?xml version="1.0" encoding="utf-8"?>
<!-- Generator: Adobe Illustrator 27.1.0, SVG Export Plug-In . SVG Version: 6.00 Build 0)  -->
<svg version="1.1" id="Layer_1"
	xmlns="http://www.w3.org/2000/svg"
	xmlns:xlink="http://www.w3.org/1999/xlink" x="0px" y="0px" viewBox="0 0 377.1 131.8" style="enable-background:new 0 0 377.1 131.8;" xml:space="preserve">
	<style type="text/css">
	.st0{fill:#2E3192;}
	</style>
	<text transform="matrix(1 0 0 1 -86.9532 -904.8262)" style="font-family:'ArialMT'; font-size:60px;">from nonradial</text>
	<g>
		<path class="st0" d="M9.7,16.4c55.6-0.9,93.8,2.5,144.3,42.2c-5,4.3-14.4,10.5-15.7,20.6c-2.5,17,8.9,29.3,25.7,31.6
		c16.8,2.3,27.2-9.1,31.6-22.4c4.2-12.7-10-23.3-9.9-23.3c49.3-6.4,112.4,18.4,159.9,41.7l-33.8,14.6c0.3,0.7,0.7,1.4,1.3,2.4
		c2.4,4.2,6.6,9.1,12.4,7.8c10.3-2.3,45.7-18.5,51.5-21.1c-1.9-5.9-12.7-40.5-19.4-52c0,0.1-0.1,0-0.1,0c-4-6.6-13.9-3.7-17-2.8
		l13.3,35.1C304.6,66.9,242.1,39.9,169,52.6C122.4,6.4,63.3-1.4,10.8,0.2C-6,0.7-0.7,16.5,9.7,16.4z M169,69.2
		c4.9,3.7,12.4,8.7,11.4,15.5c-0.8,6.8-7.7,12.7-14.3,11.7c-6.9-0.9-13-7.5-11.9-15.4C155.4,73.1,162,70.5,169,69.2z"/>
	</g>
</svg>
