<?xml version="1.0" encoding="utf-8"?>
<!-- Generator: Adobe Illustrator 27.1.0, SVG Export Plug-In . SVG Version: 6.00 Build 0)  -->
<svg version="1.1" id="Layer_1" xmlns="http://www.w3.org/2000/svg" xmlns:xlink="http://www.w3.org/1999/xlink" x="0px" y="0px"
	 viewBox="0 0 50 50" style="enable-background:new 0 0 50 50;" xml:space="preserve">
<style type="text/css">
	.st0{fill:#2E3191;}
</style>
<g>
	<path class="st0" d="M38.9,41c0,0.6-0.4,1-1,1h-27c-0.6,0-1-0.4-1-1s0.4-1,1-1h27C38.5,40,38.9,40.4,38.9,41z M45.9,10
		c0,4.4-3.6,8-8,8s-8-3.6-8-8s3.6-8,8-8S45.9,5.6,45.9,10z M41.9,10c0-0.6-0.4-1-1-1h-2V7c0-0.6-0.4-1-1-1s-1,0.4-1,1v2h-2
		c-0.6,0-1,0.4-1,1s0.4,1,1,1h2v2c0,0.6,0.4,1,1,1s1-0.4,1-1v-2h2C41.5,11,41.9,10.6,41.9,10z M39.9,19.8c0.7-0.1,1.4-0.4,2-0.6V45
		c0,0.6-0.4,1-1,1h-30c-2.8,0-5-2.2-5-5V11c0-2.8,2.2-5,5-5h17.8c-0.5,1.2-0.8,2.6-0.8,4c0,1,0.2,2.1,0.5,3H16.9c-0.6,0-1,0.4-1,1
		s0.4,1,1,1h12.4c0.4,0.7,0.9,1.4,1.5,2H17.9c-0.6,0-1,0.4-1,1s0.4,1,1,1h13c0.6,0,1-0.4,1-1l0,0c1.7,1.3,3.8,2,6,2
		c0.3,0,0.7,0,1-0.1V37c0,0.6-0.4,1-1,1h-27c-1.7,0-3,1.3-3,3s1.3,3,3,3h29V19.8z M7.9,37c0.6-0.4,1.3-0.7,2-0.9V8.2
		c-1.2,0.4-2,1.5-2,2.8C7.9,11,7.9,37,7.9,37z"/>
</g>
</svg>
