<?xml version="1.0" encoding="utf-8"?>
<!-- Generator: Adobe Illustrator 27.1.0, SVG Export Plug-In . SVG Version: 6.00 Build 0)  -->
<svg version="1.1" id="Layer_1" xmlns="http://www.w3.org/2000/svg" xmlns:xlink="http://www.w3.org/1999/xlink" x="0px" y="0px"
	 viewBox="0 0 100 100" style="enable-background:new 0 0 100 100;" xml:space="preserve">
<style type="text/css">
	.st0{fill-rule:evenodd;clip-rule:evenodd;fill:#ED1C24;}
</style>
<g>
	<path class="st0" d="M24,84.8l-4.8-62.7h61.3l-4.8,62.7C75.5,87.7,73,90,70.1,90H29.6C26.7,90,24.2,87.7,24,84.8L24,84.8z
		 M41.4,36.2c0-1.6-1.3-2.8-2.8-2.8s-2.8,1.3-2.8,2.8v34c0,1.6,1.3,2.8,2.8,2.8s2.8-1.3,2.8-2.8V36.2z M52.7,36.2
		c0-1.6-1.3-2.8-2.8-2.8S47,34.7,47,36.2v34c0,1.6,1.3,2.8,2.8,2.8s2.8-1.3,2.8-2.8V36.2z M64,36.2c0-1.6-1.3-2.8-2.8-2.8
		s-2.8,1.3-2.8,2.8v34c0,1.6,1.3,2.8,2.8,2.8s2.8-1.3,2.8-2.8V36.2z"/>
	<path class="st0" d="M37.7,10h24.6v6.2h22.6v4.1H15.1v-4.1h22.6L37.7,10z M41.8,16.2h16.4v-2.1H41.8V16.2z"/>
</g>
</svg>
