<?xml version="1.0" encoding="utf-8"?>
<!-- Generator: Adobe Illustrator 27.1.0, SVG Export Plug-In . SVG Version: 6.00 Build 0)  -->
<svg version="1.1" id="Layer_1" xmlns="http://www.w3.org/2000/svg" xmlns:xlink="http://www.w3.org/1999/xlink" x="0px" y="0px"
	 viewBox="0 0 64 64" style="enable-background:new 0 0 64 64;" xml:space="preserve">
<style type="text/css">
	.st0{fill:#ED7899;}
	.st1{fill:#C2CDE7;}
	.st2{fill:#F9E3AE;}
	.st3{fill:#F6D397;}
	.st4{fill:#FAEFDE;}
	.st5{fill:#8D6C9F;}
</style>
<path class="st0" d="M50.9,5.9l6.8,6.8c1.6,1.6,1.6,4.1,0,5.7L54,22l0,0L41.5,9.5l0,0l3.7-3.7C46.8,4.3,49.3,4.3,50.9,5.9z"/>
<path class="st1" d="M39.1,8.9l16,16l-6.6,6.6l-16-16L39.1,8.9z"/>
<path class="st2" d="M34.1,16.9l13,13L18.5,58.5l-13-13L34.1,16.9z"/>
<path class="st3" d="M42.6,25.4l4.5,4.5L18.5,58.5L14,54L42.6,25.4z"/>
<path class="st4" d="M5,57l1-11l7,1l1,3l2.9,1.5L19,59H7L5,57z"/>
<path class="st4" d="M34.1,16.9l4.5,4.5L10,50l-4.5-4.5L34.1,16.9z"/>
<path d="M60.6,15.9c0-1.1-0.4-2.1-1.2-2.8l-8.5-8.5c-1.6-1.5-4.1-1.5-5.7,0L41,8.8c-0.8-0.8-2-0.8-2.8,0c0,0,0,0,0,0l-5.7,5.7
	c-0.8,0.8-0.8,2,0,2.8c0,0,0,0,0,0l0,0l-27,27c-0.5,0.5-0.8,1.2-0.9,1.9L4,54.7l-0.7,4.9c-0.1,0.5,0.3,1.1,0.9,1.1c0,0,0.1,0,0.1,0
	h0.1L9.3,60l8.5-0.6c0.7-0.1,1.4-0.4,1.9-0.9l27.1-27c0.8,0.7,2,0.7,2.8,0l5.7-5.7c0.8-0.8,0.8-2,0-2.8c0,0,0,0,0,0l4.2-4.2
	C60.2,18,60.6,17,60.6,15.9z M11.9,47.9l0.6,2.9c0.1,0.4,0.4,0.7,0.8,0.8l2.9,0.6l1.1,5.3L9.6,58L6,54.4l0.6-7.6L11.9,47.9z
	 M19,56.3l-1-4.8L34.7,35c0.4-0.4,0.3-1.1-0.1-1.4c-0.4-0.3-0.9-0.3-1.3,0L16.7,50.2l-2.4-0.5l-0.5-2.4l13.8-13.8
	c0.4-0.4,0.3-1.1-0.1-1.4c-0.4-0.3-0.9-0.3-1.3,0L12.4,45.9L7.8,45L34,18.8l11.3,11.3L19,56.3z M52.3,25.8L52.3,25.8
	c-0.4-0.4-1-0.4-1.4,0l-1.4,1.4c-0.4,0.4-0.4,1,0,1.4l0,0L48.1,30l0,0L34,15.9l1.4-1.4c0.4,0.4,1,0.4,1.4,0l1.4-1.4
	c0.4-0.4,0.4-1,0-1.4l1.4-1.4l0.7,0.7L53,23.7l0.7,0.7L52.3,25.8z M58,17.3l-4.2,4.2L42.4,10.2L46.7,6c0.8-0.8,2-0.8,2.8,0
	c0,0,0,0,0,0l8.5,8.5C58.8,15.3,58.8,16.5,58,17.3C58,17.3,58,17.3,58,17.3L58,17.3z"/>
<path class="st5" d="M40.3,15.2l-1.4,1.4c-0.4,0.3-0.5,1-0.2,1.4c0.3,0.4,1,0.5,1.4,0.2c0.1,0,0.1-0.1,0.2-0.2l1.4-1.4
	c0.4-0.4,0.3-1.1-0.1-1.4C41.2,14.9,40.7,14.9,40.3,15.2L40.3,15.2z M43.9,18.7l-1.4,1.4c-0.4,0.4-0.5,1-0.1,1.4s1,0.5,1.4,0.1
	c0,0,0.1-0.1,0.1-0.1l1.4-1.4c0.4-0.4,0.3-1.1-0.1-1.4C44.8,18.4,44.2,18.4,43.9,18.7z M47.4,22.3L46,23.7c-0.4,0.4-0.5,1-0.1,1.4
	s1,0.5,1.4,0.1c0,0,0.1-0.1,0.1-0.1l1.4-1.4c0.4-0.4,0.3-1.1-0.1-1.4C48.3,21.9,47.8,21.9,47.4,22.3L47.4,22.3z M31.8,26.5L29,29.3
	c-0.4,0.4-0.5,1-0.1,1.4c0.4,0.4,1,0.5,1.4,0.1c0,0,0.1-0.1,0.1-0.1l2.8-2.8c0.4-0.4,0.3-1.1-0.1-1.4C32.8,26.2,32.2,26.2,31.8,26.5
	L31.8,26.5z"/>
</svg>
