<?xml version="1.0" encoding="utf-8"?>
<!-- Generator: Adobe Illustrator 27.1.0, SVG Export Plug-In . SVG Version: 6.00 Build 0)  -->
<svg version="1.1"
	 id="Layer_1" xmlns:rdf="http://www.w3.org/1999/02/22-rdf-syntax-ns#" xmlns:cc="http://creativecommons.org/ns#" xmlns:dc="http://purl.org/dc/elements/1.1/"
	 xmlns="http://www.w3.org/2000/svg" xmlns:xlink="http://www.w3.org/1999/xlink" x="0px" y="0px" viewBox="0 0 100 100"
	 style="enable-background:new 0 0 100 100;" xml:space="preserve">
<style type="text/css">
	.st0{fill:#006838;}
</style>
<path class="st0" d="M24.9,3.3c-0.5,0-0.9,0.4-0.9,0.9v19.3h51.9V4.2c0-0.5-0.4-0.9-0.9-0.9L24.9,3.3L24.9,3.3z M8.9,28.7
	c-2.2,0-3.9,1.8-3.9,3.9v37.9c0,2.2,1.8,3.9,3.9,3.9h9.9V51.6c0-1.4,1.2-2.6,2.6-2.6h57.1c1.4,0,2.6,1.1,2.6,2.6v22.9h9.9
	c2.2,0,3.9-1.8,3.9-3.9V32.6c0-2.2-1.8-3.9-3.9-3.9L8.9,28.7L8.9,28.7z M15.1,36.2c0.7,0,1.4,0.2,1.9,0.7c0.5,0.5,0.8,1.2,0.8,1.8
	c0,0.7-0.3,1.4-0.8,1.8c-0.5,0.5-1.2,0.8-1.8,0.8c-0.7,0-1.4-0.3-1.8-0.8c-0.5-0.5-0.8-1.2-0.8-1.8c0-0.7,0.3-1.4,0.8-1.8
	C13.7,36.4,14.4,36.2,15.1,36.2z M24,54.2v29.7l8.6-8.6c1-1,2.7-1,3.7,0l9,9l16.8-16.8c1-1,2.7-1,3.7,0L76,77.7h0V54.2L24,54.2
	L24,54.2z M45.3,58.2c4.1,0,7.4,3.3,7.4,7.4s-3.3,7.4-7.4,7.4s-7.4-3.3-7.4-7.4S41.2,58.2,45.3,58.2z M45.3,63.4
	c-1.2,0-2.2,1-2.2,2.2c0,1.2,1,2.2,2.2,2.2c1.2,0,2.2-1,2.2-2.2C47.5,64.4,46.5,63.4,45.3,63.4z M63.9,73L47.1,89.9
	c-1,1-2.7,1-3.7,0l-9-9L24,91.3v4.5c0,0.5,0.4,0.9,0.9,0.9h50.2c0.5,0,0.9-0.4,0.9-0.9V85.1L63.9,73L63.9,73z"/>
</svg>
