<?xml version="1.0" encoding="utf-8"?>
<!-- Generator: Adobe Illustrator 27.1.0, SVG Export Plug-In . SVG Version: 6.00 Build 0)  -->
<svg version="1.1"
	 id="Layer_1" xmlns:rdf="http://www.w3.org/1999/02/22-rdf-syntax-ns#" xmlns:svg="http://www.w3.org/2000/svg" xmlns:inkscape="http://www.inkscape.org/namespaces/inkscape" xmlns:cc="http://creativecommons.org/ns#" xmlns:dc="http://purl.org/dc/elements/1.1/" xmlns:sodipodi="http://sodipodi.sourceforge.net/DTD/sodipodi-0.dtd"
	 xmlns="http://www.w3.org/2000/svg" xmlns:xlink="http://www.w3.org/1999/xlink" x="0px" y="0px" viewBox="0 0 16.5 16.5"
	 style="enable-background:new 0 0 16.5 16.5;" xml:space="preserve">
<style type="text/css">
	.st0{fill:#006837;}
</style>
<g transform="translate(81.64286,-139.45952)">
	<path class="st0" d="M-79.4,142.2c-0.7,0-1.4,0.6-1.4,1.4c0,2.9,0,5.8,0,8.7c0,0.7,0.6,1.4,1.4,1.4h8.7c0.7,0,1.3-0.5,1.4-1.2
		c0-0.6,0-1.3,0-1.8c0-0.3-0.5-0.3-0.5,0v1.3l-2.3-1.5c-0.1-0.1-0.2-0.1-0.3,0L-75,152l-2.6-2.6c0,0-0.1-0.1-0.2-0.1s-0.1,0-0.2,0.1
		l-2.3,2.1v-7.8c0-0.5,0.4-0.9,0.9-0.9h8.7c0.5,0,0.9,0.4,0.9,0.9v0.3c0,0.3,0.5,0.3,0.5,0v-0.3c0-0.7-0.6-1.4-1.4-1.4L-79.4,142.2
		L-79.4,142.2z M-71.1,144.4c-0.4,0-0.5,0.2-0.5,0.5c0,1.6,0,3.2,0,4.8c0,0.1,0.1,0.3,0.3,0.3h5.1c0.1,0,0.3-0.1,0.3-0.3v-5.1
		c0-0.1-0.1-0.3-0.3-0.3C-67.9,144.4-69.5,144.4-71.1,144.4z M-70.1,144.9h2.6v1.2h-2.6V144.9z M-75.3,145.5c-1,0-1.9,0.8-1.9,1.9
		s0.8,1.9,1.9,1.9c1,0,1.9-0.8,1.9-1.9S-74.3,145.5-75.3,145.5z M-69.6,148.8h1.5v0.7h-1.5V148.8z"/>
</g>
</svg>
