<?xml version="1.0" encoding="utf-8"?>
<!-- Generator: Adobe Illustrator 27.1.0, SVG Export Plug-In . SVG Version: 6.00 Build 0)  -->
<svg version="1.1" id="Layer_1"
  xmlns="http://www.w3.org/2000/svg"
  xmlns:xlink="http://www.w3.org/1999/xlink" x="0px" y="0px" viewBox="0 0 750 750" style="enable-background:new 0 0 750 750;" xml:space="preserve">
  <style type="text/css">
	.st0{fill:none;}
  </style>
  <circle id="center_point" cx="375" cy="375" r="11.2"/>
  <path id="ne_box_outer_point" d="M162.9,147.9c4,0,7.8,1.6,10.6,4.4c5.8,5.8,5.8,15.4,0,21.2c-2.8,2.8-6.6,4.4-10.6,4.4
	s-7.8-1.6-10.6-4.4c-5.8-5.8-5.8-15.4,0-21.2C155.1,149.4,158.9,147.9,162.9,147.9 M162.9,137.9c-6.4,0-12.8,2.4-17.7,7.3
	c-9.8,9.8-9.8,25.6,0,35.4c4.9,4.9,11.3,7.3,17.7,7.3s12.8-2.4,17.7-7.3c9.8-9.8,9.8-25.6,0-35.4
	C175.7,140.3,169.3,137.9,162.9,137.9L162.9,137.9z"/>
  <path id="se_box_outer_point" d="M587.1,147.9c4,0,7.8,1.6,10.6,4.4c5.8,5.8,5.8,15.4,0,21.2c-2.8,2.8-6.6,4.4-10.6,4.4
	s-7.8-1.6-10.6-4.4c-5.8-5.8-5.8-15.4,0-21.2C579.4,149.4,583.1,147.9,587.1,147.9 M587.1,137.9c-6.4,0-12.8,2.4-17.7,7.3
	c-9.8,9.8-9.8,25.6,0,35.4c4.9,4.9,11.3,7.3,17.7,7.3s12.8-2.4,17.7-7.3c9.8-9.8,9.8-25.6,0-35.4
	C599.9,140.3,593.5,137.9,587.1,137.9L587.1,137.9z"/>
  <path id="sw_box_outer_point" d="M587.1,572.1c4,0,7.8,1.6,10.6,4.4c5.8,5.8,5.8,15.4,0,21.2c-2.8,2.8-6.6,4.4-10.6,4.4
	s-7.8-1.6-10.6-4.4c-5.8-5.8-5.8-15.4,0-21.2C579.4,573.7,583.1,572.1,587.1,572.1 M587.1,562.1c-6.4,0-12.8,2.4-17.7,7.3
	c-9.8,9.8-9.8,25.6,0,35.4c4.9,4.9,11.3,7.3,17.7,7.3s12.8-2.4,17.7-7.3c9.8-9.8,9.8-25.6,0-35.4
	C599.9,564.6,593.5,562.1,587.1,562.1L587.1,562.1z"/>
  <path id="nw_box_outer_point" d="M162.9,572.1c4,0,7.8,1.6,10.6,4.4c5.8,5.8,5.8,15.4,0,21.2c-2.8,2.8-6.6,4.4-10.6,4.4
	s-7.8-1.6-10.6-4.4c-5.8-5.8-5.8-15.4,0-21.2C155.1,573.7,158.9,572.1,162.9,572.1 M162.9,562.1c-6.4,0-12.8,2.4-17.7,7.3
	c-9.8,9.8-9.8,25.6,0,35.4c4.9,4.9,11.3,7.3,17.7,7.3s12.8-2.4,17.7-7.3c9.8-9.8,9.8-25.6,0-35.4
	C175.7,564.6,169.3,562.1,162.9,562.1L162.9,562.1z"/>
  <g>
    <circle id="nw_box_hand_point" class="st0" cx="273.8" cy="273.8" r="4.2"/>
    <circle id="ne_box_hand_point" class="st0" cx="476.2" cy="273.8" r="4.2"/>
    <circle id="se_box_hand_point" class="st0" cx="476.2" cy="476.2" r="4.2"/>
    <circle id="sw_box_hand_point" class="st0" cx="273.8" cy="476.2" r="4.2"/>
  </g>
  <g>
    <circle id="n_box_layer2_point" class="st0" cx="375" cy="172.6" r="8.8"/>
    <circle id="e_box_layer2_point" class="st0" cx="577.4" cy="375" r="8.8"/>
    <circle id="s_box_layer2_point" class="st0" cx="375" cy="577.4" r="8.8"/>
    <circle id="w_box_layer2_point" class="st0" cx="172.6" cy="375" r="8.8"/>
  </g>
  <g>
    <circle id="strict_n_box_layer2_point" class="st0" cx="375" cy="162.9" r="8.8"/>
    <circle id="strict_e_box_layer2_point" class="st0" cx="587.1" cy="375" r="8.8"/>
    <circle id="strict_s_box_layer2_point" class="st0" cx="375" cy="587.1" r="8.8"/>
    <circle id="strict_w_box_layer2_point" class="st0" cx="162.9" cy="375" r="8.8"/>
  </g>
  <g>
    <circle id="strict_se_box_hand_point" class="st0" cx="481.1" cy="481.1" r="4.7"/>
    <circle id="strict_sw_box_hand_point" class="st0" cx="268.9" cy="481.1" r="4.7"/>
    <circle id="strict_nw_box_hand_point" class="st0" cx="268.9" cy="268.9" r="4.7"/>
    <circle id="strict_ne_box_hand_point" class="st0" cx="481.1" cy="268.9" r="4.7"/>
  </g>
</svg>
