<?xml version="1.0" encoding="UTF-8"?>
<svg id="Layer_1" data-name="Layer 1" xmlns="http://www.w3.org/2000/svg" xmlns:xlink="http://www.w3.org/1999/xlink" viewBox="0 0 254.36 225">
  <defs>
    <style>
      .cls-1 {
        fill: url(#Sky_4-3);
      }

      .cls-2 {
        fill: url(#Sky_4-2);
      }

      .cls-3 {
        fill: url(#Sky_4);
      }
    </style>
    <linearGradient id="Sky_4" data-name="Sky 4" x1="0" y1="88.1" x2="249.37" y2="88.1" gradientUnits="userSpaceOnUse">
      <stop offset="0" stop-color="#dce9f7"/>
      <stop offset=".5" stop-color="#b9d6ef"/>
      <stop offset="1" stop-color="#78b7e3"/>
    </linearGradient>
    <linearGradient id="Sky_4-2" data-name="Sky 4" x1="59.28" y1="165.64" x2="254.36" y2="165.64" xlink:href="#Sky_4"/>
    <linearGradient id="Sky_4-3" data-name="Sky 4" x1="37.17" y1="191.93" x2="253.37" y2="191.93" xlink:href="#Sky_4"/>
  </defs>
  <path class="cls-3" d="m76.38.38c-.64.14-2.63.63-4.39,1.06-8.31,1.97-18.03,10.15-22.65,19.18-4.27,8.18-5.97,15.09-6.03,24.18,0,12.55,3.8,23.27,11.65,32.71,4.33,5.22,4.33,6.49,0,1.62-3.16-3.53-13.52-5.22-21.31-3.53C13.75,79.91,0,100.07,0,124.68c.06,15.51,4.86,28.91,13.93,38.85,4.45,4.86,12.29,9.94,18.2,11.7,5.74,1.69,15.45,1.13,21.07-1.34,22.83-9.8,30.44-43.71,14.22-63.03-13.64-16.14-35.76-10.01-40.27,11.07-2.28,10.65,1.81,21.78,9.83,26.93,2.17,1.41,3.39,1.62,8.37,1.62,6.97,0,9.42-1.2,13.99-6.98,1.76-2.12,2.4-2.68,1.64-1.41-1.87,3.24-5.21,6.63-8.25,8.32-3.8,2.12-11.53,2.04-15.39-.07-4.1-2.26-8.25-7.26-10.18-12.41-1.46-3.74-1.7-5.22-1.64-10.36,0-8.53,1.58-13.04,6.61-19.11,4.92-5.92,8.66-7.83,16.04-8.25,8.08-.42,14.4,2.33,19.96,8.81,9.83,11.35,12.29,28.13,6.5,44.77-.35.99.47.78,3.92-1.13,11.94-6.63,22.3-9.59,33.83-9.59,13.52,0,19.37,1.62,48.58,13.4,26.28,10.58,30.26,11.63,44.19,11.63,11.76,0,15.39-.78,22.94-4.94,7.73-4.23,12.53-9.09,16.62-16.71,6.15-11.49,6.2-25.66.18-36.31-2.46-4.3-4.86-6.63-9.48-9.24-2.81-1.62-4.16-1.9-8.31-1.9s-5.5.28-8.25,1.83c-6.67,3.81-10.59,10.79-10.65,18.96,0,2.61.35,5.64.88,7.12,1.23,3.45,4.33,7.54,6.97,9.17,3.04,1.83,8.55,1.83,11.59-.07,7.2-4.37,7.49-15.79.53-18.96-2.34-1.06-4.98-.21-7.02,2.33-1.4,1.62-1.64,1.83-1.11.56,1.7-3.88,6.73-5.43,9.89-3.03,4.98,3.81,5.68,11.77,1.4,17.2-2.58,3.31-5.5,4.72-9.54,4.72-4.62,0-7.9-1.83-11.06-6.13-7.26-10.01-4.27-25.59,6.32-32.78,3.34-2.33,5.68-5.78,8.19-12.41,1.23-3.24,1.58-5.36,1.76-10.79.41-10.65-1.52-17.13-7.26-24.53-10.48-13.61-28.09-13.82-39.22-.49-1.99,2.4-4.16,5.64-4.86,7.33-1.81,4.23-1.99,3.67-.35-1.2,5.56-16.36.94-34.55-11.06-43.92-7.14-5.57-17.33-7.19-25.11-4.02-10.18,4.09-18.85,16.22-20.08,27.85-.41,4.02-1.4,5.22-1.4,1.76,0-3.17-2.22-11.28-4.51-16.29-3.22-6.98-9.95-14.66-16.04-18.19-6.73-3.95-15.39-5.92-20.72-4.65Z"/>
  <path class="cls-2" d="m252.85,138.49c-1.93,5.5-7.14,14.45-11.18,19.46-11.53,14.03-27.92,20.87-44.13,18.33-7.84-1.27-16.62-4.23-31.61-10.65-26.81-11.56-32.89-13.4-46.88-13.89-7.78-.28-11.3-.14-15.8.78-10.54,2.19-21.36,7.33-30.14,14.31-4.1,3.17-14.22,13.54-13.81,14.03.12.14,2.81-1.27,6.03-3.24,12.41-7.47,22.36-10.22,37.11-10.22s19.9,1.55,42.49,12.41c21.07,10.08,28.62,13.04,39.16,15.09,6.15,1.2,17.09,1.34,22.53.28,21.07-4.02,38.86-21.93,45.3-45.4,1.11-4.09,2.75-13.96,2.4-14.38-.18-.14-.82,1.27-1.46,3.1Z"/>
  <path class="cls-1" d="m251.39,163.38c-2.4,6.63-7.73,15.86-12.41,21.57-11.94,14.52-26.98,21.57-44.07,20.66-10.89-.56-20.02-3.31-40.21-12.2-30.26-13.32-41.5-16.29-58.12-15.58-9.66.42-16.33,1.83-24.41,5.08-10.95,4.44-22.53,12.76-30.44,21.86l-4.57,5.29,6.26-3.95c19.84-12.27,41.73-15.93,62.1-10.22,7.14,2.04,15.98,5.71,29.85,12.48,26.75,13.04,38.63,16.64,54.55,16.64,8.19-.07,12.7-.78,19.32-3.1,19.26-6.77,35.53-25.66,41.44-48.15,1.46-5.71,2.99-14.38,2.63-14.88-.12-.14-1,1.9-1.93,4.51Z"/>
</svg>