<?xml version="1.0" encoding="UTF-8"?>
<svg id="Layer_1" data-name="Layer 1" xmlns="http://www.w3.org/2000/svg" viewBox="0 0 90.31 125">
  <defs>
    <style>
      .cls-1 {
        fill: #66b764;
      }

      .cls-2 {
        fill: #7bc17a;
      }

      .cls-3 {
        fill: #75a874;
      }

      .cls-4 {
        fill: #5ba25a;
      }
    </style>
  </defs>
  <path class="cls-3" d="m46,1.69C19.91,11.58,1.69,34.09,1.69,60.27c0,25.2,16.88,46.98,41.4,57.4-.02,2.42-.03,4.65-.03,6.61,0,1.62,0,0,0,0h5.87c0-.54,0,0,0,0,0-1.96-.01-4.2-.03-6.61,24.52-10.42,41.4-32.2,41.4-57.4,0-26.18-18.22-48.68-44.31-58.57Z"/>
  <g>
    <g>
      <path class="cls-2" d="m0,58.57c0,26.18,18.22,48.68,44.31,58.57V0C18.22,9.89,0,32.39,0,58.57Z"/>
      <path class="cls-1" d="m88.61,58.57c0,26.18-18.22,48.68-44.31,58.57V0c26.09,9.89,44.31,32.39,44.31,58.57Z"/>
    </g>
    <path class="cls-4" d="m47.24,124.88q.16-.71,0-2.3c0-28.2-2.35-107.42-2.94-110.55-.59,3.13-2.94,82.35-2.94,110.55,0,1.62,0,2.29,0,2.29h5.88Z"/>
    <path class="cls-4" d="m45.42,54.9l-1.29-1.29c-5.81-5.81-23.23-21-24.15-21.37.37.92,15.57,18.35,21.37,24.15l1.29,1.29,2.78-2.78Z"/>
    <path class="cls-4" d="m45.42,84.44l-1.29-1.29c-5.81-5.81-23.23-21-24.15-21.37.37.92,15.57,18.35,21.37,24.15l1.29,1.29,2.78-2.78Z"/>
    <path class="cls-4" d="m43.69,54.9l1.29-1.29c5.81-5.81,23.23-21.01,24.15-21.37-.37.92-15.57,18.35-21.37,24.15l-1.29,1.29-2.78-2.78Z"/>
    <path class="cls-4" d="m43.69,84.44l1.29-1.29c5.8-5.8,23.23-21,24.15-21.37-.37.92-15.57,18.35-21.37,24.15l-1.29,1.29-2.78-2.78Z"/>
  </g>
</svg>