<?xml version="1.0" encoding="UTF-8"?>
<svg id="Layer_1" data-name="Layer 1" xmlns="http://www.w3.org/2000/svg" viewBox="0 0 180.61 250">
  <defs>
    <style>
      .cls-1 {
        fill: #66b764;
      }

      .cls-2 {
        fill: #7bc17a;
      }

      .cls-3 {
        fill: #75a874;
      }

      .cls-4 {
        fill: #5ba25a;
      }
    </style>
  </defs>
  <path class="cls-3" d="m92,3.38C39.83,23.17,3.38,68.17,3.38,120.53c0,50.4,33.76,93.96,82.81,114.8-.04,4.83-.07,9.3-.07,13.23,0,3.25,0,0,0,0h11.75c0-1.08,0,0,0,0,0-3.93-.02-8.39-.07-13.23,49.04-20.83,82.81-64.4,82.81-114.8,0-52.36-36.44-97.37-88.61-117.15Z"/>
  <g>
    <g>
      <path class="cls-2" d="m0,117.15c0,52.36,36.44,97.37,88.62,117.15V0C36.44,19.78,0,64.79,0,117.15Z"/>
      <path class="cls-1" d="m177.23,117.15c0,52.36-36.44,97.37-88.61,117.15V0c52.17,19.78,88.61,64.79,88.61,117.15Z"/>
    </g>
    <path class="cls-4" d="m94.49,249.76q.33-1.43,0-4.59c0-56.4-4.7-214.84-5.87-221.1-1.18,6.27-5.87,164.71-5.87,221.1,0,3.25,0,4.59,0,4.59h11.75Z"/>
    <path class="cls-4" d="m90.83,109.79l-2.58-2.58c-11.61-11.61-46.46-42.01-48.3-42.74.73,1.85,31.13,36.69,42.74,48.31l2.58,2.58,5.56-5.56Z"/>
    <path class="cls-4" d="m90.83,168.87l-2.58-2.58c-11.61-11.61-46.46-42.01-48.31-42.74.73,1.85,31.13,36.7,42.74,48.31l2.58,2.58,5.56-5.56Z"/>
    <path class="cls-4" d="m87.39,109.79l2.58-2.58c11.61-11.61,46.46-42.01,48.31-42.74-.73,1.85-31.13,36.69-42.74,48.31l-2.58,2.58-5.56-5.56Z"/>
    <path class="cls-4" d="m87.39,168.87l2.58-2.58c11.61-11.61,46.46-42.01,48.31-42.74-.73,1.85-31.13,36.7-42.74,48.31l-2.58,2.58-5.57-5.57Z"/>
  </g>
</svg>