<?xml version="1.0" encoding="UTF-8"?>
<svg id="Layer_1" data-name="Layer 1" xmlns="http://www.w3.org/2000/svg" viewBox="0 0 195.09 250">
  <defs>
    <style>
      .cls-1 {
        fill: #f4ea02;
      }

      .cls-1, .cls-2 {
        fill-rule: evenodd;
      }

      .cls-2 {
        fill: #f2673a;
      }
    </style>
  </defs>
  <path class="cls-2" d="m195.09,158.38c0,39.68-27.16,73.43-65.03,85.94-.82.33-1.65.49-2.47.82.33-.16.66-.49.99-.66,22.39-16.46,39.35-57.62-5.6-73.59,15.64,33.26-18.93,42.15-32.27,21.24-9.38-14.65-7.74-40.5-4.94-53.51,4.94-22.88,11.69-41.32,10.54-68.32-4.28,48.24-91.21,108.99-17.62,176.98.33.33.49.49.82.82-1.15-.16-2.3-.33-3.46-.66C32.43,238.39,0,202,0,158.54c0-25.35,9.05-44.78,28.98-61.9-1.81,5.43-3.95,10.87-5.6,16.3-9.88,33.58,18.77,43.3,15.97,11.52C33.26,55.48,106.19,39.68,86.76,0c31.44,15.15,56.47,38.19,50.71,74.91-1.48,9.71-7.57,27.82-4.77,36.88,5.27,16.79,33.26,16.63,34.24-14.65,11.03,8.89,20.09,23.05,24.37,36.22,2.8,7.41,3.79,15.8,3.79,25.02Z"/>
  <path class="cls-1" d="m127.59,245.14c-16.79,5.27-31.44,6.26-48.07,2.96-74.74-67.99,11.85-129.57,16.79-177.8,1.15,27-5.6,45.44-10.54,68.32-2.8,13.01-4.45,38.85,4.94,53.51,13.34,20.91,47.91,12.02,32.27-21.24,45.93,15.64,27.82,57.62,4.61,74.25Z"/>
</svg>