<?xml version="1.0" encoding="UTF-8"?>
<svg id="Layer_1" data-name="Layer 1" xmlns="http://www.w3.org/2000/svg" viewBox="0 0 84.2 125">
  <defs>
    <style>
      .cls-1 {
        fill: #63b7cd;
      }

      .cls-2 {
        fill: #003879;
      }

      .cls-3 {
        fill: #084ca1;
      }
    </style>
  </defs>
  <path class="cls-3" d="m84.2,84.05c0,28.3-27.69,40.95-42.1,40.95S0,112.35,0,84.05,21.82,52.61,42.1,0c20.28,52.61,42.1,55.74,42.1,84.05Z"/>
  <path class="cls-1" d="m11.9,94.61s1.58-7.46,11.67-19.14,15.21-13.24,20.91-20.89c6.8-9.14,2.4-27.97-2.25-36.31-15.51,42.09-20.41,30.51-29.92,51.03-5.34,11.52-.41,25.31-.41,25.31Z"/>
  <path class="cls-2" d="m76.82,72.46s2.68,18.46-6.74,31.1c-9.42,12.64-29.98,12.31-29.98,12.31,0,0,10.79-5.17,21.93-18.76,11.14-13.59,14.78-24.65,14.78-24.65Z"/>
</svg>