<?xml version="1.0" encoding="UTF-8"?>
<svg id="Layer_1" data-name="Layer 1" xmlns="http://www.w3.org/2000/svg" viewBox="0 0 168.41 250">
  <defs>
    <style>
      .cls-1 {
        fill: #63b7cd;
      }

      .cls-2 {
        fill: #003879;
      }

      .cls-3 {
        fill: #084ca1;
      }
    </style>
  </defs>
  <path class="cls-3" d="m168.41,168.09c0,56.6-55.38,81.91-84.2,81.91S0,224.7,0,168.09,43.64,105.22,84.2,0c40.57,105.22,84.2,111.49,84.2,168.09Z"/>
  <path class="cls-1" d="m23.79,189.23s3.17-14.92,23.34-38.28c20.18-23.36,30.42-26.48,41.82-41.78,13.6-18.27,4.81-55.94-4.5-72.61-31.02,84.19-40.81,61.03-59.85,102.05-10.68,23.03-.82,50.62-.82,50.62Z"/>
  <path class="cls-2" d="m153.63,144.92s5.37,36.92-13.48,62.2c-18.85,25.28-59.95,24.62-59.95,24.62,0,0,21.58-10.34,43.87-37.52,22.29-27.18,29.56-49.3,29.56-49.3Z"/>
</svg>