<?xml version="1.0" encoding="utf-8"?>
<!-- Generator: Adobe Illustrator 27.1.0, SVG Export Plug-In . SVG Version: 6.00 Build 0)  -->
<svg version="1.1" id="Layer_1"
	xmlns="http://www.w3.org/2000/svg"
	xmlns:xlink="http://www.w3.org/1999/xlink" x="0px" y="0px" viewBox="0 0 487.3 76.1" style="enable-background:new 0 0 487.3 76.1;" xml:space="preserve">
	<style type="text/css">
	.st0{fill:#2E3192;}
	</style>
	<path class="st0" d="M486.6,19.1c-0.2-1.8-3.1-8.8-14.7-8.8l-0.3,37c-42.5-38-137.6-58.8-231.6-40C164.8-11,67,10.2,5.1,58.2
	c-12,9.3,0,25.5,12.5,14.5C74.4,22.5,185,6.4,219.5,20c-5.7,3.3-9.5,14.7-9.5,20.3s4.9,23.9,29.9,23.9c25,0,30.3-16.9,30.3-23.9
	s-6.8-16.4-11.9-19.8c62.2-13.2,149-0.9,200.6,39.9l-37.2,0.3c0,11.6,7,14.5,8.8,14.7c11.9,1.8,49-0.5,55.2-0.9c0,0,0,0,0-0.1h0.1
	C486.1,68.1,488.5,31,486.6,19.1z M253.1,40.1c0,7.2-8.8,10.3-12.9,10.3c-4.1,0-13.2-2.2-13.2-10.3s9.6-12.8,12.7-12.8
	S253.1,32.9,253.1,40.1z"/>
</svg>
