<?xml version="1.0" encoding="utf-8"?>
<!-- Generator: Adobe Illustrator 27.1.0, SVG Export Plug-In . SVG Version: 6.00 Build 0)  -->
<svg version="1.1" id="Layer_1" xmlns="http://www.w3.org/2000/svg" xmlns:xlink="http://www.w3.org/1999/xlink" x="0px" y="0px"
	 viewBox="0 0 363.8 106.1" style="enable-background:new 0 0 363.8 106.1;" xml:space="preserve">
<style type="text/css">
	.st0{fill:#2E3192;}
</style>
<g>
	<path class="st0" d="M4.4,90.6C237.5-53.8,448.7-3.8,325.2,89.7l0,0l38.6,0.8c-0.1,3.2-1.2,13.6-8.8,14.8
		c-3.3,0.5-8.5,0.8-15.4,0.8c-15.7,0-35.9-1.4-40.3-1.7c-0.3-6.3-2.4-45.2-0.8-55.5c1.1-7.7,11.4-8.9,14.6-9
		c-0.1,37.6,0.2,37.9,0.2,37.9C416.6,5.9,225-26.3,13.6,104.4C2.6,111.2-5.4,96.6,4.4,90.6z"/>
</g>
</svg>
