<?xml version="1.0" encoding="utf-8"?>
<!-- Generator: Adobe Illustrator 27.1.0, SVG Export Plug-In . SVG Version: 6.00 Build 0)  -->
<svg version="1.1" id="Layer_1"
	xmlns="http://www.w3.org/2000/svg"
	xmlns:xlink="http://www.w3.org/1999/xlink" x="0px" y="0px" viewBox="0 0 364.2 108.3" style="enable-background:new 0 0 364.2 108.3;" xml:space="preserve">
	<style type="text/css">
	.st0{fill:#2E3192;}
	</style>
	<g>
		<path class="st0" d="M10.7,108.3c-4.9,0-9.2-3-10.4-7.4C-0.8,97,1,93.3,5.3,90.8c51.4-30.7,102.9-54.2,152.9-69.9
		C201.8,7.2,243.1,0,277.8,0c43.3,0,73.4,11.5,80.4,30.9c6,16.4-4.9,37.3-30.6,59.1l-2,1.7l38.6,0.8c-0.1,3.2-1.2,13.6-8.8,14.8
		c-3.3,0.5-8.5,0.8-15.4,0.8c-15.7,0-35.9-1.4-40.3-1.7c-0.3-6.3-2.4-45.2-0.8-55.5c1.1-7.7,11.4-8.9,14.6-9
		c-0.1,37.6-0.1,37.6,0.3,38l0.6,0.6l0.7-0.6c20.7-16.6,29.2-30.7,25.3-41.7c-4.4-12.6-25-19.5-57.9-19.5
		c-63.4,0-172.8,27.1-263.3,86.7C16.4,107.3,13.5,108.3,10.7,108.3z"/>
	</g>
</svg>
