<?xml version="1.0" encoding="utf-8"?>
<!-- Generator: Adobe Illustrator 27.1.0, SVG Export Plug-In . SVG Version: 6.00 Build 0)  -->
<svg version="1.1" id="Layer_1" xmlns="http://www.w3.org/2000/svg" xmlns:xlink="http://www.w3.org/1999/xlink" x="0px" y="0px"
	 viewBox="0 0 486 163.9" style="enable-background:new 0 0 486 163.9;" xml:space="preserve">
<style type="text/css">
	.st0{fill:#2E3192;}
</style>
<g>
	<path class="st0" d="M473,163.9c-12.1-0.1-48.3-8.4-54.3-9.8c0.6-6.2,4.3-44.4,8-55.9c1.9-5.3,15.2-5.2,16-5.1l-4.4,37.1
		c63.1-46.8-23-108-204.9-108c-56,0-159.3,29.1-215.8,62.8C0.2,95.2-7.1,78.7,6.4,70.7C61.9,37.6,157.9,6,233,6
		c196.2,0,292.3,71.7,216.2,138.3l34.7,6.4C483.4,154,480.6,163.9,473,163.9L473,163.9z"/>
</g>
</svg>
