<?xml version="1.0" encoding="utf-8"?>
<!-- Generator: Adobe Illustrator 27.1.0, SVG Export Plug-In . SVG Version: 6.00 Build 0)  -->
<svg version="1.1" id="Layer_1" xmlns="http://www.w3.org/2000/svg" xmlns:xlink="http://www.w3.org/1999/xlink" x="0px" y="0px"
	 viewBox="0 0 230.2 255.1" style="enable-background:new 0 0 230.2 255.1;" xml:space="preserve">
<style type="text/css">
	.st0{fill:#2E3192;}
	.st1{fill:#2E3191;}
</style>
<g>
	<path class="st0" d="M186.5,255.1c-5,0-10-4.1-11.8-5.8l27.8-28.2l-2.3-0.1c-38.5-1.4-62.7-9.4-76-25.2
		c-12.2-14.4-15.9-35.6-11.7-66.8l0.2-1.5l-1.4,0.3c-10.7,2.6-20.8,3.9-30,3.9c-27.5,0-48.5-11.5-62.2-34.2C6.4,76.7,0,46.9,0,9.1
		C0,2.8,4.8,0,9.2,0c4.5,0,9.3,2.9,9.3,9.2c0,38.7,5.6,65.4,17,81.7c9.8,14,23.9,20.6,44.2,20.6c16.4,0,34.9-4.2,54.4-8.6l2-0.5
		c-10.4,40.2-9.4,66.6,3.3,83c10.2,13.2,27.7,19.7,53.5,19.7c0,0,0,0,0,0c2.4,0,4.9-0.1,7.5-0.2l2.3-0.1l-27.9-27.4
		c1.8-1.6,6.7-5.6,11.6-5.6c1.8,0,3.5,0.6,5,1.7c8.5,6.2,34.5,35.2,38.8,39.9c-4,4.6-28.1,32.3-38.8,40
		C190,254.5,188.3,255.1,186.5,255.1L186.5,255.1z"/>
</g>
<path class="st1" d="M510.5,230.2c0,0-30.1-33.8-39.5-40.7c-8.2-6.1-18.7,4.7-18.7,4.7l27,26.5c-73.1,3.3-79.1-41.2-62.8-102.9
	c-63.4,14.3-118,29-118-91.9c0-13.5-20.5-13.6-20.5-0.1c0,83.8,31.9,139.4,112.6,119.8c-8.8,65.4,17.2,90.5,88.6,93.1L452.3,266
	c0,0,10.5,11,18.7,5C482.8,262.5,510.5,230.2,510.5,230.2z"/>
</svg>
