<?xml version="1.0" encoding="utf-8"?>
<!-- Generator: Adobe Illustrator 27.1.0, SVG Export Plug-In . SVG Version: 6.00 Build 0)  -->
<svg version="1.1" id="Layer_1"
	xmlns="http://www.w3.org/2000/svg"
	xmlns:xlink="http://www.w3.org/1999/xlink" x="0px" y="0px" viewBox="0 0 105.2 348" style="enable-background:new 0 0 105.2 348;" xml:space="preserve">
	<style type="text/css">
	.st0{fill:#2E3192;}
	</style>
	<g>
		<path class="st0" d="M50.9,348c-7.7,0-10.4-10-11-13.2l34.8-6c-86-89-77.8-190.5-57-230.5C1.9,75.7-1.9,26.2,0.8,10.2
		S19-1.3,17.1,11.8C15.3,25,14,53,26.5,80.8c0,0,9.5-13.8,26.7-13.8s29.4,14.4,29.4,31.3s-11.4,28.9-29.4,28.9
		c-11.9,0-15.7-4.2-24.3-13.5c-15.5,43.9-13.8,126.5,58,201.9l-5.5-38.2c0.8-0.1,13.7-1.1,15.9,6.3c3.7,11.4,7.3,48.4,7.9,54.6
		C99.2,339.7,63,347.9,50.9,348z M52.8,84.4c-8.6,0-14.8,6.4-17.1,13.2c2.9,5.4,7.3,13.2,17.1,13.2s13.6-5.8,13.6-12.5
		C66.4,91.4,61.4,84.4,52.8,84.4z"/>
	</g>
</svg>
