<?xml version="1.0" encoding="UTF-8"?>
<svg id="Layer_2" data-name="Layer 2" xmlns="http://www.w3.org/2000/svg" viewBox="0 0 59.92 100">
  <defs>
    <style>
      .cls-1 {
        fill: #231f20;
      }
    </style>
  </defs>
  <g id="Layer_1-2" data-name="Layer 1">
    <path class="cls-1" d="m1.84,93.53C-.24,72.24-.82,21.89,1.5,5.15c0,0,17.79-7.49,51.83-4.4,4.23.38,6.19,2.52,6.33,5.34.26,5.43.04,10.77-5.54,11.08-13.19.74-36.79,1.55-36.79,1.55,0,0-.25,7.62-.23,9.81.04,3.42.15,9.68.15,9.68,0,0,20.8.12,33.58.71,4.73.22,8.83-.53,9.08,7.4.18,5.75-3.81,7.02-9.13,7.41-12.18.89-32.46.4-32.46.4.67,15.72,1.85,31.91,1.85,37.83,0,6.89-5.69,8.03-9.67,8.03-5.88,0-8.46-4.39-8.67-6.47Z"/>
  </g>
</svg>