<?xml version="1.0" encoding="utf-8"?>
<!-- Generator: Adobe Illustrator 27.1.0, SVG Export Plug-In . SVG Version: 6.00 Build 0)  -->
<svg version="1.1" id="Layer_2_00000182498683553722626540000014110328808373250458_"
	 xmlns="http://www.w3.org/2000/svg" xmlns:xlink="http://www.w3.org/1999/xlink" x="0px" y="0px" viewBox="0 0 100 100"
	 style="enable-background:new 0 0 100 100;" xml:space="preserve">
<style type="text/css">
	.st0{fill:#231F20;}
</style>
<g id="Layer_1-2">
	<path class="st0" d="M93.2,91.8c-3.9,0.5-8-2.3-10-9.6c-3.5-12.9-7.8-31-12-47.2c-9.3,22.8-15.6,36.8-20.9,36.7
		c-0.1,0-0.2,0-0.3-0.1c-0.1,0.1-0.2,0.1-0.3,0.1c-5.3,0.1-11.6-13.9-20.9-36.7c-4.3,16.2-8.5,34.3-12,47.2c-2,7.2-6.1,10.1-10,9.6
		c-4.9-0.6-8.2-4.1-6.2-10.5C2.7,74.5,16,30.5,19.9,16.7c4-13.9,13.3-7.6,15.1-4.1C36.7,16,46.3,43.3,50,51
		c3.7-7.8,13.3-35,15.1-38.5c1.7-3.4,11.1-9.7,15.1,4.1C84,30.5,97.3,74.5,99.4,81.3C101.4,87.7,98.1,91.2,93.2,91.8L93.2,91.8z"/>
</g>
</svg>
