<?xml version="1.0" encoding="utf-8"?>
<!-- Generator: Adobe Illustrator 27.1.0, SVG Export Plug-In . SVG Version: 6.00 Build 0)  -->
<svg version="1.1" id="Layer_2_00000050664677976902956350000012833660850593364407_"
	 xmlns="http://www.w3.org/2000/svg" xmlns:xlink="http://www.w3.org/1999/xlink" x="0px" y="0px" viewBox="0 0 100 100"
	 style="enable-background:new 0 0 100 100;" xml:space="preserve">
<style type="text/css">
	.st0{fill:#231F20;}
</style>
<g id="Layer_1-2">
	<path class="st0" d="M80.4,86.9C77.7,98.7,74.8,100,70.3,100s-6.2-0.6-11.7-12.5S43,54,34.8,33.2c-4.4,19.4-10.1,41.7-13,53.1
		s-7.1,14.4-11.5,13.7c-1-0.2-8.3-3-5.4-14c2.2-8.1,16.8-64.2,19.6-76.1c2.9-12,14.2-12.5,17.3-4.4c3.3,8.4,22,56.9,25.5,66.2
		c1.9-8.5,8.4-52.1,10.3-61.4C79.6,0.9,84.3,0,87.7,0c3.4,0,8.3,2.3,7.4,10.6C94.7,14.3,83.1,75,80.4,86.9z"/>
</g>
</svg>
