<?xml version="1.0" encoding="utf-8"?>
<!-- Generator: Adobe Illustrator 27.1.0, SVG Export Plug-In . SVG Version: 6.00 Build 0)  -->
<svg version="1.1" id="Layer_2_00000081640049398363003310000011625420178690402190_"
	 xmlns="http://www.w3.org/2000/svg" xmlns:xlink="http://www.w3.org/1999/xlink" x="0px" y="0px" viewBox="0 0 120 120"
	 style="enable-background:new 0 0 120 120;" xml:space="preserve">
<style type="text/css">
	.st0{fill:#231F20;}
</style>
<g id="Layer_1-2">
	<path class="st0" d="M17.6,78.8C12.1,49,17.9,31.9,38.6,16.4c18.6-13.9,49.2-3.3,57.8,12.4c7.3,13.2,15.4,40.9-4.7,64.9
		c-6.7,8-15.9,14-26.2,15.7C40.9,113.5,20.7,95.4,17.6,78.8L17.6,78.8z M39.9,83.8c11.4,11.3,34.1,11.1,44.5-7
		C94.6,59.1,85,40.1,78.1,34c-5.5-4.9-25.3-11.9-37.6,4.1C29.4,52.6,32.1,76.1,39.9,83.8z"/>
</g>
</svg>
