<?xml version="1.0" encoding="utf-8"?>
<!-- Generator: Adobe Illustrator 27.1.0, SVG Export Plug-In . SVG Version: 6.00 Build 0)  -->
<svg version="1.1" id="Layer_2_00000077291805520578734650000007245999312582408104_"
	 xmlns="http://www.w3.org/2000/svg" xmlns:xlink="http://www.w3.org/1999/xlink" x="0px" y="0px" viewBox="0 0 120 120"
	 style="enable-background:new 0 0 120 120;" xml:space="preserve">
<style type="text/css">
	.st0{fill:#231F20;}
</style>
<g id="Layer_1-2">
	<path class="st0" d="M30.2,14.8c21-6.8,43.5-6.2,51.5,1.2c13,12,11.7,28,5.3,37.8c-9.6,14.7-39.3,14.2-39.3,14.2s2,32.3,2,37
		c0,3.4-5,5.1-7.4,5.1c-2.6,0-8.4-1.1-8.8-5.1C28.3,51.9,26.8,21.9,30.2,14.8z M46.6,53.2c23.7,2.4,31.2-6.5,29.2-20
		s-27.1-10-30.1-8.5C44.6,40.2,44.9,42.3,46.6,53.2L46.6,53.2z"/>
</g>
</svg>
