<?xml version="1.0" encoding="UTF-8"?>
<svg id="Layer_2" data-name="Layer 2" xmlns="http://www.w3.org/2000/svg" viewBox="0 0 94.29 100">
  <defs>
    <style>
      .cls-1 {
        fill: #231f20;
      }
    </style>
  </defs>
  <g id="Layer_1-2" data-name="Layer 1">
    <path class="cls-1" d="m91.76,85.07l-9.67-9.87-.2-.2c12.26-21.73,5.08-44.65-1.2-56.21C72.03,3.14,41.43-7.42,22.89,6.43,2.16,21.78-3.52,39.02,1.96,68.72c2.99,16.64,23.22,34.78,47.84,30.7,7.87-1.4,15.15-5.28,21.13-10.66l8.37,8.57c3.39,3.39,8.87,3.49,12.36.1,3.49-3.39,3.49-8.97.1-12.36Zm-67.57-11.36c-7.77-7.67-10.46-31.19.6-45.64,12.36-15.95,32.09-8.97,37.57-4.09,6.38,5.78,15.25,22.62,8.07,39.27l-1-1v-.1l-10.17-10.27c-3.39-3.49-8.97-3.49-12.36-.1-1.79,1.59-2.59,3.89-2.59,6.18s.8,4.48,2.49,6.18l10.96,11.16,1.5,1.49c-11.36,7.47-26.51,5.48-35.08-3.09Z"/>
  </g>
</svg>