<?xml version="1.0" encoding="UTF-8"?>
<svg id="Layer_2" data-name="Layer 2" xmlns="http://www.w3.org/2000/svg" viewBox="0 0 82.28 100">
  <defs>
    <style>
      .cls-1 {
        fill: #231f20;
      }
    </style>
  </defs>
  <g id="Layer_1-2" data-name="Layer 1">
    <path class="cls-1" d="m80.33,55.25c-1.09,7.33-2.97,14.16-5.84,21.09-6.04,14.16-18.02,22.97-32.08,23.66h-2.57c-14.06-.69-26.04-9.5-32.08-23.66-2.77-6.73-4.65-13.56-5.74-21.09C.14,42.18-.36,29.21.24,11.79.44,7.14,1.52,3.77,3.6,1.89,4.99.6,6.77,0,8.85,0c6.44.4,7.82,6.63,8.22,12.08.1,1.78,0,4.75-.1,8.61-.49,15.15-1.39,43.46,9.31,53.56,2.08,1.98,5.84,4.26,9.41,5.64,3.46,1.39,7.33,1.39,10.79,0,3.56-1.39,7.43-3.66,9.5-5.64,10.59-10.1,9.8-38.11,9.31-53.26-.1-3.96-.2-7.13,0-8.91.3-4.95,1.49-11.68,8.02-12.08,2.08-.1,3.86.59,5.25,1.88,2.18,1.88,3.27,5.25,3.37,9.9.79,18.02.3,30.59-1.58,43.46Z"/>
  </g>
</svg>