<?xml version="1.0" encoding="UTF-8"?>
<svg id="Layer_2" data-name="Layer 2" xmlns="http://www.w3.org/2000/svg" viewBox="0 0 119.34 100">
  <defs>
    <style>
      .cls-1 {
        fill: #231f20;
      }
    </style>
  </defs>
  <g id="Layer_1-2" data-name="Layer 1">
    <path class="cls-1" d="m111.25.07c-4.62-.62-9.55,2.77-11.92,11.4-4.21,15.41-9.25,36.99-14.38,56.3-11.1-27.23-18.6-43.87-24.97-43.77-.1,0-.21,0-.31.1-.1-.1-.21-.1-.31-.1-6.37-.1-13.87,16.54-24.97,43.77-5.14-19.31-10.17-40.89-14.38-56.3C17.65,2.84,12.72-.55,8.1.07,2.24.79-1.66,5,.7,12.6c2.47,8.12,18.39,60.72,23.01,77.16,4.73,16.54,15.92,9.04,17.98,4.93,2.05-4.11,13.56-36.68,17.98-45.92,4.42,9.25,15.92,41.81,17.98,45.92,2.05,4.11,13.25,11.61,17.98-4.93,4.62-16.44,20.55-69.04,23.01-77.16,2.36-7.6-1.54-11.81-7.4-12.53Z"/>
  </g>
</svg>