<?xml version="1.0" encoding="utf-8"?>
<!-- Generator: Adobe Illustrator 27.1.0, SVG Export Plug-In . SVG Version: 6.00 Build 0)  -->
<svg version="1.1" id="Layer_1" xmlns="http://www.w3.org/2000/svg" xmlns:xlink="http://www.w3.org/1999/xlink" x="0px" y="0px"
	 viewBox="0 0 132.8 370.4" style="enable-background:new 0 0 132.8 370.4;" xml:space="preserve">
<style type="text/css">
	.st0{fill:#2E3192;}
	.st1{fill:#2E3191;}
</style>
<g>
	<path class="st0" d="M77.8,370.4c-7.7-0.1-10.2-10.2-10.9-13.4l37.5-5.8l-2-1.4c-15.8-11.1-50.4-54.9-74.4-113.4
		C6.3,183.4-14,101,12.8,9.1C14.7,2.4,19.5,0,23.4,0c3.2,0,6.2,1.5,8,4c2.1,2.9,2.5,7,1.1,11.5C5,99.2,25.1,178.2,46.8,229.8
		C71.8,289,105.2,328.9,114,336l2,1.7l-6.3-38.3c0.7-0.1,1.6-0.1,2.7-0.1c4.9,0,11.2,1.2,12.9,6.9c3.2,10.1,6.8,48.8,7.4,55.1
		c-6,1.3-41.4,9.2-54.8,9.2C78,370.4,77.8,370.4,77.8,370.4z"/>
</g>
<path class="st1" d="M517.9,358c0,0-4-45-7.5-56.2c-3-9.7-17.8-7.3-17.8-7.3l6,36.7c-18.1-14.7-133.2-161-81.2-319.4
	c5.7-17.5-16.8-23.7-21.6-7c-50.3,172.6,61.2,321.4,90.1,341.8l-36.1,5.6c0,0,1.9,15.1,12,15.2C476.4,367.5,517.9,358,517.9,358z"/>
</svg>
