<?xml version="1.0" encoding="utf-8"?>
<!-- Generator: Adobe Illustrator 27.1.0, SVG Export Plug-In . SVG Version: 6.00 Build 0)  -->
<svg version="1.1" id="Layer_1" xmlns="http://www.w3.org/2000/svg" xmlns:xlink="http://www.w3.org/1999/xlink" x="0px" y="0px"
	 viewBox="0 0 250.5 320.9" style="enable-background:new 0 0 250.5 320.9;" xml:space="preserve">
<style type="text/css">
	.st0{fill:#2E3191;}
</style>
<path class="st0" d="M116.5,315.8C-21.9,275.8-2.5,143.5,6.1,14C7.4-5.4,31.9-4.3,30.3,15.1c-1.8,20.9-58.7,255.2,96.2,284.2
	c79.7,14.9,146.7-67.3,61.3-147.6l0.9,36.6c0,0-15.1,0.7-17.1-9.2c-2.5-13.1-1-56.3-1-56.3s42.9-4.5,56.2-3
	c10.1,1.4,10.3,16.5,10.3,16.5l-36.3,1.6C311.3,243.8,217.2,345,116.5,315.8z"/>
</svg>
