<?xml version="1.0" encoding="utf-8"?>
<!-- Generator: Adobe Illustrator 27.1.0, SVG Export Plug-In . SVG Version: 6.00 Build 0)  -->
<svg version="1.1" id="Layer_1" xmlns="http://www.w3.org/2000/svg" xmlns:xlink="http://www.w3.org/1999/xlink" x="0px" y="0px"
	 viewBox="0 0 230.1 255.1" style="enable-background:new 0 0 230.1 255.1;" xml:space="preserve">
<style type="text/css">
	.st0{fill:#2E3192;}
	.st1{fill:#2E3191;}
</style>
<g>
	<path class="st0" d="M186.5,255.1c-5,0-10-4.1-11.8-5.8l28.2-27.6l-14.3,0c-95.1,0-141.9-1.1-165.2-25.8C-0.1,171-0.1,122.5,0,26
		c0-5.2,0-10.5,0-15.9C0,3.1,4.8,0,9.3,0c4.5,0,9.4,3.2,9.4,10.4c0,10.3,0,20-0.1,29.2c-0.2,82.5-0.3,123.9,20.2,144.6
		c18.2,18.2,50.8,20.1,121,20.1c6,0,12.2,0,18.6,0c7,0,14.4,0,22.1,0h2.5l-28.4-26.7c1.8-1.6,6.7-5.6,11.7-5.6c1.8,0,3.5,0.5,5,1.6
		c8.5,6.2,34.5,35.2,38.8,39.9c-4,4.6-28.2,32.3-38.8,40C189.9,254.5,188.2,255.1,186.5,255.1z"/>
</g>
<path class="st1" d="M313.5,303.7c0-14.8,20.7-14.8,20.7,0.3c0,201.3-10.3,192.9,180.8,192.9l-27.3-25.7c0,0,10.4-10.8,18.7-4.8
	c9.4,6.9,39.5,40.7,39.5,40.7s-27.8,32.3-39.5,40.8c-8.2,6-18.7-5-18.7-5l27.2-26.6C308.1,516.4,313.5,516,313.5,303.7L313.5,303.7z
	"/>
</svg>
