<?xml version="1.0" encoding="utf-8"?>
<!-- Generator: Adobe Illustrator 27.1.0, SVG Export Plug-In . SVG Version: 6.00 Build 0)  -->
<svg version="1.1" id="Layer_1" xmlns="http://www.w3.org/2000/svg" xmlns:xlink="http://www.w3.org/1999/xlink" x="0px" y="0px"
	 viewBox="0 0 106.1 367.3" style="enable-background:new 0 0 106.1 367.3;" xml:space="preserve">
<style type="text/css">
	.st0{fill:#2E3192;}
</style>
<g>
	<path class="st0" d="M51,367.3c-7.7,0-10.4-10-11-13.2l34.8-6c-86-89-77.5-185.5-57-230.4c0,0-32.2-36.3-10.1-111.3
		c3-10,19.8-8.3,15.7,4.9c-18.4,59.2,3.2,89.8,3.2,89.8S40.1,84,63.9,84s42.2,10,42.2,33.7S79.3,152,63.9,152s-26.8-8.7-35.4-17.9
		C12.9,177.9,15.2,259.5,87,334.9l-5.5-38.2c0.8-0.1,13.7-1.1,15.9,6.3c3.7,11.4,7.3,48.4,7.9,54.6C99.3,359,63.1,367.2,51,367.3z
		 M63.9,98.2c-15.3,0-28.2,19.5-28.2,19.5S46.1,136,63.9,136s25.2-7.4,25.2-18.3S79.2,98.2,63.9,98.2z"/>
</g>
</svg>
