<?xml version='1.0' encoding='UTF-8'?>
<svg viewBox="0 0 275 275" xmlns="http://www.w3.org/2000/svg">
  <path fill="#2E3191" d="M31.8,17.8c0,8-4.4,36.1,10.6,51
    c18.1,17.9,48.6,7.4,69.2-0.3l4.6-1.8l-1.4,4.8
    c-9.9,34.6-13.6,57.5-2.8,68.1
    c18.6,18.4,67.9-3.1,68.4-3.3l6.2-2.7l-2.9,6.1
    c-12.2,25.5-16.3,46.8-8.5,59.7
    c6.4,10.7,21.2,17.1,41,17.1
    c2.7-0.1,9.9,0.2,14,0.1
    L204.4,191c0,0,10.5-10.8,18.7-4.7
    c9.4,6.9,39.5,40.7,39.5,40.7
    s-27.7,32.3-39.5,40.8
    c-8.2,6-18.7-5-18.7-5l22-22.3
    c0.6-0.4,1.1-0.9,1.5-1.5l2.2-2.3
    c-30,1.1-54.4-5.6-68.6-24.1
    c-13.1-17-9.8-41-8-49.7
    c-10.3,2.1-38.4,8.8-55.4-7.8
    c-17.4-17-10.6-45.9-10.3-56.5
    c-9.4,2.5-39.2,3.2-57.3-14.5
    c-18-17.7-18-26.2-18.1-66.4
    C12.4,1.6,31.8,1,31.8,17.8z"/>
</svg>
