<?xml version="1.0" encoding="utf-8"?>
<!-- Generator: Adobe Illustrator 27.1.0, SVG Export Plug-In . SVG Version: 6.00 Build 0)  -->
<svg version="1.1" id="Layer_1" xmlns="http://www.w3.org/2000/svg" xmlns:xlink="http://www.w3.org/1999/xlink" x="0px" y="0px"
	 viewBox="0 0 236.6 303.4" style="enable-background:new 0 0 236.6 303.4;" xml:space="preserve">
<style type="text/css">
	.st0{fill:#2E3192;}
	.st1{fill:#FFFFFF;}
</style>
<g>
	<path class="st0" d="M233.4,239c-10,40-44.4,64.3-94.5,64.3C106.8,303.4-6.6,275.9,0.3,7.2c0.2-8.7,15.2-9.9,15.2-1.2
		c0,254.8,97.2,280.7,124.2,280.7c58,0,73.4-34.7,78.4-53.7c9-34.3-6.8-71.2-34.7-88.5l3.3,37.4c-3.6,0.4-13.6,0.5-15.9-6.9
		c-3.5-11.5-6-48.7-6.5-54.8c5.1-1,52.7-8.4,54.5-8.3c7.8,0.3,10.2,10.3,10.8,13.5l-38.1,5.7C229,152.9,243.7,198.1,233.4,239z"/>
</g>
<g>
	<path class="st0" d="M494.5,310.8c-11.6,0-23.4-1.7-34.9-5c-30.9-8.9-54.7-22.6-72.8-41.7c-16.1-17-27.4-38.1-34.3-64.4
		c-12.9-49.1-8.8-107.4-4.4-169.1c0.6-8.4,1.2-17.1,1.8-25.6c0.6-9,6.3-13,11.7-13c2.9,0,5.6,1.2,7.5,3.3c2.4,2.6,3.4,6.3,3,10.8
		c-0.2,1.9-0.8,5.9-1.8,11.3c-28.1,164.2,5.1,256.4,98.8,273.9c6.3,1.2,12.7,1.8,19,1.8c36,0,66.8-19,78.5-48.5
		c12.7-32.1-0.1-69.5-35.3-102.6l-1.7-1.6l0.9,38c-3.6,0-13.6-0.9-15.1-8.4c-2.3-11.8-1.2-49-1-55.2c5.2-0.5,32.4-3.2,47.9-3.2
		c3,0,5.4,0.1,7.2,0.3c7.7,1.1,9.1,11.3,9.4,14.5l-37.6,1.7l1.7,1.6c43.1,41.3,59,86.8,43.6,125
		C572.9,288.8,536.7,310.8,494.5,310.8z"/>
	<path class="st1" d="M361.5-7.1c2.6,0,5,1,6.8,2.9c2.2,2.4,3.1,5.8,2.8,10c-0.2,1.9-0.8,5.8-1.8,11.2
		c-28.2,164.9,5.3,257.4,99.6,275.1c6.4,1.2,12.8,1.8,19.2,1.8c36.4,0,67.6-19.3,79.4-49.1c12.9-32.5-0.1-70.3-35.6-103.7l-3.5-3.3
		l0.1,4.8l0.8,34.6c-3.7-0.2-11.8-1.3-13.1-7.5c-2.2-11.2-1.2-45.9-1-54.1c6.8-0.7,32.2-3.1,47-3.1c3,0,5.4,0.1,7.1,0.3
		c6.3,0.9,8,8.8,8.5,12.6l-34.2,1.5l-4.7,0.2l3.4,3.2c22.7,21.8,37.8,44.3,44.7,66.9c6.1,19.9,5.7,39.6-1.3,57.1
		c-6.6,16.4-18.7,30.3-34.9,40.3c-16.3,10-35.8,15.3-56.3,15.3c-11.5,0-23.2-1.7-34.6-5c-30.7-8.9-54.4-22.4-72.4-41.4
		c-16-16.9-27.2-37.8-34.1-64c-12.9-48.9-8.7-107.2-4.3-168.8c0.6-8.4,1.2-17.1,1.8-25.6C351.4-3.4,356.6-7.1,361.5-7.1 M361.5-9.1
		c-5.9,0-12,4.6-12.7,14c-8.6,129.5-28,261.8,110.4,301.9c11.9,3.5,23.8,5.1,35.2,5.1c84.9,0,146.5-89.7,49.2-182.9l36.3-1.6
		c0,0-0.2-15.1-10.3-16.5c-1.9-0.2-4.4-0.3-7.3-0.3c-17.4,0-48.9,3.3-48.9,3.3s-1.6,43.2,1,56.3c1.8,8.6,13.5,9.2,16.5,9.2
		c0.4,0,0.7,0,0.7,0l-0.9-36.6c78.6,73.9,28.1,149.3-42.5,149.3c-6.1,0-12.4-0.6-18.8-1.8c-155-29-98-263.2-96.2-284.2
		C373.9-4,367.8-9.1,361.5-9.1L361.5-9.1z"/>
</g>
<g>
	<path class="st0" d="M-405.1,350.7c31,4,63.2-8,88.3-33.1c26.9-26.9,38.9-62.9,30.6-91.7c-5.7-19.4-22.2-45.7-72.8-57.1l31.7-19.5
		c-1.8-2.7-7.8-11.1-15.2-8.4c-11.2,4.5-42.2,24.9-47.3,28.4c2.7,5.6,19.1,38.9,26.7,48.3c4.9,5.9,14.4,1.8,17.3,0.3l-17.8-33.3
		c0,0,51.2,9.1,62.2,44.6c7.2,23.3-2.6,51.8-25,74.2s-52.1,33.6-81.3,30.8c-33.3-3.2-60.5-17.8-80.9-43.3
		c-30.4-38-61.7-120.6-38.9-299.6c0.5-3.8,0.8-6.3,0.9-7.5c0.4-5.5-1.5-9.7-5.3-11.6c-3.3-1.6-7.5-0.8-10.3,2
		c-2.1,2.1-3.3,5.2-3.6,8.9c-0.4,5.9-0.8,12.1-1.3,18.3l-0.4,5c-4.6,65-10.3,145.9,5.9,213.1c8.8,36.3,23.4,65.5,43.3,86.7
		C-475.3,330.7-443.9,345.6-405.1,350.7z"/>
</g>
</svg>
