<?xml version="1.0" encoding="utf-8"?>
<!-- Generator: Adobe Illustrator 27.1.0, SVG Export Plug-In . SVG Version: 6.00 Build 0)  -->
<svg version="1.1" id="Layer_1" xmlns="http://www.w3.org/2000/svg" xmlns:xlink="http://www.w3.org/1999/xlink" x="0px" y="0px"
	 viewBox="0 0 250.5 320.9" style="enable-background:new 0 0 250.5 320.9;" xml:space="preserve">
<style type="text/css">
	.st0{fill:#2E3191;}
</style>
<path id="arrowhead" class="st0" d="M188,151.9c-0.1-0.1-0.1-0.1-0.2-0.2l0.9,36.7c0,0-15.1,0.7-17.1-9.2c-2.5-13.1-1-56.3-1-56.3
	s42.9-4.5,56.2-3c10.1,1.4,10.3,16.5,10.3,16.5l-36.3,1.6c0.2,0.2,0.3,0.3,0.5,0.5L188,151.9z"/>
<path id="arrowline_00000181087228766862548490000016819068052416608164_" class="st0" d="M201.4,138.5
	c109.6,105.6,15.7,206.4-84.9,177.3C-21.9,275.8-2.5,143.5,6.1,14C7.4-5.4,31.9-4.3,30.2,15.1c-1.8,20.9-58.8,255.2,96.2,284.2
	c79.7,14.9,146.6-67.2,61.5-147.4"/>
</svg>
