<?xml version="1.0" encoding="utf-8"?>
<!-- Generator: Adobe Illustrator 27.1.0, SVG Export Plug-In . SVG Version: 6.00 Build 0)  -->
<svg version="1.1" id="Layer_1" xmlns="http://www.w3.org/2000/svg" xmlns:xlink="http://www.w3.org/1999/xlink" x="0px" y="0px"
	 viewBox="0 0 146.1 348.4" style="enable-background:new 0 0 146.1 348.4;" xml:space="preserve">
<style type="text/css">
	.st0{fill:#2E3191;}
</style>
<path class="st0" d="M7.8,7.2c-7.9,23.5-17.9,85.3,15.4,122.9c-55.8,128.9,89.3,194.3,89.9,194.2L78.4,335c0,0,4,14.6,14,13.3
	c13.3-1.8,53.7-16.9,53.7-16.9s-9.4-42.2-15.1-54.2c-4.4-9.1-18.8-4.5-18.8-4.5l9.8,33.6c-3.5-2.2-126.9-57.8-84.2-163.1
	c10,8.4,23.7,16.5,39.8,14s41.7-17.2,38-41.2c-3.7-24-38.1-29.9-48.7-28.3s-21.5,4.1-33.3,23.8C9.7,75.4,21.3,39.3,29,14.8
	C33.2,1.1,12.4-6.4,7.8,7.2L7.8,7.2z M44.1,125.8c6.9-14.9,14.7-20.5,24.3-22c9.6-1.5,26.2,0.8,28.3,14.1c2,13.3-9.7,19.2-22.5,21.2
	C61.3,141.1,54.9,135.9,44.1,125.8z"/>
</svg>
