<?xml version="1.0" encoding="utf-8"?>
<!-- Generator: Adobe Illustrator 27.1.0, SVG Export Plug-In . SVG Version: 6.00 Build 0)  -->
<svg version="1.1" id="Layer_1" xmlns="http://www.w3.org/2000/svg" xmlns:xlink="http://www.w3.org/1999/xlink" x="0px" y="0px"
	 viewBox="0 0 119.7 370.6" style="enable-background:new 0 0 119.7 370.6;" xml:space="preserve">
<style type="text/css">
	.st0{fill:#2E3191;}
	.st1{fill:#231F20;}
</style>
<path class="st0" d="M4.8,8.1c-4.9,29.7-13.1,85.4,17.5,120c-55.8,128.9,65,221.3,65.6,221.3l-35.8,6.1c0,0,2.1,15,12.2,15
	c13.4-0.1,55.4-9.9,55.4-9.9s-3.9-43.1-8-55.7c-3.2-9.6-18.1-6.9-18.1-6.9l5.4,34.6c-3.2-2.6-103.9-83.8-61.2-189.1
	c10,8.4,22.8,14.1,38.9,11.6s41.7-17.2,38-41.2S77.9,83.7,67.3,85.3s-22.9,4.5-34.7,24.2C15.5,78,22.1,34.6,26.6,13.7
	C29.5-0.3,8.1-5.9,4.8,8.1L4.8,8.1z M43.2,123.8c6.9-14.9,16.1-20.9,25.7-22.4s24.8,1.2,26.9,14.5c2,13.3-9.7,19.2-22.5,21.2
	C60.4,139.1,54,133.9,43.2,123.8z"/>
<path class="st0" d="M570.4-90.3c-3.3-14-24.7-8.5-21.8,5.6c4.5,20.9,11.1,64.3-6.1,95.8c-11.8-19.7-24.1-22.6-34.7-24.2
	c-10.6-1.6-43.6,4.7-47.3,28.7c-3.7,24,21.9,38.7,38,41.2c16.1,2.5,28.9-3.2,38.9-11.6c42.7,105.3-58.1,186.5-61.2,189.1l5.4-34.6
	c0,0-14.9-2.7-18.1,6.9c-4.1,12.6-8,55.7-8,55.7s42,9.8,55.4,9.9c10.1,0,12.2-15,12.2-15l-35.8-6.1c0.6,0,121.4-92.4,65.6-221.3
	C583.5-4.9,575.2-60.6,570.4-90.3L570.4-90.3z M501.9,38.7c-12.8-2-24.5-7.9-22.5-21.2c2.1-13.3,17.3-16,26.9-14.5
	s18.8,7.5,25.7,22.4C521.2,35.5,514.8,40.7,501.9,38.7z"/>
<g>
	<path class="st0" d="M755.8,58.1c0,5-3.9,9.2-8.7,9.2h-18.2v222.9c0,4.9-3.9,8.9-8.5,8.9h-4.2c-4.6,0-8.5-4-8.5-8.9V67.3h-18.2
		c-4.8,0-8.7-4.2-8.7-9.2s3.9-9.1,8.7-9.1h57.6C751.9,49,755.8,53.1,755.8,58.1z"/>
</g>
<g>
	<path class="st0" d="M469.5,290c0-5-3.9-9.2-8.7-9.2h-18.2V57.9c0-4.9-3.9-8.9-8.5-8.9h-4.2c-4.6,0-8.5,4-8.5,8.9v222.9h-18.2
		c-4.8,0-8.7,4.2-8.7,9.2c0,5,3.9,9.1,8.7,9.1h57.6C465.6,299,469.5,295,469.5,290z"/>
</g>
<g>
	<g>
		<circle class="st1" cx="575.1" cy="-126" r="25"/>
		<circle class="st1" cx="875.1" cy="174" r="25"/>
		<circle class="st1" cx="575.1" cy="474" r="25"/>
		<circle class="st1" cx="275.1" cy="174" r="25"/>
		<circle class="st1" cx="718.2" cy="317.1" r="8.8"/>
		<circle class="st1" cx="432" cy="317.1" r="8.8"/>
		<circle class="st1" cx="432" cy="31" r="8.8"/>
		<circle class="st1" cx="718.2" cy="31" r="8.8"/>
		<circle class="st1" cx="575.1" cy="174" r="11.2"/>
	</g>
	<circle class="st1" cx="718.2" cy="174" r="4.7"/>
	<circle class="st1" cx="575.1" cy="317.1" r="4.7"/>
	<circle class="st1" cx="432" cy="174" r="4.7"/>
	<circle class="st1" cx="575.1" cy="31" r="4.7"/>
</g>
</svg>
