<?xml version="1.0" encoding="utf-8"?>
<!-- Generator: Adobe Illustrator 27.1.0, SVG Export Plug-In . SVG Version: 6.00 Build 0)  -->
<svg version="1.1" id="Layer_1" xmlns="http://www.w3.org/2000/svg" xmlns:xlink="http://www.w3.org/1999/xlink" x="0px" y="0px"
	 viewBox="0 0 117.7 368.6" style="enable-background:new 0 0 117.7 368.6;" xml:space="preserve">
<style type="text/css">
	.st0{fill:#2E3192;}
	.st1{fill:#2E3191;}
</style>
<g>
	<path class="st0" d="M63.4,368.6c-7.7,0-10.4-10-11-13.2l34.8-6l-0.2-2l0.5,0.1c-1.3-0.8-120.5-92.3-65.2-220l0.3-0.6l-0.4-0.5
		C-8.9,91.4,0.4,34.6,4.9,7.3C5.9,2.7,9.4,0,14,0c3.4,0,6.8,1.6,8.9,4.1c1.3,1.6,2.7,4.4,1.9,8.4c-6,27.9-9.7,67.3,6.2,96.5l0.8,1.5
		l0.9-1.5c11.3-18.9,23-22.1,33.9-23.7c1-0.1,2.1-0.2,3.5-0.2c12.5,0,39.5,6.9,42.7,28.1c3.6,23.7-22.4,37.8-37.2,40.1
		c-2.5,0.4-5,0.6-7.4,0.6c-10.9,0-21.2-4-30.7-12l-1.1-0.9l-0.5,1.3C-5.4,244.2,86.7,323.7,97.4,332.4l2.2,1.8L93.9,298
		c0.8-0.1,2-0.2,3.4-0.2c4.7,0,10.7,1.1,12.5,6.5c3.7,11.4,7.3,48.4,7.9,54.6C111.7,360.3,75.5,368.5,63.4,368.6z M72.9,99.1
		c-1.8,0-3.5,0.1-5.1,0.4c-11.4,1.8-20.1,9.3-26.4,23l-0.3,0.7l0.5,0.5c9.3,8.7,15.5,14,25.6,14c1.7,0,3.4-0.1,5.3-0.4
		c16.8-2.6,25.1-10.6,23.3-22.3C94,103.2,82.8,99.1,72.9,99.1z"/>
</g>
<path class="st1" d="M192.2,7.1c-4.9,29.7-13.1,85.4,17.5,120c-55.8,128.9,65,221.3,65.6,221.3l-35.8,6.1c0,0,2.1,15,12.2,15
	c13.4-0.1,55.4-9.9,55.4-9.9s-3.9-43.1-8-55.7c-3.2-9.6-18.1-6.9-18.1-6.9l5.4,34.6c-3.2-2.6-103.9-83.8-61.2-189.1
	c10,8.4,22.8,14.1,38.9,11.6s41.7-17.2,38-41.2c-3.7-24-36.7-30.3-47.3-28.7s-22.9,4.5-34.7,24.2C202.9,77,209.5,33.6,214,12.7
	C216.9-1.3,195.5-6.9,192.2,7.1L192.2,7.1z M230.5,122.8c6.9-14.9,16.1-20.9,25.7-22.4c9.6-1.5,24.8,1.2,26.9,14.5
	c2,13.3-9.7,19.2-22.5,21.2C247.7,138.1,241.3,132.9,230.5,122.8z"/>
</svg>
