<?xml version="1.0" encoding="utf-8"?>
<!-- Generator: Adobe Illustrator 27.1.0, SVG Export Plug-In . SVG Version: 6.00 Build 0)  -->
<svg version="1.1" id="Layer_2_00000067943470925853274430000014016169332394375836_"
	 xmlns="http://www.w3.org/2000/svg" xmlns:xlink="http://www.w3.org/1999/xlink" x="0px" y="0px" viewBox="0 0 169.5 189.2"
	 style="enable-background:new 0 0 169.5 189.2;" xml:space="preserve">
<style type="text/css">
	.st0{fill:#2E3192;}
	.st1{fill:#EC1C24;}
	.st2{fill:#2E3191;}
	.st3{fill:#231F20;}
</style>
<g id="Layer_1-2">
	<path class="st0" d="M546.3,22.6c6.2-8.4,18.1-35.5,19.4-38.2c-2.6-1.5-27.7-17.2-37.6-20.6c-7.2-2.4-12.3,7.8-12.3,7.8l25,13.1
		c-48,14.2-52,63.5-52,75.8c0,53.1,40.5,89.9,89.3,89.9c51.3,0,90.1-39.8,90.1-91.1c0-38.7-25.5-71-62.8-82.2
		c-12.8-3.7-16.6,11.2-4.1,15.1c30.9,9.6,51.2,35.1,51.2,67.1c0,42.7-31.8,75.4-74.4,75.4c-40.1,0-73.7-34.1-73.7-74.3
		c0-12.3,2-47.2,40.7-62.1l-13.3,24.9C531.7,23.1,541.7,28.6,546.3,22.6L546.3,22.6z"/>
</g>
<g id="Layer_1-2_00000144313412631531932790000009516445523293907880_">
	<path class="st0" d="M54.4,56c5.9-8,17.1-33.6,18.4-36.1C70.4,18.4,46.6,3.6,37.2,0.4c-6.8-2.3-11.6,7.3-11.6,7.3l23.6,12.4
		C3.8,33.5,0,80.1,0,91.7c0,50.2,38.2,85,84.4,85c48.5,0,85.2-37.6,85.2-86.1c0-36.6-24.1-67.1-59.3-77.7
		c-12.1-3.5-15.7,10.6-3.9,14.3c29.2,9,48.4,33.2,48.4,63.4c0,40.3-30,71.3-70.4,71.3c-37.9,0-69.6-32.2-69.6-70.2
		c0-11.6,1.9-44.6,38.5-58.7L40.6,56.5C40.6,56.5,50.1,61.7,54.4,56L54.4,56z"/>
</g>
<g>
	<path class="st1" d="M540.9,172.8c0-5,3.9-9.2,8.7-9.2h18.2V-59.3c0-4.9,3.9-8.9,8.5-8.9h4.2c4.6,0,8.5,4,8.5,8.9v222.9h18.2
		c4.8,0,8.7,4.2,8.7,9.2s-3.9,9.1-8.7,9.1h-57.6C544.8,181.8,540.9,177.8,540.9,172.8z"/>
	<path class="st2" d="M615.9,227.2c0,5-3.9,9.2-8.7,9.2H589v222.9c0,4.9-3.9,8.9-8.5,8.9h-4.2c-4.6,0-8.5-4-8.5-8.9V236.4h-18.2
		c-4.8,0-8.7-4.2-8.7-9.2s3.9-9.1,8.7-9.1h57.6C612,218.1,615.9,222.2,615.9,227.2z"/>
</g>
<g>
	<g>
		<circle class="st3" cx="578.4" cy="-100" r="25"/>
		<circle class="st3" cx="878.4" cy="200" r="25"/>
		<circle class="st3" cx="578.4" cy="500" r="25"/>
		<circle class="st3" cx="278.4" cy="200" r="25"/>
		<circle class="st3" cx="721.5" cy="343.1" r="8.8"/>
		<circle class="st3" cx="435.3" cy="343.1" r="8.8"/>
		<circle class="st3" cx="435.3" cy="56.9" r="8.8"/>
		<circle class="st3" cx="721.5" cy="56.9" r="8.8"/>
		<circle class="st3" cx="578.4" cy="200" r="11.2"/>
	</g>
	<circle class="st3" cx="721.5" cy="200" r="4.7"/>
	<circle class="st3" cx="578.4" cy="343.1" r="4.7"/>
	<circle class="st3" cx="435.3" cy="200" r="4.7"/>
	<circle class="st3" cx="578.4" cy="56.9" r="4.7"/>
</g>
</svg>
