<?xml version="1.0" encoding="utf-8"?>
<svg version="1.1" id="Layer_1"
	xmlns="http://www.w3.org/2000/svg"
	xmlns:xlink="http://www.w3.org/1999/xlink" viewBox="0 0 150.9 386.4" style="enable-background:new 0 0 150.9 386.4;" xml:space="preserve">
	<style type="text/css">
	.st0{fill:#2E3192;}
	</style>
	<path fill="#2E3192" d="M87.1,14.5C99.3,37.1,117,69,117.6,100.3c-13.1-15.2-28.5-16.9-45.7-15.1C59.8,86.4,39.1,102,40.4,120
	c1.3,18,19.7,34.1,32.2,35.6c12.7,1.6,33.2-1.7,47-17.5C143,177.8,141,291.4,31.3,335.8l20.6-28.4c0,0-12-9.2-19.2-2.1
	C23.1,314.8,0,351.2,0,351.2s32.9,27.9,44.8,34.2c9,4.6,17.7-7.7,17.7-7.7l-29.1-21.8c115.2-37.3,138.9-180.2,100.6-235.3
	c4.4-55.6-18.5-92.7-30.6-114.3C96.2-6.3,80.3,1.9,87.1,14.5z M82.2,138.2c-13.2,0.1-23.9-10.9-24-18.2c-0.1-8.6,10-18.3,22.5-17.8
	c12.5,0.5,23.1,4.4,32.7,17.7C104.6,132,96.4,138.2,82.2,138.2L82.2,138.2z"/>
</svg>
