<?xml version="1.0" encoding="UTF-8"?>
<svg id="Layer_1" data-name="Layer 1" xmlns="http://www.w3.org/2000/svg" viewBox="0 0 361.62 177.13">
  <defs>
    <style>
      .cls-1 {
        fill: #2e3192;
      }
    </style>
  </defs>
  <path class="cls-1" d="m19.73,171.89c12.34-13.26,58.05-70.92,118.73-77.01-11.9,16.15-10.09,31.6-4.52,47.97,3.91,11.52,23.65,28.22,40.92,22.87,17.27-5.35,28.77-26.75,27.49-39.34-1.3-12.72-9.11-32.03-27.56-41.95,53.45-50.61,163.63-30.49,153.19-31.1l-25.7,23.76s10,11.36,18.45,5.84c11.15-7.4,40.89-38.69,40.89-38.69,0,0-26.8-33.85-37.23-42.23-7.92-6.27-18.91,4.15-18.91,4.15l24.3,27.03c27.86,1.62-112.06-28.24-175.28,41.23C80.18,72.55,17.82,140.69,2.95,159.16c-9.04,11.23,4.43,25.99,16.77,12.73Zm163.66-50.99c3,12.92-5.3,25.73-12.34,27.43-8.29,2-20.11-5.62-22.4-17.95-2.29-12.33-.88-23.48,9.93-35.77,13.66,5.86,21.59,12.42,24.81,26.3Z"/>
</svg>