<?xml version="1.0" encoding="UTF-8"?>
<svg id="Layer_1" data-name="Layer 1" xmlns="http://www.w3.org/2000/svg" viewBox="0 0 530 111.74">
  <defs>
    <style>
      .cls-1 {
        fill: #2e3192;
      }

      .cls-2 {
        fill: none;
      }
    </style>
  </defs>
  <path class="cls-1" d="m506.32,39.53l4.14,36.11C446.93,27.9,310.35-21.77,264.6,10.12,216.66-27.36,47.49,47.99,3.72,93.74c-2.47,2.33-6.08,8.34-1.56,14.28.35.35.57.71.85.99,4.6,4.6,11.6,2.4,14.85.42C69.55,63.12,211.14,2.48,248.19,24.12c-15.2,13.08-22.77,37.19-17.25,56.85,4.45,15.91,16.62,25.67,33.3,26.94,16.9.07,29.34-8.56,34.44-23.83,6.58-19.87-.78-45.89-16.55-59.68,39.67-23.41,166.33,31.08,215.18,66.6l-34.72,4.47s1.56,15.05,11.65,15.45c13.37.43,55.75-7.83,55.75-7.83,0,0-2.22-43.11-5.87-55.99-2.83-9.7-17.81-7.58-17.81-7.58Zm-224.66,28.69c-.94,16.65-11.09,22.39-17.24,21.89-8.5-.69-16.9-15.51-16.06-26.37.71-9.24,2.09-19.03,15.37-28.59,12.01,8.77,18.64,20.59,17.94,33.08Z"/>
  <line class="cls-2" x1="119.14" y1="73.1" x2="142.19" y2="73.1"/>
</svg>