<?xml version="1.0" encoding="UTF-8"?>
<svg id="Layer_2" data-name="Layer 2" xmlns="http://www.w3.org/2000/svg" viewBox="0 0 16.11 10">
  <defs>
    <style>
      .cls-1 {
        fill: #231f20;
      }
    </style>
  </defs>
  <g id="Layer_1-2" data-name="Layer 1">
    <g>
      <rect class="cls-1" x="9.11" y="4" width="7" height="2" rx=".95" ry=".95"/>
      <path class="cls-1" d="m8.37,8.14c-.93-2.27-1.86-4.39-2.21-5.2-.38-.84-.67-1.52-.74-1.72-.32-.87-.6-1.18-1.12-1.22-.5.04-.79.34-1.11,1.22-.07.2-.36.87-.73,1.72-.73,1.66-1.56,3.6-2.22,5.2-.28.71-.29,1.21-.03,1.52.19.23.49.34.9.34h6.43c.41,0,.71-.12.9-.34.12-.15.18-.34.18-.58,0-.26-.07-.57-.22-.94Zm-1.67.34H1.9c.17-.42.49-1.25.87-2.18.56-1.41,1.21-3.07,1.53-3.9.39.98,1.22,3.11,1.83,4.63l.57,1.44Z"/>
    </g>
  </g>
</svg>