<?xml version="1.0" encoding="utf-8"?>
<!-- Generator: Adobe Illustrator 27.1.0, SVG Export Plug-In . SVG Version: 6.00 Build 0)  -->
<svg version="1.1" id="Layer_1" xmlns="http://www.w3.org/2000/svg" xmlns:xlink="http://www.w3.org/1999/xlink" x="0px" y="0px"
	 viewBox="0 0 202.2 192.6" style="enable-background:new 0 0 202.2 192.6;" xml:space="preserve">
<style type="text/css">
	.st0{fill:#2E3192;}
</style>
<path class="st0" d="M10.5,170.5l11.1-29.5c42,83.5,175.2,63.3,180.6-45.3C197.8,25.1,141.5,0,107.3,0c-11.8,0-12,16.1,0.1,16.1
	c11.3,0,80.4,12.2,78.4,79.7c-2.8,95.4-123.9,104.5-149.6,38.7l29.3,11.5c0,0,4.8-11.8-2.6-16.1c-10.2-5.9-41.7-15.5-44.9-16.4
	c-1.3,3-15.3,32.8-17.9,44.3C-1.5,166.2,10.5,170.5,10.5,170.5L10.5,170.5z"/>
</svg>
