<?xml version="1.0" encoding="utf-8"?>
<!-- Generator: Adobe Illustrator 27.1.0, SVG Export Plug-In . SVG Version: 6.00 Build 0)  -->
<svg version="1.1" id="Layer_2_00000067943470925853274430000014016169332394375836_"
	 xmlns="http://www.w3.org/2000/svg" xmlns:xlink="http://www.w3.org/1999/xlink" x="0px" y="0px" viewBox="0 0 183 210.7"
	 style="enable-background:new 0 0 183 210.7;" xml:space="preserve">
<style type="text/css">
	.st0{fill:#2E3192;}
	.st1{fill:#EC1C24;}
	.st2{fill:#2E3191;}
	.st3{fill:#231F20;}
</style>
<g id="Layer_1-2_00000144313412631531932790000009516445523293907880_">
	<path class="st0" d="M98.1,89.9l25.9,6.3c-10.7-21.1-29-37.1-50.1-37.1c-32.2,0-59.1,29.5-59.1,67.4c0,40.3,31,71.8,71.3,70.4
		C186.2,193.3,205,61.6,86.4,13.7c-9.9-4-4.2-17.8,8.3-12.5c136,57.1,100.6,209.5-9.4,209.5c-46,0-85.2-35.6-85.2-84.1
		c0-46.1,32.5-82.2,73.9-82.2c18.6,0,48.3,12.2,61.6,44.6l6.1-25.9c0,0,10.5,2.3,10,9.4c-0.8,9.9-9.2,36.6-9.9,39.3
		c-2.8-0.6-30.4-5-39.6-8.7l0,0C95.5,100.4,98.1,89.9,98.1,89.9z"/>
</g>
<g>
	<path class="st1" d="M697.4,134c-5,0-9.2-3.9-9.2-8.7v-18.2H465.3c-4.9,0-8.9-3.9-8.9-8.5v-4.2c0-4.6,4-8.5,8.9-8.5h222.9V67.7
		c0-4.8,4.2-8.7,9.2-8.7s9.1,3.9,9.1,8.7v57.6C706.4,130.1,702.4,134,697.4,134z"/>
	<path class="st2" d="M618.9,266.9c0,5-3.9,9.2-8.7,9.2H592v222.9c0,4.9-3.9,8.9-8.5,8.9h-4.2c-4.6,0-8.5-4-8.5-8.9V276.1h-18.2
		c-4.8,0-8.7-4.2-8.7-9.2s3.9-9.1,8.7-9.1h57.6C615,257.8,618.9,261.9,618.9,266.9z"/>
</g>
<g>
	<g>
		<circle class="st3" cx="581.4" cy="-60.3" r="25"/>
		<circle class="st3" cx="881.4" cy="239.7" r="25"/>
		<circle class="st3" cx="581.4" cy="539.7" r="25"/>
		<circle class="st3" cx="281.4" cy="239.7" r="25"/>
		<circle class="st3" cx="724.5" cy="382.8" r="8.8"/>
		<circle class="st3" cx="438.4" cy="382.8" r="8.8"/>
		<circle class="st3" cx="438.4" cy="96.6" r="8.8"/>
		<circle class="st3" cx="724.5" cy="96.6" r="8.8"/>
		<circle class="st3" cx="581.4" cy="239.7" r="11.2"/>
	</g>
	<circle class="st3" cx="724.5" cy="239.7" r="4.7"/>
	<circle class="st3" cx="581.4" cy="382.8" r="4.7"/>
	<circle class="st3" cx="438.4" cy="239.7" r="4.7"/>
	<circle class="st3" cx="581.4" cy="96.6" r="4.7"/>
</g>
</svg>
