<?xml version="1.0" encoding="utf-8"?>
<!-- Generator: Adobe Illustrator 27.1.0, SVG Export Plug-In . SVG Version: 6.00 Build 0)  -->
<svg version="1.1" id="Layer_2_00000067943470925853274430000014016169332394375836_"
	 xmlns="http://www.w3.org/2000/svg" xmlns:xlink="http://www.w3.org/1999/xlink" x="0px" y="0px" viewBox="0 0 175.9 185.7"
	 style="enable-background:new 0 0 175.9 185.7;" xml:space="preserve">
<style type="text/css">
	.st0{fill:#2E3192;}
	.st1{fill:#EC1C24;}
	.st2{fill:#2E3191;}
	.st3{fill:#231F20;}
</style>
<g id="Layer_1-2_00000018938558089964873080000002854381780436272281_">
	<path class="st0" d="M175.9,101.1C173.8,206.6-2,220.9,0,101.3c0.7-39.7,30.7-73.6,72.6-73.6c39.8,0,71,28.1,71,63.8
		c0,15.6-9.9,40.2-36.1,52.1l26.4,6.8c0,0-2.3,10.5-9.4,10c-9.9-0.8-36.6-9.2-39.3-9.9c0.6-2.8,5-30.4,8.7-39.6
		c1.5-3.8,5.5-4.6,8.7-4.6c2.5,0,4.5,0.5,4.5,0.5l-5.9,26.5c17-9.4,29.7-24.6,29.7-42c0-27.8-25.5-51-58.2-51
		c-34.8,0-60.8,26.8-60.8,61.6c0,101.6,151.3,88.8,151.3-0.8c0-69.5-58.6-89.5-85.8-89.5c-3.5,0-5.6-3.9-4.7-7.3
		C73.1,3,73.9,1.9,75,1.1C76.1,0.4,77.5,0,79,0C98.6,0,177.6,16.1,175.9,101.1z"/>
</g>
<g>
	<path class="st1" d="M527.1,199.9c0-5,3.9-9.2,8.7-9.2H554V-32.2c0-4.9,3.9-8.9,8.5-8.9h4.2c4.6,0,8.5,4,8.5,8.9v222.9h18.2
		c4.8,0,8.7,4.2,8.7,9.2s-3.9,9.1-8.7,9.1h-57.6C531,208.9,527.1,204.9,527.1,199.9z"/>
	<path class="st2" d="M602.1,254.4c0,5-3.9,9.2-8.7,9.2h-18.2v222.9c0,4.9-3.9,8.9-8.5,8.9h-4.2c-4.6,0-8.5-4-8.5-8.9V263.6h-18.2
		c-4.8,0-8.7-4.2-8.7-9.2s3.9-9.1,8.7-9.1h57.6C598.2,245.3,602.1,249.4,602.1,254.4z"/>
</g>
<g>
	<g>
		<circle class="st3" cx="564.6" cy="-72.8" r="25"/>
		<circle class="st3" cx="864.6" cy="227.2" r="25"/>
		<circle class="st3" cx="564.6" cy="527.2" r="25"/>
		<circle class="st3" cx="264.6" cy="227.2" r="25"/>
		<circle class="st3" cx="707.7" cy="370.3" r="8.8"/>
		<circle class="st3" cx="421.6" cy="370.3" r="8.8"/>
		<circle class="st3" cx="421.6" cy="84.1" r="8.8"/>
		<circle class="st3" cx="707.7" cy="84.1" r="8.8"/>
		<circle class="st3" cx="564.6" cy="227.2" r="11.2"/>
	</g>
	<circle class="st3" cx="707.7" cy="227.2" r="4.7"/>
	<circle class="st3" cx="564.6" cy="370.3" r="4.7"/>
	<circle class="st3" cx="421.6" cy="227.2" r="4.7"/>
	<circle class="st3" cx="564.6" cy="84.1" r="4.7"/>
</g>
</svg>
