<?xml version="1.0" encoding="utf-8"?>
<!-- Generator: Adobe Illustrator 27.1.0, SVG Export Plug-In . SVG Version: 6.00 Build 0)  -->
<svg version="1.1" id="Layer_2_00000067943470925853274430000014016169332394375836_"
	 xmlns="http://www.w3.org/2000/svg" xmlns:xlink="http://www.w3.org/1999/xlink" x="0px" y="0px" viewBox="0 0 175.9 197"
	 style="enable-background:new 0 0 175.9 197;" xml:space="preserve">
<style type="text/css">
	.st0{fill:#2E3192;}
	.st1{fill:#EC1C24;}
	.st2{fill:#2E3191;}
	.st3{fill:#231F20;}
</style>
<g id="Layer_1-2_00000018938558089964873080000002854381780436272281_">
	<g>
		<path class="st0" d="M176.4,112.4c-0.7,32.6-17.3,52.6-31.2,63.7c-17.2,13.7-40,21.4-63,21.4c-0.6,0-1.2,0-1.9,0
			c-22.1-0.4-42.2-7.9-56.5-21.2C7.5,161.1-0.9,139.1-0.5,112.5c0.4-19.6,8.2-39.3,21.6-54.1c14.1-15.6,32.9-24.1,52.8-24.1
			c19,0,36.8,7.4,50.1,20.7c12.8,12.8,20.1,30.2,20.1,47.7c0,17.2-11.2,40.9-35.8,52.3l25.6,6.6c0,0-2.3,10.5-9.4,10
			c-9.9-0.8-36.6-9.2-39.3-9.9c0.6-2.8,5-30.4,8.7-39.6c1.5-3.8,5.5-4.6,8.7-4.6c2.5,0,4.5,0.5,4.5,0.5l-5.8,25.8
			c18.2-10.2,29.1-25.6,29.1-41.3c0-26.4-22.7-54.6-56.4-54.6c-33.4,0-61.6,29.9-61.6,65.2c0,22.5,7.6,41.1,22,53.7
			C47,177.9,64.5,184,83.5,184c38.4,0,79.2-25.1,79.2-71.7C162.7,43.7,105,15,77,11.9c-1.6-0.2-2.9-1.1-3.8-2.5
			c-1.1-1.7-1.2-4-0.5-6c0.6-1.3,1.6-2.4,2.9-3.2c1.3-0.6,2.8-0.9,4.4-0.7C100.8,1.9,178.1,27.9,176.4,112.4z"/>
	</g>
</g>
<g>
	<path class="st1" d="M527.1,211.2c0-5,3.9-9.2,8.7-9.2H554V-20.9c0-4.9,3.9-8.9,8.5-8.9h4.2c4.6,0,8.5,4,8.5,8.9V202h18.2
		c4.8,0,8.7,4.2,8.7,9.2s-3.9,9.1-8.7,9.1h-57.6C531,220.2,527.1,216.2,527.1,211.2z"/>
	<path class="st2" d="M602.1,265.7c0,5-3.9,9.2-8.7,9.2h-18.2v222.9c0,4.9-3.9,8.9-8.5,8.9h-4.2c-4.6,0-8.5-4-8.5-8.9V274.9h-18.2
		c-4.8,0-8.7-4.2-8.7-9.2c0-5,3.9-9.1,8.7-9.1h57.6C598.2,256.6,602.1,260.7,602.1,265.7z"/>
</g>
<g>
	<g>
		<circle class="st3" cx="564.6" cy="-61.5" r="25"/>
		<circle class="st3" cx="864.6" cy="238.5" r="25"/>
		<circle class="st3" cx="564.6" cy="538.5" r="25"/>
		<circle class="st3" cx="264.6" cy="238.5" r="25"/>
		<circle class="st3" cx="707.7" cy="381.6" r="8.8"/>
		<circle class="st3" cx="421.6" cy="381.6" r="8.8"/>
		<circle class="st3" cx="421.6" cy="95.4" r="8.8"/>
		<circle class="st3" cx="707.7" cy="95.4" r="8.8"/>
		<circle class="st3" cx="564.6" cy="238.5" r="11.2"/>
	</g>
	<circle class="st3" cx="707.7" cy="238.5" r="4.7"/>
	<circle class="st3" cx="564.6" cy="381.6" r="4.7"/>
	<circle class="st3" cx="421.6" cy="238.5" r="4.7"/>
	<circle class="st3" cx="564.6" cy="95.4" r="4.7"/>
</g>
</svg>
