<?xml version="1.0" encoding="utf-8"?>
<!-- Generator: Adobe Illustrator 27.1.0, SVG Export Plug-In . SVG Version: 6.00 Build 0)  -->
<svg version="1.1" id="Layer_1" xmlns="http://www.w3.org/2000/svg" xmlns:xlink="http://www.w3.org/1999/xlink" x="0px" y="0px"
	 viewBox="0 0 169.4 161.2" style="enable-background:new 0 0 169.4 161.2;" xml:space="preserve">
<style type="text/css">
	.st0{fill:#2E3192;}
</style>
<path class="st0" d="M8.8,142.8l9.3-24.7c35.2,69.9,146.7,53,151.3-37.9C165.7,21,118.6,0,89.9,0C80,0,79.9,13.5,90,13.5
	c9.5,0,67.3,10.2,65.7,66.8c-2.3,79.9-103.8,87.5-125.3,32.4l24.5,9.6c0,0,4-9.9-2.2-13.5c-8.5-4.9-34.9-13-37.6-13.7
	c-1.1,2.5-12.8,27.5-15,37.1C-1.2,139.2,8.8,142.8,8.8,142.8L8.8,142.8z"/>
</svg>
