<?xml version="1.0" encoding="utf-8"?>
<!-- Generator: Adobe Illustrator 27.1.0, SVG Export Plug-In . SVG Version: 6.00 Build 0)  -->
<svg version="1.1" id="Layer_2_00000085217077578489365090000011553766969482152365_" xmlns:ns0="http://www.w3.org/2000/svg"
	 xmlns="http://www.w3.org/2000/svg" xmlns:xlink="http://www.w3.org/1999/xlink" x="0px" y="0px" viewBox="0 0 200 100"
	 style="enable-background:new 0 0 200 100;" xml:space="preserve">
<style type="text/css">
	.st0{fill:#231F20;}
</style>
<g id="Layer_1-2">
	<g>
		<path class="st0" d="M134.1,40h51c5.2,0,9.5,4.3,9.5,9.5v1c0,5.2-4.3,9.5-9.5,9.5h-51c-5.2,0-9.5-4.3-9.5-9.5v-1
			C124.6,44.3,128.9,40,134.1,40z"/>
		<path class="st0" d="M116.5,0.1c-4.6-0.6-9.6,2.8-11.9,11.4c-4.2,15.4-9.2,37-14.4,56.3c-11.1-27.2-18.6-43.9-25-43.8
			c-0.1,0-0.2,0-0.3,0.1c-0.1-0.1-0.2-0.1-0.3-0.1c-6.4-0.1-13.9,16.5-25,43.8c-5.1-19.3-10.2-40.9-14.4-56.3
			C23.1,2.9,18.1-0.4,13.5,0.1c-5.9,0.8-9.8,5-7.4,12.6c2.5,8.1,18.4,60.7,23,77.1c4.7,16.5,15.9,9,18,4.9
			c2.1-4.1,13.6-36.7,18-45.9c4.4,9.2,15.9,41.8,18,45.9c2.1,4.1,13.3,11.6,18-4.9c4.6-16.4,20.5-69,23-77.1
			C126.4,5.1,122.5,0.9,116.5,0.1L116.5,0.1z"/>
	</g>
</g>
</svg>
