<?xml version="1.0" encoding="UTF-8"?>
<svg id="Layer_2" data-name="Layer 2" xmlns="http://www.w3.org/2000/svg" viewBox="0 0 15.19 10">
  <defs>
    <style>
      .cls-1 {
        fill: #231f20;
      }
    </style>
  </defs>
  <g id="Layer_1-2" data-name="Layer 1">
    <g>
      <rect class="cls-1" x="8.19" y="4" width="7" height="2" rx=".95" ry=".95"/>
      <path class="cls-1" d="m7.99,8.51c.16.19.21.44.19.68-.03.24-.16.46-.34.61-.4.3-.98.23-1.3-.17l-2.45-3.14-2.45,3.14c-.18.23-.45.36-.72.36-.19,0-.4-.07-.57-.19-.19-.15-.32-.37-.35-.61-.03-.24.03-.49.19-.68l2.73-3.51L.19,1.49c-.13-.17-.19-.36-.19-.57C0,.64.14.37.36.19.55.05.78-.02,1.03,0c.24.03.47.16.61.35l2.45,3.14L6.53.36c.33-.41.91-.48,1.31-.16.22.17.35.43.35.72,0,.2-.07.4-.19.57l-2.73,3.51,2.73,3.51Z"/>
    </g>
  </g>
</svg>