<?xml version="1.0" encoding="utf-8"?>
<!-- Generator: Adobe Illustrator 27.1.0, SVG Export Plug-In . SVG Version: 6.00 Build 0)  -->
<svg version="1.1" id="Layer_2_00000066515924656445526440000016986918598911105706_" xmlns:ns0="http://www.w3.org/2000/svg"
	 xmlns="http://www.w3.org/2000/svg" xmlns:xlink="http://www.w3.org/1999/xlink" x="0px" y="0px" viewBox="0 0 200 100"
	 style="enable-background:new 0 0 200 100;" xml:space="preserve">
<style type="text/css">
	.st0{fill:#231F20;}
</style>
<g id="Layer_1-2">
	<g>
		<path class="st0" d="M116,40h51c5.2,0,9.5,4.3,9.5,9.5v1c0,5.2-4.3,9.5-9.5,9.5h-51c-5.2,0-9.5-4.3-9.5-9.5v-1
			C106.5,44.3,110.7,40,116,40z"/>
		<path class="st0" d="M93.9,99.6C10.2,99.5-1.4,110.9,73,17.3H36.6C23.2,17.3,23.5,0,36.6,0c54,0,53.5,0.2,56.7,3.8
			c2.3,2.7,4.3,7.3,1.4,11.5C77.6,40.1,49.3,80.5,49.3,80.5h43.3C106.1,80.5,106.6,99.6,93.9,99.6z"/>
	</g>
</g>
</svg>
