<?xml version="1.0" encoding="utf-8"?>
<!-- Generator: Adobe Illustrator 27.1.0, SVG Export Plug-In . SVG Version: 6.00 Build 0)  -->
<svg version="1.1" id="Layer_2_00000041297297732954393990000001408674771411972228_" xmlns:ns0="http://www.w3.org/2000/svg"
	 xmlns="http://www.w3.org/2000/svg" xmlns:xlink="http://www.w3.org/1999/xlink" x="0px" y="0px" viewBox="0 0 200 100"
	 style="enable-background:new 0 0 200 100;" xml:space="preserve">
<style type="text/css">
	.st0{fill:#231F20;}
</style>
<g id="Layer_1-2">
	<g>
		<path class="st0" d="M119.9,40h51c5.2,0,9.5,4.3,9.5,9.5v1c0,5.2-4.3,9.5-9.5,9.5h-51c-5.2,0-9.5-4.3-9.5-9.5v-1
			C110.4,44.3,114.7,40,119.9,40z"/>
		<path class="st0" d="M103,81.4c-9.3-22.7-18.6-43.9-22.1-52c-3.8-8.4-6.7-15.2-7.4-17.2C70.3,3.5,67.5,0.4,62.3,0
			c-5,0.4-7.9,3.4-11.1,12.2c-0.7,2-3.6,8.7-7.3,17.2c-7.3,16.6-15.6,36-22.2,52c-2.8,7.1-2.9,12.1-0.3,15.2c1.9,2.3,4.9,3.4,9,3.4
			h64.3c4.1,0,7.1-1.2,9-3.4c1.2-1.5,1.8-3.4,1.8-5.8c0-2.6-0.7-5.7-2.2-9.4H103z M86.3,84.8h-48C40,80.6,43.2,72.3,47,63
			c5.6-14.1,12.1-30.7,15.3-39c3.9,9.8,12.2,31.1,18.3,46.3L86.3,84.8L86.3,84.8z"/>
	</g>
</g>
</svg>
