<?xml version="1.0" encoding="utf-8"?>
<!-- Generator: Adobe Illustrator 27.1.0, SVG Export Plug-In . SVG Version: 6.00 Build 0)  -->
<svg version="1.1" id="Layer_2_00000045579879371614217580000003745790693879461802_" xmlns:ns0="http://www.w3.org/2000/svg"
	 xmlns="http://www.w3.org/2000/svg" xmlns:xlink="http://www.w3.org/1999/xlink" x="0px" y="0px" viewBox="0 0 200 100"
	 style="enable-background:new 0 0 200 100;" xml:space="preserve">
<style type="text/css">
	.st0{fill:#231F20;}
</style>
<g id="Layer_1-2">
	<g>
		<path class="st0" d="M113.4,40h51c5.2,0,9.5,4.3,9.5,9.5v1c0,5.2-4.3,9.5-9.5,9.5h-51c-5.2,0-9.5-4.3-9.5-9.5v-1
			C103.9,44.3,108.2,40,113.4,40z"/>
		<path class="st0" d="M58.4,0C45.1,0,26.1,16.8,26.1,50c0,25.6,12.2,50,32.3,50s32.7-24.4,32.7-50C91.1,15.2,71.7,0,58.4,0z
			 M58.5,13.7c9.6,0,16.4,11.3,17,19.3c0.2,3,0,8.1-5.5,8.1H46.7c-4.6,0-5.1-5-5-7.6c0.7-8,8.1-19.8,16.9-19.8L58.5,13.7z
			 M58.5,86.3c-10.8,0-17.2-12.8-17.9-20.8c-0.1-2.5,0-7.6,5-7.6h25.3c5.6,0,5.8,5,5.5,8.1C75.8,74,69.2,86.3,58.5,86.3L58.5,86.3z"
			/>
	</g>
</g>
</svg>
