<?xml version="1.0" encoding="utf-8"?>
<!-- Generator: Adobe Illustrator 27.1.0, SVG Export Plug-In . SVG Version: 6.00 Build 0)  -->
<svg version="1.1" id="Layer_1" xmlns="http://www.w3.org/2000/svg" xmlns:xlink="http://www.w3.org/1999/xlink" x="0px" y="0px"
	 viewBox="0 0 201.4 371.3" style="enable-background:new 0 0 201.4 371.3;" xml:space="preserve">
<style type="text/css">
	.st0{fill:#2E3192;}
</style>
<g>
	<path class="st0" d="M130.1,371.3c-1.3-6-9.2-42.3-9.2-54.4c0.1-7.7,10.1-10.3,13.3-10.9l5.8,36.3c71.3-98,51.7-250-12.9-264.4
		c0,0,3.2,35.3-22.3,51.8c-9.2,5.9-32.1,13.1-46.7-2.4s-10.7-36-2.7-46c21.1-26.4,41-22.5,50-20.9c-4-8-32-37.8-98.5-41.9
		C-3.4,17.8-2.2-0.8,10.5,0c24,1.5,97.2,17.5,113.6,62c86.8,11.2,105.6,177.2,30,291.5l37.2-5.4c0.3,3.2,0.8,13.6-6.5,15.9
		C173.3,367.5,136.3,370.8,130.1,371.3z M73.8,86.4c-4.5,4.5-14.2,17.8-4.7,28.7s26.3,0.2,31.2-4.8c15.3-13.9,10.6-33.9,10.6-33.9
		S92.2,67.9,73.8,86.4z"/>
</g>
<path class="st0" d="M225.7,27.1c24.6,7.3,69.2,17.4,91.7,39.1c-20-1.5-32.1,8.2-43,21.7c-7.7,9.4-11.3,35,2.4,46.8
	c13.7,11.8,38,10.2,47.9,2.4c10.1-7.9,22.3-24.7,20.9-45.6c44.6,11.5,109.1,144.7,41.2,254.6l-5.5-34.6c0,0-15,2-15.1,12.1
	c0,13.4,9.4,55.5,9.4,55.5s43-3.5,55.8-7.5c9.6-3.1,7.1-18,7.1-18l-36,5.2c77.7-115.9,6.9-277.9-59.2-289.8
	c-36.2-42.4-78.6-52.5-102.5-59.2C226.9,6,212,23,225.7,27.1z M319.2,118.1c-9.3,9.4-24.6,9.2-29.8,4.1c-6.1-6-5.9-20,3.3-28.5
	c9.2-8.5,19.4-13.2,35.6-10.6C330.6,97.8,329.3,108,319.2,118.1L319.2,118.1z"/>
</svg>
