<?xml version="1.0" encoding="utf-8"?>
<!-- Generator: Adobe Illustrator 27.1.0, SVG Export Plug-In . SVG Version: 6.00 Build 0)  -->
<svg version="1.1" id="Layer_1"
	xmlns="http://www.w3.org/2000/svg"
	xmlns:xlink="http://www.w3.org/1999/xlink" x="0px" y="0px" viewBox="0 0 228.3 357.6" style="enable-background:new 0 0 228.3 357.6;" xml:space="preserve">
	<style type="text/css">
	.st0{fill:#2E3192;}
	</style>
	<g>
		<path class="st0" d="M166.6,357.6c-1.4-6.2-9.7-44.2-9.8-54.7c-0.1-7.8,9.8-10.5,13-11.2l5.6,38.4l1.4-2.3
		c28.2-44.1,33-94.7,13.9-146.5C163.8,108.2,92.7,44.6,9.5,19.2c-3.9-1.3-7.1-4-8.7-7.4c-1-2.2-1.1-4.3-0.3-6.2C2.1,1.8,4.7,0,8.7,0
		c1.7,0,3.6,0.3,5.8,1C105.9,28.8,180.4,95.9,209,176c20.4,57.2,14.4,114.6-17,161.5l-1.3,1.9l37.4-5.9c0.4,3.2,1,13.6-6.3,16
		C209.3,353.7,172.7,357.1,166.6,357.6z"/>
	</g>
	<g>
		<path class="st0" d="M471,358.7c0,0-9.9-44.1-10-55.8c-0.1-10.2,14.8-12.4,14.8-12.4l5.4,36.8c75.1-117.4-29-265.1-166.8-307.1
		c-7.3-2.4-11.9-9.5-9.6-14.9c1.9-4.6,5.7-8.1,15.2-5.3c161.9,49.4,258.9,217,178,338.1l36.1-5.7c0,0,2.8,14.9-6.8,18.1
		C513.4,355.1,471,358.7,471,358.7z"/>
	</g>
</svg>
