<?xml version="1.0" encoding="utf-8"?>
<!-- Generator: Adobe Illustrator 27.1.0, SVG Export Plug-In . SVG Version: 6.00 Build 0)  -->
<svg version="1.1" id="Layer_1"
	xmlns="http://www.w3.org/2000/svg"
	xmlns:xlink="http://www.w3.org/1999/xlink" x="0px" y="0px" viewBox="0 0 268.3 244.3" style="enable-background:new 0 0 268.3 244.3;" xml:space="preserve">
	<style type="text/css">
	.st0{fill:#2E3192;}
	.st1{fill:#2E3191;}
	</style>
	<g id="pro_0.0">
		<path class="st0" d="M228.3,244.3c-4.8-3.9-33.2-27-41.3-37.3c-4.8-6.2,1.5-14.4,3.6-16.9l28.8,27l0-2.3
		c-0.2-42.9-21-90.4-55.9-126.9C124,46.4,69.8,21.9,11,18.8c-7.4-0.4-11.1-5.3-11-10C0.1,4.4,3.5,0,11,0c54.4,0,111,23.6,155.3,64.5
		c44.9,41.5,70.8,95.6,70.9,148.3l0,2.6l25.1-27.6c2.3,2.3,8.9,10.1,4.5,16.5C261,212.8,232.9,239.9,228.3,244.3z"/>
	</g>
	<path id="pro_0.0_00000120559253232864787540000011577495172999825558_" class="st1" d="M331.8,9.1C445.1,9.2,558.6,110.4,559,222.9
	l24.1-26.5c0,0,11.1,10.1,5.4,18.5c-6.5,9.5-39.3,40.8-39.3,40.8s-33.2-26.6-42.1-38c-6.3-8.1,4.3-18.9,4.3-18.9l27.8,26.1
	c-0.3-83.4-78.8-188.2-207.4-195C316.1,29.1,315.6,9.1,331.8,9.1z"/>
</svg>
