<?xml version="1.0" encoding="utf-8"?>
<!-- Generator: Adobe Illustrator 27.1.0, SVG Export Plug-In . SVG Version: 6.00 Build 0)  -->
<svg version="1.1" id="Layer_1" xmlns="http://www.w3.org/2000/svg" xmlns:xlink="http://www.w3.org/1999/xlink" x="0px" y="0px"
	 viewBox="0 0 217.9 391.7" style="enable-background:new 0 0 217.9 391.7;" xml:space="preserve">
<style type="text/css">
	.st0{fill:#2E3192;}
	.st1{fill:#2E3191;}
</style>
<g>
	<path class="st0" d="M102.4,391.7C-4,391.7-0.8,297.7,36.7,266.5l-36,9.6c-0.6-3.3-2.3-13.5,4.8-16.8c11-4.8,47.5-12.2,53.5-13.4
		c2,5.9,14,41.1,15.3,53c0.7,7.7-9,11.4-12,12.4l-11.3-35.7c-30.3,34.7-25.3,99.7,51.8,99.7c142.6,0,124.9-308.1-70.5-358.5
		C17.5,13,20.8-4.5,44.7,1.1C243.7,48,282.2,391.7,102.4,391.7z"/>
</g>
<path class="st1" d="M333.3,244.5l-35.6,7.1c0,0-3.4-14.7,6.1-18.5c12.6-4.6,55.3-10.5,55.3-10.5s11.8,41.6,12.5,54.9
	c0.4,10.1-14.5,13-14.5,13l-7.9-35.8c-66.1,101.5,77,141.5,134.2,72C591.9,195.2,336.1,12.1,320-1.4c-14.9-12.5,1.7-30.7,16.3-17.9
	c97.6,85.5,269.8,220.7,160.8,362.9C433.3,426.7,251.3,373.5,333.3,244.5z"/>
</svg>
