<?xml version="1.0" encoding="utf-8"?>
<!-- Generator: Adobe Illustrator 27.1.0, SVG Export Plug-In . SVG Version: 6.00 Build 0)  -->
<svg version="1.1" id="Layer_1" xmlns="http://www.w3.org/2000/svg" xmlns:xlink="http://www.w3.org/1999/xlink" x="0px" y="0px"
	 viewBox="0 0 127 240" style="enable-background:new 0 0 127 240;" xml:space="preserve">
<style type="text/css">
	.st0{fill:#2E3192;}
</style>
<g>
	<path class="st0" d="M50.3,240c-1,0-2.1-0.2-3.1-0.6C36.1,234.8,5.5,213.5,0.5,210c2.8-5.5,20-38.4,27.8-47.7c1.7-2,4-3,6.9-3
		c4.2,0,8.6,2.1,10.3,3.1l-18.3,30.8l1.8-0.1c13.9-0.5,62.6-16,75.1-41.4c4.7-9.5,3.6-19.2-3.2-28.7l-0.7-1.1l-0.8,1
		c-9.9,11.7-27,19.2-43.7,19.2c-5.2,0-10.1-0.7-14.6-2.2c-14.8-4.7-23.4-16.8-23.6-33.2c1-16.2,10.3-28.2,25.7-32.7
		c4.4-1.3,9.1-2,14-2c16,0,32.2,6.9,42,18.1l0.7,0.8l0.8-0.8c6.6-7,8.3-15.2,4.8-23.7C95.2,41.8,44.1,19.6,9.4,18.7
		c-2.4-0.1-5.1-1.5-7-3.8c-1.8-2.1-2.6-4.5-2.3-6.5C0.7,2.7,3.7,0,9.4,0c48.8,0.5,101.2,28.2,114.4,60.5
		c6.5,15.9,2.9,31.4-10.4,44.7l-0.6,0.6l0.6,0.7c13.5,17,16.9,33.7,10.2,49.4c-13.5,31.7-66.3,52.7-90.8,55.1l-3,0.3l32.7,20
		C60.9,233.6,56.1,240,50.3,240z M58.3,89.3c-10.4,0-25.1,5.4-25.1,17.4c0,12.6,16.3,17.9,25.1,17.9c8.8,0,21-4.5,28.7-14.7
		c2.1-2.9,1.9-6.8-0.4-9.5C77.8,90.6,67.4,89.3,58.3,89.3z"/>
</g>
<path class="st0" d="M446.4,12.8C493.7,14,565,53,537,82.6c-13.3-15-37.5-22.2-57.1-16.4c-15.8,4.7-25.4,17-26.4,33.7
	c0.2,16.9,9,29.2,24.3,34.1c20,6.3,45.9-1.4,59.4-17.4c27.8,39.1-51.5,67.9-71.2,68.6l17.9-30.1c0,0-12.8-8.1-19.4-0.4
	c-8.6,10.3-28.3,48.7-28.3,48.7s35.3,24.9,47.7,30c9.4,3.8,17-9.3,17-9.3l-31-19c33.4-3.2,130.8-43.6,81.3-106.1
	c46-46.2-31.5-106.2-104.8-106.9c-6.2,0-9.6,3.1-10.3,9.2l0,0C435.4,6.5,440.9,12.6,446.4,12.8L446.4,12.8z M495.3,116.7
	c-8.9,0-24.1-5.4-24.1-16.9s14.7-16.4,24.1-16.4c9.4,0,19.2,1.4,27.5,10.8c2,2.3,2.2,5.7,0.4,8.2
	C516.1,111.8,504.3,116.7,495.3,116.7L495.3,116.7z"/>
</svg>
