<?xml version="1.0" encoding="utf-8"?>
<svg version="1.1" id="Layer_1"
	xmlns="http://www.w3.org/2000/svg"
	xmlns:xlink="http://www.w3.org/1999/xlink" viewBox="0 0 200 350" xml:space="preserve">

	<path fill="#2E3192" d="M111.8,27.6c-5.7,5.7-28.6,22.4-28.6,43.6c0.1,25.5,29.1,39.6,49.1,48.7l4.5,2l-4.4,2.4
	c-31.5,17.5-50.3,31-50.1,46.2c0.1,26.2,50.2,45.8,50.7,46l6.3,2.5l-6.4,2.3c-26.7,9.4-44.6,21.6-48.2,36.2
	c-3,12.1,2.9,27.1,16.9,41.1c2,1.8,6.9,7.1,9.8,10l-0.1-36.3c0,0,15.1-0.2,16.5,9.9c1.8,11.5-0.8,56.7-0.8,56.7s-42.4,3.3-56.8,0.9
	c-10-1.6-9.7-16.8-9.7-16.8l31.3-0.2c0.7,0.1,1.4,0.1,2.1,0l3.2-0.1c-22-20.4-34.5-42.4-31.5-65.5c2.8-21.3,22.1-35.9,29.5-40.8
	c-8.8-5.8-33.4-20.9-33.7-44.7c-0.3-24.3,25-40,32.7-47.2c-8.4-4.9-30-25.5-30.3-50.8c-0.2-25.2,5.8-31.3,34.2-59.8
	C109.5,2.4,123.7,15.7,111.8,27.6z"/>
</svg>
