<?xml version="1.0" encoding="utf-8"?>
<svg version="1.1" id="Layer_1"
	xmlns="http://www.w3.org/2000/svg"
	xmlns:xlink="http://www.w3.org/1999/xlink" viewBox="0 0 247.5 317.6" style="enable-background:new 0 0 247.5 317.6;" xml:space="preserve">

	<path fill="#2E3192" d="M234,0.6c-23.9,6.6-66.4,16.8-102.5,59c-66.1,12-150.4,129.8-95.2,237.5l-36-5.2c0,0-2.6,14.9,7,18
	c12.8,4,55.8,7.6,55.8,7.6s9.5-42.1,9.4-55.5C72.4,251.9,57.5,250,57.5,250L52,284.5C5.7,175.4,84.6,93.5,129.2,82.2
	c-1.4,20.8,10.8,37.7,20.9,45.6c10,7.8,34.2,9.3,47.9-2.4c13.7-11.7,10-37.3,2.4-46.8c-10.9-13.4-23.1-23.2-43.1-21.7
	c22.5-21.6,57.6-31.7,82.2-39C253.3,13.7,247.9-3.3,234,0.6L234,0.6z M146.5,73.8c16.2-2.6,26.3,2.1,35.6,10.6
	c9.2,8.5,9.4,22.6,3.3,28.5c-5.2,5-20.4,5.3-29.8-4.1C145.5,98.7,144.2,88.4,146.5,73.8z"/>
</svg>
