<svg xmlns="http://www.w3.org/2000/svg" xml:space="preserve" id="Layer_1" viewBox="0 0 750 750">

	<circle id="n_outer_point" cx="375" cy="75" r="25"/>
	<circle id="e_outer_point" cx="675" cy="375" r="25"/>
	<circle id="s_outer_point" cx="375" cy="675" r="25"/>
	<circle id="w_outer_point" cx="75" cy="375" r="25"/>

	<path id="ne_outer_point" d="M162.9,147.9c4,0,7.8,1.6,10.6,4.4c5.8,5.8,5.8,15.4,0,21.2c-2.8,2.8-6.6,4.4-10.6,4.4s-7.8-1.6-10.6-4.4
		c-5.8-5.8-5.8-15.4,0-21.2C155.1,149.4,158.9,147.9,162.9,147.9 M162.9,137.9c-6.4,0-12.8,2.4-17.7,7.3c-9.8,9.8-9.8,25.6,0,35.4
		c4.9,4.9,11.3,7.3,17.7,7.3c6.4,0,12.8-2.4,17.7-7.3c9.8-9.8,9.8-25.6,0-35.4C175.7,140.3,169.3,137.9,162.9,137.9L162.9,137.9z"/>
	<path id="se_outer_point" d="M587.1,147.9c4,0,7.8,1.6,10.6,4.4c5.8,5.8,5.8,15.4,0,21.2c-2.8,2.8-6.6,4.4-10.6,4.4s-7.8-1.6-10.6-4.4
		c-5.8-5.8-5.8-15.4,0-21.2C579.4,149.4,583.1,147.9,587.1,147.9 M587.1,137.9c-6.4,0-12.8,2.4-17.7,7.3c-9.8,9.8-9.8,25.6,0,35.4
		c4.9,4.9,11.3,7.3,17.7,7.3s12.8-2.4,17.7-7.3c9.8-9.8,9.8-25.6,0-35.4C599.9,140.3,593.5,137.9,587.1,137.9L587.1,137.9z"/>
	<path id="sw_outer_point" d="M587.1,572.1c4,0,7.8,1.6,10.6,4.4c5.8,5.8,5.8,15.4,0,21.2c-2.8,2.8-6.6,4.4-10.6,4.4s-7.8-1.6-10.6-4.4
		c-5.8-5.8-5.8-15.4,0-21.2C579.4,573.7,583.1,572.1,587.1,572.1 M587.1,562.1c-6.4,0-12.8,2.4-17.7,7.3c-9.8,9.8-9.8,25.6,0,35.4
		c4.9,4.9,11.3,7.3,17.7,7.3s12.8-2.4,17.7-7.3c9.8-9.8,9.8-25.6,0-35.4C599.9,564.6,593.5,562.1,587.1,562.1L587.1,562.1z"/>
	<path id="nw_outer_point" d="M162.9,572.1c4,0,7.8,1.6,10.6,4.4c5.8,5.8,5.8,15.4,0,21.2c-2.8,2.8-6.6,4.4-10.6,4.4s-7.8-1.6-10.6-4.4
		c-5.8-5.8-5.8-15.4,0-21.2C155.1,573.7,158.9,572.1,162.9,572.1 M162.9,562.1c-6.4,0-12.8,2.4-17.7,7.3c-9.8,9.8-9.8,25.6,0,35.4
		c4.9,4.9,11.3,7.3,17.7,7.3s12.8-2.4,17.7-7.3c9.8-9.8,9.8-25.6,0-35.4C175.7,564.6,169.3,562.1,162.9,562.1L162.9,562.1z"/>

</svg>