<?xml version="1.0" encoding="UTF-8"?>
<svg id="Layer_2" data-name="Layer 2" xmlns="http://www.w3.org/2000/svg" viewBox="0 0 88.53 100">
  <g id="Layer_1-2" data-name="Layer 1">
    <path d="m77.11,27.84c-7.06-5.1-15.49-8.24-24.51-9.12V7.65c0-4.22-3.43-7.65-7.74-7.65h-1.18c-4.31,0-7.74,3.43-7.74,7.65v11.08c-9.02.88-17.45,4.02-24.51,9.12C4.36,32.65.54,38.63.05,45.39c-.59,8.53,4.22,16.18,8.53,20.1,6.96,6.57,16.37,10.49,27.35,11.37v15.49c0,4.22,3.43,7.65,7.74,7.65h1.18c4.31,0,7.74-3.43,7.74-7.65v-15.49c10.98-.88,20.39-4.8,27.35-11.37,4.31-3.92,9.12-11.67,8.53-20.1-.49-6.76-4.31-12.65-11.37-17.55Zm-24.51,18.43c0-4.12.1-7.55.39-10.78.1-1.08.98-1.96,2.06-2.06h.69c8.04,0,14.02,2.84,16.76,7.94,2.45,4.51,2.16,10.1-.88,14.51-3.43,5.2-9.71,7.74-17.16,6.86-.98-.1-1.76-.98-1.76-2.06.1-2.75,0-5.59,0-8.53-.1-1.96-.1-3.92-.1-5.88Zm-36.57-4.9c2.75-5.1,8.73-7.94,16.67-7.94h.69c1.18.1,2.06.98,2.16,2.06.29,3.33.39,6.86.39,10.78,0,1.96,0,4.02-.1,5.98,0,2.84-.1,5.69,0,8.43,0,1.08-.78,1.96-1.76,2.06-7.45.88-13.73-1.67-17.16-6.86-3.04-4.41-3.33-10-.88-14.51Z"/>
  </g>
</svg>