<?xml version="1.0" encoding="utf-8"?>
<!-- Generator: Adobe Illustrator 27.1.0, SVG Export Plug-In . SVG Version: 6.00 Build 0)  -->
<svg version="1.1" id="Layer_1"
	xmlns="http://www.w3.org/2000/svg"
	xmlns:xlink="http://www.w3.org/1999/xlink" x="0px" y="0px" viewBox="0 0 950 950" style="enable-background:new 0 0 950 950;" xml:space="preserve">
	<style type="text/css">
	.st0{fill:none;}
	</style>
	<g>
		<circle id="n_diamond_outer_point" cx="475" cy="175" r="25"/>
		<circle id="e_diamond_outer_point" cx="775" cy="475" r="25"/>
		<circle id="s_diamond_outer_point" cx="475" cy="775" r="25"/>
		<circle id="w_diamond_outer_point" cx="175" cy="475" r="25"/>
	</g>
	<g>
		<circle id="n_diamond_hand_point" cx="475" cy="331.9" r="8"/>
		<circle id="e_diamond_hand_point" cx="618.1" cy="475" r="8"/>
		<circle id="s_diamond_hand_point" cx="475" cy="618.1" r="8"/>
		<circle id="w_diamond_hand_point" cx="331.9" cy="475" r="8"/>
	</g>
	<g>
		<circle id="ne_diamond_layer2_point" class="st0" cx="618.1" cy="331.9" r="8.8"/>
		<circle id="se_diamond_layer2_point" class="st0" cx="618.1" cy="618.1" r="8.8"/>
		<circle id="sw_diamond_layer2_point" class="st0" cx="331.9" cy="618.1" r="8.8"/>
		<circle id="nw_diamond_layer2_point" class="st0" cx="331.9" cy="331.9" r="8.8"/>
	</g>
	<g>
		<circle id="ne_diamond_layer2_point_strict" class="st0" cx="625" cy="325" r="8.8"/>
		<circle id="se_diamond_layer2_point_strict" class="st0" cx="625" cy="625" r="8.8"/>
		<circle id="sw_diamond_layer2_point_strict" class="st0" cx="325" cy="625" r="8.8"/>
		<circle id="nw_diamond_layer2_point_strict" class="st0" cx="325" cy="325" r="8.8"/>
	</g>
	<g>
		<circle id="n_diamond_hand_point_strict" class="st0" cx="475" cy="325" r="4.7"/>
		<circle id="e_diamond_hand_point_strict" class="st0" cx="625" cy="475" r="4.7"/>
		<circle id="s_diamond_hand_point_strict" class="st0" cx="475" cy="625" r="4.7"/>
		<circle id="w_diamond_hand_point_strict" class="st0" cx="325" cy="475" r="4.7"/>
	</g>
	<circle id="center_point" cx="475" cy="475" r="12"/>
</svg>
