<?xml version="1.0" encoding="UTF-8"?>
<svg id="Layer_2" data-name="Layer 2" xmlns="http://www.w3.org/2000/svg" viewBox="0 0 15.12 10">
  <defs>
    <style>
      .cls-1 {
        fill: #231f20;
      }
    </style>
  </defs>
  <g id="Layer_1-2" data-name="Layer 1">
    <g>
      <path class="cls-1" d="m.08,8.65c.06-.29,1.97-5.54,3.02-7.94C3.42,0,3.7,0,3.84,0s.42,0,.74.72c1.05,2.4,2.96,7.64,3.02,7.94.23,1-.08,1.16-.44,1.3-.28.13-.86.02-1.12-.7-.16-.42-2.2-5.86-2.2-5.86,0,0-2.05,5.44-2.2,5.86-.25.72-.83.82-1.12.7-.36-.15-.67-.3-.44-1.3Z"/>
      <rect class="cls-1" x="8.12" y="4" width="7" height="2" rx=".95" ry=".95"/>
    </g>
  </g>
</svg>