<?xml version="1.0" encoding="UTF-8"?>
<svg id="Layer_2" data-name="Layer 2" xmlns="http://www.w3.org/2000/svg" viewBox="0 0 16.83 10">
  <defs>
    <style>
      .cls-1 {
        fill: #231f20;
      }
    </style>
  </defs>
  <g id="Layer_1-2" data-name="Layer 1">
    <g>
      <path d="m7.71,2.78c-.71-.51-1.55-.82-2.45-.91V.76c0-.42-.34-.76-.77-.76h-.12c-.43,0-.77.34-.77.76v1.11c-.9.09-1.75.4-2.45.91C.44,3.26.05,3.86,0,4.54c-.06.85.42,1.62.85,2.01.7.66,1.64,1.05,2.74,1.14v1.55c0,.42.34.76.77.76h.12c.43,0,.77-.34.77-.76v-1.55c1.1-.09,2.04-.48,2.74-1.14.43-.39.91-1.17.85-2.01-.05-.68-.43-1.26-1.14-1.75Zm-2.45,1.84c0-.41,0-.75.04-1.08,0-.11.1-.2.21-.21h.07c.8,0,1.4.28,1.68.79.25.45.22,1.01-.09,1.45-.34.52-.97.77-1.72.69-.1,0-.18-.1-.18-.21,0-.27,0-.56,0-.85,0-.2,0-.39,0-.59Zm-3.66-.49c.27-.51.87-.79,1.67-.79h.07c.12,0,.21.1.22.21.03.33.04.69.04,1.08,0,.2,0,.4,0,.6,0,.28,0,.57,0,.84,0,.11-.08.2-.18.21-.75.09-1.37-.17-1.72-.69-.3-.44-.33-1-.09-1.45Z"/>
      <rect class="cls-1" x="9.83" y="4" width="7" height="2" rx=".95" ry=".95"/>
    </g>
  </g>
</svg>