<?xml version="1.0" encoding="utf-8"?>
<!-- Generator: Adobe Illustrator 27.1.0, SVG Export Plug-In . SVG Version: 6.00 Build 0)  -->
<svg version="1.1" id="Layer_2_00000178184059139395156200000002529835612436555933_" xmlns:ns0="http://www.w3.org/2000/svg"
	 xmlns="http://www.w3.org/2000/svg" xmlns:xlink="http://www.w3.org/1999/xlink" x="0px" y="0px" viewBox="0 0 200 100"
	 style="enable-background:new 0 0 200 100;" xml:space="preserve">
<style type="text/css">
	.st0{fill:#231F20;}
</style>
<g id="Layer_1-2">
	<g>
		<path class="st0" d="M105.9,16.7c-5,25.1-10.3,33.7-33.9,38.2c-0.4,0-0.7,0.4-0.8,0.7v36c0,2.2-1,4.4-2.5,6
			c-1.5,1.6-3.6,2.4-5.9,2.4s-4.3-0.9-6.1-2.4c-1.6-1.6-2.4-3.8-2.4-6v-36c0,0-0.5-0.6-0.9-0.7C30,50.4,24.7,41.8,19.7,16.7
			c-0.8-3.6-0.4-6.5,1.2-8.3C22.6,6.3,25.1,6,26.5,6c2.4,0,4.3,2.2,5.6,4.5c1.3,2.3,2,4.7,2.1,5.4c2.5,17.1,7.3,22.9,18.5,22.9h0.9
			c0,0,0.7-0.2,0.9-0.6V7.8c1.2-2.8,2-4.8,3.1-6c0.7-0.6,1.5-1,2.3-1.3c0.5-0.2,1-0.3,1.4-0.4c1.1-0.2,2.4-0.2,3.3,0
			c0.5,0,1,0.2,1.5,0.4c0.7,0,1.5,0.6,2.2,1.3c1.2,1.2,2.1,3.1,3,6v0.3c0,0,0.2,0.3,0.2,0.5V38c0,0,0,0.2,0,0.4
			c0,0.3,0.5,0.5,0.9,0.5c12,0.4,16.8-5.4,19.3-22.9c0.3-1.3,2.8-9.9,7.6-9.9l0,0c1.4,0,3.9,0.3,5.6,2.4
			C106.3,10.4,106.7,13.2,105.9,16.7L105.9,16.7z"/>
		<path class="st0" d="M120.2,40h51c5.2,0,9.5,4.3,9.5,9.5v1c0,5.2-4.3,9.5-9.5,9.5h-51c-5.2,0-9.5-4.3-9.5-9.5v-1
			C110.7,44.3,115,40,120.2,40z"/>
	</g>
</g>
</svg>
