<?xml version="1.0" encoding="utf-8"?>
<!-- Generator: Adobe Illustrator 27.1.0, SVG Export Plug-In . SVG Version: 6.00 Build 0)  -->
<svg version="1.1" id="Layer_1"
	xmlns="http://www.w3.org/2000/svg"
	xmlns:xlink="http://www.w3.org/1999/xlink" x="0px" y="0px" viewBox="0 0 365.5 142.6" style="enable-background:new 0 0 365.5 142.6;" xml:space="preserve">
	<style type="text/css">
	.st0{fill:#2E3192;}
	</style>
	<g>
		<path class="st0" d="M14.1,140.8c-9.7,6.9-20.2-8.5-9.8-16.2c8.6-6.4,106.4-92.5,329.3-92.9h2.4L310.5,5.8
		c1.8-1.7,6.8-5.8,11.8-5.8c1.8,0,3.4,0.5,4.8,1.6c9.7,7.1,34.3,35,38.4,39.7c-4.1,4.6-28.6,32.6-38.4,39.7c-1.4,1-3.1,1.6-4.8,1.6
		c-5,0-10-4.1-11.8-5.8l25.7-26.1h-2.4C154.3,50.7,70,101.4,14.1,140.8z"/>
	</g>
</svg>
