<?xml version="1.0" encoding="utf-8"?>
<!-- Generator: Adobe Illustrator 27.1.0, SVG Export Plug-In . SVG Version: 6.00 Build 0)  -->
<svg version="1.1" id="Layer_1" xmlns="http://www.w3.org/2000/svg" xmlns:xlink="http://www.w3.org/1999/xlink" x="0px" y="0px"
	 viewBox="0 0 75 100" style="enable-background:new 0 0 75 100;" xml:space="preserve">
<style type="text/css">
	.st0{fill:#FF0000;}
</style>
<path class="st0" d="M63.8,44.6c-1.1,0-2.2,0-3.4,0c0-0.3,0-0.6,0-0.9c0-10.3,0-20.6,0-31c0-2.7-1.5-4.8-3.9-5.6
	c-3.7-1.1-7.2,1.6-7.3,5.5c0,8.9,0,17.8,0,26.7c0,1.7,0,3.5,0,5.2c-1.1,0-2.2,0-3.3,0c0-0.3,0-0.6,0-0.9c0-12.7,0-25.3,0-38
	c0-3.3-2.4-5.7-5.6-5.7c-3.2,0-5.6,2.5-5.6,5.8c0,12.6,0,25.2,0,37.8c0,0.3,0,0.6,0,1c-1.1,0-2.2,0-3.3,0c0-0.3,0-0.6,0-0.9
	c0-10,0-20.1,0-30.1c0-3-2-5.2-5-5.6c-3.1-0.4-6.2,2.1-6.2,5.2c0,3.8,0,7.6,0,11.5c0,12.7,0,25.4,0,38.1c0,0.8-0.2,1.5-0.9,1.9
	c-0.9,0.4-1.7,0.2-2.3-0.8c-2.1-3.6-4.3-7.2-6.4-10.9c-1.6-2.8-4.4-3.7-7.4-2.5c-3,1.3-4.2,4.7-2.4,7.7c3,5,5.9,10.1,8.9,15.1
	c2.2,3.7,4.3,7.4,6.6,11c0.8,1.2,1.8,2.3,2.8,3.3c4.3,4.2,9.1,7.6,14.8,9.9c5,2,10.2,3,15.6,2.5c9.9-0.9,17.1-5.8,21.7-14.3
	c2.1-3.9,3.2-8.1,3.6-12.5c0.2-2.1,0.2-4.2,0.2-6.2c0-13.9,0-27.8,0-41.7c0-3.3-2.5-5.8-5.7-5.7c-3,0.1-5.4,2.5-5.4,5.4
	c0,6.3,0,12.6,0,19C63.8,44,63.8,44.3,63.8,44.6L63.8,44.6z"/>
</svg>
