<?xml version="1.0" encoding="UTF-8"?>
<svg id="Layer_2" data-name="Layer 2" xmlns="http://www.w3.org/2000/svg" viewBox="0 0 92.25 80">
  <g id="Layer_1-2" data-name="Layer 1">
    <path d="m90.69,50.39c-5.76,0-8.32,2.24-11.42,5.87-1.49,1.71-3.43,10.45-6.69,4.88-6.69-11.44.18-40.63,9.46-53.54,2.45-3.31-.96-5.23-2.67-6.19,0,0-3.73-1.92-5.66-1.28-2.56.85-5.33-1.07-12.38,14.62C50.79,2.59,38.41,4.19,29.98,4.51,22.51,4.83,0,13.15,0,39.4c0,31.58,27.1,37.45,35.32,37.45s22.09-5.34,25.61-8.54c2.13,6.4,5.97,10.35,10.78,11.31,7.47,1.6,10.78-2.13,13.76-6.3,4.37-5.97,9.39-22.83,5.23-22.94Zm-55.38,8.86c-10.88,0-19.74-8.96-19.74-19.85s8.86-19.74,19.74-19.74,19.85,8.96,19.85,19.74-8.96,19.85-19.85,19.85Z"/>
  </g>
</svg>