<?xml version="1.0" encoding="UTF-8"?>
<svg id="Layer_2" data-name="Layer 2" xmlns="http://www.w3.org/2000/svg" viewBox="0 0 78.88 100">
  <g id="Layer_1-2" data-name="Layer 1">
    <path d="m78.88,8.36c-.2,2.65-1.43,5.85-9.03,5.49s-39.24.39-43.66.69c.1,5.59,2.6,35.97,4.32,72.8.53,11.3-4.37,12.66-6.38,12.66-3.36,0-9.22-4.32-10.3-11.38-.88-6.57-1.57-21.58-2.26-37.38-.59-13.74-1.18-27.86-2.06-37.48L0,16.9.29,6.7c.39-2.06,2.5-4.6,3.92-4.71S68.39-.26,72.01.03c3.62.28,6.97,5.3,6.87,8.34Z"/>
  </g>
</svg>