<?xml version="1.0" encoding="utf-8"?>
<!-- Generator: Adobe Illustrator 27.1.0, SVG Export Plug-In . SVG Version: 6.00 Build 0)  -->
<svg version="1.1" id="Layer_2_00000005981744747914329150000001229364086493807799_" xmlns:ns0="http://www.w3.org/2000/svg"
	 xmlns="http://www.w3.org/2000/svg" xmlns:xlink="http://www.w3.org/1999/xlink" x="0px" y="0px" viewBox="0 0 200 100"
	 style="enable-background:new 0 0 200 100;" xml:space="preserve">
<style type="text/css">
	.st0{fill:#231F20;}
</style>
<g id="Layer_1-2">
	<g>
		<path d="M93,27.8c-7.1-5.1-15.5-8.2-24.5-9.1V7.6c0-4.2-3.4-7.6-7.7-7.6h-1.2c-4.3,0-7.7,3.4-7.7,7.6v11.1c-9,0.9-17.5,4-24.5,9.1
			c-7.1,4.8-11,10.8-11.5,17.6c-0.6,8.5,4.2,16.2,8.5,20.1c7,6.6,16.4,10.5,27.4,11.4v15.5c0,4.2,3.4,7.6,7.7,7.6h1.2
			c4.3,0,7.7-3.4,7.7-7.6V76.9c11-0.9,20.4-4.8,27.4-11.4c4.3-3.9,9.1-11.7,8.5-20.1c-0.5-6.8-4.3-12.6-11.4-17.5L93,27.8z
			 M68.5,46.2c0-4.1,0-7.5,0.4-10.8c0-1.1,1-2,2.1-2.1h0.7c8,0,14,2.8,16.8,7.9c2.5,4.5,2.2,10.1-0.9,14.5
			c-3.4,5.2-9.7,7.7-17.2,6.9c-1,0-1.8-1-1.8-2.1c0-2.7,0-5.6,0-8.5c0-2,0-3.9,0-5.9L68.5,46.2z M31.9,41.3
			c2.7-5.1,8.7-7.9,16.7-7.9h0.7c1.2,0,2.1,1,2.2,2.1c0.3,3.3,0.4,6.9,0.4,10.8c0,2,0,4,0,6c0,2.8,0,5.7,0,8.4c0,1.1-0.8,2-1.8,2.1
			c-7.5,0.9-13.7-1.7-17.2-6.9c-3-4.4-3.3-10-0.9-14.5L31.9,41.3z"/>
		<path class="st0" d="M123.7,40h51c5.2,0,9.5,4.3,9.5,9.5v1c0,5.2-4.3,9.5-9.5,9.5h-51c-5.2,0-9.5-4.3-9.5-9.5v-1
			C114.2,44.3,118.4,40,123.7,40z"/>
	</g>
</g>
</svg>
