<?xml version="1.0" encoding="utf-8"?>
<!-- Generator: Adobe Illustrator 27.1.0, SVG Export Plug-In . SVG Version: 6.00 Build 0)  -->
<svg version="1.1" id="Layer_1" xmlns="http://www.w3.org/2000/svg" xmlns:xlink="http://www.w3.org/1999/xlink" x="0px" y="0px"
	 viewBox="0 0 240.8 216.5" style="enable-background:new 0 0 240.8 216.5;" xml:space="preserve">
<style type="text/css">
	.st0{fill:#2E3192;}
</style>
<text transform="matrix(1 0 0 1 -118.9017 -1527.6086)" style="font-family:'ArialMT'; font-size:60px;">from nonradial</text>
<g>
	<path class="st0" d="M239.2,177.7c-7.7,10.6-35.4,34.8-40,38.8c-4.7-4.3-33.7-30.3-39.9-38.8c-1.1-1.5-1.6-3.2-1.6-5
		c0-5,4-9.9,5.6-11.7l26.7,28.4C190,72,106.4,19.9,7.5,18.7C-2.4,18.6-2.5,0,7.2,0c108.5,0,200.2,57.8,200.2,189.3l27.6-28.2
		c1.7,1.8,5.8,6.8,5.8,11.8C240.8,174.6,240.2,176.3,239.2,177.7z"/>
</g>
</svg>
