<?xml version="1.0" encoding="utf-8"?>
<!-- Generator: Adobe Illustrator 27.1.0, SVG Export Plug-In . SVG Version: 6.00 Build 0)  -->
<svg version="1.1" id="Layer_1" xmlns="http://www.w3.org/2000/svg" xmlns:xlink="http://www.w3.org/1999/xlink" x="0px" y="0px"
	 viewBox="0 0 293.1 211.2" style="enable-background:new 0 0 293.1 211.2;" xml:space="preserve">
<style type="text/css">
	.st0{fill:#2E3192;}
</style>
<text transform="matrix(1 0 0 1 -91.1716 -1065.5117)" style="font-family:'ArialMT'; font-size:60px;">from nonradial</text>
<g>
	<path class="st0" d="M282.5,176.9c-32.9,49.5-91.3,19.1-99-1.1L172,211.2c-3.1-1.3-12.6-5.4-11.5-13.2c2-11.9,15.6-46.5,17.8-52.2
		c6.1,1.6,42.1,10.6,52.8,16c6.9,3.6,4.7,13.7,3.8,16.8l-36.1-10c14.1,19.7,47.6,27.4,69.3-3c50.3-70.3-198-148.2-254-148.2
		C-4.4,17.5-4.4,1.2,12.4,0C68.3,0,350.6,74.4,282.5,176.9z"/>
</g>
</svg>
