<?xml version="1.0" encoding="utf-8"?>
<!-- Generator: Adobe Illustrator 27.1.0, SVG Export Plug-In . SVG Version: 6.00 Build 0)  -->
<svg version="1.1" id="Layer_1" xmlns="http://www.w3.org/2000/svg" xmlns:xlink="http://www.w3.org/1999/xlink" x="0px" y="0px"
	 viewBox="0 0 161.2 169.4" style="enable-background:new 0 0 161.2 169.4;" xml:space="preserve">
<style type="text/css">
	.st0{fill:#2E3192;}
</style>
<path class="st0" d="M81.5,169.8L81.5,169.8c-21.5-1.1-40.3-8.3-54.6-20.8c-13-11.4-21.8-26.5-25.4-43.8c-1.2-5.4-1.8-11.1-1.8-17
	c0-26.4,12.4-55.2,42.8-70.9L18.7,8.4c0,0,3.6-10,10.6-8.7c9.6,2.2,34.6,13.9,37.1,15c-0.7,2.7-8.8,29.1-13.7,37.6
	c-3.6,6.2-13.5,2.2-13.5,2.2L48.4,31C23.5,41.1,9.8,69.2,15.1,99.5c4.5,25.8,24.2,53.8,66.1,55c17.8,0.5,32.7-4.9,44.2-16
	c18-17.5,21.9-43.4,21.9-48.9c0-5.7,3.9-8.3,7.5-8.3c2,0,3.8,0.7,5.2,2.1c1.5,1.5,2.3,3.6,2.3,6.1c0,16.9-6.8,35.4-18.1,49.6
	C134,151.9,114.8,167.7,81.5,169.8z"/>
<text transform="matrix(1 0 0 1 -137.1927 -606.5069)" style="font-family:'ArialMT'; font-size:60px;">from nonradial</text>
</svg>
