<?xml version="1.0" encoding="utf-8"?>
<!-- Generator: Adobe Illustrator 27.1.0, SVG Export Plug-In . SVG Version: 6.00 Build 0)  -->
<svg version="1.1" id="Layer_2_00000067943470925853274430000014016169332394375836_"
	 xmlns="http://www.w3.org/2000/svg" xmlns:xlink="http://www.w3.org/1999/xlink" x="0px" y="0px" viewBox="0 0 218.3 211.9"
	 style="enable-background:new 0 0 218.3 211.9;" xml:space="preserve">
<style type="text/css">
	.st0{fill:#2E3192;}
</style>
<g id="Layer_1-2_00000018938558089964873080000002854381780436272281_">
	<g>
		<path class="st0" d="M101.1,211.9c-32.6-0.7-52.6-17.3-63.7-31.2c-13.7-17.2-21.4-40-21.4-63c0-51.8,36.3-83.5,84.9-82.7
			c19.6,0.4,39.3,8.2,54.1,21.6c15.6,14.1,24.1,32.9,24.1,52.8c0,19-7.4,36.8-20.7,50.1c-12.8,12.7-30.2,20.1-47.7,20.1
			c-17.2,0-40.9-11.2-52.3-35.8l-6.6,25.6c0,0-10.5-2.3-10-9.4c0.8-9.9,9.2-36.6,9.9-39.3c2.8,0.6,30.4,5,39.6,8.7
			c3.8,1.5,4.6,5.5,4.6,8.7c0,2.5-0.5,4.5-0.5,4.5l-25.8-5.8c10.2,18.2,25.6,29.1,41.3,29.1c26.4,0,54.6-22.7,54.6-56.4
			c0-33.4-29.9-62.7-65.2-61.6C56.3,49.3,30.1,71,29.4,119c-0.5,38.4,25.1,79.2,71.7,79.2c68.6,0,97-59.1,104.6-86.2
			c2.3-8.5,14.6-5.4,12.3,3C212.4,135.2,185.6,213.6,101.1,211.9z"/>
	</g>
</g>
<text transform="matrix(1 0 0 1 -38.8927 -675.8441)" style="font-family:'ArialMT'; font-size:60px;">from nonradial</text>
</svg>
