<?xml version="1.0" encoding="utf-8"?>
<!-- Generator: Adobe Illustrator 27.1.0, SVG Export Plug-In . SVG Version: 6.00 Build 0)  -->
<svg version="1.1" id="Layer_2_00000067943470925853274430000014016169332394375836_"
	 xmlns="http://www.w3.org/2000/svg" xmlns:xlink="http://www.w3.org/1999/xlink" x="0px" y="0px" viewBox="0 0 189.9 169.5"
	 style="enable-background:new 0 0 189.9 169.5;" xml:space="preserve">
<style type="text/css">
	.st0{fill:#2E3192;}
</style>
<g id="Layer_1-2_00000144313412631531932790000009516445523293907880_">
	<path class="st0" d="M134,54.3c8,5.9,33.6,17.1,36.1,18.4c1.5-2.4,16.3-26.2,19.5-35.6c2.3-6.8-7.3-11.6-7.3-11.6l-12.4,23.6
		c-13.4-45.4-60-49.2-71.6-49.2c-50.2,0-85,38.2-85,84.4c0,48.5,37.6,85.2,86.1,85.2c36.6,0,67.1-24.1,77.7-59.3
		c3.5-12.1-10.6-15.7-14.3-3.9c-9,29.2-33.2,48.4-63.4,48.4c-40.3,0-71.3-30-71.3-70.4c0-37.9,32.2-69.6,70.2-69.6
		c11.6,0,44.6,1.9,58.7,38.5l-23.5-12.7C133.5,40.5,128.3,50,134,54.3L134,54.3z"/>
</g>
<text transform="matrix(1 0 0 1 -115.2853 -794.4568)" style="font-family:'ArialMT'; font-size:60px;">from nonradial</text>
</svg>
