<?xml version="1.0" encoding="utf-8"?>
<!-- Generator: Adobe Illustrator 27.1.0, SVG Export Plug-In . SVG Version: 6.00 Build 0)  -->
<svg version="1.1" id="Layer_1" xmlns="http://www.w3.org/2000/svg" xmlns:xlink="http://www.w3.org/1999/xlink" x="0px" y="0px"
	 viewBox="0 0 600 309.5" style="enable-background:new 0 0 600 309.5;" xml:space="preserve">
<style type="text/css">
	.st0{fill:#2E3192;}
</style>
<g>
	<g>
		<path class="st0" d="M154.8,309.5C69.4,309.5,0,240.1,0,154.8C0,69.4,69.4,0,154.8,0c85.3,0,154.8,69.4,154.8,154.8
			C309.5,240.1,240.1,309.5,154.8,309.5z M154.8,19.3c-74.7,0-135.4,60.8-135.4,135.4s60.8,135.4,135.4,135.4
			c74.7,0,135.4-60.8,135.4-135.4S229.4,19.3,154.8,19.3z"/>
	</g>
	<g>
		<path class="st0" d="M445.2,309.5c-85.3,0-154.8-69.4-154.8-154.8C290.5,69.4,359.9,0,445.2,0S600,69.4,600,154.8
			C600,240.1,530.6,309.5,445.2,309.5z M445.2,19.3c-74.7,0-135.4,60.8-135.4,135.4s60.8,135.4,135.4,135.4s135.4-60.8,135.4-135.4
			S519.9,19.3,445.2,19.3z"/>
	</g>
</g>
</svg>
