<?xml version="1.0" encoding="utf-8"?>
<!-- Generator: Adobe Illustrator 27.1.0, SVG Export Plug-In . SVG Version: 6.00 Build 0)  -->
<svg version="1.1" id="fan" xmlns="http://www.w3.org/2000/svg" xmlns:xlink="http://www.w3.org/1999/xlink" x="0px" y="0px"
	 viewBox="0 0 600 567.4" style="enable-background:new 0 0 600 567.4;" xml:space="preserve">
<style type="text/css">
	.st1{fill:none;}
	.st0{fill:#2E3191;}
</style>
<g>
	<g>
		<path class="st1" d="M300.1,227.7l-17.8,0.7l-4.9,0.2l-2.5-4.2c-2.2-3.7-53.5-90.7-58.8-101.3c-10.2-20.8-38.1-84.1-42.7-99.5
			l0-0.1l0-0.1c-0.2-0.9-0.5-1.8-0.8-2.8c-0.2-0.8-0.5-1.7-0.7-2.5l-0.1-0.3c-2-7.2-4.6-16.1-8.4-17.7c-0.4-0.2-0.8-0.2-1.3-0.2
			c-1,0-2.9,0.4-5.9,2.2c-2.3,1.4-41.6,26.7-80,74.1C54.3,103.6,36.7,133,24,163.7C8.4,201.9,0.3,242.2,0,283.7
			c0.3,41.5,8.4,81.8,24,119.9c12.6,30.7,30.2,60.2,52.3,87.4c38.4,47.4,77.7,72.7,80,74.1c3,1.8,4.9,2.2,5.9,2.2
			c0.5,0,0.9-0.1,1.3-0.2c3.8-1.6,6.4-10.5,8.4-17.7l0.1-0.3c0.2-0.8,0.5-1.6,0.7-2.5c0.2-0.9,0.5-1.9,0.8-2.8l0-0.1l0-0.1
			c4.6-15.4,32.5-78.7,42.7-99.5c5.2-10.6,56.6-97.6,58.8-101.3l2.5-4.2l4.9,0.2l17.8,0.7c34.6-1.6,53.2-30,53.2-55.9
			C353.3,257.7,334.6,229.4,300.1,227.7z M70.2,115.7c24.5-38.1,53.4-65.2,73.3-81.1l8.7-7l4.1,10.4c9.4,24.2,34.7,78.7,42.8,95.2
			c1.5,3,10.2,17.7,18.6,32c10.8,18.3,22.9,39,27.4,47.3l13.8,26l-25.3-15.1L72.9,127.2l-7.3-4.4L70.2,115.7z M18.9,265.7
			c2.7-40.6,13.9-80.7,33.3-119.3l4.1-8.1l7.6,4.8l184.1,115.6l3.8,2.4v4.5c0,2.5-0.9,4.5-2.6,6.3l-2.4,2.4H18.3L18.9,265.7z
			 M56.2,429l-4.1-8.1c-19.4-38.6-30.6-78.7-33.3-119.3l-0.6-8.8h228.4l2.4,2.4c1.8,1.8,2.6,3.8,2.6,6.3v4.5l-3.8,2.4L63.9,424.1
			L56.2,429z M245.1,354.9c-4.4,8.4-16.6,29.1-27.4,47.3c-8.4,14.2-17,28.9-18.6,32c-8.1,16.5-33.4,71-42.8,95.2l-4.1,10.4l-8.7-7
			c-19.9-16-48.8-43-73.3-81.1l-4.6-7.1l7.3-4.4L233.6,344l25.3-15.1L245.1,354.9z M335.7,300.3l-0.1,0.1l-0.1,0.1
			c-2.3,4.8-4.9,8.7-8.2,12c-7,7.3-16.7,11.3-27.3,11.3c-10.6,0-20-3.9-27.2-11.4c-4-3.7-6.5-8.1-8.6-12.6
			c-2.7-5.6-3.5-11.2-3.4-16.2c-0.1-5,0.8-10.6,3.4-16.2c2.1-4.4,4.5-8.8,8.6-12.6c7.3-7.5,16.7-11.4,27.2-11.4
			c10.6,0,20.3,4,27.3,11.3c3.3,3.4,6,7.2,8.2,12l0.1,0.1l0.1,0.1c2.5,6,3.4,11.7,3.4,16.6C339.1,288.6,338.2,294.3,335.7,300.3z"/>
	</g>
	<g>
		<path class="st0" d="M246.7,283.7c0,25.9,18.7,54.3,53.2,55.9l17.8-0.7l4.9-0.2l2.5,4.2c2.2,3.7,53.5,90.7,58.8,101.3
			c10.2,20.8,38.1,84.1,42.7,99.5l0,0.1l0,0.1c0.2,0.9,0.5,1.8,0.8,2.8c0.2,0.8,0.5,1.7,0.7,2.5l0.1,0.3c2,7.2,4.6,16.1,8.4,17.7
			c0.4,0.2,0.8,0.2,1.3,0.2c1,0,2.9-0.4,5.9-2.2c2.3-1.4,41.6-26.7,80-74.1c22.1-27.3,39.7-56.7,52.3-87.4
			c15.7-38.1,23.7-78.5,24-119.9c-0.3-41.5-8.4-81.8-24-119.9c-12.6-30.7-30.2-60.2-52.3-87.4c-38.4-47.4-77.7-72.7-80-74.1
			c-3-1.8-4.9-2.2-5.9-2.2c-0.5,0-0.9,0.1-1.3,0.2c-3.8,1.6-6.4,10.5-8.4,17.7l-0.1,0.3c-0.2,0.8-0.5,1.6-0.7,2.5
			c-0.2,0.9-0.5,1.9-0.8,2.8l0,0.1l0,0.1c-4.6,15.4-32.5,78.7-42.7,99.5c-5.2,10.6-56.6,97.6-58.8,101.3l-2.5,4.2l-4.9-0.2
			l-17.8-0.7C265.4,229.4,246.7,257.7,246.7,283.7z M534.4,122.8l-7.3,4.4l-160.7,96.2l-25.3,15.1l13.8-26
			c4.4-8.4,16.6-29.1,27.4-47.3c8.4-14.2,17-28.9,18.6-32c8.1-16.5,33.4-71,42.8-95.2l4.1-10.4l8.7,7c19.9,16,48.8,43,73.3,81.1
			L534.4,122.8z M581.7,274.5H353.3l-2.4-2.4c-1.8-1.8-2.6-3.8-2.6-6.3v-4.5l3.8-2.4l184.1-115.6l7.6-4.8l4.1,8.1
			c19.4,38.6,30.6,78.7,33.3,119.3L581.7,274.5z M536.1,424.1L352.1,308.5l-3.8-2.4v-4.5c0-2.5,0.9-4.5,2.6-6.3l2.4-2.4h228.4
			l-0.6,8.8c-2.7,40.6-13.9,80.7-33.3,119.3l-4.1,8.1L536.1,424.1z M341.1,328.9l25.3,15.1l160.7,96.2l7.3,4.4l-4.6,7.1
			c-24.5,38.1-53.4,65.2-73.3,81.1l-8.7,7l-4.1-10.4c-9.4-24.2-34.7-78.7-42.8-95.2c-1.5-3-10.2-17.7-18.6-32
			c-10.8-18.3-22.9-39-27.4-47.3L341.1,328.9z M260.9,283.7c0-4.9,0.8-10.6,3.4-16.6l0.1-0.1l0.1-0.1c2.3-4.8,4.9-8.7,8.2-12
			c7-7.3,16.7-11.3,27.3-11.3c10.6,0,20,3.9,27.2,11.4c4,3.7,6.5,8.1,8.6,12.6c2.7,5.6,3.5,11.2,3.4,16.2c0.1,5-0.8,10.6-3.4,16.2
			c-2.1,4.4-4.5,8.8-8.6,12.6c-7.3,7.5-16.7,11.4-27.2,11.4c-10.6,0-20.3-4-27.3-11.3c-3.3-3.4-6-7.2-8.2-12l-0.1-0.1l-0.1-0.1
			C261.8,294.3,260.9,288.6,260.9,283.7z"/>
	</g>
</g>
</svg>
