<?xml version="1.0" encoding="utf-8"?>
<!-- Generator: Adobe Illustrator 27.1.0, SVG Export Plug-In . SVG Version: 6.00 Build 0)  -->
<svg version="1.1" id="minihoop" xmlns="http://www.w3.org/2000/svg" xmlns:xlink="http://www.w3.org/1999/xlink" x="0px" y="0px"
	 viewBox="0 0 600 300" style="enable-background:new 0 0 600 300;" xml:space="preserve">
<style type="text/css">
	.st0{fill:#2E3192;}
	.st1{fill:none;}
	.st2{fill:#C9AC68;}
</style>
<g>
	<g id="props">
		<path id="bighoop" class="st0" d="M450,300c-82.7,0-150-67.3-150-150S367.3,0,450,0s150,67.3,150,150S532.7,300,450,300z
			 M450,15.2c-74.3,0-134.8,60.5-134.8,134.8S375.7,284.8,450,284.8S584.8,224.3,584.8,150S524.3,15.2,450,15.2z"/>
	</g>
	<g id="props_00000046331310654670059880000012786265585564006804_">
		<path id="bighoop_00000097481920056952427530000015347976222369208722_" class="st1" d="M150,0c82.7,0,150,67.3,150,150
			s-67.3,150-150,150S0,232.7,0,150S67.3,0,150,0z M150,284.8c74.3,0,134.8-60.5,134.8-134.8S224.3,15.2,150,15.2
			S15.2,75.7,15.2,150S75.7,284.8,150,284.8z"/>
	</g>
</g>
<g>
	<path class="st2" d="M312,176.3c0-1.1,0-2.2,0-3.4c0.3,0,0.6,0,0.9,0c10.3,0,20.6,0,31,0c2.7,0,4.8-1.5,5.6-3.9
		c1.1-3.7-1.6-7.3-5.5-7.3c-8.9,0-17.8,0-26.7,0c-1.7,0-3.5,0-5.2,0c0-1.1,0-2.2,0-3.3c0.3,0,0.6,0,0.9,0c12.7,0,25.3,0,38,0
		c3.3,0,5.7-2.4,5.7-5.6c0-3.2-2.5-5.6-5.8-5.6c-12.6,0-25.2,0-37.9,0c-0.3,0-0.6,0-1,0c0-1.1,0-2.2,0-3.3c0.3,0,0.6,0,0.9,0
		c10,0,20.1,0,30.1,0c3,0,5.2-1.9,5.6-5c0.5-3.1-2.1-6.2-5.2-6.2c-3.8,0-7.6,0-11.5,0c-12.7,0-25.4,0-38.1,0c-0.8,0-1.5-0.2-1.9-0.9
		c-0.4-0.9-0.1-1.7,0.8-2.3c3.6-2.1,7.2-4.3,10.9-6.4c2.8-1.6,3.7-4.4,2.5-7.4c-1.3-3-4.7-4.1-7.7-2.4c-5,2.9-10.1,5.9-15.1,8.9
		c-3.7,2.2-7.4,4.3-11,6.5c-1.2,0.7-2.3,1.8-3.3,2.8c-4.2,4.3-7.6,9.1-9.9,14.8c-2,5-3,10.2-2.5,15.6c0.9,9.8,5.8,17.1,14.4,21.7
		c3.9,2.1,8.1,3.2,12.5,3.6c2.1,0.2,4.2,0.2,6.2,0.2c13.9,0,27.8,0,41.7,0c3.3,0,5.8-2.5,5.7-5.7c-0.1-3-2.5-5.4-5.4-5.4
		c-6.3,0-12.6,0-19,0C312.6,176.3,312.3,176.3,312,176.3z"/>
</g>
</svg>
