<?xml version="1.0" encoding="utf-8"?>
<!-- Generator: Adobe Illustrator 27.1.0, SVG Export Plug-In . SVG Version: 6.00 Build 0)  -->
<svg version="1.1" id="Layer_1" xmlns="http://www.w3.org/2000/svg" xmlns:xlink="http://www.w3.org/1999/xlink" x="0px" y="0px"
	 viewBox="0 0 600 54.5" style="enable-background:new 0 0 600 54.5;" xml:space="preserve">
<style type="text/css">
	.st0{fill:#2E3192;}
</style>
<g>
	<g>
		<path class="st0" d="M591.6,0c4.6,0,8.4,3.7,8.4,8.3v37.8c0,4.6-3.7,8.3-8.4,8.3h-35.6c-4.6,0-8.3-3.7-8.3-8.3v-8.8H52.3v8.8
			c0,4.6-3.7,8.3-8.3,8.3H8.4c-4.6,0-8.4-3.7-8.4-8.3L0,8.3C0,3.7,3.7,0,8.4,0l35.6,0c4.6,0,8.3,3.7,8.3,8.3v8.8h495.5V8.3
			c0-4.6,3.7-8.3,8.3-8.3"/>
	</g>
</g>
</svg>
