<?xml version="1.0" encoding="utf-8"?>
<!-- Generator: Adobe Illustrator 27.1.0, SVG Export Plug-In . SVG Version: 6.00 Build 0)  -->
<svg version="1.1" id="minihoop" xmlns="http://www.w3.org/2000/svg" xmlns:xlink="http://www.w3.org/1999/xlink" x="0px" y="0px"
	 viewBox="0 0 257.3 137.1" style="enable-background:new 0 0 257.3 137.1;" xml:space="preserve">
<style type="text/css">
	.st0{fill:#2E3191;}
</style>
<path class="st0" d="M188.7,136.8c37.7,0,68.3-30.6,68.3-68.2c0-37.7-30.6-68.3-68.3-68.3c-37.6,0-68.2,30.6-68.2,68.3
	C120.5,106.2,151.1,136.8,188.7,136.8z M188.7,16.2c28.9,0,52.3,23.4,52.3,52.3c0,28.8-23.4,52.2-52.3,52.2
	c-28.8,0-52.2-23.4-52.2-52.2C136.5,39.7,159.9,16.3,188.7,16.2z"/>
<path class="st0" d="M68.3,0.6C30.6,0.6,0,31.2,0,68.8c0,37.7,30.6,68.3,68.3,68.3c37.6,0,68.2-30.6,68.2-68.3
	C136.5,31.2,105.9,0.6,68.3,0.6z M68.3,121.1C39.4,121.1,16,97.7,16,68.8C16,40,39.4,16.6,68.3,16.6c28.8,0,52.2,23.4,52.2,52.2
	C120.5,97.7,97.1,121.1,68.3,121.1z"/>
</svg>
