<?xml version="1.0" encoding="utf-8"?>
<!-- Generator: Adobe Illustrator 27.1.0, SVG Export Plug-In . SVG Version: 6.00 Build 0)  -->
<svg version="1.1" id="fan"
	xmlns="http://www.w3.org/2000/svg"
	xmlns:xlink="http://www.w3.org/1999/xlink" x="0px" y="0px" viewBox="0 0 258.6 206.4" style="enable-background:new 0 0 258.6 206.4;" xml:space="preserve">
	<style type="text/css">
    .st0{fill:#2E3192;stroke:#FFFFFF;stroke-width:1.75;stroke-miterlimit:10;}
	.st1{fill:none;}
	</style>
	<g>
		<path class="st0" d="M201.9,205.2c2.3-1.4,56.2-36.2,56.6-102c-0.4-65.8-54.4-100.5-56.6-102c-1.9-1.2-3.6-1.5-5.1-0.9
		c-2.7,1.1-3.7,4.7-4.7,8.3c-0.2,0.6-0.3,1.3-0.5,1.9c-1.5,5.1-11.1,27-14.9,34.7c-2.4,5-9.6,18.4-24.5,37.1c-0.7,0-1.4,0-1.9,0.1
		h-1.3c-11.7,1.1-19.9,9.6-19.9,20.9s8.2,19.8,19.9,20.9h1.3c0.5,0.1,1.3,0.1,1.9,0.1c14.9,18.7,22.1,32.1,24.5,37.1
		c3.8,7.8,13.4,29.7,14.9,34.7c0.2,0.6,0.3,1.3,0.5,1.9c1,3.5,2,7.2,4.7,8.3C198.3,206.7,200,206.3,201.9,205.2L201.9,205.2z
		 M179.2,66.1c4-6.4,7.4-12.3,8.7-14.8c3-6.2,12-25.5,15.3-33.9c6.4,5.1,16.6,14.5,25.3,28l-61.6,38.8
		C170.5,79.4,175.2,72.5,179.2,66.1L179.2,66.1z M234.6,56c6.7,13.2,10.5,27,11.5,41h-76.4c-0.1-0.1-0.1-0.1-0.1-0.2L234.6,56z
		 M142,111.4c-0.9-0.9-1.7-2-2.4-3.5c-0.5-1.2-0.8-2.7-0.8-4.1v-1.2c0-1.4,0.3-2.9,0.8-4.1c0.7-1.4,1.4-2.5,2.4-3.5
		c1.9-2,4.6-3.1,7.6-3.1c2.9,0,5.6,1.1,7.6,3.2c1,0.9,1.9,2,2.4,3.5c0.5,1.1,0.8,2.6,0.8,4v1.2c0,1.4-0.3,2.9-0.8,4
		c-0.5,1.4-1.3,2.5-2.4,3.5c-2,2.1-4.6,3.2-7.6,3.2C146.6,114.5,143.9,113.4,142,111.4L142,111.4z M169.6,109.5c0-0.1,0-0.1,0.1-0.2
		h76.4c-0.9,14.1-4.8,27.8-11.5,41L169.6,109.5z M187.9,155.1c-1.3-2.5-4.6-8.4-8.7-14.8c-4-6.4-8.7-13.3-12.4-18l61.6,38.8
		c-8.7,13.5-18.9,22.8-25.3,28C199.8,180.6,190.9,161.3,187.9,155.1L187.9,155.1z"/>
		<path class="st1" d="M61.8,206.1c2.7-1.1,3.7-4.7,4.7-8.3c0.2-0.6,0.3-1.3,0.5-1.9c1.5-5.1,11.1-27,14.9-34.7
		c2.4-5,9.6-18.4,24.5-37.1c0.7,0,1.4,0,1.9-0.1h1.3c11.7-1.1,19.9-9.6,19.9-20.9s-8.2-19.8-19.9-20.9h-1.3
		c-0.5-0.1-1.3-0.1-1.9-0.1C91.5,63.5,84.4,50.1,81.9,45.1C78.1,37.4,68.5,15.5,67,10.4c-0.2-0.6-0.3-1.3-0.5-1.9
		c-1-3.5-2-7.2-4.7-8.3c-1.5-0.6-3.2-0.3-5.1,0.9C54.4,2.6,0.4,37.4,0,103.2c0.4,65.8,54.4,100.5,56.6,102
		C58.6,206.3,60.3,206.7,61.8,206.1L61.8,206.1z M91.8,84.1L30.2,45.4c8.7-13.5,18.9-22.8,25.3-28c3.3,8.4,12.2,27.7,15.3,33.9
		c1.3,2.5,4.6,8.4,8.7,14.8C83.4,72.5,88.1,79.4,91.8,84.1z M89,96.9c0,0.1,0,0.1-0.1,0.2H12.5c0.9-14.1,4.8-27.8,11.5-41
		C23.9,56,89,96.9,89,96.9z M109,114.5c-2.9,0-5.6-1.1-7.6-3.2c-1-0.9-1.9-2-2.4-3.5c-0.5-1.1-0.8-2.6-0.8-4v-1.2
		c0-1.4,0.3-2.9,0.8-4c0.5-1.4,1.3-2.5,2.4-3.5c2-2.1,4.6-3.2,7.6-3.2c2.9,0,5.6,1.1,7.6,3.1c0.9,0.9,1.7,2,2.4,3.5
		c0.5,1.2,0.8,2.7,0.8,4.1c0,0.2,0,1,0,1.2c0,1.4-0.3,2.9-0.8,4.1c-0.7,1.4-1.4,2.5-2.4,3.5C114.6,113.4,111.9,114.5,109,114.5
		L109,114.5z M23.9,150.4c-6.7-13.2-10.5-27-11.5-41h76.4c0.1,0.1,0.1,0.1,0.1,0.2L23.9,150.4z M55.5,189
		c-6.4-5.1-16.6-14.5-25.3-28l61.6-38.8c-3.7,4.7-8.4,11.6-12.4,18c-4,6.4-7.4,12.3-8.7,14.8C67.7,161.3,58.7,180.6,55.5,189z"/>
	</g>
</svg>
