<?xml version="1.0" encoding="utf-8"?>
<!-- Generator: Adobe Illustrator 27.1.0, SVG Export Plug-In . SVG Version: 6.00 Build 0)  -->
<svg version="1.1" id="Layer_1" xmlns="http://www.w3.org/2000/svg" xmlns:xlink="http://www.w3.org/1999/xlink" x="0px" y="0px"
	 viewBox="0 0 250 190.3" style="enable-background:new 0 0 250 190.3;" xml:space="preserve">
<style type="text/css">
	.st0{fill:#2E3192;}
</style>
<g>
	<g>
		<g>
			<path class="st0" d="M250,95.1c0,4.8-0.5,9.6-1.5,14.2c0,0,0,0,0,0c-3.3,22.3-14.6,42.9-31.8,57.9
				c-17.4,15.1-39.7,23.5-62.7,23.5c-52.7,0-95.6-42.9-95.6-95.6c0-4.5,3.6-8.1,8.1-8.1c4.5,0,8.1,3.6,8.1,8.1
				c0,43.8,35.6,79.4,79.4,79.4c16.8,0,33-5.3,46.4-15c-5.5,1.4-11.1,2.2-16.9,2.2c-36.7,0-66.6-29.9-66.6-66.5
				c0-27.8-22.6-50.3-50.3-50.3c-27.1,0-49.6,22-50.3,49.1c0,0.4,0,0.8,0,1.3c0,4.5-3.6,8.1-8.1,8.1c-4.5,0-8.1-3.6-8.1-8.1
				c0-0.5,0-1.1,0-1.6v-0.1C0.5,68.3,10.6,44.7,28.6,27c18-17.7,41.8-27.5,67-27.5c52.7,0,95.6,42.9,95.6,95.6
				c0,4.5-3.6,8.1-8.1,8.1c-4.5,0-8.1-3.6-8.1-8.1c0-43.8-35.6-79.4-79.4-79.4c-17,0-33.2,5.3-46.7,15.2c5.7-1.6,11.6-2.4,17.7-2.4
				c36.7,0,66.6,29.9,66.6,66.5c0,27.8,22.6,50.3,50.3,50.3c23.4,0,44-16.5,49.1-39.3c0.8-3.6,1.2-7.3,1.2-11c0-4.2,3.3-7.8,7.5-8.1
				c0.1,0,0.2,0,0.3,0c0.1,0,0.2,0,0.3,0C246.4,87,250,90.7,250,95.1z"/>
		</g>
	</g>
</g>
<path class="st0" d="M247.4,94.4c0,4.3-9.7,7.8-21.6,7.8c-11.9,0-21.6-3.5-21.6-7.8s9.7-7.8,21.6-7.8c2.4,0,15.6-0.3,17.7,0.4
	C249.5,89.1,247.4,91,247.4,94.4z"/>
</svg>
