<?xml version="1.0" encoding="utf-8"?>
<!-- Generator: Adobe Illustrator 27.1.0, SVG Export Plug-In . SVG Version: 6.00 Build 0)  -->
<svg version="1.1" id="Layer_1" xmlns="http://www.w3.org/2000/svg" xmlns:xlink="http://www.w3.org/1999/xlink" x="0px" y="0px"
	 viewBox="0 0 600.8 111.5" style="enable-background:new 0 0 600.8 111.5;" xml:space="preserve">
<style type="text/css">
	.st0{fill:#2E3192;}
	.st1{fill:#FFFFFF;}
</style>
<g>
	<g>
		<g>
			<path class="st0" d="M600.8,55.4c0-31.4-8-42.9-15.9-48.4s-24.9-7.6-31.7-6.8c-6.2,0.7-12,2.8-17.6,5.4c-6.6,3-12.6,7-18.5,11.3
				c-4.9,3.5-9.9,3.7-15.2,1.2c-1.1-0.2-2.2-0.5-3-1.2c-0.3-0.1-0.5-0.1-0.8-0.2c-6.5-2.8-13.1-4.9-20.2-4.9
				c-10.5,0.1-18,5.1-22.9,14.2c-1.9,3.6-3,7.5-4.3,11.3c-0.2,0.9-0.3,1.7-0.5,2.6c-0.3,1.4-0.7,2.8-0.7,4.2c0,1-0.1,2.1-1,2.1h-0.1
				l-84.2,0.3h-0.1c-2.2,0.4-4.5,0-6.7,0.1c-2.6,0-5.1,0-7.7,0c-0.5,0.1-1,0.1-1.5-0.1h0c-0.7-0.2-1.3-0.5-2-1
				c-0.9-0.6-1.6-1.9-3.1-1.5c-0.9,0.2-1.4-0.1-1.7-1.2c-0.4-1.4-1.5-2.6-3.2-2.6c-1.7,0-3,0.9-3.4,2.6c-0.2,1-0.7,1.2-1.6,1.2
				c-1,0.1-1.3-0.6-1.4-1.2c-0.3-1.6-1.5-2.3-2.9-2.6c-1.6-0.3-2.7,0.7-3.5,1.9c-0.5,0.7-0.6,1.5-1.9,1.5c-1.3,0.1-1.3-1-1.6-1.6
				c-0.6-1.3-1.4-1.9-2.9-2c-1.6-0.1-2.9,0.5-3.3,1.8c-0.5,1.6-1.4,1.5-2.6,1.7c-2.5,0.2-5.6-1.3-7.3,2c-0.1,0.1-0.4,0.1-0.5,0.3
				c-0.3,0.5-1.2-0.1-1.4,0.7c-0.4,2.4-2.1,4-3.8,5.6c-0.3,0.3-0.5,0.6-0.5,1.1c0.1,2.6-0.6,5.4,2.2,7.2c0.9,0.6,1.3,1.8,1.7,2.8
				c0.7,1.9,3.5,2,3.6,4.4c0,0.1,1.1,0.1,1.6,0.1c1.7-0.2,3.3-0.5,5-0.4c0.9,0,1.5,0.2,1.6,1.2c0.3,1.7,1.7,2.5,3.1,2.6
				c1.6,0.1,2.9-1,3.5-2.5c0.3-0.7,0.4-1.3,1.5-1.3c1,0,1.3,0.5,1.7,1.2c0.7,1.4,1.7,2.2,3.2,2.3c1.7,0,2.6-1.1,3.4-2.4
				c0.3-0.5,0.1-1.6,1.3-1.4c1.1,0.1,1.3,0.7,1.6,1.5c0.8,2.2,3.3,3,5.1,1.6c1.5-1.2,2.2-2.9,4.6-3.7c1.7-0.5,3.2-1.4,5-1.6
				c0.5-0.1,1.1-0.1,1.7-0.1c0.4,0,0.7,0.1,1.1,0.1c3.7,0.2,7.4,0.1,11.2,0c1.4,0,2.7-0.1,4.1-0.1c5.1,0,10.2,0,15.3,0
				c2.9,0,5.8,0.1,8.7,0.1l56.6,0.2h0.1c1,0,0.9,1.1,1,1.8c0.3,1.3,0.3,2.6,0.4,3.9c0.5,0.6,0.6,1.4,0.4,2.1
				c0.2,0.2,0.4,0.4,0.4,0.7c1.5,6.1,3.8,11.8,7.9,16.8c4.6,5.6,10.5,8.4,17.6,8.8c8.2,0.5,15.8-2.1,23.2-5.4
				c0.7-0.3,1.4-0.5,2.2-0.8c3.2-1.2,6.3-2.1,9.8-1.5c2.8,0.5,4.9,2.2,7.1,3.6c7.4,5,14.9,9.9,23.5,12.8c7.6,2.6,15.4,4.4,23.5,3.2
				c7.7-1.2,14-4.4,19.5-9.9C590.9,95.1,600.8,86.8,600.8,55.4z M318.2,47.4v4.4C316,50.1,316.1,48.5,318.2,47.4z M318.4,61.5
				c0.1,0.6,0,1.3,0,2.2c-1-0.5-1.6-1-1.7-1.8c-0.1-1-0.2-2.3,1-2.4C318.8,59.5,318.3,60.8,318.4,61.5z M325.5,63.6
				c-1.4-0.1-2.8,0.2-4.2,0.4c-1,0.1-1.4-0.3-1.3-1.3c0.1-0.6,0.1-1.3,0-1.9c-0.2-1.2,0.3-1.6,1.5-1.5c1.2,0,2.5-0.2,3.7-0.4
				c2-0.3,3,0.3,2.4,2.4C328.2,63.2,327.3,63.7,325.5,63.6z M327.7,51.4c-0.2,0.7-0.6,0.6-1.1,0.6c-1.3,0-2.6,0-3.8,0
				c-2.8,0-2.8,0-2.8-2.8c0-1.9,0-1.9,3.8-1.9c0.3,0,0.6,0,0.8,0C327.7,47.3,328.5,48.5,327.7,51.4z M337.1,62.6
				c0,0.5-0.4,0.5-0.8,0.5c-1.4-0.1-2.8,0.2-4.2,0.4c-0.7,0.1-2,0.6-2.2-0.4c-0.3-1.3-0.5-3.3,0.1-3.8c1-0.9,2.8-0.9,4.7-0.7
				c0.5,0.1,1.9-0.6,2.2,0.3C337.4,59.9,337.1,61.3,337.1,62.6z M337.1,51.8c-0.1,0.5-0.4,0.6-0.9,0.6c-2,0.2-3.9-0.5-5.8-0.4
				c-0.5,0-0.5-0.3-0.6-0.7c-0.6-2.8-0.1-3.5,2.8-3.5h1.5C337,47.8,337.9,48.9,337.1,51.8z M339.6,48c1.2-0.7,3.1-0.6,4.6,0.3
				c0.8,0.5,1.1,1.5,0.9,2.3c-0.4,1.6-1.7,2.1-3.3,1.8c-0.1,0-0.1,0-0.3,0c-0.6-0.4-1.9,0.7-2.1-0.7C339.1,50.5,338.6,48.6,339.6,48
				z M341,63.2c-2.8,0.2-1.6-1.7-1.8-2.9c-0.5-2.3,1.1-1.9,2.6-1.8c1.8-0.4,3.1,0.4,3.4,2.3C345.4,62.3,343.8,63,341,63.2z
				 M478.7,65.2c-0.1-0.1-0.2-0.2-0.3-0.3l0,0c-0.7-6.3-0.4-12.6-0.1-18.9c0-0.1,0-0.1,0-0.2c0,0,0.1,0,0.2-0.1
				c0.1,0,0.5,0.1,0.9,0.2C479.4,52,478.8,59.1,478.7,65.2z M495.7,71.1c-6.4,1.6-11.9-0.1-16.2-4.9c0.9,0.1,2-0.2,2.7,0.4
				c3.6,2.9,7.6,4.5,12.3,3.3c7.9-1.9,13.4-9.1,11.2-18.1c-1.4-5.7-5.2-9.1-10.6-10.6c-4.9-1.3-9.6-0.2-13.4,3.6
				c-0.5,0.5-1,0.8-1.6,0.9c2.3-3.6,5-5.8,9.1-6.3c8.5-0.9,15.3,3.5,17.8,11.5C510,59.6,504.8,68.8,495.7,71.1z M482.8,55.5
				c0-2.3,0.1-4.7,0-7c-0.1-1.8,0.7-2.8,2-3.6c7.2-4.1,16.7-1.8,19.1,7.7c2,7.7-3.8,15-11.5,15.2c-3.2,0.1-6-0.5-8.5-2.6
				c-0.8-0.7-1.2-1.4-1.1-2.5C482.8,60.3,482.8,57.9,482.8,55.5z M557.7,28.4c0,18.2,0,36.4,0,54.6c-3,0.8-5.9,0.8-8.8,0
				c0-18,0-36.1-0.1-54.2c0-1.2,0.3-1.6,1.5-1.5c2.3,0.1,4.7,0.1,7,0.1C558,27.6,557.7,28.1,557.7,28.4z"/>
		</g>
		<g>
			<path class="st1" d="M380.5,47.3v16.5c0,0.2,0,0.4-0.1,0.5c-0.1,0.2-0.2,0.4-0.4,0.4s-0.3-0.2-0.4-0.4c-0.1-0.2-0.1-0.3-0.1-0.5
				V47.3c0-0.2,0-0.4,0.1-0.5c0.1-0.2,0.2-0.4,0.4-0.4s0.3,0.2,0.4,0.4C380.5,46.9,380.5,47.1,380.5,47.3z"/>
			<path class="st1" d="M359.7,47.6v16.1c0,0.2,0,0.4-0.1,0.5c-0.1,0.2-0.3,0.4-0.4,0.4c-0.2,0-0.3-0.2-0.4-0.4
				c-0.1-0.1-0.1-0.3-0.1-0.5V47.6c0-0.2,0-0.4,0.1-0.5c0.1-0.2,0.3-0.4,0.4-0.4c0.2,0,0.3,0.2,0.4,0.4
				C359.6,47.2,359.7,47.4,359.7,47.6z"/>
			<path class="st1" d="M370.7,47.4v16.2c0,0.2,0,0.4-0.1,0.5c-0.1,0.2-0.2,0.4-0.4,0.4c-0.2,0-0.3-0.2-0.4-0.4
				c-0.1-0.1-0.1-0.3-0.1-0.5V47.4c0-0.2,0-0.4,0.1-0.5c0.1-0.2,0.2-0.4,0.4-0.4c0.2,0,0.3,0.2,0.4,0.4
				C370.7,47,370.7,47.2,370.7,47.4z"/>
			<path class="st1" d="M408.2,47.2V64c0,0.2,0,0.4-0.1,0.5c-0.1,0.2-0.2,0.4-0.4,0.4c-0.2,0-0.4-0.2-0.4-0.4
				c-0.1-0.2-0.1-0.3-0.1-0.5V47.2c0-0.2,0-0.4,0.1-0.5c0.1-0.2,0.2-0.4,0.4-0.4c0.2,0,0.4,0.2,0.4,0.4
				C408.2,46.8,408.2,47,408.2,47.2z"/>
			<path class="st1" d="M399.5,47.3v16.6c0,0.2,0,0.4-0.1,0.5c-0.1,0.2-0.3,0.4-0.4,0.4c-0.2,0-0.3-0.2-0.4-0.4
				c-0.1-0.2-0.1-0.3-0.1-0.5V47.3c0-0.2,0-0.4,0.1-0.5c0.1-0.2,0.3-0.4,0.4-0.4c0.2,0,0.3,0.2,0.4,0.4
				C399.5,46.9,399.5,47.1,399.5,47.3z"/>
			<path class="st1" d="M390.4,47.3v16.6c0,0.2,0,0.4-0.1,0.5c-0.1,0.2-0.3,0.4-0.4,0.4c-0.2,0-0.3-0.2-0.4-0.4
				c-0.1-0.2-0.1-0.3-0.1-0.5V47.3c0-0.2,0-0.4,0.1-0.5c0.1-0.2,0.3-0.4,0.4-0.4c0.2,0,0.3,0.2,0.4,0.4
				C390.4,46.9,390.4,47.1,390.4,47.3z"/>
		</g>
		<g>
			<g>
				<path d="M430.6,46.4C430.6,46.4,430.5,46.4,430.6,46.4C430.5,46.5,430.6,46.5,430.6,46.4C430.6,46.5,430.7,46.5,430.6,46.4
					C430.7,46.4,430.6,46.4,430.6,46.4z"/>
				<path class="st1" d="M430.6,46.4C430.6,46.4,430.5,46.4,430.6,46.4C430.5,46.5,430.6,46.5,430.6,46.4
					C430.6,46.5,430.7,46.5,430.6,46.4C430.7,46.4,430.6,46.4,430.6,46.4z"/>
			</g>
		</g>
		<g>
			<g>
				<path class="st1" d="M466.9,46.7c0.1,0.2,0.1,0.3,0.1,0.5v16.6c0,0.2,0,0.4-0.1,0.5c-0.1,0.2-0.2,0.4-0.4,0.4
					c-0.2,0-0.3-0.2-0.4-0.4c-0.1-0.2-0.1-0.3-0.1-0.5V47.3c0-0.2,0-0.4,0.1-0.5c0.1-0.2,0.2-0.4,0.4-0.4
					C466.6,46.3,466.8,46.5,466.9,46.7z"/>
				<path class="st1" d="M476.3,47.3v16.6c0,0.2,0,0.4-0.1,0.5c-0.1,0.2-0.2,0.4-0.4,0.4c-0.2,0-0.3-0.2-0.4-0.4
					c-0.1-0.2-0.1-0.3-0.1-0.5V47.3c0-0.2,0-0.4,0.1-0.5c0.1-0.2,0.2-0.4,0.4-0.4c0.2,0,0.3,0.2,0.4,0.4
					C476.2,46.9,476.3,47.1,476.3,47.3z"/>
				<path class="st1" d="M471.5,46.7c0.1,0.2,0.1,0.3,0.1,0.5v16.6c0,0.2,0,0.4-0.1,0.5c-0.1,0.2-0.2,0.4-0.4,0.4
					c-0.3,0-0.5-0.4-0.5-0.9V47.3c0-0.5,0.2-0.9,0.5-0.9C471.3,46.3,471.4,46.5,471.5,46.7z"/>
				<path class="st1" d="M461.7,46.7c0.1,0.2,0.1,0.3,0.1,0.5v16.6c0,0.2,0,0.4-0.1,0.5c-0.1,0.2-0.2,0.4-0.4,0.4
					c-0.2,0-0.3-0.2-0.4-0.4c-0.1-0.2-0.1-0.3-0.1-0.5V47.3c0-0.2,0-0.4,0.1-0.5c0.1-0.2,0.2-0.4,0.4-0.4
					C461.4,46.3,461.6,46.5,461.7,46.7z"/>
			</g>
		</g>
		<g>
			<g>
				<path class="st1" d="M416,46.6c0.1,0.2,0.1,0.3,0.1,0.5V64c0,0.2,0,0.4-0.1,0.5c-0.1,0.2-0.3,0.4-0.4,0.4
					c-0.2,0-0.3-0.2-0.4-0.4c-0.1-0.2-0.1-0.3-0.1-0.5V47.2c0-0.2,0-0.4,0.1-0.5c0.1-0.2,0.3-0.4,0.4-0.4
					C415.8,46.2,415.9,46.4,416,46.6z"/>
				<path class="st1" d="M423.8,46.6c0.1,0.2,0.1,0.3,0.1,0.5V64c0,0.2,0,0.4-0.1,0.5c-0.1,0.2-0.2,0.4-0.4,0.4
					c-0.2,0-0.3-0.2-0.4-0.4c-0.1-0.2-0.1-0.3-0.1-0.5V47.2c0-0.2,0-0.4,0.1-0.5c0.1-0.2,0.2-0.4,0.4-0.4
					C423.5,46.2,423.7,46.4,423.8,46.6z"/>
				<path class="st1" d="M430.6,46.2c-0.2,0-0.4,0.2-0.4,0.4c-0.1,0.2-0.1,0.3-0.1,0.5V64c0,0.2,0,0.4,0.1,0.5
					c0.1,0.2,0.2,0.4,0.4,0.4c0.2,0,0.4-0.2,0.4-0.4c0.1-0.2,0.1-0.3,0.1-0.5V47.1c0-0.2,0-0.4-0.1-0.5
					C431,46.3,430.8,46.2,430.6,46.2z"/>
				<path class="st1" d="M437.7,46.6c0.1,0.2,0.1,0.3,0.1,0.5V64c0,0.2,0,0.4-0.1,0.5c-0.1,0.2-0.2,0.4-0.4,0.4
					c-0.2,0-0.3-0.2-0.4-0.4c-0.1-0.2-0.1-0.3-0.1-0.5V47.1c0-0.2,0-0.4,0.1-0.5c0.1-0.2,0.2-0.4,0.4-0.4
					C437.5,46.2,437.7,46.3,437.7,46.6z"/>
				<path class="st1" d="M444.4,46.6c0.1,0.2,0.1,0.3,0.1,0.5v17c0,0.2,0,0.4-0.1,0.5c-0.1,0.2-0.2,0.4-0.4,0.4
					c-0.2,0-0.3-0.2-0.4-0.4c-0.1-0.2-0.1-0.3-0.1-0.5v-17c0-0.2,0-0.4,0.1-0.5c0.1-0.2,0.2-0.4,0.4-0.4
					C444.2,46.2,444.4,46.3,444.4,46.6z"/>
				<path class="st1" d="M450.4,46.7c0.1,0.1,0.1,0.3,0.1,0.4V64c0,0.2,0,0.3-0.1,0.4c0,0,0,0.1,0,0.1c-0.1,0.2-0.3,0.4-0.4,0.4
					c-0.2,0-0.3-0.2-0.4-0.4c-0.1-0.2-0.1-0.3-0.1-0.5V47.2c0-0.2,0-0.4,0.1-0.5c0.1-0.2,0.3-0.4,0.4-0.4
					C450.1,46.2,450.3,46.4,450.4,46.7C450.4,46.7,450.4,46.7,450.4,46.7z"/>
				<path class="st1" d="M455.9,46.7c0.1,0.2,0.1,0.3,0.1,0.5v16.6c0,0.2,0,0.4-0.1,0.5c-0.1,0.2-0.2,0.4-0.4,0.4
					c-0.3,0-0.5-0.4-0.5-0.9V47.3c0-0.5,0.2-0.9,0.5-0.9C455.6,46.3,455.8,46.5,455.9,46.7z"/>
				<path class="st1" d="M480.7,47.3v16.6c0,0.2,0,0.4-0.1,0.5c-0.1,0.2-0.2,0.4-0.4,0.4c-0.2,0-0.3-0.2-0.4-0.4
					c-0.1-0.2-0.1-0.3-0.1-0.5V47.3c0-0.2,0-0.4,0.1-0.5c0.1-0.2,0.2-0.4,0.4-0.4c0.2,0,0.3,0.2,0.4,0.4
					C480.6,46.9,480.7,47.1,480.7,47.3z"/>
			</g>
		</g>
	</g>
</g>
</svg>
