<?xml version="1.0" encoding="utf-8"?>
<!-- Generator: Adobe Illustrator 27.1.0, SVG Export Plug-In . SVG Version: 6.00 Build 0)  -->
<svg version="1.1" id="minihoop" xmlns="http://www.w3.org/2000/svg" xmlns:xlink="http://www.w3.org/1999/xlink" x="0px" y="0px"
	 viewBox="0 0 257.3 137.1" style="enable-background:new 0 0 257.3 137.1;" xml:space="preserve">
<style type="text/css">
	.st0{fill:#2E3191;}
	.st1{fill:none;}
	.st2{fill:#C9AC68;}
</style>
<path class="st0" d="M188.7,136.8c37.7,0,68.3-30.6,68.3-68.2c0-37.7-30.6-68.3-68.3-68.3c-37.6,0-68.2,30.6-68.2,68.3
	C120.5,106.2,151.1,136.8,188.7,136.8z M188.7,16.2c28.9,0,52.3,23.4,52.3,52.3c0,28.8-23.4,52.2-52.3,52.2
	c-28.8,0-52.2-23.4-52.2-52.2C136.5,39.7,159.9,16.3,188.7,16.2z"/>
<path class="st1" d="M68.3,0.6C30.6,0.6,0,31.2,0,68.8c0,37.7,30.6,68.3,68.3,68.3c37.6,0,68.2-30.6,68.2-68.3
	C136.5,31.2,105.9,0.6,68.3,0.6z M68.3,121.1C39.4,121.1,16,97.7,16,68.8C16,40,39.4,16.6,68.3,16.6c28.8,0,52.2,23.4,52.2,52.2
	C120.5,97.7,97.1,121.1,68.3,121.1z"/>
<g>
	<path class="st2" d="M134.1,95.2c0-1.1,0-2.2,0-3.4c0.3,0,0.6,0,0.9,0c10.3,0,20.6,0,31,0c2.7,0,4.8-1.5,5.6-3.9
		c1.1-3.7-1.6-7.3-5.5-7.3c-8.9,0-17.8,0-26.7,0c-1.7,0-3.5,0-5.2,0c0-1.1,0-2.2,0-3.3c0.3,0,0.6,0,0.9,0c12.7,0,25.3,0,38,0
		c3.3,0,5.7-2.4,5.7-5.6c0-3.2-2.5-5.6-5.8-5.6c-12.6,0-25.2,0-37.9,0c-0.3,0-0.6,0-1,0c0-1.1,0-2.2,0-3.3c0.3,0,0.6,0,0.9,0
		c10,0,20.1,0,30.1,0c3,0,5.2-1.9,5.6-5c0.5-3.1-2.1-6.2-5.2-6.2c-3.8,0-7.6,0-11.5,0c-12.7,0-25.4,0-38.1,0c-0.8,0-1.5-0.2-1.9-0.9
		c-0.4-0.9-0.1-1.7,0.8-2.3c3.6-2.1,7.2-4.3,10.9-6.4c2.8-1.6,3.7-4.4,2.5-7.4c-1.3-3-4.7-4.1-7.7-2.4c-5,2.9-10.1,5.9-15.1,8.9
		c-3.7,2.2-7.4,4.3-11,6.5c-1.2,0.7-2.3,1.8-3.3,2.8c-4.2,4.3-7.6,9.1-9.9,14.8c-2,5-3,10.2-2.5,15.6c0.9,9.8,5.8,17.1,14.4,21.7
		c3.9,2.1,8.1,3.2,12.5,3.6c2.1,0.2,4.2,0.2,6.2,0.2c13.9,0,27.8,0,41.7,0c3.3,0,5.8-2.5,5.7-5.7c-0.1-3-2.5-5.4-5.4-5.4
		c-6.3,0-12.6,0-19,0C134.7,95.2,134.4,95.2,134.1,95.2z"/>
</g>
</svg>
