<?xml version="1.0" encoding="utf-8"?>
<!-- Generator: Adobe Illustrator 27.1.0, SVG Export Plug-In . SVG Version: 6.00 Build 0)  -->
<svg version="1.1" id="Layer_1" xmlns="http://www.w3.org/2000/svg" xmlns:xlink="http://www.w3.org/1999/xlink" x="0px" y="0px"
	 viewBox="0 0 609.4 63.9" style="enable-background:new 0 0 609.4 63.9;" xml:space="preserve">
<style type="text/css">
	.st0{fill:#989498;}
	.st1{fill:#FFD540;}
</style>
<g>
	<g id="sword">
		<g id="hilt">
			<path class="st0" d="M155.7,10.5v42.9c0,5.2,4.2,9.5,9.4,9.5h9.1c5.2,0,9.4-4.2,9.4-9.5l12.4-10h0.8V20.5H196l-12.4-10
				c0-5.2-4.2-9.5-9.4-9.5h-9.1C159.9,1,155.7,5.2,155.7,10.5z"/>
			<path d="M154.7,53.4V10.5c0-5.8,4.7-10.5,10.4-10.5h9.1c5.6,0,10.1,4.4,10.4,10l11.7,9.5h1.4v24.9h-1.4l-11.7,9.5
				c-0.3,5.6-4.8,10-10.4,10h-9.1C159.4,63.9,154.7,59.2,154.7,53.4z M195.7,21.5h-0.1l-13-10.6v-0.5c0-4.7-3.7-8.5-8.3-8.5h-9.1
				c-4.6,0-8.4,3.8-8.4,8.5v42.9c0,4.7,3.8,8.5,8.4,8.5h9.1c4.6,0,8.3-3.8,8.3-8.5v-0.5l13-10.6h0.1V21.5z"/>
		</g>
		<g id="handle">
			<path class="st0" d="M196.7,20.5v22.9h115.5c1.6,10.4,5.2,17.7,9.5,17.7c4.2,0,7.9-7.3,9.5-17.7c0.5-3.5,0.8-7.4,0.8-11.4
				c0-4.1-0.3-7.9-0.8-11.4c-1.6-10.4-5.2-17.7-9.5-17.7s-7.9,7.3-9.5,17.7H196.7V20.5z"/>
			<path d="M311.3,44.4H195.7V19.5h115.6c1.8-10.9,5.7-17.7,10.3-17.7c4.7,0,8.7,7.1,10.5,18.5c0.6,3.6,0.8,7.5,0.8,11.6
				s-0.3,8-0.8,11.6c-1.7,11.4-5.7,18.5-10.5,18.5C317,62.1,313.1,55.3,311.3,44.4z M313.2,20.7l-0.1,0.9H197.7v20.9H313l0.1,0.9
				c1.5,9.9,5,16.8,8.5,16.8s7-6.9,8.5-16.8c0.5-3.5,0.8-7.3,0.8-11.3s-0.3-7.7-0.8-11.3c-1.5-9.9-5-16.8-8.5-16.8
				C318.1,3.9,314.6,10.8,313.2,20.7z"/>
		</g>
		<g id="wick">
			<g>
				<g>
					<path class="st1" d="M331.9,32c0,4.1-0.3,7.9-0.8,11.4H597c3.2,0,6-1.3,8.1-3.3c2.1-2.1,3.3-4.9,3.3-8.1
						c0-6.3-5.1-11.4-11.4-11.4H331.1C331.6,24,331.9,27.9,331.9,32z"/>
					<path d="M330.1,43.2c0.5-3.5,0.8-7.3,0.8-11.3s-0.3-7.7-0.8-11.3l-0.2-1.2h267c6.9,0,12.4,5.6,12.4,12.4c0,3.3-1.3,6.4-3.6,8.8
						s-5.5,3.6-8.8,3.6h-267L330.1,43.2z M332.3,21.5c0.4,3.3,0.7,6.8,0.7,10.4s-0.2,7.1-0.7,10.4H597c2.8,0,5.4-1.1,7.4-3.1
						s3.1-4.6,3.1-7.4c0-5.7-4.7-10.4-10.4-10.4L332.3,21.5L332.3,21.5z"/>
				</g>
			</g>
		</g>
	</g>
</g>
</svg>
