<?xml version="1.0" encoding="UTF-8"?>
<svg id="Layer_1" data-name="Layer 1" xmlns="http://www.w3.org/2000/svg" viewBox="0 0 290.26 169.63">
  <defs>
    <style>
      .cls-1 {
        fill: #2e3690;
      }

      .cls-2 {
        fill: none;
      }
    </style>
  </defs>
  <path class="cls-1" d="m136.35,86.4c15.97,21.87,41.65,34.92,68.71,34.92,2.38,0,4.89-.1,7.27-.28,3.58,7.54,8.19,14.46,13.72,20.58,14.05,15.68,33.28,25.55,54.13,27.79l1.75.22,1-1.61.11-.2c4.79-10.91,7.22-22.49,7.22-34.4,0-17.58-5.24-34.35-15.22-48.6,9.96-14.34,15.22-31.13,15.22-48.6,0-11.91-2.43-23.49-7.22-34.4L282.13,0l-1.83.23c-20.93,2.23-40.2,12.1-54.25,27.79-5.53,6.12-10.14,13.04-13.72,20.58-2.51-.19-4.95-.28-7.27-.28-27.06,0-52.74,13.05-68.72,34.93l-1.12,1.57,1.13,1.58Zm139.91,47.02c0,7.09-1.03,14.06-3.07,20.73-20.05-4.57-36.99-17.49-46.65-35.56,14.49-3.71,27.85-11.38,38.68-22.21l.4-.39c6.96,11.19,10.64,24.12,10.64,37.43Zm-3.06-118c2.03,6.65,3.06,13.62,3.06,20.7,0,13.29-3.66,26.19-10.61,37.37l-.32-.33c-10.71-10.81-24.08-18.48-38.68-22.21,9.81-18.07,26.69-30.97,46.55-35.53Zm-51.88,48.6c13.75,3.27,26.11,10.44,35.76,20.7-9.69,10.39-22.03,17.53-35.75,20.7-2.04-6.65-3.07-13.61-3.07-20.7s1.02-13.99,3.06-20.7Zm-16.16-1.5c.46,0,.9.02,1.35.05.25.01.5.02.76.03-1.99,7.33-3.01,14.84-3.01,22.32s1.02,15,3.02,22.36c-.74.04-1.44.04-2.12.04-19.52,0-38.43-8.15-51.91-22.3,13.37-14.31,32.26-22.5,51.91-22.5Z"/>
  <path class="cls-2" d="m155.04,84.82l-1.12-1.57c-15.98-21.88-41.66-34.93-68.72-34.93-2.32,0-4.76.09-7.27.28-3.58-7.54-8.19-14.46-13.72-20.58C50.16,12.33,30.89,2.46,9.96.23l-1.83-.23-.91,1.82C2.43,12.73,0,24.31,0,36.22c0,17.47,5.26,34.26,15.22,48.6C5.24,99.07,0,115.84,0,133.42c0,11.91,2.43,23.49,7.22,34.4l.11.2,1,1.61,1.75-.22c20.85-2.24,40.08-12.11,54.13-27.79,5.53-6.12,10.14-13.04,13.72-20.58,2.38.18,4.89.28,7.27.28,27.06,0,52.74-13.05,68.71-34.92l1.13-1.58Zm-130.4,11.17l.4.39c10.83,10.83,24.19,18.5,38.68,22.21-9.66,18.07-26.6,30.99-46.65,35.56-2.04-6.67-3.07-13.64-3.07-20.73,0-13.31,3.68-26.24,10.64-37.43Zm38.97-45.04c-14.6,3.73-27.97,11.4-38.68,22.21l-.32.33c-6.95-11.18-10.61-24.08-10.61-37.37,0-7.08,1.03-14.05,3.06-20.7,19.86,4.56,36.74,17.46,46.55,35.53Zm8.39,33.77c0,7.09-1.03,14.05-3.07,20.7-13.72-3.17-26.06-10.31-35.75-20.7,9.65-10.26,22.01-17.43,35.76-20.7,2.04,6.71,3.06,13.64,3.06,20.7Zm65.01.3c-13.48,14.15-32.39,22.3-51.91,22.3-.68,0-1.38,0-2.12-.04,2-7.36,3.02-14.87,3.02-22.36s-1.02-14.99-3.01-22.32c.26-.01.51-.02.76-.03.45-.03.89-.05,1.35-.05,19.65,0,38.54,8.19,51.91,22.5Z"/>
</svg>