<?xml version="1.0" encoding="utf-8"?>
<!-- Generator: Adobe Illustrator 27.1.0, SVG Export Plug-In . SVG Version: 6.00 Build 0)  -->
<svg version="1.1" id="fan" xmlns="http://www.w3.org/2000/svg" xmlns:xlink="http://www.w3.org/1999/xlink" x="0px" y="0px"
	 viewBox="0 0 258.5 166.5" style="enable-background:new 0 0 258.5 166.5;" xml:space="preserve">
<style type="text/css">
    .st0{fill:#2E3192;stroke:#FFFFFF;stroke-width:2.75;stroke-miterlimit:10;}
	.st1{fill:none;}
</style>
<g>
	<g>
		<path class="st0" d="M114,165.6c-4.7-10.7-7.1-22.1-7.1-33.8c0-17.4,5.3-34,15.2-48.1l0.4-0.5l-0.4-0.5
			c-10-14.1-15.2-30.7-15.2-48.1c0-11.7,2.4-23.1,7.1-33.8l0.5-0.8l0.8,0.1c20.5,2.2,39.4,11.9,53.2,27.3
			c5.6,6.2,10.2,13.2,13.7,20.7l0.3,0.5l0.6-0.1c2.5-0.2,5.1-0.3,7.5-0.3c26.6,0,51.8,12.8,67.5,34.3l0.5,0.7l-0.5,0.7
			c-15.7,21.5-40.9,34.3-67.5,34.3c-2.4,0-4.9-0.1-7.5-0.3l-0.6-0.1l-0.3,0.5c-3.5,7.5-8.1,14.5-13.7,20.7
			c-13.8,15.4-32.7,25.1-53.3,27.3l-0.8,0.1L114,165.6z M129.2,93c-7.4,11.6-11.3,25.1-11.3,38.9c0,7.4,1.1,14.7,3.3,21.7l0.2,0.8
			l0.8-0.2c20.9-4.6,38.5-18.2,48.5-37.1l0.5-1l-1.1-0.3c-14.6-3.6-28-11.2-38.7-22c-0.3-0.3-0.6-0.6-0.9-0.9l-0.8-0.8L129.2,93z
			 M190.5,59.2c-0.9,0-1.9,0-3,0.1l-1.1,0l0.3,1c2.1,7.4,3.2,15.1,3.2,22.8c0,7.7-1.1,15.4-3.2,22.8l-0.3,1l1.1,0c1.1,0,2,0.1,3,0.1
			c20.2,0,39.7-8.5,53.4-23.4l0.5-0.6l-0.5-0.6C230.1,67.7,210.7,59.2,190.5,59.2z M174.6,61c-14.4,3.2-27.4,10.7-37.5,21.7
			l-0.5,0.6l0.5,0.6c10.1,10.9,23.1,18.4,37.5,21.7l0.8,0.2l0.2-0.8c2.2-7,3.3-14.3,3.3-21.7c0-7.4-1.1-14.7-3.3-21.7l-0.2-0.8
			L174.6,61z M121.2,12.9c-2.2,7-3.3,14.3-3.3,21.7c0,13.8,3.9,27.3,11.3,38.9l0.6,0.9l0.8-0.8c0.3-0.3,0.6-0.6,0.9-0.9
			c10.7-10.7,24.1-18.4,38.7-22l1.1-0.3l-0.5-1c-9.9-19-27.6-32.5-48.5-37.1l-0.8-0.2L121.2,12.9z"/>
	</g>
	<g>
		<path class="st1" d="M144.1,166.5l-0.8-0.1c-20.5-2.2-39.5-11.9-53.3-27.3c-5.6-6.2-10.2-13.2-13.7-20.7l-0.3-0.5l-0.6,0.1
			c-2.6,0.2-5.1,0.3-7.5,0.3c-26.6,0-51.8-12.8-67.5-34.3L0,83.2l0.5-0.7C16.2,61,41.4,48.2,68,48.2c2.4,0,5,0.1,7.5,0.3l0.6,0.1
			l0.3-0.5c3.5-7.6,8.1-14.5,13.7-20.7C103.9,12,122.8,2.3,143.3,0.1l0.8-0.1l0.5,0.8c4.7,10.7,7.1,22.1,7.1,33.8
			c0,17.4-5.3,34.1-15.2,48.1l-0.4,0.5l0.4,0.5c10,14.1,15.2,30.7,15.2,48.1c0,11.7-2.4,23.1-7.1,33.8L144.1,166.5z M128.8,92
			l-0.8,0.8c-0.3,0.3-0.6,0.6-0.9,0.9c-10.7,10.7-24.1,18.4-38.7,22l-1.1,0.3l0.5,1c9.9,19,27.6,32.5,48.5,37.1l0.8,0.2l0.2-0.8
			c2.2-7,3.3-14.3,3.3-21.7c0-13.8-3.9-27.3-11.3-38.9L128.8,92z M14.6,82.6l-0.5,0.6l0.5,0.6c13.7,14.9,33.2,23.4,53.4,23.4
			c1,0,1.9,0,3-0.1l1.1,0l-0.3-1c-2.1-7.4-3.2-15.1-3.2-22.8c0-7.7,1.1-15.4,3.2-22.8l0.3-1l-1.1,0c-1.1,0-2.1-0.1-3-0.1
			C47.8,59.2,28.4,67.7,14.6,82.6z M83.2,60.8l-0.2,0.8c-2.2,7-3.3,14.3-3.3,21.7c0,7.4,1.1,14.7,3.3,21.7l0.2,0.8l0.8-0.2
			c14.4-3.2,27.4-10.7,37.5-21.7l0.5-0.6l-0.5-0.6C111.3,71.7,98.3,64.2,83.9,61L83.2,60.8z M137.1,12.2l-0.8,0.2
			C115.5,17,97.8,30.5,87.9,49.5l-0.5,1l1.1,0.3c14.6,3.6,28,11.2,38.7,22c0.3,0.3,0.6,0.6,0.9,0.9l0.8,0.8l0.6-0.9
			c7.4-11.6,11.3-25.1,11.3-38.9c0-7.4-1.1-14.7-3.3-21.7L137.1,12.2z"/>
	</g>
</g>
</svg>
