<?xml version="1.0" encoding="utf-8"?>
<!-- Generator: Adobe Illustrator 27.1.0, SVG Export Plug-In . SVG Version: 6.00 Build 0)  -->
<svg version="1.1" id="Layer_1" xmlns="http://www.w3.org/2000/svg" xmlns:xlink="http://www.w3.org/1999/xlink" x="0px" y="0px"
	 viewBox="0 0 260.9 50.1" style="enable-background:new 0 0 260.9 50.1;" xml:space="preserve">
<style type="text/css">
	.st0{fill:#2E3192;}
	.st1{fill:#FFFFFF;}
</style>
<g>
	<g>
		<g>
			<path class="st0" d="M260.9,24.9c0-14.1-3.6-19.3-7.1-21.7c-3.6-2.5-11.2-3.4-14.2-3c-2.8,0.3-5.4,1.3-7.9,2.4
				c-3,1.4-5.7,3.2-8.3,5.1c-2.2,1.6-4.4,1.7-6.8,0.5c-0.5-0.1-1-0.2-1.4-0.5c-0.1,0-0.2-0.1-0.3-0.1c-2.9-1.3-5.9-2.2-9.1-2.2
				c-4.7,0-8.1,2.3-10.3,6.4c-0.9,1.6-1.4,3.4-1.9,5.1c-0.1,0.4-0.1,0.8-0.2,1.2c-0.1,0.6-0.3,1.3-0.3,1.9c0,0.5,0,1-0.4,1h0
				l-37.8,0.1h0c-1,0.2-2,0-3,0c-1.1,0-2.3,0-3.4,0c-0.2,0-0.4,0-0.7,0h0c-0.3-0.1-0.6-0.2-0.9-0.4c-0.4-0.3-0.7-0.8-1.4-0.7
				c-0.4,0.1-0.6,0-0.8-0.5c-0.2-0.6-0.7-1.2-1.4-1.2c-0.8,0-1.3,0.4-1.5,1.2c-0.1,0.5-0.3,0.5-0.7,0.6c-0.4,0-0.6-0.3-0.6-0.5
				c-0.1-0.7-0.7-1.1-1.3-1.2c-0.7-0.1-1.2,0.3-1.6,0.9c-0.2,0.3-0.3,0.7-0.8,0.7c-0.6,0-0.6-0.4-0.7-0.7c-0.3-0.6-0.6-0.8-1.3-0.9
				c-0.7,0-1.3,0.2-1.5,0.8c-0.2,0.7-0.6,0.7-1.2,0.7c-1.1,0.1-2.5-0.6-3.3,0.9c0,0.1-0.2,0.1-0.2,0.1c-0.2,0.2-0.5-0.1-0.6,0.3
				c-0.2,1.1-1,1.8-1.7,2.5c-0.1,0.1-0.2,0.3-0.2,0.5c0,1.2-0.3,2.4,1,3.2c0.4,0.3,0.6,0.8,0.8,1.3c0.3,0.9,1.6,0.9,1.6,2
				c0,0,0.5,0.1,0.7,0c0.7-0.1,1.5-0.2,2.2-0.2c0.4,0,0.7,0.1,0.7,0.5c0.1,0.8,0.8,1.1,1.4,1.2c0.7,0.1,1.3-0.4,1.6-1.1
				c0.1-0.3,0.2-0.6,0.7-0.6c0.5,0,0.6,0.2,0.7,0.5c0.3,0.6,0.8,1,1.5,1c0.8,0,1.2-0.5,1.5-1.1c0.1-0.2,0-0.7,0.6-0.6
				c0.5,0,0.6,0.3,0.7,0.7c0.4,1,1.5,1.4,2.3,0.7c0.7-0.6,1-1.3,2-1.6c0.8-0.2,1.4-0.6,2.2-0.7c0.2,0,0.5,0,0.8,0c0.2,0,0.3,0,0.5,0
				c1.7,0.1,3.3,0,5,0c0.6,0,1.2,0,1.8,0c2.3,0,4.6,0,6.9,0c1.3,0,2.6,0,3.9,0.1l25.4,0.1h0c0.4,0,0.4,0.5,0.5,0.8
				c0.1,0.6,0.1,1.2,0.2,1.8c0.2,0.3,0.3,0.6,0.2,1c0.1,0.1,0.2,0.2,0.2,0.3c0.7,2.8,1.7,5.3,3.5,7.5c2.1,2.5,4.7,3.8,7.9,4
				c3.7,0.2,7.1-0.9,10.4-2.4c0.3-0.1,0.6-0.2,1-0.4c1.4-0.5,2.8-0.9,4.4-0.7c1.3,0.2,2.2,1,3.2,1.6c3.3,2.2,6.7,4.4,10.5,5.8
				c3.4,1.2,6.9,2,10.5,1.4c3.4-0.5,6.3-2,8.7-4.5C256.5,42.7,260.9,39,260.9,24.9z M134.1,21.3v2C133.1,22.5,133.1,21.8,134.1,21.3
				z M134.1,27.6c0,0.3,0,0.6,0,1c-0.5-0.2-0.7-0.4-0.8-0.8c0-0.4-0.1-1.1,0.5-1.1C134.3,26.7,134.1,27.3,134.1,27.6z M137.3,28.6
				c-0.6,0-1.2,0.1-1.9,0.2c-0.5,0.1-0.6-0.1-0.6-0.6c0-0.3,0-0.6,0-0.9c-0.1-0.5,0.1-0.7,0.7-0.7c0.6,0,1.1-0.1,1.7-0.2
				c0.9-0.2,1.3,0.1,1.1,1.1C138.5,28.4,138.2,28.6,137.3,28.6z M138.3,23.1c-0.1,0.3-0.3,0.3-0.5,0.3c-0.6,0-1.1,0-1.7,0
				c-1.3,0-1.3,0-1.2-1.2c0-0.9,0-0.9,1.7-0.9c0.1,0,0.3,0,0.4,0C138.3,21.3,138.7,21.8,138.3,23.1z M142.5,28.1
				c0,0.2-0.2,0.2-0.3,0.2c-0.6,0-1.2,0.1-1.9,0.2c-0.3,0-0.9,0.2-1-0.2c-0.1-0.6-0.2-1.5,0.1-1.7c0.4-0.4,1.3-0.4,2.1-0.3
				c0.2,0.1,0.8-0.3,1,0.1C142.7,26.9,142.5,27.5,142.5,28.1z M142.6,23.3c-0.1,0.2-0.2,0.3-0.4,0.3c-0.9,0.1-1.7-0.2-2.6-0.2
				c-0.2,0-0.2-0.2-0.3-0.3c-0.3-1.3,0-1.6,1.3-1.6h0.7C142.5,21.5,142.9,22,142.6,23.3z M143.6,21.6c0.6-0.3,1.4-0.3,2.1,0.1
				c0.4,0.2,0.5,0.7,0.4,1c-0.2,0.7-0.7,0.9-1.5,0.8c0,0-0.1,0-0.2,0c-0.3-0.2-0.9,0.3-1-0.3C143.5,22.7,143.2,21.8,143.6,21.6z
				 M144.3,28.4c-1.3,0.1-0.7-0.8-0.8-1.3c-0.2-1,0.5-0.8,1.1-0.8c0.8-0.2,1.4,0.2,1.5,1C146.3,28,145.6,28.3,144.3,28.4z
				 M206.1,29.3c0,0-0.1-0.1-0.1-0.1l0,0c-0.3-2.8-0.2-5.7-0.1-8.5c0,0,0,0,0-0.1c0,0,0.1,0,0.1,0c0,0,0.2,0,0.4,0.1
				C206.4,23.3,206.2,26.5,206.1,29.3z M213.8,31.9c-2.9,0.7-5.3,0-7.3-2.2c0.4,0,0.9-0.1,1.2,0.2c1.6,1.3,3.4,2,5.5,1.5
				c3.5-0.9,6-4.1,5-8.1c-0.6-2.6-2.3-4.1-4.8-4.8c-2.2-0.6-4.3-0.1-6,1.6c-0.2,0.2-0.4,0.4-0.7,0.4c1.1-1.6,2.2-2.6,4.1-2.8
				c3.8-0.4,6.9,1.6,8,5.2C220.2,26.8,217.8,30.9,213.8,31.9z M208,24.9c0-1,0.1-2.1,0-3.1c-0.1-0.8,0.3-1.3,0.9-1.6
				c3.2-1.9,7.5-0.8,8.6,3.5c0.9,3.5-1.7,6.7-5.2,6.8c-1.4,0-2.7-0.2-3.8-1.2c-0.4-0.3-0.5-0.6-0.5-1.1C208,27.1,208,26,208,24.9z
				 M241.6,12.8c0,8.2,0,16.3,0,24.5c-1.3,0.4-2.7,0.4-4,0c0-8.1,0-16.2,0-24.3c0-0.5,0.1-0.7,0.7-0.7c1,0,2.1,0,3.1,0
				C241.7,12.4,241.6,12.6,241.6,12.8z"/>
		</g>
		<g>
			<path class="st1" d="M162.1,21.2v7.4c0,0.1,0,0.2,0,0.2c0,0.1-0.1,0.2-0.2,0.2s-0.2-0.1-0.2-0.2c0-0.1,0-0.2,0-0.2v-7.4
				c0-0.1,0-0.2,0-0.2c0-0.1,0.1-0.2,0.2-0.2s0.2,0.1,0.2,0.2C162,21.1,162.1,21.1,162.1,21.2z"/>
			<path class="st1" d="M152.7,21.4v7.2c0,0.1,0,0.2,0,0.2c0,0.1-0.1,0.2-0.2,0.2c-0.1,0-0.2-0.1-0.2-0.2c0-0.1,0-0.1,0-0.2v-7.2
				c0-0.1,0-0.2,0-0.2c0-0.1,0.1-0.2,0.2-0.2c0.1,0,0.2,0.1,0.2,0.2C152.7,21.2,152.7,21.3,152.7,21.4z"/>
			<path class="st1" d="M157.6,21.3v7.3c0,0.1,0,0.2,0,0.2c0,0.1-0.1,0.2-0.2,0.2c-0.1,0-0.2-0.1-0.2-0.2c0-0.1,0-0.1,0-0.2v-7.3
				c0-0.1,0-0.2,0-0.2c0-0.1,0.1-0.2,0.2-0.2c0.1,0,0.2,0.1,0.2,0.2C157.6,21.1,157.6,21.2,157.6,21.3z"/>
			<path class="st1" d="M174.5,21.2v7.5c0,0.1,0,0.2,0,0.2c0,0.1-0.1,0.2-0.2,0.2c-0.1,0-0.2-0.1-0.2-0.2c0-0.1,0-0.2,0-0.2v-7.5
				c0-0.1,0-0.2,0-0.2c0-0.1,0.1-0.2,0.2-0.2c0.1,0,0.2,0.1,0.2,0.2C174.4,21,174.5,21.1,174.5,21.2z"/>
			<path class="st1" d="M170.6,21.2v7.5c0,0.1,0,0.2,0,0.2c0,0.1-0.1,0.2-0.2,0.2c-0.1,0-0.2-0.1-0.2-0.2c0-0.1,0-0.2,0-0.2v-7.5
				c0-0.1,0-0.2,0-0.2c0-0.1,0.1-0.2,0.2-0.2c0.1,0,0.2,0.1,0.2,0.2C170.6,21.1,170.6,21.1,170.6,21.2z"/>
			<path class="st1" d="M166.5,21.2v7.5c0,0.1,0,0.2,0,0.2c0,0.1-0.1,0.2-0.2,0.2c-0.1,0-0.2-0.1-0.2-0.2c0-0.1,0-0.2,0-0.2v-7.5
				c0-0.1,0-0.2,0-0.2c0-0.1,0.1-0.2,0.2-0.2c0.1,0,0.2,0.1,0.2,0.2C166.5,21.1,166.5,21.1,166.5,21.2z"/>
		</g>
		<g>
			<g>
				<path d="M184.5,20.9C184.5,20.9,184.5,20.9,184.5,20.9C184.5,20.9,184.5,20.9,184.5,20.9C184.5,20.9,184.6,20.9,184.5,20.9
					C184.6,20.9,184.5,20.9,184.5,20.9z"/>
				<path class="st1" d="M184.5,20.9C184.5,20.9,184.5,20.9,184.5,20.9C184.5,20.9,184.5,20.9,184.5,20.9
					C184.5,20.9,184.6,20.9,184.5,20.9C184.6,20.9,184.5,20.9,184.5,20.9z"/>
			</g>
		</g>
		<g>
			<g>
				<path class="st1" d="M200.8,21c0,0.1,0,0.2,0,0.2v7.5c0,0.1,0,0.2,0,0.2c0,0.1-0.1,0.2-0.2,0.2c-0.1,0-0.2-0.1-0.2-0.2
					c0-0.1,0-0.2,0-0.2v-7.5c0-0.1,0-0.2,0-0.2c0-0.1,0.1-0.2,0.2-0.2C200.7,20.8,200.8,20.9,200.8,21z"/>
				<path class="st1" d="M205,21.2v7.5c0,0.1,0,0.2,0,0.2c0,0.1-0.1,0.2-0.2,0.2c-0.1,0-0.2-0.1-0.2-0.2c0-0.1,0-0.2,0-0.2v-7.5
					c0-0.1,0-0.2,0-0.2c0-0.1,0.1-0.2,0.2-0.2c0.1,0,0.2,0.1,0.2,0.2C205,21.1,205,21.1,205,21.2z"/>
				<path class="st1" d="M202.9,21c0,0.1,0,0.2,0,0.2v7.5c0,0.1,0,0.2,0,0.2c0,0.1-0.1,0.2-0.2,0.2c-0.1,0-0.2-0.2-0.2-0.4v-7.5
					c0-0.2,0.1-0.4,0.2-0.4C202.8,20.8,202.9,20.9,202.9,21z"/>
				<path class="st1" d="M198.5,21c0,0.1,0,0.2,0,0.2v7.5c0,0.1,0,0.2,0,0.2c0,0.1-0.1,0.2-0.2,0.2c-0.1,0-0.2-0.1-0.2-0.2
					c0-0.1,0-0.2,0-0.2v-7.5c0-0.1,0-0.2,0-0.2c0-0.1,0.1-0.2,0.2-0.2C198.4,20.8,198.4,20.9,198.5,21z"/>
			</g>
		</g>
		<g>
			<g>
				<path class="st1" d="M178,20.9c0,0.1,0,0.2,0,0.2v7.5c0,0.1,0,0.2,0,0.2c0,0.1-0.1,0.2-0.2,0.2c-0.1,0-0.2-0.1-0.2-0.2
					c0-0.1,0-0.2,0-0.2v-7.5c0-0.1,0-0.2,0-0.2c0-0.1,0.1-0.2,0.2-0.2C177.9,20.8,177.9,20.8,178,20.9z"/>
				<path class="st1" d="M181.5,20.9c0,0.1,0,0.2,0,0.2v7.5c0,0.1,0,0.2,0,0.2c0,0.1-0.1,0.2-0.2,0.2c-0.1,0-0.2-0.1-0.2-0.2
					c0-0.1,0-0.2,0-0.2v-7.5c0-0.1,0-0.2,0-0.2c0-0.1,0.1-0.2,0.2-0.2C181.4,20.8,181.4,20.8,181.5,20.9z"/>
				<path class="st1" d="M184.5,20.7c-0.1,0-0.2,0.1-0.2,0.2c0,0.1,0,0.2,0,0.2v7.6c0,0.1,0,0.2,0,0.2c0,0.1,0.1,0.2,0.2,0.2
					c0.1,0,0.2-0.1,0.2-0.2c0-0.1,0-0.2,0-0.2v-7.6c0-0.1,0-0.2,0-0.2C184.7,20.8,184.6,20.7,184.5,20.7z"/>
				<path class="st1" d="M187.7,20.9c0,0.1,0,0.2,0,0.2v7.6c0,0.1,0,0.2,0,0.2c0,0.1-0.1,0.2-0.2,0.2c-0.1,0-0.2-0.1-0.2-0.2
					c0-0.1,0-0.2,0-0.2v-7.6c0-0.1,0-0.2,0-0.2c0-0.1,0.1-0.2,0.2-0.2C187.6,20.7,187.7,20.8,187.7,20.9z"/>
				<path class="st1" d="M190.7,20.9c0,0.1,0,0.2,0,0.2v7.6c0,0.1,0,0.2,0,0.2c0,0.1-0.1,0.2-0.2,0.2c-0.1,0-0.2-0.1-0.2-0.2
					c0-0.1,0-0.2,0-0.2v-7.6c0-0.1,0-0.2,0-0.2c0-0.1,0.1-0.2,0.2-0.2C190.6,20.7,190.7,20.8,190.7,20.9z"/>
				<path class="st1" d="M193.4,21c0,0.1,0,0.1,0,0.2v7.5c0,0.1,0,0.1,0,0.2c0,0,0,0,0,0c0,0.1-0.1,0.2-0.2,0.2
					c-0.1,0-0.2-0.1-0.2-0.2c0-0.1,0-0.2,0-0.2v-7.5c0-0.1,0-0.2,0-0.2c0-0.1,0.1-0.2,0.2-0.2C193.3,20.8,193.4,20.8,193.4,21
					C193.4,21,193.4,21,193.4,21z"/>
				<path class="st1" d="M195.9,21c0,0.1,0,0.2,0,0.2v7.5c0,0.1,0,0.2,0,0.2c0,0.1-0.1,0.2-0.2,0.2c-0.1,0-0.2-0.2-0.2-0.4v-7.5
					c0-0.2,0.1-0.4,0.2-0.4C195.8,20.8,195.8,20.9,195.9,21z"/>
				<path class="st1" d="M207,21.2v7.5c0,0.1,0,0.2,0,0.2c0,0.1-0.1,0.2-0.2,0.2c-0.1,0-0.2-0.1-0.2-0.2c0-0.1,0-0.2,0-0.2v-7.5
					c0-0.1,0-0.2,0-0.2c0-0.1,0.1-0.2,0.2-0.2c0.1,0,0.2,0.1,0.2,0.2C207,21.1,207,21.1,207,21.2z"/>
			</g>
		</g>
	</g>
</g>
</svg>
