<?xml version="1.0" encoding="utf-8"?>
<!-- Generator: Adobe Illustrator 27.1.0, SVG Export Plug-In . SVG Version: 6.00 Build 0)  -->
<svg version="1.1" id="Layer_1" xmlns="http://www.w3.org/2000/svg" xmlns:xlink="http://www.w3.org/1999/xlink" x="0px" y="0px"
	 viewBox="0 0 361.6 177.1" style="enable-background:new 0 0 361.6 177.1;" xml:space="preserve">
<style type="text/css">
	.st0{fill:#2E3192;}
	.st1{fill:none;}
</style>
<g>
	<g>
		<path class="st0" d="M324.4,2c-7.9-6.3-18.9,4.1-18.9,4.1l22.7,25.2c-23.8-4.6-123.2-12.4-173.7,43C80.2,72.5,17.8,140.7,3,159.2
			c-9,11.2,4.4,26,16.8,12.7h0c12.3-13.3,58.1-70.9,118.7-77c-11.9,16.1-10.1,31.6-4.5,48c3.9,11.5,23.7,28.2,40.9,22.9
			c17.3-5.3,28.8-26.8,27.5-39.3c-1.3-12.7-9.1-32-27.6-42C228.2,33.8,338.4,53.9,328,53.3l-25.7,23.8c0,0,10,11.4,18.4,5.8
			c11.2-7.4,40.9-38.7,40.9-38.7S334.8,10.4,324.4,2z M183,122.6c3,12.9-5.3,25.7-12.3,27.4c-8.3,2-20.1-5.6-22.4-18
			s-0.9-23.5,9.9-35.8C171.9,102.1,179.8,108.7,183,122.6z"/>
	</g>
	<g>
		<path class="st1" d="M170.7,150c-8.3,2-20.1-5.6-22.4-18s-0.9-23.5,9.9-35.8c13.7,5.9,21.6,12.4,24.8,26.3
			C186,135.5,177.7,148.3,170.7,150z"/>
	</g>
</g>
</svg>
