<?xml version="1.0" encoding="utf-8"?>
<!-- Generator: Adobe Illustrator 27.1.0, SVG Export Plug-In . SVG Version: 6.00 Build 0)  -->
<svg version="1.1" id="Layer_1" xmlns="http://www.w3.org/2000/svg" xmlns:xlink="http://www.w3.org/1999/xlink" x="0px" y="0px"
	 viewBox="0 0 490.2 186.1" style="enable-background:new 0 0 490.2 186.1;" xml:space="preserve">
<style type="text/css">
	.st0{fill:#2E3192;}
</style>
<g>
	<path class="st0" d="M473.6,186.1c-12.1-0.1-48.3-8.4-54.3-9.8c0.6-6.2,4.3-44.4,8-55.9c1.9-5.3,15.2-5.2,16-5.1l-5.5,35.8l1.9-1.2
		c85.8-65.7-30.3-131.5-207-131.5c-58.9,0-132,12.9-212.9,67.4C6,95.5-9.2,81.8,7,70.7C98.1,12.3,171,0,232.7,0
		c202.4,0,322.6,80.4,220.2,165.7l-2.5,1.8h3l31.2,5.4C484,176.2,481.2,186.1,473.6,186.1L473.6,186.1z"/>
</g>
</svg>
