<?xml version="1.0" encoding="utf-8"?>
<!-- Generator: Adobe Illustrator 27.1.0, SVG Export Plug-In . SVG Version: 6.00 Build 0)  -->
<svg version="1.1" id="Layer_1" xmlns="http://www.w3.org/2000/svg" xmlns:xlink="http://www.w3.org/1999/xlink" x="0px" y="0px"
	 viewBox="0 0 377.1 145.2" style="enable-background:new 0 0 377.1 145.2;" xml:space="preserve">
<style type="text/css">
	.st0{fill:#2E3192;}
</style>
<g>
	<g>
		<path class="st0" d="M335.4,1.4c-8.6-5.4-18.3,6.2-18.3,6.2l25.6,24.1c-68.5-2.3-133.1,5.3-169.5,37.2
			C98.8,67.1,10.2,122.5,2.3,130.4c-7.7,7.7,5.5,20.6,15.9,11.9c5.4-4.5,64.5-44.3,138.2-56.6c-4.3,6.8-8.6,11.2-3,27.6
			c3.9,11.5,19.9,21.2,37.1,15.9c17.3-5.3,25.2-21.2,23.9-33.7c-1.3-12.7-10.2-19.4-16.2-22.5c52-25.6,98.8-23.1,146.2-22.5
			l-22.7,28c0,0,11.2,10.2,18.9,3.7c10.3-8.6,36.3-43.1,36.3-43.1S346.6,8.6,335.4,1.4z M197.6,96.4c2.4,7.5-3.4,16.4-11.2,18.1
			c-7.9,1.6-18-4.6-18.7-12.5s3.3-10.9,11.1-17.1C186.5,85.8,195.2,88.8,197.6,96.4z"/>
	</g>
</g>
</svg>
