<?xml version="1.0" encoding="utf-8"?>
<!-- Generator: Adobe Illustrator 27.1.0, SVG Export Plug-In . SVG Version: 6.00 Build 0)  -->
<svg version="1.1" id="Layer_1" xmlns="http://www.w3.org/2000/svg" xmlns:xlink="http://www.w3.org/1999/xlink" x="0px" y="0px"
	 viewBox="0 0 527.9 109.7" style="enable-background:new 0 0 527.9 109.7;" xml:space="preserve">
<style type="text/css">
	.st0{fill:#2E3192;}
	.st1{fill:none;}
</style>
<g>
	<path class="st0" d="M8.9,109.7c-2.5,0-4.6-0.8-6.2-2.4c-0.1-0.1-0.2-0.2-0.3-0.4c-0.1-0.2-0.3-0.4-0.5-0.6
		c-4-5.3-0.8-10.8,1.5-12.9c17.5-18.3,55.2-41.5,98.5-60.6C149.1,12,194.1,0,225.2,0c16.7,0,29.4,3.3,37.8,9.9l0.6,0.5l0.6-0.4
		c9.4-6.6,23.3-9.9,41.1-9.9C367,0,460.4,39,508.8,75.4l1.9,1.4l-4.3-37.4c0.6,0,1.4-0.1,2.3-0.1c4.3,0,11.7,0.9,13.5,7.1
		c3.3,11.6,5.4,48.7,5.8,54.9c-5.9,1.1-40.6,7.7-53.6,7.7c-0.4,0-0.7,0-1,0c-7.7-0.3-10-10.4-10.5-13.6l36.2-4.7l-2-1.5
		c-20.9-15.2-55.3-33.4-89.7-47.3c-39.9-16.2-75.2-25.1-99.5-25.1c-11.4,0-20.5,2-27,5.8l-1.2,0.7l1,0.9
		c15.5,13.6,22.7,39.3,16.3,58.6c-4.9,14.7-17,23.1-33.3,23.1h-0.2c-16.2-1.2-28-10.8-32.3-26.2c-5.3-18.9,2-42.9,16.9-55.8l1.1-0.9
		l-1.2-0.7c-5.3-3.1-12.8-4.7-22.4-4.7c-25.2,0-64.7,11-108.3,30.1C75.4,66,37.7,88.4,16.2,107.6C14.5,108.7,11.7,109.7,8.9,109.7z
		 M262.1,33.3c-13.2,9.5-15,19.3-15.8,29.3c-0.8,10.8,7.6,26.7,17,27.4c0.3,0,0.5,0,0.8,0c6.2,0,15.7-5.6,17.3-20.7l0.1,0.1l0.1-2.2
		c0.7-12.7-5.8-24.8-18.3-33.9l-0.6-0.4L262.1,33.3z"/>
</g>
<line class="st1" x1="118.1" y1="247" x2="141.2" y2="247"/>
</svg>
