<?xml version="1.0" encoding="utf-8"?>
<!-- Generator: Adobe Illustrator 27.1.0, SVG Export Plug-In . SVG Version: 6.00 Build 0)  -->
<svg version="1.1" id="Layer_1" xmlns="http://www.w3.org/2000/svg" xmlns:xlink="http://www.w3.org/1999/xlink" x="0px" y="0px"
	 viewBox="0 0 336.9 191.7" style="enable-background:new 0 0 336.9 191.7;" xml:space="preserve">
<style type="text/css">
	.st0{fill:#2E3192;}
</style>
<g>
	<path class="st0" d="M9,191.7c-3.6,0-7-2.3-8.4-5.7c-1.5-3.6-0.5-7.5,2.8-10.7l1.7-1.7h0c46.9-46.7,89.1-79,132.7-101.6
		C190.1,44.8,244.7,31.7,305,31.7h2.4L281.9,5.8c1.8-1.7,6.8-5.8,11.8-5.8c1.8,0,3.4,0.5,4.8,1.6c9.7,7.1,34.3,35,38.4,39.7
		c-4.1,4.6-28.6,32.6-38.4,39.7c-1.4,1-3.1,1.6-4.8,1.6c-5,0-10-4.1-11.8-5.8l25.7-26.1l-2.4,0C164.2,52,88.1,116.5,16.4,188.3
		C14.2,190.5,11.6,191.7,9,191.7z"/>
</g>
</svg>
