<?xml version="1.0" encoding="utf-8"?>
<!-- Generator: Adobe Illustrator 27.1.0, SVG Export Plug-In . SVG Version: 6.00 Build 0)  -->
<svg version="1.1" id="Layer_1" xmlns="http://www.w3.org/2000/svg" xmlns:xlink="http://www.w3.org/1999/xlink" x="0px" y="0px"
	 viewBox="0 0 513.3 211.9" style="enable-background:new 0 0 513.3 211.9;" xml:space="preserve">
<style type="text/css">
	.st0{fill:#2E3192;}
</style>
<g>
	<path class="st0" d="M497.9,211.9c-12.1-0.1-48.3-8.4-54.3-9.8c0.6-6.2,4.3-43.2,8-54.7c1.9-5.3,7.9-6.5,12.6-6.5
		c1.4,0,2.6,0.1,3.4,0.2l-5.5,35.8l1.9-1.2C549.8,110,424.6,19.9,247.9,19.9c-58.9,0-146,11.4-226.9,65.9c-4.3,2.9-8.6,4.5-12.3,4.5
		c-4.2,0-7.4-2.1-8.4-5.5c-1-3.5,0.4-9.3,7.9-14.1C99.3,12.3,191.9,0,253.6,0c192.7,0,327.5,111.1,223.6,191.5l-2.5,1.8h3l31.2,5.4
		C508.3,202,505.5,211.9,497.9,211.9L497.9,211.9z"/>
</g>
</svg>
