<?xml version="1.0" encoding="utf-8"?>
<!-- Generator: Adobe Illustrator 27.1.0, SVG Export Plug-In . SVG Version: 6.00 Build 0)  -->
<svg version="1.1" id="Layer_1" xmlns="http://www.w3.org/2000/svg" xmlns:xlink="http://www.w3.org/1999/xlink" x="0px" y="0px"
	 viewBox="0 0 528 110.3" style="enable-background:new 0 0 528 110.3;" xml:space="preserve">
<style type="text/css">
	.st0{fill:#2E3192;}
</style>
<g>
	<path class="st0" d="M11.8,110.3c-4.7,0-9.4-3.3-11.1-7.8C-0.2,100-1,95.3,4.1,90.7C71.3,30.5,158.7,0,264,0
		c84.1,0,175.4,27.7,244.3,74l1.8,1.2l-4.3-35.5c0.6-0.1,1.6-0.1,2.6-0.1c4.2,0,11.4,0.9,13.2,6.9c3.7,12.6,6,49.3,6.3,55.4
		c-6.1,1.2-43.1,8-54.4,8c-0.2,0-0.4,0-0.6,0c-7.8-0.2-10.2-10.1-10.8-13.3l34.4-4l-2.2-1.5c-65.1-45.7-151.9-72-238-72
		c-94.5,0-178.9,31.3-237.7,88.2C16.7,109.2,14.3,110.3,11.8,110.3z"/>
</g>
</svg>
