<?xml version="1.0" encoding="utf-8"?>
<!-- Generator: Adobe Illustrator 27.1.0, SVG Export Plug-In . SVG Version: 6.00 Build 0)  -->
<svg version="1.1" id="Layer_1" xmlns="http://www.w3.org/2000/svg" xmlns:xlink="http://www.w3.org/1999/xlink" x="0px" y="0px"
	 viewBox="0 0 363.2 142.3" style="enable-background:new 0 0 363.2 142.3;" xml:space="preserve">
<style type="text/css">
	.st0{fill:#2E3192;}
</style>
<g>
	<path class="st0" d="M11.9,140.8c-7.5,5.7-17-6.7-8.6-13.4c8.4-6.7,105.2-95.3,328-95.7h2.4L308.2,5.8C310,4.1,315,0,320,0
		c1.8,0,3.4,0.5,4.8,1.6c9.7,7.1,34.3,35,38.4,39.7c-4.1,4.6-28.6,32.6-38.4,39.7c-1.4,1-3.1,1.6-4.8,1.6c-5,0-10-4.1-11.8-5.8
		l25.7-26.1h-2.4C152,50.7,66.2,99.3,11.9,140.8z"/>
</g>
</svg>
