<?xml version="1.0" encoding="utf-8"?>
<!-- Generator: Adobe Illustrator 27.1.0, SVG Export Plug-In . SVG Version: 6.00 Build 0)  -->
<svg version="1.1" id="Layer_1" xmlns="http://www.w3.org/2000/svg" xmlns:xlink="http://www.w3.org/1999/xlink" x="0px" y="0px"
	 viewBox="0 0 520.5 228.5" style="enable-background:new 0 0 520.5 228.5;" xml:space="preserve">
<style type="text/css">
	.st0{fill:#2E3192;}
</style>
<g>
	<path class="st0" d="M497.9,228.5c-12.1-0.1-48.3-8.4-54.3-9.8c0.6-6.2,4.3-43.2,8-54.7c1.9-5.3,7.9-6.5,12.6-6.5
		c1.4,0,2.6,0.1,3.4,0.2l-5.5,35.8l1.9-1.2c24.5-15.3,37.9-34.1,37.9-53c0-28.7-27.7-58.6-76.1-81.9
		c-49.3-23.8-114.2-37.5-177.9-37.5c-58.9,0-146,11.4-226.9,65.9c-4.3,2.9-8.6,4.5-12.3,4.5c-4.2,0-7.4-2.1-8.4-5.5
		c-1-3.5,0.4-9.3,7.9-14.1C99.3,12.3,191.9,0,253.6,0C316,0,377.6,12.6,427,35.4c47.8,22.1,79.8,51.4,90,82.4
		c10.6,32.1-3.2,63.4-39.8,90.3l-2.5,1.8h3l31.2,5.4C508.3,218.6,505.5,228.5,497.9,228.5L497.9,228.5z"/>
</g>
</svg>
