<?xml version="1.0" encoding="utf-8"?>
<!-- Generator: Adobe Illustrator 27.1.0, SVG Export Plug-In . SVG Version: 6.00 Build 0)  -->
<svg version="1.1" id="Layer_1" xmlns="http://www.w3.org/2000/svg" xmlns:xlink="http://www.w3.org/1999/xlink" x="0px" y="0px"
	 viewBox="0 0 100 100" style="enable-background:new 0 0 100 100;" xml:space="preserve">
<g>
	<path d="M89.9,17.3h-46c-1.7-5.8-7-9.8-13-9.9c-6,0-11.3,4.1-12.9,9.9h-7.9c-2,0-3.6,1.6-3.6,3.6s1.6,3.6,3.6,3.6H18
		c1.6,5.8,6.9,9.8,12.9,9.9c6,0,11.3-4.1,13-9.9h46c2,0,3.6-1.6,3.6-3.6S91.9,17.3,89.9,17.3z M30.9,27.2c-3.5,0-6.3-2.8-6.3-6.3
		s2.8-6.3,6.3-6.3c3.5,0,6.3,2.8,6.3,6.3v0C37.2,24.4,34.4,27.2,30.9,27.2C30.9,27.2,30.9,27.2,30.9,27.2z"/>
	<path d="M89.9,46.2h-8.3c-1.6-5.8-6.9-9.8-12.9-9.9c-6,0-11.3,4.1-13,9.9H10.1c-2,0-3.6,1.6-3.6,3.6s1.6,3.6,3.6,3.6h45.6
		c1.7,5.8,7,9.8,13,9.9c6,0,11.3-4.1,12.9-9.9h8.3c2,0,3.6-1.6,3.6-3.6S91.9,46.2,89.9,46.2z M68.7,56.1c-3.5,0.1-6.3-2.7-6.4-6.1
		c-0.1-3.5,2.7-6.3,6.1-6.4c3.5-0.1,6.3,2.7,6.4,6.1c0,0,0,0.1,0,0.1C74.9,53.2,72.1,56,68.7,56.1z"/>
	<path d="M89.9,75.1H53.7C51.5,68,43.9,64,36.8,66.2c-4.3,1.3-7.6,4.6-8.9,8.9H10.1c-2,0-3.6,1.6-3.6,3.6c0,2,1.6,3.6,3.6,3.6h17.7
		c1.7,7.2,8.9,11.6,16.1,9.9c4.9-1.2,8.8-5,9.9-9.9h36.1c2,0,3.6-1.6,3.6-3.6C93.5,76.7,91.9,75.1,89.9,75.1z M40.8,85.3
		c-3.5,0-6.3-2.8-6.3-6.3c0-3.5,2.8-6.3,6.3-6.3c3.5,0,6.3,2.8,6.3,6.3l0,0C47,82.5,44.2,85.3,40.8,85.3z"/>
</g>
</svg>
