<?xml version="1.0" encoding="UTF-8"?>
<svg id="Layer_1" data-name="Layer 1" xmlns="http://www.w3.org/2000/svg" viewBox="0 0 406.17 407.25">
  <defs>
    <style>
      .cls-1 {
        fill: #090808;
      }

      .cls-2 {
        fill: #524f4e;
      }

      .cls-3 {
        fill: #514e4e;
      }

      .cls-4 {
        fill: #333254;
      }

      .cls-5 {
        fill: #4a4746;
      }

      .cls-6 {
        fill: #2f3590;
      }

      .cls-7 {
        fill: #4c4949;
      }

      .cls-8 {
        fill: #ea2028;
      }

      .cls-9 {
        fill: #080707;
      }

      .cls-10 {
        fill: #141017;
      }

      .cls-11 {
        fill: #0c090a;
      }
    </style>
  </defs>
  <path class="cls-9" d="m.32,185.8c3.36-11.83,3.47-24.4,6.83-36.34,3.11-11.04,7.1-21.89,11.94-32.28,9.58-20.54,22.92-39.27,38.74-55.47C88.69,30.11,136.46,2.95,181.65,2.38c-4.27,13.98-23.53,7.68-34.11,10.88-4.05,1.23-6.49,5.11-10.2,6.54-5.46,2.11-9.65,1.73-14.77,5.15-5.57,3.73-9.78,3.77-15.99,6.69-5.14,2.42-8.97,6.82-13.52,10.06-9.24,6.6-17.09,12.56-25.53,20.15-6.46,5.8-9.19,10.16-14.53,16.42-3.17,3.71-8.06,6.22-10.16,10.86-1.03,2.28-.06,5.52-1.2,7.41-1.29,2.14-3.35,1.95-4.51,3.49-1.16,1.55-2.59,1.6-3.84,3.59.02-.04-.71,6.14-1.3,7.41-2.09,4.47-5.67,9.67-8.03,14.3-3.41,6.69-13.02,19.34-11.07,27.58-5.59,4.1-2.57,12.72-3.36,18.57-1.22,9.01-1.34,17.61-1.4,27.13-.06,9.21-1.31,18.83-1.15,27.84.09,5.41,6.53,20.05-.98,23.1-3.44-9.32-4.46-19.06-5.04-28.88,0-.34,0-.67.01-1.01-.33-2.33-.66-4.65-1-6.98,0-7.32,0-14.63,0-21.95.11-1.64.21-3.29.32-4.93Z"/>
  <path class="cls-9" d="m250.45,6.37c40.44,9.84,77.25,31.56,104.82,62.84,28.11,31.88,42.32,69.29,49.89,110.55,0,.66,0,1.33.01,1.99-.57,2.77-.01,5.4.98,7.98,0,.66,0,1.33,0,1.99-.11,1.99-.21,3.99-.32,5.98-11.7.58-1.62-29.82-7.81-32.92-3.34-2.46-5.35-16.64-7.12-21.22-2.45-6.35-4.31-12.99-7.24-19.15-4.56-9.59-10.33-16.39-14.37-25.63-1.92-4.39-5-8.24-8.19-11.7-2.4-2.59-4.32-6.6-6.52-8.79-2.14-2.14-4.52-2.37-6.37-4.33-3.98-4.18-4.33-8.36-9.56-12.01-5.83-4.07-3.89-3.83-8.33-8.87-1.97-2.23-5.74-5.51-7.77-7.41-3.09-2.91-8.04-6.12-12.43-7.69-1.79-.64-5.06-.59-6.5-1.38-2.31-1.26-2.14-2.8-4.07-4.13-5.02-3.44-10.81-5.25-16.57-7.94-3.41-1.6-6.63-4.32-10.02-5.8-2.97-1.29-4.21-.55-7.32-1.66-3.41-1.22-9.74-3.16-12.59-4.94-3.35-2.09-4.5-.3-2.6-5.78Z"/>
  <path class="cls-9" d="m404.19,237.62c-1.79,7.31-3.57,14.63-5.36,21.94-1.6,0-3.19,0-4.79,0,5.78-8.37-3.35-48.23,11.8-48.88,1.09,6.03-1,11.95-.67,17.95,0,.33,0,.66-.01,1-.9,2.59-1.62,5.2-.98,7.98Z"/>
  <path class="cls-9" d="m405.85,200.71c0,3.32,0,6.65,0,9.97-15.16.65-6.02,40.5-11.8,48.88-5.98,5.41-6.69,15.65-10.75,22.24-3.65,5.92-4.96,11.18-8.81,17.04-1.97,3-1.88,6.53-3.24,8.94-2.31,4.1-3.95,2.8-6.93,5.45-2.27,2.02-3.79,8.72-5.8,11.63-2.97,4.29-6.81,8.2-10.3,12.06-30.22,33.39-70.19,50.02-111.72,63.28-1.54-.95-3.24-1.11-4.99-1q-7.14,0-3.94,6.1c-1.12,1.69-2.67.72-4.07.67-2.92-.3-4.5-2.91-7.03-4.02-5.58-2.44-11.37-1.38-17.09-1.79-5.93-.43-11.12.61-14.73,5.84-1.67,0-3.33.01-5,.02,2.75-7.32,1.27-7.25-7.21-7.5-8.58-.25-6.73.19-13.41-2.56-12.69-5.21-26.28-8.54-39.06-13.87-8.31-3.47-22.08-8.43-28.49-15.06-2.07-2.14-2.16-5.25-4.25-7.24-1.2-1.14-3.56-.93-4.87-1.87-3.81-2.74-8.27-5.35-11.9-8.23-7.24-5.72-12.42-13-17.8-20.5-1.34-1.86-2.36-5.83-3.87-7.41-1.27-1.32-4.36-1.29-5.17-2.23-2.81-3.22-5.2-7.62-7.9-11.16-7.16-9.39-9.74-21.16-14.67-30.84-3.25-6.38-4.34-10.36-5.98-17.16-1.29-5.36-2.43-8.64-8.8-8.8.18-.71-1.97-1.13-.25-2.03,7.51-3.05,1.07-17.69.98-23.1-.16-9.01,1.09-18.63,1.15-27.84.06-9.52.18-18.12,1.4-27.13.79-5.84-2.22-14.47,3.36-18.57-1.95-8.25,7.66-20.89,11.07-27.58,2.36-4.63,5.94-9.83,8.03-14.3.59-1.27,1.32-7.45,1.3-7.41,1.25-1.98,2.68-2.04,3.84-3.59,1.16-1.54,3.22-1.35,4.51-3.49,1.14-1.89.16-5.13,1.2-7.41,2.1-4.64,6.99-7.14,10.16-10.86,5.35-6.26,8.08-10.61,14.53-16.42,8.44-7.59,16.29-13.56,25.53-20.15,4.54-3.24,8.38-7.64,13.52-10.06,6.21-2.92,10.41-2.96,15.99-6.69,5.12-3.43,9.3-3.04,14.77-5.15,3.71-1.43,6.14-5.31,10.2-6.54,10.58-3.2,29.83,3.1,34.11-10.88,4.26-.78,8.52-1.45,12.87-1.25,5.71,0,11.43,0,17.14,0,13.09.57,25.99,2.56,38.79,5.24-1.9,5.48-.74,3.69,2.6,5.78,2.85,1.78,9.18,3.72,12.59,4.94,3.11,1.11,4.35.37,7.32,1.66,3.39,1.47,6.61,4.2,10.02,5.8,5.76,2.7,11.54,4.51,16.57,7.94,1.94,1.33,1.76,2.86,4.07,4.13,1.44.79,4.72.74,6.5,1.38,4.39,1.57,9.34,4.78,12.43,7.69,2.03,1.9,5.8,5.18,7.77,7.41,4.44,5.04,2.5,4.8,8.33,8.87,5.23,3.65,5.59,7.83,9.56,12.01,1.86,1.95,4.24,2.19,6.37,4.33,2.19,2.2,4.12,6.2,6.52,8.79,3.2,3.46,6.27,7.3,8.19,11.7,4.05,9.24,9.81,16.03,14.37,25.63,2.93,6.16,4.79,12.8,7.24,19.15,1.77,4.57,3.78,18.76,7.12,21.22,2.05,6.33-4.69,36.44,7.82,35.91Zm-205.25-10.82c-.07,1.74.44,2.85,2.49,2.85,2.05,0,2.57-1.11,2.49-2.85,1.33,0,2.66,0,3.99,0,.85,2.07-2.62,3.09-1.4,5.09,1.42,2.32,5.64-.05,7.38-.26,1.18,1.66,20.15,5.44,23.76,6.92,3.02,1.25,5.17,1.46,7.51,2.23,1.91-1.16,3.59-.98,5.04.55.27.99.55,1.99.82,2.98,2.93,2.22,1.59,2.73,5.31,4.88,3.8,2.19,5.96,2,9.91,5.05,5.85,4.51,11.46,12.36,19.59,11.74.03,2.36-2.73.83-2.51,3.13,4.04-.75,8.47,8.44,9.05,9.54.14.27-.67,3.51-.42,4.14.14.35,4.35,2.49,5.24,4.1,1.2,2.15,1.46,7.19,2.69,9.98,1.26,2.87,3.82,4.68,4.8,7.91.75,2.46-.66,7.61.08,9.02,1.76,3.33,4.72,1.74,7.67,3.61.07.62.14,1.24.21,1.86-.17,7.52-2.11,2.37-3.64,3.17-.49.25-1.3-1.92-2.95-.36-1.59,1.51.59,3.15.48,4.77-.24,3.69-.12,14.66,1.05,18.53.96,3.19,4.52,5.1,5.04,7.03-.06,1.3-.13,2.6-.19,3.91-6.01.99-4.63.03-7.77,6.14-1.85,3.6-6.23,9.94-6.26,14.06-.04,6.18,4.9,9.4,11.94,8.42,8.16-1.14,16.58-15.72,22.9-20.66,3.03-2.37,6.5-3.39,9.51-5.81.17-2.06.95-3.85,2.33-5.37,1.93-.41,3.41-1.4,4.43-2.95,2.2-3.52.41-7.76,1.99-10.77-.28-.79-.37-1.6-.27-2.43,1.34-.56,2.73-1,4.15-1.33.97-1.83.46-6.2,1.79-7.29,2.7-2.2,4.68.83,6.86-.84,7.01-5.34-1.48-7.45-1.35-8.74.38-3.68,5.2-4,4.76-9.33,5.26-3.35,7.72-22.26,3.22-26.87.31-.68.62-1.37.93-2.05,1.26,1,9.99.5,10.7-.64,2.15-3.42-3.38-5.56-4.47-9.17-.61,3.85-1.69,6-5.23,3.85,0-.34,0-.69,0-1.03.4-.01,8.33-6.45,8.47-6.66,2.24-3.35,1.92-7.32,2.1-11.23.35-7.55-.6-14.66-1.3-22.14-.42-4.53,2.18-8.72,1.67-12.5-.31-2.31-3.66-3.93-3.78-5.65-.09-1.32,1.86-2.58,1.77-3.28-.1-.76,1.71-2.98,1.73-4.39.01-.73-2.9-5-3.06-5.65-.31-1.24,4.66-8.24-2.08-5.77-3.6,1.32-.72,6.87-6.51,6.45.01-.33.02-.67.03-1,4.51-5.13,2.16-19.99-.75-26.76-1.19-2.77-3.91-4.54-4.65-7.52-.32-1.29.2-5.14-.21-5.91-2.48-4.69.05-.57-4.11-1.34-.48-6.01-4.91-11.66-7.56-15.61-3.36-5.02-5.38-8.59-9.63-13.27-9.62-10.57-17.29-22.03-29.47-30.14-5.96-3.97-10.08-9.27-15.76-13.41-2.43-1.77-5.17-2.34-7.56-3.72-.68-.39-6.38-4.29-6.48-4.33-4.53-1.95-9.26-2.38-13.85-4.67-3.87-1.93-6.91-4.54-11.21-5.66-3.58-.93-7.46.1-10.79-.72-4.03-.99-6.74-3.82-10.75-4.9-4.16-1.12-7.58.39-11.62.33-5.74-.09-9.34-2.54-15.12-3.31-16.12-2.13-33.34,2.72-47.84,8.75-10.94,4.55-22.89,12.82-30.14,22.67-3.16,4.29-10.09,11.07-11.95,15.83-1.17,2.99.26,7.86-.96,11.29-.88,2.47-3.72,5.09-4.07,7.6-1.63,5.32-1.63,10.64,0,15.96,3.44,10.44,7.75,4.19,14.97,1.57,1.64-.59,3.89.4,5.53-.25,2.67-1.06,4.14-3.77,6.72-5,3.22-1.55,10.32-3.92,13.83-3.86,2.44.05,5.63,1.98,7.46,1.37,3.6-1.2,4.57-5.59,9.46-6.7,3.74-.85,9.75-3.07,13.45-3.23,2.93-.13,10.21,5.35,10.35-.7,1.66,0,3.32.01,4.99.02,6.4,10.34,10.08,7.57,20.85,10.78,2.26.67,11.52,3.71,11.59,6.8.06,2.49-4.78.09-4.54,4.27-1-.34-2.37.54-3.03-.91,2.51-9.42-5.98-6.95-12.5-6.63-8.82.42-17.21-.65-25.98.21-16.67,1.64-30.57,6.83-44.17,15.25-3.11,1.93-4.38,2.12-7.17,4.45-2.22,1.85-4.9,4.05-7.22,6.17-6.97,6.35-7.61,9.82-5.7,17.77,2.75,11.5,6.84,10.61,14.06,18.95,1.88,2.18-.53,4.14,1.52,6.12,1.88,1.81,3.74-.24,5.45,2.39.45.45,1.37,1.01,1.29,1.34-1.29,5.52,2.61,4.57,5.69,4.65,3.55,1.83,1.66,5.39,3.89,6.63,2.29,1.28,2.29-4.08,4.77-3.58-1.92-.39,7.09,4.41,6.09,3.69,3.2,2.29,2.9,4.11,7.43,4.45-1.35,6.03,2.06,5.04,6.75,3.77,2.96-.79,6.49.94,8.97-1.99,5.12.88,4.43.75,2.06-4.16,1.64.11,3.28.21,4.92.32Zm-162.54,85.63c-.53,4.84.15,8.95,5.98,9.97-.97,7.51,4.81,14.38,8.82,19.53,3.01,3.86,5.67,8.47,7.84,13.1-.39,1.55-.23,3.07.48,4.56,1.98.55,3.99.88,6.04.99,2.34,2.2,4.54,5.2,6.23,8.02,3.18,5.31,4.52,9,11.47,8.66,4.97,9.59,18.37,13.92,27.37,18.29-1.59,3.92-4.86,2.89.15,5.62,2.97,1.62,7.82-1.31,10.94,1,4.78,3.56-.65,5.56,6.45,6.74,6.62,1.09,10.15-.4,16.91,3.26,2.34,5.28,6.32,6.19,11.24,4.01,1.99-.88,3.81-.48,5.71-.02,6,2.22,12.08,1.38,14.99-2.07,1.66,0,3.33-.02,4.99-.03.1,16.69,36.78,15.07,42.21,2.49,2.97,1.23,16.56,2,19.36.58,2.03-1.03,4.42-6.39,6.4-8.53,1.18-1.27,4.53-5.44,6.66-5.4.87.02,2.38,3.62,2.25,3.62,1.58-.03.04,1.98,2.75.69,2.07-.98-.12-3.52.89-4.52,1.95-1.94,5.98-1.51,7.84-4.18,1.72-2.48-3.3-10.07,2.18-11.15,2.94-.58,1.08,4.67,4.96,3.82,1.69-.37,2.05-12.35,2.19-14.24,9.15-2.47,6.52-7.93,7.56-16.14.79-6.22,8.12-24.67.95-28.74-6.71-3.81-19.56,6.15-25.56,8.69-5.19,2.2-25.35,5.5-21.84,13.06-1.46,1.35-3.17,1.43-4.99.99-.49-4.27-5.56-1.87-6.98-4.8-7.98-1.65-15.95-1.65-23.93,0-1.92,1.13-21.87-2.45-21.45-4.73.83-4.6,27.37.21,30.98.01,5.91-.33,6.36-2.63,11.07-5.5,5.01-3.05,10.13-1.76,15.37-3.5,4.92-1.64,8.61-5.36,13.46-7.26,4.94-1.93,5.15-2.03,8.96-5.89,5.98-6.05,13.95-10.91,17.39-18.71,5.09-11.52-4.09-20.16-11.78-28.15-7.9-8.2-19.9-17.6-30.59-22.09-4.18-1.76-24.09-5.46-25.43,1.87-.64.25-.91-.13-1.1-.65-1.12-1.86-2.96-1.05-4.49-1.12-4.12-.18-8.24-.2-12.37-.28-1.24-14.27-17.54-7.14-26-9.82-12.66-4.01-23.25-11.05-32.83-19.89-.98-2.86-2.73-4.55-5.98-3.99-2.46.28-13.58-16.96-10.97-19.95,1.76-2.94-.97-4.71-2.45-4.41-3.5.69-3.35-2.03-4.53-3.57.61-6.64-7.13-10.38-8.69-16.27-1.74-6.58,1.46-13.66.64-20.33-.6-4.92-4.44-7.44-4.61-11.99-.03-.73,3.82-6.58,4.02-8.34.34-3.06-.99-6.57-1.23-9.63-.73-9.34,1.82-14.09,6.29-22.06,3.06-5.45,5.67-8.84-1.11-11.8-8.16-3.56-24.11,7.99-26.21,15.62-7.36-.46-17.75,13.9-22.02,19.5-4.1,5.38-7.17,11.48-11.35,16.81-4.3,5.47-3.78,6.69-5.79,12.75-2.28,6.86-25.29,47.89-11.56,49.74-.1,1.65-.19,3.3-.29,4.95-16.15-.4-13.95,53.93-1,53.86.07.96.14,1.92.21,2.87-.68,1.04-1.36,2.07-2.04,3.11-1.62,4.99-1.62,9.97,0,14.96,1.26,4.7.97,10.02,4.51,13.82,2.02,2.18,2.74,4.37,2.47,7.13-.06,1.95.41,3.69,1.99,4.99Z"/>
  <path class="cls-9" d="m6.28,251.58c6.37.16,7.51,3.44,8.8,8.8,1.64,6.8,2.73,10.77,5.98,17.16,4.93,9.68,7.51,21.45,14.67,30.84,2.7,3.54,5.09,7.95,7.9,11.16.82.93,3.91.91,5.17,2.23,1.52,1.58,2.54,5.55,3.87,7.41,5.38,7.5,10.57,14.78,17.8,20.5,3.63,2.87,8.09,5.49,11.9,8.23,1.3.94,3.67.73,4.87,1.87,2.09,1.99,2.18,5.1,4.25,7.24,6.41,6.63,20.18,11.6,28.49,15.06,12.78,5.33,26.37,8.66,39.06,13.87,6.68,2.74,4.82,2.3,13.41,2.56,8.48.25,9.96.18,7.21,7.5-2.72.54-5.21-1.77-7.98-.66-.62-.07-1.23-.15-1.85-.22-19.49-6.57-38.71-10.19-57.37-19.48-17.56-8.74-33.83-19.96-48.1-33.44-26.35-24.88-54.04-63.5-58.08-100.63Z"/>
  <path class="cls-9" d="m184.66,406c3.61-5.23,8.8-6.27,14.73-5.84,5.71.41,11.51-.65,17.09,1.79,2.53,1.11,4.11,3.72,7.03,4.02-3.36-.25-6.47,1.9-9.9,1.04-6.01-1.26-12.03-1.41-18.04,0-3.69.28-7.39.63-10.9-1.01Z"/>
  <path class="cls-9" d="m227.56,405.31q-3.2-6.09,3.94-6.1c.34,2.05-.58,3.89-1,5.82-.98.09-1.96.19-2.95.28Z"/>
  <path class="cls-9" d="m230.51,405.03c.41-1.93,1.33-3.76,1-5.82,1.75-.11,3.45.05,4.99,1,0,1.27,0,2.54,0,3.8-.35.36-.69.71-1.04,1.07-1.65-.02-3.3-.03-4.95-.05Z"/>
  <path class="cls-3" d="m195.56,407.01c6.01-1.41,12.03-1.26,18.04,0-6.01,0-12.03,0-18.04,0Z"/>
  <path class="cls-6" d="m211.66,1.13c-5.71,0-11.43,0-17.14,0,5.71-1.38,11.43-1.64,17.14,0Z"/>
  <path class="cls-9" d="m405.85,200.71c-12.5.53-5.76-29.58-7.82-35.91,6.19,3.1-3.89,33.5,7.81,32.92v2.99Z"/>
  <path class="cls-9" d="m236.49,404.01c0-1.27,0-2.54,0-3.8,41.53-13.26,81.5-29.89,111.72-63.28,3.49-3.86,7.33-7.77,10.3-12.06,2.01-2.91,3.53-9.62,5.8-11.63,2.98-2.65,4.62-1.35,6.93-5.45,1.36-2.41,1.27-5.94,3.24-8.94,3.85-5.86,5.16-11.11,8.81-17.04,4.06-6.59,4.77-16.83,10.75-22.24,1.6,0,3.19,0,4.79,0-22.88,70.73-72.86,117-142.39,140.8-.33,0-.66,0-1-.01-5.65,1.34-11.3,2.69-16.95,4.03-.66-.12-1.33-.25-1.99-.37Z"/>
  <path class="cls-8" d="m373.26,243.6c-.31.68-.62,1.37-.93,2.05-.78,2.31-1.57,4.61-2.35,6.92-6.11-3.59-2.99-2.47-5.62,2.2-3.04,5.42-3.53,12.39-5.79,17.91-2.14,5.22-5.13,6.19-8.33,10.29-4.14,5.29-2.47,4.88-.58,10.18-3.23-.07-5.2,7.84-8.92.14-1.55,9.41-6.02,14.23-6.49,24.22-.31.32-.63.63-.94.95-8.13-6.19-4.66-17.69-5.02-26.29-.45-10.84.17-12.23-11.83-11.67,0-.34,0-.69.01-1.03.87-1.52,4.93-5.89,4.86-7.71-.11-3.23-1.84-2.72-2.68-4.9-1.38-3.58-5.19-8.03-6.33-12.37-1.51-5.72,2.39-10.08-1.24-14.47-2.12-2.56-11.91-6.83-14.93-5.3-6.24-6.67-11.57-14.2-18.84-19.9-1.51-4.94-4.42-7.13-7.98-6-3.85-3.42-8.83-5-12.97-7.97.85-5.52-1.69-1.89-3.7-5.22-.98-1.64,4.38-2.67,4.16-4.29-5.85-3.28-6.79,1.42-7.38,6.27-1-.34-2-.69-2.99-1.03-1.36-5.57-2.89-8.45-5.03-1.7-6.57-1.73-13.07-3.77-19.89-4.29,4.41-11.45-11.97-7.32-19.81-6.89-9.53.52-19.52-.32-27.78-5.18-2.89-1.7-11.14-6.08-12.96-8.45-2.76-3.61.26-4.82-1.83-8.39-1.1-1.88-5.05.25-6.84-2.47-2.27-3.45,1.14-6.94.41-10.36,5.34,2.46,6.61-1.93,9.41-5.25-2.69.1-3.41,2.58-5.42,2.26,1.38-5.76,15.77-13.66,21.38-14.76,2.23-.44,8.62,1.86,10.57.59-.33.21,1.77-5.29,2.46-6.27-1.76-.75-3.73-.43-4.47-2.33,1.63-.4,3.26-.8,4.9-1.2.81.54,1.57,1.22,2.45,1.58,4.47,1.81,8.59.32,9.58-3.38,2.32,0,4.64,0,6.96,0-4.6,5.7,13,6.9,12.98.96,1.33,0,2.66,0,3.99,0,.06,3.68,2.45,8.89,6.22,10.21,1.55.54,6.38-4.09,6.74-.37-1.77,2.04-.72,2.93,1.39,2.92,1.8,0,4.76.93,3.59-2.92,3.07,1.33,3.62-2.49,5.87-2.85,2.74,3.27.61,8.45,5.02,10.84,1.11.6,9.84,1.65,12.04,1.99.4,2.18-1.61,5.16-.49,6.81,1.21,1.09,2.65,1.49,4.32,1.22,2.21.13,3.27,1.32,3.18,3.56-.08,1.17.3,2.16,1.12,2.97,1.6-.18,3.14-.62,4.61-1.32,2.37,2.15,3.26,5.72,5.28,8.34,2.41,3.14,4.32,2.92,5.16,7.14.72,3.61-3.3,6.01-.07,9.7,3.01,3.44,12.53,1.92,16.11.47,9.46-3.83,2.25.4,4.51-5.52,3.92-10.27-.05-11.51-6.42-17.77-3.31-3.25-2.78-4.4-3.09-7.08,2.08-.56,2.95-1.91,2.61-4.03-.55-2.05-1.86-3.13-3.94-3.22-1.03-.27-2.06-.54-3.08-.81-1.11-1.45-1.36-3.06-.77-4.83-2.13-5.24-2.12-5.81-5.96-10.05-2.25-2.48-1.89-4.06-4.65-5.48-.92-.48-10.28-.45-10.05-2.13.07-.49,5.26-9.54-1.39-5.88-.65-3.21-3.23-1.56-4.99-1.99-1.33-1.66-2.66-3.32-3.99-4.99,6.49-.63-.83-6.79-3.99-2.99-4.29-1.61-3.1-4.54-5.86-6.36-1.59-1.05-5.88-1.04-7.11-2.62-.81-4.44-3.21-7.07-7.98-6.98-4.45-2.82-6.76,1.44-10.64,1.93-2.31.29-6.87-1.79-9.31-1.93-2.86-1.65-4.91-5.56-9.21-3.22-.28.15-1.22-.4-1.53-.85-2.57-3.74-4.86-1.07-5.89.86-1.54,2.87-3.5,3.55-6.33,3.21-6.3.43-12.68-1-18.92.87-2.68.14-5.18,1.85-7.98.97,1.11-2.41,4.59-3.42,3.78-6.13-.63-2.09-6.08-3.35-7.7-3.65-8.78-1.58-14.63,3.63-11.07,12.73-.27.15-.57.22-.88.23-1.63-.16-3.33-.09-4.88-.53-6.64-1.89-9.54-.3-11.12,6.31-.94.48-1.66,1.51-2.93,1.2-3.03-.31-1.96-3.82-3.88-4.99.28-1,.55-2,.83-3.01,2.89-5.08,5.09-10.58,9.09-14.98,1.55-.39,2.47,3.16,4.14.85,1.37-1.9,2.08-4.16-.39-6,3.71-4.49,8.02-8.31,12.55-11.96,14.44-11.64,30.96-16.85,49.35-16.63.38,1.58.57,3.6,2.63,3.62,2.16.01,2.37-1.87,2.36-3.62,3.96-.54,7.84-.09,11.7.83,6.98,1.66,14.36.58,21.2,3.16-.34,4.97-4.6,5.39,2.11,7.94,1.88.71,13.84-1.34,14.42.57,1.11,3.72-4.53,2.11-.23,6.08.79.73,6.76-.96,8.76.11,2.57,1.37,2.84,6.24,4.63,7.06,4.28,1.94,1.55-1.25,4.3-1.3.19-1.86,1.11-2.72,2.75-2.59.57.7,1.13,1.41,1.7,2.11.2.06,6.06,3.99,6.41,4.4.85.99,1.71,4.16,2.78,5.61,1.58,2.14,6.52.31,5.22,4.75-.9,3.56.43,4.89,3.99,3.99,1.81.62,2.84-2.8,3.81-1.57,2.65,3.35,9.04,1.47,9.75,7.23.02.16.91.22,1.39.32.19,3.38,5.07,3.41,4.99,6.98.09,1.91,1.08,2.9,2.99,2.99,2.83.49,3.99,2.66,4.99,4.99.04,3.39,6.13,4.47,7.7,7.62,1.82,3.66-.85,7.28,2.89,10.24,3.59,2.83,6.22,1,9.54,4.56,1.95,2.09,4.77,7,5.16,9.86.32,2.36-2.07,3.85-1.12,6.44.73,1.99,3.22,2.37,4.2,3.92,1.97,3.13,3.15,4.65,3.16,9.52,0,2.26-2.04,9.8-.46,11.6,3.82,4.34,3.2-1.61,6.27-2.32-.23,2.44,2.33,3.48,2.75,5.58.43,2.15-.56,4.82-.59,7.08-.04,4.06-.87,11.44,5.11,10.72-7.92,3.05-5.74,10.19-5.74,17.56,0,3.45-1.19,9.2-.01,12.54,1.33,3.77,4.86,3.76,5.05,7.88-.15,2.64.44,5.36-.88,7.87,0,.34,0,.69,0,1.03-1.58,1.78-1.22,3.88-1,5.96Zm-85.75-32.61c-.1-3.52-13.18-16.05-14.41-10.33-.39,1.81,15.61,14.3,14.41,10.33Zm-136.46-127.35c4.74,1.69,2.96-11.06-4.62-2.5-6.83,7.71,3,1.59,4.62,2.5Zm75.85-35.03c.05-.33.09-.66.14-.99-9.85-2.65-10.03,3.4-.14.99Zm-59.14,15.52c-4.78.03-.37,4.84-.37,5.22,0-.41,6.3-4.93.37-5.22Zm72.34-12.36c-.79-.84-1.83-1.6-3.19-1.48-4.45.4,2.98,7.39,3.19,1.48Zm-81.65,16.88c1.43-.14,1.69-1.41,2.01-2.43,1.44-4.55-7.74.62-2.01,2.43Z"/>
  <path class="cls-9" d="m171.68,88.84c2.81.88,5.3-.83,7.98-.97,6.29.08,12.58.16,18.87.24.4.92,1.33.78,2.06,1.04-.14,6.06-7.42.57-10.35.7-3.71.16-9.72,2.38-13.45,3.23-4.89,1.11-5.86,5.5-9.46,6.7-1.82.61-5.02-1.33-7.46-1.37-3.51-.07-10.61,2.31-13.83,3.86-2.58,1.24-4.05,3.94-6.72,5-1.65.65-3.89-.34-5.53.25-7.22,2.62-11.53,8.87-14.97-1.57v-15.96c.35-2.51,3.19-5.13,4.07-7.6,1.22-3.42-.21-8.29.96-11.29,1.86-4.76,8.8-11.54,11.95-15.83,7.25-9.85,19.2-18.12,30.14-22.67,14.5-6.03,31.72-10.88,47.84-8.75,5.78.76,9.38,3.22,15.12,3.31,4.04.06,7.47-1.46,11.62-.33,4.01,1.08,6.72,3.91,10.75,4.9,3.33.82,7.21-.22,10.79.72,4.3,1.12,7.35,3.73,11.21,5.66,4.59,2.29,9.31,2.72,13.85,4.67.1.04,5.8,3.95,6.48,4.33,2.39,1.38,5.13,1.95,7.56,3.72,5.69,4.14,9.8,9.44,15.76,13.41,12.18,8.11,19.85,19.57,29.47,30.14,4.26,4.68,6.27,8.25,9.63,13.27,2.64,3.95,7.08,9.6,7.56,15.61,4.16.77,1.62-3.35,4.11,1.34.41.78-.11,4.63.21,5.91.73,2.98,3.46,4.75,4.65,7.52,2.91,6.78,5.26,21.64.75,26.76-.38-.72-.95-1.4-1.1-2.16-2.65-13.78-7.79-26.59-14.81-38.69-4.85-15.86-19.87-31.95-31.42-43.35-13.44-13.26-30.39-27.47-48.6-33.34-13.23-7.76-27.82-11.35-42.7-14.16-6.99-1.32-14.19-1.15-21.07-3.15-5.02-1.41-10.03-1.35-15.04.03-34.82,6-64.1,24.42-72.58,60.99-1.46,4.84-2.85,9.69-1.73,15.51,2.58-1.73,4.64-3.11,6.69-4.49,2.64.31,4.1-1.7,5.92-3,1.27.31,1.98-.72,2.93-1.2,5.53-1.39,10.77-3.57,16.01-5.78.31,0,.6-.08.88-.23,5.19-.03,9.86-2.66,15-2.95Z"/>
  <path class="cls-9" d="m230.51,313.43c1.41,2.93,6.49.52,6.98,4.8-4.87,2.23-10.22,1.73-15.26,2-16.34.86-32.17-2.35-47.54-7.88-16.49-7.21-31.1-17.09-43.64-30.08-2.18-2.26-2.86-5.86-6.27-6.96-.36-.6-.71-1.2-1.07-1.8.08-.69-.3-.96-.91-1.02-.6-1.12-1.49-2.17-1.76-3.37-.85-3.77-5.26-6.08-4.22-10.57,4.1,1.93,5.96,6.13,9.13,8.99,4.86,6.8,12.16,10.6,18.74,15.28.95.58,1.9,1.17,2.84,1.75,12.97,8.98,27.37,13.82,43.07,14.93,7.35,1.54,14.7,1.63,22.05.04,3.76-.01,7.53-.01,10.94-1.96,3.34,0,6.47-1.07,9.54-2.15,11.02-3.88,21.57-8.64,30.14-16.91.37-.35.74-.71,1.11-1.06,5.6-2.87,9.18-7.86,13.16-12.45,1.41-1.62.64-3.04-.31-4.47-13.88-24.4-34.39-38.67-62.69-41.04,1.34-7.33,21.25-3.63,25.43-1.87,10.69,4.49,22.69,13.89,30.59,22.09,7.69,7.98,16.87,16.62,11.78,28.15-3.44,7.8-11.42,12.66-17.39,18.71-3.81,3.86-4.02,3.97-8.96,5.89-4.86,1.9-8.54,5.62-13.46,7.26-5.24,1.74-10.36.45-15.37,3.5-4.71,2.86-5.16,5.17-11.07,5.5-3.61.2-30.15-4.61-30.98-.01-.41,2.27,19.53,5.86,21.45,4.73h23.93Z"/>
  <path class="cls-8" d="m357.39,123.95c7.02,12.1,12.16,24.91,14.81,38.69.15.76.72,1.44,1.1,2.16-.01.33-.02.67-.03,1,2,9.53,3.65,19.11,3.89,28.88,0,6.01,0,12.02,0,18.03-.32,5.39-.57,10.79-2.02,16.04-.19-4.13-3.73-4.11-5.05-7.88-1.17-3.34.01-9.09.01-12.54,0-7.37-2.18-14.51,5.74-17.56-5.98.71-5.15-6.67-5.11-10.72.02-2.26,1.02-4.93.59-7.08-.43-2.1-2.98-3.14-2.75-5.58-3.08.7-2.45,6.66-6.27,2.32-1.58-1.79.47-9.33.46-11.6,0-4.87-1.19-6.39-3.16-9.52-.98-1.56-3.47-1.93-4.2-3.92-.95-2.59,1.44-4.08,1.12-6.44-.39-2.86-3.22-7.77-5.16-9.86-3.32-3.56-5.95-1.73-9.54-4.56-3.74-2.95-1.07-6.58-2.89-10.24-1.57-3.14-7.66-4.23-7.7-7.62,6.64-.17-1.59-12-4.99-4.99-1.91-.09-2.9-1.09-2.99-2.99,4.99-1.5.96-7.59-2.03-8.91-1.22.26-2.21.9-2.96,1.93-.48-.11-1.37-.16-1.39-.32-.71-5.76-7.11-3.88-9.75-7.23-.97-1.23-2,2.18-3.81,1.57.21-2.87-1.12-4.2-3.99-3.99,1.3-4.43-3.63-2.6-5.22-4.75-1.07-1.45-1.93-4.62-2.78-5.61-.35-.41-6.21-4.34-6.41-4.4-.57-.7-1.13-1.41-1.7-2.11-1.64-.13-2.56.73-2.75,2.59-2.74.05-.02,3.24-4.3,1.3-1.79-.81-2.06-5.69-4.63-7.06-2-1.07-7.97.62-8.76-.11-4.31-3.96,1.33-2.36.23-6.08-.57-1.91-12.54.14-14.42-.57-6.71-2.55-2.45-2.97-2.11-7.94,10.58,2.32,20.8,5.8,30.91,9.64,16.73,8.69,32.64,17.41,46.74,30.13,4.04,3.64,34.37,36.95,33.28,37.92Z"/>
  <path class="cls-9" d="m195.56,218.48c-11.44-.31-22.14-3.67-32.71-7.72-15.98-6.12-29.03-16.46-41.09-28.25-13.49-19.37-19.87-36.46-26.8-58.71-.07-1.29-.15-2.59-.22-3.88.12-.35.23-.69.35-1.04,1.34-6.28,1.3-12.57.03-18.86-1.04-2.47,1.24-4.66.61-7.1.77-4.28,1.54-8.57,2.31-12.85,1.52-.62.57-1.98.88-2.96,2.19-5.22,4.37-10.45,6.56-15.67-8.09,3.96-14.81,9.8-21.53,15.64-.34-2.01-.67-4.02-1.01-6.03,2.11-7.63,18.05-19.17,26.21-15.62,6.79,2.96,4.17,6.34,1.11,11.8-4.47,7.97-7.03,12.72-6.29,22.06.24,3.05,1.57,6.57,1.23,9.63-.19,1.75-4.04,7.61-4.02,8.34.17,4.55,4.01,7.07,4.61,11.99.81,6.66-2.39,13.75-.64,20.33,1.56,5.89,9.3,9.63,8.69,16.27-.3,3.06.02,5.48,4.14,5.09,1.77-.17,2.14,1.66,2.84,2.89-2.61,2.99,8.51,20.23,10.97,19.95,1.37,2.26,2.66,4.65,5.98,3.99,9.58,8.83,20.17,15.87,32.83,19.89,8.46,2.68,24.76-4.45,26,9.82-.35.34-.7.69-1.05,1.03Z"/>
  <path class="cls-6" d="m183.68,377.16c-1.66,0-3.33.02-4.99.03-1.73-1.44-3.96-1.52-5.97-1.82-16.74-2.54-32.29-8.52-47.34-16-13.56-6.74-25.76-15.53-37.37-25.18-14.35-13.84-27.5-28.62-36.41-46.7-.43-2.71-1.94-4.87-3.59-6.96-.03-.37-.06-.75-.09-1.12.45-.79.71-1.37.32-2.52-1.25-3.7-2.04-7.55-3.01-11.35.27,0,.54,0,.81,0,4.34,1.83,7.41-4.33,10.25-1.98,1.73,1.44-1.42,4.08-1.52,5.6-.06.79.56,8.3.75,9.1,1.16,4.9,3.21,5.33,6.07,8.87,3.43,4.25,3.08,6.9,5.14,11.27,2.28,4.83,2.51.98,5.64,4.58,4.78,5.51,8.43,12.82,13.4,17.92,1.08.22,2.17.34,3.27.35,1.1,1.67,2.2,3.34,3.27,5.02,2.57,2.31,8.31,5.49,10.28,7.72,2.05,2.32,2.29,7.87,3.64,9.08.56.5,8.31,1.63,9.92,2.16,6.12,2.03,12.92,5.11,17.71,7.72,4.1,2.24,5.31,3.87,10.66,5.2,5.15,1.28,9.99,2.46,13.21,7.13.41,1.61-1.09,4.21,1.4,4.65,2.11.37,1.53-2.52,2.59-3.65,3.04-1.48,5.95-1.06,9.11-.03,5.42,1.76,11.01,2.98,16.81,2.03,1.85,1.19,3.93,1.02,5.98,1,2.36,2.54,5.77,4.5,4.99,8.82-5.05.87-9.95-.58-14.92-.94Z"/>
  <path class="cls-9" d="m230.45,110.1c-7.44-.74-14.8-2.06-22.31-2.21-20.51-.42-39.29,4.94-56.4,16.23-3.23,1.51-5.35,4.69-8.82,5.83-3.32.69-7.79.23-6.1,6.01q-5.85,6.85-1.38,15.03c.37.68.87,1.3,1.31,1.95,14.12,20.92,33.33,33.51,58.77,35.9.08.24.14.48.17.73,2.36,4.91,3.06,5.04-2.06,4.16-3.58-1.99-6.53-1.15-8.97,1.99-4.69,1.27-8.1,2.26-6.75-3.77-4.52-.33-4.23-2.16-7.43-4.45,1.01.72-8.01-4.08-6.09-3.69-2.48-.5-2.48,4.85-4.77,3.58-2.23-1.24-.34-4.8-3.89-6.63-2.02-2.36-2.65-6.33-6.98-5.98-1.71-2.63-3.57-.58-5.45-2.39-2.06-1.97.36-3.94-1.52-6.12-7.22-8.35-11.31-7.45-14.06-18.95-1.9-7.95-1.26-11.42,5.7-17.77,2.32-2.12,5.01-4.32,7.22-6.17,2.79-2.32,4.05-2.52,7.17-4.45,13.6-8.42,27.5-13.61,44.17-15.25,8.76-.86,17.16.21,25.98-.21,6.52-.31,15.01-2.79,12.5,6.63Z"/>
  <path class="cls-9" d="m183.68,377.16c4.97.37,9.87,1.82,14.92.95,9.5,1.02,18.69-1.19,27.94-2.73,5.02-.7,9.87-1.88,14-5.05v.02c2.47-.11,4.51-1.11,6.15-2.96,2.92-2.02,5.84-4.05,8.76-6.07,1.42,0,2.32-.71,2.8-2.01,3.69-3.72,7.39-7.44,11.08-11.16,4.48-4.05,6.77-9.48,9.29-14.77,2.81,1.58,1.02,4.97,2.75,6.98-.13,1.89-.5,13.87-2.19,14.24-3.88.85-2.02-4.4-4.96-3.82-5.48,1.08-.46,8.67-2.18,11.15-1.85,2.67-5.89,2.24-7.84,4.18-1.01,1,1.18,3.54-.89,4.52-2.71,1.29-1.17-.72-2.75-.69.13,0-1.39-3.6-2.25-3.62-2.13-.04-5.48,4.13-6.66,5.4-1.98,2.13-4.36,7.5-6.4,8.53-2.8,1.42-16.39.65-19.36-.58-5.43,12.58-42.11,14.2-42.21-2.49Z"/>
  <path class="cls-9" d="m333.31,318.46c.31-.32.63-.63.94-.95,2.39-.92,2.99-3.42,4.47-5.15,10.94-12.82,19.09-27.33,25.58-42.83,2.03.31,3.38,1.72,4.82,2.99.44,5.33-4.38,5.65-4.76,9.33-.13,1.28,8.36,3.4,1.35,8.74-2.18,1.66-4.16-1.36-6.86.84-1.33,1.08-.81,5.46-1.79,7.29-1.42.33-2.81.77-4.15,1.33-.1.83,0,1.64.27,2.43-1.58,3.01.21,7.25-1.99,10.77-1.02,1.55-2.5,2.53-4.43,2.95-1.38,1.52-2.15,3.31-2.33,5.37-3.01,2.42-6.48,3.44-9.51,5.81-6.32,4.94-14.74,19.52-22.9,20.66-7.04.98-11.98-2.24-11.94-8.42.03-4.12,4.41-10.46,6.26-14.06,3.14-6.11,1.76-5.15,7.77-6.14-.46,2.19-7.27,19.29-6.56,20.46,2.02,3.33,9.83-4.39,11.74-7.33,5.98-3.4,9.86-8.89,14.02-14.09Z"/>
  <path class="cls-9" d="m246.46,196.57c1,.34,2,.69,2.99,1.03,2.31,1.08,4.62,2.16,6.92,3.24,4.13,2.97,9.11,4.55,12.97,7.97,2.66,2,5.32,4,7.98,6,7.27,5.7,12.6,13.23,18.84,19.9,8.53,13.23,14.17,27.76,19.09,42.62-1.56.63-.67,2.15-1.14,3.18-2.95-1.87-5.92-.28-7.67-3.61-.74-1.41.66-6.56-.08-9.02-.98-3.23-3.53-5.04-4.8-7.91-1.23-2.79-1.49-7.83-2.69-9.98-.9-1.6-5.1-3.75-5.24-4.1-.25-.63.56-3.88.42-4.14-.58-1.1-5.01-10.29-9.05-9.54-.23-2.31,2.54-.78,2.51-3.13-8.13.61-13.73-7.24-19.59-11.74-3.95-3.04-6.11-2.85-9.91-5.05-3.72-2.15-2.38-2.66-5.31-4.88-.27-.99-.55-1.99-.82-2.98-1.45-1.53-3.13-1.71-5.04-.55-2.34-.78-4.49-.99-7.51-2.23-3.61-1.49-22.57-5.26-23.76-6.92-1.72-1.56-5.71-.77-4.99-4.84,1.35-.09,2.71-.18,4.06-.27,2.23.83,4.48,1.55,6.91.96,6.83.52,13.33,2.56,19.89,4.29,1.55.93,3.16,1.72,5.03,1.7Z"/>
  <path class="cls-9" d="m41.21,140.88c-4.13,9.3-6.36,19.19-9.01,28.95-13.73-1.85,9.27-42.88,11.56-49.74,2.02-6.05,1.49-7.27,5.79-12.75,4.19-5.33,7.25-11.43,11.35-16.81,4.27-5.59,14.66-19.95,22.02-19.5.34,2.01.67,4.02,1.01,6.03-5.11,6.06-11.3,11.1-16.08,17.49-6.72,8.97-13.77,17.7-17.98,28.26l.03-.03c-4.11,4.25-5.11,10.08-7.68,15.11-.34.99-.69,1.99-1.03,2.98Z"/>
  <path class="cls-9" d="m256.48,120.81c-7.03-4.76-15.18-6.88-23-9.79-.24-4.18,4.6-1.77,4.54-4.27-.07-3.1-9.33-6.13-11.59-6.8-10.76-3.22-14.44-.44-20.85-10.78,5.82-.02,11.17,2.61,16.92,3.01,26.06,7.74,47.65,21.79,63,44.64-1.05.49-2.29,1-2.93-.32-1.25-2.61-3.38-1.6-5.3-1.58-4.57-3.41-8.73-7.39-13.83-10.08-2.17-1.6-4.14-3.57-6.97-4.03Z"/>
  <path class="cls-9" d="m88,334.19c11.61,9.65,23.81,18.44,37.37,25.18,15.05,7.47,30.6,13.46,47.34,16,2.01.31,4.24.39,5.97,1.82-2.91,3.45-8.99,4.29-14.99,2.07-6.79-7.05-4.88.33-10.21-.18-2.79-.27-3.58-3.71-6.75-3.81-6.76-3.65-10.29-2.16-16.91-3.26-7.1-1.17-1.67-3.18-6.45-6.74-3.11-2.32-7.97.61-10.94-1-5.01-2.73-1.74-1.7-.15-5.62-9-4.37-22.39-8.7-27.37-18.29,1.03-2.06,2.05-4.11,3.08-6.17Z"/>
  <path class="cls-9" d="m281.36,340.36c-1.73-2.01.06-5.4-2.75-6.98.13-2.73,3.22-4.76,1.82-7.85,3.86-3.93,4.46-8.95,4.76-14.08,1.33-1.47,1.37-3.2.99-5.01.17-1.94.47-3.89-.38-6.34-6.21,4.22-13.03,6.91-19.39,10.49-7.82,2.8-15.5,6.1-23.94,6.63-3.52-7.57,16.65-10.87,21.84-13.06,6-2.54,18.85-12.5,25.56-8.69,7.17,4.07-.16,22.52-.95,28.74-1.04,8.21,1.6,13.68-7.56,16.14Z"/>
  <path class="cls-9" d="m88,334.19c-1.03,2.06-2.05,4.11-3.08,6.17-6.95.34-8.28-3.35-11.47-8.66-1.69-2.83-3.89-5.82-6.23-8.02-2.05-.11-4.06-.44-6.04-.99-.71-1.49-.87-3.01-.48-4.56-2.18-4.63-4.84-9.24-7.84-13.1-4.01-5.15-9.79-12.02-8.82-19.53,2.52.66,5.04,1.33,7.55,1.99,8.91,18.08,22.06,32.86,36.41,46.7Z"/>
  <path class="cls-9" d="m375.14,228.75c1.45-5.25,1.69-10.65,2.02-16.04,1.58-6.01,1.56-12.02,0-18.03-.24-9.77-1.89-19.35-3.89-28.88,5.79.42,2.91-5.13,6.51-6.45,6.75-2.48,1.78,4.53,2.08,5.77.16.66,3.07,4.92,3.06,5.65-.02,1.41-1.83,3.63-1.73,4.39.09.7-1.86,1.97-1.77,3.28.12,1.71,3.47,3.34,3.78,5.65.51,3.79-2.09,7.98-1.67,12.5.7,7.48,1.65,14.59,1.3,22.14-.18,3.91.14,7.89-2.1,11.23-.14.21-8.07,6.64-8.47,6.66,1.32-2.51.73-5.23.88-7.87Z"/>
  <path class="cls-9" d="m31.25,176.77c-.69,4.91-1.3,9.84-2.11,14.73-.21,1.3.57,2.12.8,3.19-1.53,5.35-1.3,10.69,0,16.04-.96,4.61.26,9.16.64,13.7.12,1.37.38,2.79.32,4.21-12.95.07-15.15-54.26,1-53.86-.22.67-.44,1.33-.66,2Z"/>
  <path class="cls-9" d="m31.13,231.51c1.98,7.85,3.81,15.74,5.99,23.53,1.45,5.21,3.39,10.29,5.11,15.42-2.05.02-4.11.04-6.16.06.27-2.76-.45-4.95-2.47-7.13-3.53-3.8-3.25-9.12-4.51-13.82,0-4.99,0-9.97,0-14.96.68-1.04,1.36-2.07,2.04-3.11Z"/>
  <path class="cls-9" d="m314.32,282.37c2,7.53,2.92,15.26,1.39,22.85-.69,3.44,1.02,7.17-1.41,10.29-.51-1.93-4.07-3.84-5.04-7.03-1.17-3.87-1.29-14.84-1.05-18.53.11-1.61-2.07-3.25-.48-4.77,1.65-1.57,2.46.61,2.95.36,1.52-.8,3.46,4.36,3.64-3.17Z"/>
  <path class="cls-9" d="m369.11,272.53c-1.43-1.27-2.79-2.68-4.82-2.99,2-5.62,4.7-11,5.69-16.96.78-2.31,1.57-4.61,2.35-6.92,4.5,4.61,2.03,23.52-3.22,26.87Z"/>
  <path class="cls-8" d="m222.5,92.17c-5.75-.39-11.1-3.02-16.92-3.01-1.66,0-3.32-.01-4.99-.02-.73-.26-1.66-.12-2.06-1.04.01-.37.03-.74.04-1.1,2.82.34,4.79-.34,6.33-3.21,1.04-1.93,3.33-4.6,5.89-.86.31.45,1.24,1,1.53.85,4.3-2.34,6.36,1.57,9.21,3.22-.16,1.81.18,3.53.96,5.17Z"/>
  <path class="cls-9" d="m51.6,287.49c-2.52-.66-5.04-1.33-7.55-1.99-5.83-1.02-6.52-5.13-5.98-9.97,1.93-.66,3.86-1.33,5.79-1.99,1.11,1.96,2.21,3.93,3.32,5.89-.14.69.22,1,.84,1.11,1.65,2.08,3.16,4.24,3.59,6.96Z"/>
  <path class="cls-9" d="m373.26,243.6c-.21-2.08-.58-4.18,1-5.96,3.54,2.15,4.62,0,5.23-3.85,1.09,3.61,6.62,5.76,4.47,9.17-.71,1.13-9.44,1.64-10.7.64Z"/>
  <path class="cls-9" d="m146.75,375.27c3.17.1,3.96,3.54,6.75,3.81,5.32.51,3.41-6.87,10.21.18-1.9-.46-3.72-.86-5.71.02-4.93,2.18-8.9,1.27-11.24-4.01Z"/>
  <path class="cls-9" d="m43.85,273.53c-1.93.66-3.86,1.33-5.79,1.99-1.59-1.29-2.06-3.03-1.99-4.99,2.05-.02,4.11-.04,6.16-.06.54,1.02,1.08,2.04,1.62,3.06Z"/>
  <path class="cls-9" d="m230.51,313.43h-23.93c7.98-1.65,15.95-1.65,23.93,0Z"/>
  <path class="cls-9" d="m148.74,174.78c4.33-.35,4.96,3.63,6.98,5.98-3.08-.08-6.98.87-5.69-4.65.08-.33-.84-.89-1.29-1.34Z"/>
  <path class="cls-9" d="m210.57,189.88c-.72,4.07,3.27,3.28,4.99,4.84-1.74.21-5.97,2.58-7.38.26-1.22-2,2.25-3.02,1.4-5.1.33,0,.66,0,1,0Z"/>
  <path class="cls-8" d="m210.57,189.88c-.33,0-.66,0-1,0-1.33,0-2.66,0-3.99,0-1.66,0-3.32,0-4.99,0-1.64-.11-3.28-.21-4.92-.32-.03-.25-.09-.49-.17-.73,3.75-.03,7.52-.31,11.25,0,2.62.21,5.5-1.74,7.87.78-1.35.09-2.71.18-4.06.27Z"/>
  <path class="cls-9" d="m184.64,195.72c2.44-3.14,5.39-3.99,8.97-1.99-2.49,2.94-6.01,1.2-8.97,1.99Z"/>
  <path class="cls-7" d="m195.56,218.48c.35-.34.7-.69,1.05-1.03,4.12.08,8.25.09,12.37.27,1.53.07,3.37-.74,4.49,1.12-5.97-.12-11.93-.24-17.9-.36Z"/>
  <path class="cls-9" d="m120.82,163.8c-.7-1.22-1.07-3.06-2.84-2.89-4.11.39-4.44-2.03-4.14-5.09,1.18,1.53,1.03,4.26,4.53,3.57,1.48-.29,4.21,1.47,2.45,4.41Z"/>
  <path class="cls-9" d="m118.83,89.99v15.96c-1.63-5.32-1.63-10.64,0-15.96Z"/>
  <path class="cls-9" d="m137.77,187.74c-3.32.66-4.61-1.73-5.98-3.99,3.25-.56,5.01,1.13,5.98,3.99Z"/>
  <path class="cls-9" d="m29.08,234.63v14.96c-1.62-4.99-1.62-9.97,0-14.96Z"/>
  <path class="cls-9" d="m200.59,189.89c1.66,0,3.32,0,4.99,0,.07,1.74-.44,2.85-2.49,2.85-2.05,0-2.57-1.11-2.49-2.85Z"/>
  <path class="cls-8" d="m222.5,92.17c-.79-1.64-1.12-3.36-.96-5.17,2.44.14,7,2.22,9.31,1.93,3.87-.49,6.18-4.75,10.64-1.93,1.45,3.71,3.68,6.53,7.98,6.98,1.22,1.58,5.52,1.57,7.11,2.62,2.76,1.82,1.57,4.75,5.86,6.36.15,2.57,2.74,1.89,3.99,2.99,1.33,1.66,2.66,3.32,3.99,4.99.28,1.83.72,3.85,2.52,4.47,1.62.57,1.77-1.49,2.47-2.48,6.65-3.66,1.46,5.39,1.39,5.88-.23,1.69,9.13,1.66,10.05,2.13,2.76,1.42,2.41,3,4.65,5.48,3.84,4.25,3.83,4.81,5.96,10.05-.59,1.76-.34,3.37.77,4.83,1.03.27,2.06.54,3.08.81,2.08.09,3.39,1.17,3.94,3.22.34,2.12-.53,3.46-2.61,4.03.31,2.68-.22,3.83,3.09,7.08,6.37,6.26,10.34,7.5,6.42,17.77-2.26,5.93,4.94,1.7-4.51,5.52-3.58,1.45-13.11,2.97-16.11-.47-3.23-3.69.79-6.09.07-9.7-.84-4.22-2.75-4-5.16-7.14-2.02-2.63-2.91-6.19-5.28-8.34-1.47.7-3,1.14-4.61,1.32-.82-.81-1.19-1.8-1.12-2.97.09-2.24-.97-3.42-3.18-3.56-1.67.27-3.11-.13-4.32-1.22-1.12-1.65.88-4.63.49-6.81,2.02,3.02,4.18,5.7,6.96,8.28,3.75,3.49,5.68,4.52,9.09.66,6.26,4.92,10.57,11.58,16.16,18.83-.63-5.22-2.07-8.7-4.18-11.95-1.96-7.56-6.02-13.95-10.94-19.88-15.35-22.86-36.94-36.91-63-44.64Zm30.63,9.23c1.47.28,2.35-.57,2.61-1.69,1.21-5.24-8.5,2.17-2.61,1.69Z"/>
  <path class="cls-8" d="m214.63,189.62c-2.38-2.53-5.25-.57-7.87-.78-3.72-.3-7.5-.02-11.25,0-25.43-2.4-44.64-14.98-58.77-35.9,8.22-9.53,18.18-16.85,29.06-23.01,5.37-2.13,10.63-4.49,16.18-6.2,1.62-.5,3.04-.96,4.68-.65.75,1.9,2.71,1.58,4.47,2.33-.69.99-2.79,6.49-2.46,6.27-1.96,1.27-8.35-1.03-10.57-.59-5.61,1.1-20,8.99-21.38,14.76-1.46.83-4.38-.29-3.99,2.99.73,3.41-2.68,6.9-.41,10.36,1.79,2.72,5.74.59,6.84,2.47,2.09,3.57-.93,4.77,1.83,8.39,1.82,2.38,10.06,6.75,12.96,8.45,8.26,4.86,18.25,5.7,27.78,5.18,7.84-.43,24.22-4.56,19.81,6.89-2.43.59-4.68-.13-6.91-.96Z"/>
  <path class="cls-8" d="m319.29,332.55c-1.3-2.68-.13-5.5.29-7.98.4-2.36.46-4.72.75-7.07,1.61-5.04,1.56-10.08,0-15.13-.32-7.46-1.79-14.72-3.86-21.87,12-.57,11.38.83,11.83,11.67.36,8.6-3.11,20.1,5.02,26.29-4.17,5.2-8.05,10.69-14.02,14.09Z"/>
  <path class="cls-8" d="m369.98,252.58c-.98,5.96-3.69,11.34-5.69,16.96-6.49,15.5-14.64,30.01-25.58,42.83-1.47,1.72-2.07,4.23-4.47,5.15.47-9.99,4.93-14.81,6.49-24.22,3.72,7.7,5.69-.21,8.92-.14-1.89-5.3-3.56-4.88.58-10.18,3.2-4.1,6.2-5.07,8.33-10.29,2.26-5.52,2.75-12.49,5.79-17.91,2.62-4.68-.49-5.79,5.62-2.2Z"/>
  <path class="cls-8" d="m316.47,279.47c-.2-.84-.14-1.82-1.23-2.14-4.91-14.86-10.56-29.38-19.09-42.62,3.02-1.52,12.81,2.74,14.93,5.31,3.63,4.39-.27,8.76,1.24,14.47,1.15,4.34,4.95,8.79,6.33,12.37.84,2.17,2.57,1.67,2.68,4.9.06,1.82-4,6.2-4.86,7.71Z"/>
  <path class="cls-8" d="m284.45,149.81c-3.41,3.86-5.34,2.83-9.09-.66-2.78-2.59-4.94-5.26-6.96-8.28-2.2-.34-10.93-1.39-12.04-1.99-4.41-2.39-2.29-7.56-5.02-10.84,0,0,.13-.17.13-.17,6.21,1.51,11.08,5.8,16.88,8.16,1.41.94,2.81,1.89,4.22,2.83,3.24,2.71,6.48,5.42,9.72,8.13.72.94,1.44,1.88,2.16,2.81Z"/>
  <path class="cls-8" d="m171.68,88.84c-5.13.3-9.81,2.92-15,2.95-3.56-9.1,2.29-14.31,11.07-12.73,1.63.29,7.08,1.55,7.7,3.65.81,2.71-2.66,3.72-3.78,6.13Z"/>
  <path class="cls-8" d="m227.52,121.04c5.9.09,11.19,3.05,16.99,3.63,2.32,1.07,4.64,2.14,6.96,3.2,0,0-.13.17-.13.17-2.24.36-2.8,4.19-5.87,2.85-1.66.16-3.32,1.4-4.99,0-.36-3.72-5.19.91-6.74.37-3.78-1.33-6.17-6.54-6.22-10.21Z"/>
  <path class="cls-8" d="m287.51,210.99c1.21,3.97-14.79-8.52-14.4-10.33,1.23-5.72,14.31,6.81,14.4,10.33Z"/>
  <path class="cls-8" d="m210.55,120.08c4.34.18,8.79-1.25,12.98.96.02,5.94-17.58,4.74-12.98-.96Z"/>
  <path class="cls-8" d="m155.8,92.02c-5.23,2.21-10.48,4.39-16.01,5.78,1.58-6.61,4.48-8.2,11.12-6.31,1.55.44,3.25.37,4.88.53Z"/>
  <path class="cls-8" d="m256.38,200.84c-2.31-1.08-4.62-2.16-6.92-3.24.6-4.84,1.53-9.55,7.38-6.27.22,1.61-5.14,2.65-4.16,4.29,2,3.34,4.54-.3,3.7,5.22Z"/>
  <path class="cls-8" d="m151.06,83.65c-1.63-.92-11.45,5.19-4.63-2.51,7.58-8.56,9.37,4.19,4.63,2.51Z"/>
  <path class="cls-8" d="m191.55,121.88c3.9-1.35,7.94-1.77,12.03-1.8-.99,3.7-5.11,5.19-9.58,3.38-.89-.36-1.64-1.04-2.45-1.58Z"/>
  <path class="cls-8" d="m318.26,90.99c.75-1.03,1.74-1.67,2.96-1.93,2.98,1.32,7.02,7.41,2.03,8.91.08-3.58-4.79-3.61-4.99-6.98Z"/>
  <path class="cls-8" d="m326.24,100.96c3.39-7.01,11.63,4.82,4.99,4.99-1-2.32-2.16-4.49-4.99-4.99Z"/>
  <path class="cls-8" d="m249.46,93.98c-4.3-.45-6.53-3.27-7.98-6.98,4.77-.09,7.17,2.54,7.98,6.98Z"/>
  <path class="cls-8" d="m152.73,148.84c-.39-3.29,2.53-2.17,3.99-2.99,2.01.32,2.73-2.15,5.42-2.26-2.8,3.32-4.07,7.7-9.41,5.25Z"/>
  <path class="cls-8" d="m226.9,48.61c-9.89,2.41-9.71-3.64.14-.99-.05.33-.09.66-.14.99Z"/>
  <path class="cls-8" d="m266.41,105.95c-1.25-1.1-3.84-.42-3.99-2.99,3.16-3.8,10.48,2.36,3.99,2.99Z"/>
  <path class="cls-8" d="m142.92,76.03c.58-2.21,1.83-3.92,3.75-5.15,2.47,1.84,1.76,4.1.39,6-1.67,2.31-2.6-1.24-4.14-.85Z"/>
  <path class="cls-8" d="m130.95,102.01c-.53-2.97,1.51-5.29,2.04-8,1.92,1.17.85,4.68,3.88,4.99-1.82,1.31-3.28,3.31-5.92,3Z"/>
  <path class="cls-8" d="m167.77,64.13c5.92.3-.37,4.82-.38,5.23,0-.38-4.41-5.2.38-5.23Z"/>
  <path class="cls-8" d="m246.46,196.57c-1.88.02-3.48-.77-5.03-1.7,2.14-6.75,3.67-3.87,5.03,1.7Z"/>
  <path class="cls-8" d="m277.32,214.81c-2.66-2-5.32-4-7.98-6,3.55-1.13,6.47,1.06,7.98,6Z"/>
  <path class="cls-8" d="m275.38,112.93c-.7.99-.85,3.04-2.47,2.48-1.8-.63-2.24-2.65-2.52-4.47,1.76.43,4.34-1.21,4.99,1.99Z"/>
  <path class="cls-8" d="m198.58,87.01c-.01.37-.03.74-.04,1.1-6.29-.08-12.58-.16-18.87-.24,6.23-1.87,12.62-.44,18.92-.87Z"/>
  <path class="cls-8" d="m240.48,130.89c1.66,1.4,3.32.16,4.99,0,1.17,3.85-1.79,2.92-3.59,2.92-2.11.01-3.16-.89-1.39-2.92Z"/>
  <path class="cls-8" d="m299.31,81.01c2.86-.21,4.19,1.12,3.99,3.99-3.56.9-4.89-.43-3.99-3.99Z"/>
  <path class="cls-8" d="m208.57,42.28c1.66,0,3.32,0,4.99,0,.01,1.74-.2,3.63-2.36,3.62-2.06-.01-2.25-2.03-2.63-3.62Z"/>
  <path class="cls-8" d="m240.11,51.78c-.21,5.92-7.64-1.07-3.19-1.48,1.36-.12,2.4.64,3.19,1.48Z"/>
  <path class="cls-8" d="m158.46,68.66c-5.73-1.81,3.45-6.98,2.01-2.43-.32,1.02-.58,2.29-2.01,2.43Z"/>
  <path class="cls-5" d="m213.6,29.96c-5.01.01-10.02.02-15.04.03,5.01-1.38,10.02-1.45,15.04-.03Z"/>
  <path class="cls-6" d="m123.72,273.5c.36.6.71,1.2,1.07,1.8-4.37,2.2,17.86,26.9,20.84,29.73,10.45,9.92,22.92,17.5,36.04,23.34-5.04-.04-9.63,9.11-16.52,3.33-1.92-1.61-.75-5.73-2.48-6.8-1.59-.98-5.17.72-6.68.46-6.33-1.08-9.28-6.85-13.55-11.13-5.14-5.17-10.34-11.37-14.88-17.07-4.4-5.54-9.09-11.96-11.85-18.44-1.54-3.62-.3-3.83-2.35-7.25-2.06-3.44-4.58-4.44-5.98-8.51-1.05-3.06.32-5.75-1.55-8.61-1.78-2.73-5.07-1.68-6.18-5.54-2.44-8.51,5.7-11.18,12.18-11.21,2.51,2.59,9.28,7.07,9.24,10.92-.04,4.4-7.71,3.54-4.26,10.01-1.04,4.48,3.38,6.8,4.22,10.57.27,1.19,1.15,2.25,1.76,3.37-.07.67.21,1.04.91,1.02Z"/>
  <path class="cls-6" d="m263.28,278.51c-8.57,8.27-19.12,13.03-30.14,16.91-3.07,1.08-6.2,2.15-9.54,2.15,0,0-.11-.15-.11-.15,1.41-1.99,4.01-.51,3.66-3.78-.22-2.1-4.04-.42-4.34-.82-2.47-3.32-3.2-.77.89-3.36,6.4-4.06,5.26.54,10.27.65,1.91.04,1.53-3.1,3.55-3.11,2.38-.01,4.19.52,6.49,1.39-4.36-5.42,1.12-4.53,3.78-7.86,2.38-2.97,3.24-8.13,6.64-9.99,1.03.49,5.27.23,5.68.62,3.32,3.08-1.07,2.03-.99,3.5.07,1.33-4.41,4.13-.37,5.54-.46-.16,4.7-1.71,4.52-1.69Z"/>
  <path class="cls-6" d="m190.62,299.49c-15.7-1.11-30.1-5.94-43.07-14.93,3.91.5,6.37,2.77,9.4,2.16,3.44-.69-1.78-5.52,4.75-3.22.69,3.04,10.87,7.28,12.62,4.99,2.88-3.78,3.49-1.94,4.69,1.04,1.23,3.04,9.08,8.18,10.95,7.12,4.38-2.46,7.14-.62,9.62,2.79-2.99.02-5.98.03-8.97.05Z"/>
  <path class="cls-6" d="m274.42,260.46c.92.73,1.86.99,2.82.06.95,1.43,1.72,2.85.31,4.47-3.98,4.58-7.56,9.58-13.16,12.45-2.02-3.28,1.59-4.81,2.82-5.73,4.01-3.02,3.03-5.38.19-8.16-.14-2.21-1.46-3.04-3.51-2.99-2.22.06-3.51-1.21-4.47-3,.35-2.14,3.4-1.97,2.56-4.65-1.29-4.13-3.08.17-4.44-.96-2.32-1.93-6.57.22-.14-5.2,5.75,2.98,10.99,6.63,15.07,11.76-1.08,1.38-4.05,3.76-1.58,5.66,2.45,1.89,2.42-2.4,3.52-3.73Z"/>
  <path class="cls-6" d="m116.83,258.54c-3.45-6.47,4.22-5.61,4.26-10.01.04-3.84-6.73-8.33-9.24-10.92,9.89.2,8.01,5.5,10.95,11.93,2.44,5.33,8.5,5.47,8,13.01-1.94,1.34-2.12,4.39-4.83,4.98-3.18-2.86-5.03-7.07-9.13-8.99Z"/>
  <path class="cls-6" d="m125.96,267.54c2.71-.59,2.89-3.64,4.83-4.98,5.89.19,6.79,1.09,6.98,6.98,1.69,3.27,4.4,4.49,7.98,3.99-1.45,2.97-4.38,5.78-1.05,9.29-6.58-4.68-13.88-8.49-18.74-15.28Z"/>
  <path class="cls-6" d="m144.71,282.82c-3.33-3.51-.41-6.32,1.05-9.29,2.18.98,4.43,1.91,3.99,4.99-3.9,4.58,2.53,5.03,2.99,0,6.02-2.04,8.53-.65,8.97,4.99-6.54-2.3-1.31,2.53-4.75,3.22-3.03.61-5.49-1.66-9.4-2.16-.95-.58-1.9-1.16-2.84-1.75Z"/>
  <path class="cls-6" d="m267.4,263.55c2.84,2.78,3.82,5.14-.19,8.16-1.22.92-4.83,2.45-2.82,5.73-.37.35-.74.71-1.11,1.06.19-.02-4.98,1.53-4.52,1.69-4.04-1.41.44-4.21.37-5.54-.08-1.47,4.31-.42.99-3.5-.42-.39-4.65-.13-5.68-.62,1.68-2.13,5.45.33,6.64-3.19.97-2.87,3.46-3.78,6.32-3.8Z"/>
  <path class="cls-6" d="m223.61,297.57c-3.41,1.95-7.18,1.95-10.94,1.96-2.69-.03-5.38-.06-8.08-.09,3.24-2.44,6.38.03,9.62-.99,2.16-.68,2.17-2.71,3.55-3.34-.04.02,5.95,2.35,5.74,2.31,0,0,.11.15.11.15Z"/>
  <path class="cls-4" d="m204.59,299.44c2.69.03,5.38.06,8.08.09-7.35,1.59-14.7,1.5-22.05-.04,2.99-.02,5.98-.03,8.97-.05,1.67,0,3.34,0,5,0Z"/>
  <path class="cls-6" d="m204.59,299.44c-1.67,0-3.34,0-5,0-2.48-3.41-5.25-5.25-9.62-2.79-1.88,1.05-9.72-4.08-10.95-7.12-1.2-2.98-1.82-4.82-4.69-1.04-1.74,2.29-11.93-1.95-12.62-4.99-.45-5.64-2.95-7.03-8.97-4.99h-2.99c.44-3.08-1.81-4-3.99-4.99-.85-4.95-4.72-3.85-7.98-3.99-.19-5.9-1.09-6.79-6.98-6.98.5-7.54-5.56-7.67-8-13.01-2.94-6.43-1.06-11.73-10.95-11.93-6.48.03-14.62,2.7-12.18,11.21,1.11,3.86,4.39,2.81,6.18,5.54,1.87,2.86.5,5.54,1.55,8.61,1.39,4.07,3.91,5.07,5.98,8.51,2.04,3.41.8,3.63,2.35,7.25,2.76,6.47,7.45,12.9,11.85,18.44,4.54,5.71,9.73,11.91,14.88,17.07,4.27,4.29,7.21,10.05,13.55,11.13,1.51.26,5.09-1.44,6.68-.46,1.73,1.07.57,5.19,2.48,6.8,6.89,5.77,11.48-3.37,16.52-3.33,0,0,0,0,0,0-.07,4.64-3.65,7.05.14,10.79,2.49,2.46,11.66,2.3,14.8,1.19,1.66,1.48,3.32,1.48,4.99,0,1.8-1.69.68-3.88,1-5.82,2.66.66,5.32,1.33,7.98,1.99.86,2.68,1.57,5.9,4.96,1.96,1.49-1.73,3.38-.88,5.09-1.16,10.27,1.46,20.18-2.13,30.39-2.27,4.07-.06,8.11-2.82,12.41-3.5-3.84,3.9-2.34,7.25,1.45,10.2-6.96,3.61-7.42,5.36-3.54,11.63,3.27-.85,3.6-6.02,7.99-5.26-3.69,3.72-7.39,7.44-11.08,11.16-2.61-.14-4.05-3.55-7.14-2.61.59,2.44,3.03,2.99,4.33,4.62-2.92,2.02-5.84,4.05-8.76,6.07-2.6.68-5.09-.73-7.94-.76.72,1.5,1.25,2.61,1.78,3.73,0,0,0-.02,0-.02-13.7.63.49-4.47,1.34-6.41,2.88-6.55-6.48-.17-8.02.31-4.11,1.27-13.91.41-7.86,5.96,1.36,1.25,4.79-4.17,5.78-1.85,1.39,3.26-3.33,4.76-5.24,7.05-9.25,1.54-18.44,3.74-27.94,2.73.79-4.33-2.62-6.28-4.99-8.82-.09-2.46-1.91-3.34-3.84-3.62-1.62-.24-2.01,1.26-2.14,2.62-5.8.95-11.39-.26-16.81-2.03-3.17-1.03-6.08-1.45-9.11.03-1.05-1.46-2.61-.85-3.99-1-3.22-4.67-8.06-5.85-13.21-7.13-5.35-1.33-6.56-2.97-10.66-5.2-4.79-2.61-11.59-5.69-17.71-7.72-1.61-.54-9.37-1.66-9.92-2.16-1.35-1.21-1.59-6.76-3.64-9.08-1.97-2.23-7.7-5.4-10.28-7.72-1.08-1.68-2.17-3.36-3.27-5.02-1.1-.02-2.2-.13-3.27-.35-4.97-5.11-8.61-12.41-13.4-17.92-3.13-3.6-3.36.25-5.64-4.58-2.06-4.36-1.71-7.02-5.14-11.27-2.86-3.54-4.92-3.98-6.07-8.87-.19-.81-.8-8.31-.75-9.1.11-1.52,3.25-4.16,1.52-5.6-2.83-2.35-5.9,3.81-10.25,1.98,6.14-9.99.66-17.44.74-27.67.08-9.71,2.33-19.09,1.94-29.04-.34-8.45-2.39-23.29-.03-31.09.82-2.72,3.36-4.42,4.67-7,1.69-3.32,1.05-7.69,2.83-10.83,1.75-3.07,4.81-4.04,6.48-7.05,1.32-2.38.49-5.28,1.47-7.58,2.16-5.08,6.5-4.7,8.64-9.12,1.26-2.59-1.64-6.11-.63-8.62,1.35-3.37,5.25-4.83,7.86-7.14,9.04-8.01,4.17-2.43,14.74-.49.07,1.29.15,2.59.22,3.88-3.66,3.72-.76,8.47-1.94,12.64-.64,2.27-.55,4.97,1.74,6.85,1.06.87,1.2,2.02.14,3-3.97,3.66.07,6.06,2.05,6.62,4.31,1.23,3.7,4.01,4.01,7.11.49,4.94,1.35,9.91,7,11.97,1.72.63,2.15,2,1.44,3.63-.76,1.76-.48,3.58-.55,5.39-.15,3.86,3.26,5.1,5.63,6.07,2.32.95.19-3.26,2.83-3.85,1.71,2.87-3,7.13,1.28,9.17,2.86,1.36,5.42,4.81,9.31,2.29.33.33.65.67.98,1-14.53,5.27,5.92,17.81,11.68,22,1.08.78,7.43,4.13,7.67,4.44.78,1.01.72,5.72.43,5.45,4.38,3.92,15.81,1.98,21.85,1.98-1.3,1.24-5.9,2.61-6.52,4.43-.29.85,6.84,1.85,8.35,1.77-15.22.82,20.29.88,6.33-1.66,4.7.86,4.53,4.38,8.32,6.78,6.36,4.01-1.63.98,5.66.65,1.47-.07,1.97-4.21,4.36-2.7,2.55,1.61-1.74,3.89.42,6.18,1.38,1.47,4.09-2.38,5.59-2.27,4.01.29,5.59,3.04,9.81,2.87,3.14-.13,5.6-2.71,8.83-2.72,3.21-.02,6.25,2.2,9.62,2.73,1.63.25,9.14-1.18,10.65.06,1.73,1.42.64,3.92,1.89,4.84,4.21,3.11,10.76,3.36,15.6,7.06.96,1.79,2.25,3.06,4.47,3,2.05-.06,3.37.78,3.51,2.99-2.86.01-5.35.92-6.32,3.8-1.19,3.52-4.96,1.05-6.64,3.19-3.4,1.86-4.26,7.01-6.64,9.99-2.66,3.33-8.14,2.44-3.78,7.86-2.29-.87-4.1-1.4-6.49-1.39-2.02.01-1.64,3.15-3.55,3.11-5.02-.11-3.87-4.71-10.27-.65-4.08,2.59-3.36.04-.89,3.36.3.41,4.12-1.27,4.34.82.35,3.27-2.25,1.79-3.66,3.78.21.04-5.77-2.29-5.74-2.31-1.38.63-1.4,2.66-3.55,3.34-3.24,1.03-6.38-1.44-9.62.99Z"/>
  <path class="cls-6" d="m259.43,257.57c-4.84-3.7-11.39-3.95-15.6-7.06-1.25-.92-.16-3.42-1.89-4.84-1.51-1.24-9.02.2-10.65-.06-3.37-.52-6.41-2.74-9.62-2.73-3.23.02-5.69,2.6-8.83,2.72-4.23.17-5.81-2.58-9.81-2.87-1.49-.11-4.21,3.74-5.59,2.27-2.16-2.29,2.13-4.57-.42-6.18-2.38-1.51-2.88,2.64-4.36,2.7-7.29.33.7,3.36-5.66-.65-3.79-2.39-3.61-5.92-8.32-6.78,13.97,2.54-21.54,2.48-6.33,1.66-1.51.08-8.64-.92-8.35-1.77.61-1.81,5.21-3.18,6.52-4.43-6.04,0-17.47,1.93-21.85-1.98.3.27.35-4.44-.43-5.45-.24-.31-6.59-3.66-7.67-4.44-5.75-4.19-26.21-16.73-11.68-22,14.59,17.21,34.55,30.54,56.5,36.14,24.13,6.16,50.26.28,72.02,14.93-6.43,5.42-2.19,3.27.14,5.2,1.36,1.13,3.15-3.17,4.44.96.84,2.68-2.21,2.51-2.56,4.65Zm-128.88-56.7c-.21-1.15-.46-2.49-1.75-2.65-3.3-.41-1.24,9.04,1.75,2.65Z"/>
  <path class="cls-6" d="m127.91,194.69c-3.88,2.52-6.45-.93-9.31-2.29-4.28-2.04.43-6.3-1.28-9.17-2.64.6-.51,4.8-2.83,3.85-2.37-.97-5.78-2.21-5.63-6.07.07-1.81-.21-3.63.55-5.39.7-1.63.28-3-1.44-3.63-5.66-2.06-6.51-7.03-7-11.97-.31-3.1.3-5.88-4.01-7.11-1.98-.56-6.03-2.97-2.05-6.62,1.06-.98.92-2.14-.14-3-2.29-1.88-2.38-4.59-1.74-6.85,1.18-4.17-1.72-8.92,1.94-12.64,6.93,22.25,13.31,39.35,26.8,58.71-2,1.2-.25,1.95.24,3.02,1.52,3.36,4.78,5.57,5.91,9.16Z"/>
  <path class="cls-6" d="m274.42,260.46c-1.09,1.33-1.06,5.61-3.52,3.73-2.48-1.9.49-4.28,1.58-5.66.65.65,1.29,1.29,1.94,1.94Z"/>
  <path class="cls-8" d="m377.17,194.68c1.55,6.01,1.58,12.02,0,18.03,0-6.01,0-12.02,0-18.03Z"/>
  <path class="cls-6" d="m94.74,119.91c-10.56-1.94-5.7-7.52-14.74.49-2.61,2.31-6.5,3.78-7.86,7.14-1.01,2.51,1.89,6.03.63,8.62-2.14,4.42-6.49,4.05-8.64,9.12-.98,2.31-.16,5.21-1.47,7.58-1.66,3.01-4.73,3.97-6.48,7.05-1.78,3.13-1.14,7.51-2.83,10.83-1.31,2.57-3.85,4.27-4.67,7-2.36,7.8-.31,22.65.03,31.09.39,9.95-1.86,19.33-1.94,29.04-.08,10.23,5.4,17.67-.74,27.67-.27,0-.54,0-.81,0-2.84-7.98-4-16.37-4.95-24.67-.49-4.32-1.56-8.72-1.06-13.17,1.4-6.03,1.3-12.06.01-18.09-.48-1.73,1.64-3.12.63-4.92,2.61-32.53,14.52-61.52,33.6-87.73,5.53-7.59,11.72-14.66,18.36-21.31,1.12-1.12,1.93-2.8,3.91-2.75.64,2.44-1.64,4.63-.61,7.1-.01,6.29-.02,12.57-.03,18.86-.12.35-.23.69-.35,1.04Z"/>
  <path class="cls-10" d="m95.09,118.87c0-6.29.02-12.57.03-18.86,1.27,6.29,1.31,12.57-.03,18.86Z"/>
  <path class="cls-6" d="m187.63,368.29c.14-1.36.52-2.86,2.14-2.62,1.93.28,3.75,1.16,3.84,3.62-2.05.02-4.13.19-5.98-1Z"/>
  <path class="cls-6" d="m157.72,365.29c1.38.14,2.94-.47,3.99,1-1.06,1.13-.48,4.02-2.59,3.65-2.49-.43-.99-3.04-1.4-4.65Z"/>
  <path class="cls-6" d="m48.01,280.53c-.62-.11-.98-.43-.84-1.11.25.07.5.07.75,0,.03.37.06.75.09,1.12Z"/>
  <path class="cls-1" d="m142.91,129.95c-2.03,2-4.07,4.01-6.1,6.01-1.69-5.78,2.78-5.32,6.1-6.01Z"/>
  <path class="cls-6" d="m269.32,348.15c-4.39-.77-4.72,4.4-7.99,5.26-3.88-6.27-3.42-8.02,3.54-11.63-3.79-2.95-5.29-6.3-1.45-10.2,5.65-2.08,10.92-5.24,17.02-6.04,1.4,3.08-1.69,5.12-1.82,7.85-2.52,5.29-4.82,10.71-9.29,14.77Z"/>
  <path class="cls-6" d="m226.54,375.38c1.91-2.3,6.62-3.79,5.24-7.05-.99-2.32-4.41,3.1-5.78,1.85-6.05-5.54,3.75-4.68,7.86-5.96,1.54-.48,10.9-6.86,8.02-.31-.86,1.95-15.05,7.04-1.34,6.41-4.13,3.18-8.97,4.36-14,5.05Z"/>
  <path class="cls-6" d="m255.44,361.31c-1.3-1.63-3.74-2.17-4.33-4.62,3.09-.95,4.53,2.46,7.14,2.61-.48,1.3-1.39,2.01-2.81,2.01Z"/>
  <path class="cls-6" d="m240.53,370.34c-.53-1.12-1.07-2.23-1.78-3.73,2.85.04,5.34,1.45,7.94.76-1.64,1.85-3.68,2.86-6.16,2.96Z"/>
  <path class="cls-11" d="m285.5,136.81c4.92,5.93,8.98,12.32,10.94,19.88-4.67-3.47-6.42-9.43-11.05-12.94-2.32-3-5.03-5.61-7.96-8.01-.03-.28-.09-.56-.16-.83,1.92-.02,4.05-1.03,5.3,1.58.63,1.32,1.88.81,2.93.32Z"/>
  <path class="cls-6" d="m39.23,209.62c1.28,6.03,1.39,12.06-.01,18.09,0-6.03,0-12.06.01-18.09Z"/>
  <path class="cls-2" d="m29.95,210.73c-1.3-5.34-1.54-10.69,0-16.04,0,5.35,0,10.69,0,16.04Z"/>
  <path class="cls-8" d="m253.13,101.4c-5.89.48,3.82-6.93,2.61-1.69-.26,1.11-1.14,1.96-2.61,1.69Z"/>
  <path class="cls-6" d="m196.61,340.36c-3.15,1.1-12.31,1.27-14.8-1.19-3.79-3.75-.21-6.15-.14-10.79,6.84,2.53,13.73,4.88,20.93,6.17-.32,1.94.8,4.13-1,5.82-1.66-2.27-3.32-5.06-4.99,0Z"/>
  <path class="cls-6" d="m220.61,337.34c-1.71.28-3.6-.57-5.09,1.16-3.39,3.93-4.1.71-4.96-1.96,3.36.15,6.82-1.04,10.05.8Z"/>
  <path class="cls-6" d="m137.77,269.54c3.25.14,7.13-.96,7.98,3.99-3.57.5-6.29-.72-7.98-3.99Z"/>
  <path class="cls-6" d="m149.74,278.51h2.99c-.47,5.03-6.89,4.58-2.99,0Z"/>
  <path class="cls-6" d="m196.61,340.36c1.66-5.06,3.32-2.27,4.99,0-1.66,1.48-3.32,1.48-4.99,0Z"/>
  <path class="cls-6" d="m130.55,200.87c-2.99,6.39-5.05-3.06-1.75-2.65,1.29.16,1.54,1.5,1.75,2.65Z"/>
</svg>