<?xml version="1.0" encoding="UTF-8"?>
<svg id="Layer_1" data-name="Layer 1"
  xmlns="http://www.w3.org/2000/svg" viewBox="0 0 201.24 133.6">
  <defs>
    <style>
      .cls-1 {
        fill: #d1d3d4;
      }

      .cls-2 {
        fill: #231f20;
      }
    </style>
  </defs>
  <rect class="cls-1" width="201.24" height="133.6"/>
  <path class="cls-2" d="m104.09,85.41c-5.48-29.72.27-46.92,20.93-62.33,18.59-13.87,49.19-3.28,57.82,12.36,7.26,13.15,15.43,40.87-4.7,64.87-6.7,7.99-15.89,14.03-26.18,15.74-24.58,4.09-44.8-13.98-47.87-30.65Zm22.26,4.99c11.41,11.3,34.07,11.11,44.53-7.04,10.18-17.66.56-36.59-6.29-42.71-5.48-4.9-25.31-11.87-37.59,4.11-11.11,14.46-8.41,37.96-.65,45.64Z"/>
  <path class="cls-2" d="m99.6,101.71l-9.67-9.87-.2-.2c12.26-21.73,5.08-44.65-1.2-56.21-8.67-15.65-39.27-26.21-57.8-12.36C10.01,38.43,4.33,55.67,9.81,85.37c2.99,16.64,23.22,34.78,47.84,30.7,7.87-1.4,15.15-5.28,21.13-10.66l8.37,8.57c3.39,3.39,8.87,3.49,12.36.1,3.49-3.39,3.49-8.97.1-12.36Zm-67.57-11.36c-7.77-7.67-10.46-31.19.6-45.64,12.36-15.95,32.09-8.97,37.57-4.09,6.38,5.78,15.25,22.62,8.07,39.27l-1-1v-.1l-10.17-10.27c-3.39-3.49-8.97-3.49-12.36-.1-1.79,1.59-2.59,3.89-2.59,6.18s.8,4.48,2.49,6.18l10.96,11.16,1.5,1.49c-11.36,7.47-26.51,5.48-35.08-3.09Z"/>
</svg>