<?xml version="1.0" encoding="UTF-8"?>
<svg id="Layer_1" data-name="Layer 1" xmlns="http://www.w3.org/2000/svg" viewBox="0 0 201.24 133.6">
  <defs>
    <style>
      .cls-1 {
        fill: #d1d3d4;
      }

      .cls-2 {
        fill: #231f20;
      }
    </style>
  </defs>
  <rect class="cls-1" width="201.24" height="133.6"/>
  <path class="cls-2" 
    d="m93.68,93.35c-2.48,11.88-14.46,23.66-32.38,23.66h-1.09c-10-.4-27.82-2.57-35.15-12.48
    -3.86-5.25-4.65-11.29-1.88-14.36
    2.38-2.67,6.83-2.38,12.28.79
    10.79,10.59,25.25,10.79,34.16,6.44
    5.25-2.57,8.22-6.54,7.72-10.3
    -.3-3.27-3.56-9.41-21.19-13.47
    -24.95-5.64-35.54-19.8-34.85-31.39
    .59-10.3,10.4-22.38,35.94-25.15
    .69-.1,1.29-.1,1.98-.1
    10.79,0,26.63,8.32,29.6,15.94
    1.29,3.17,.4,5.94-2.57,8.22
    -1.88,1.39-5.94-.49-10.99-2.97
    -4.75-2.28-10.1-4.85-15.15-5.55
    -1.39-.2-2.67-.3-3.96-.3
    -9.51,0-16.83,4.75-18.22,9.9
    -1.29,4.65,2.28,9.01,9.6,11.98
    l29.9,12.08c14.95,6.24,18.22,18.02,16.24,27.03Z"/>
  <path class="cls-2" 
    d="m177.21,93.35c-2.48,11.88-14.46,23.66-32.38,23.66h-1.09c-10-.4-27.82-2.57-35.15-12.48
    -3.86-5.25-4.65-11.29-1.88-14.36
    2.38-2.67,6.83-2.38,12.28.79
    10.79,10.59,25.25,10.79,34.16,6.44
    5.25-2.57,8.22-6.54,7.72-10.3
    -.3-3.27-3.56-9.41-21.19-13.47
    -24.95-5.64-35.54-19.8-34.85-31.39
    .59-10.3,10.4-22.38,35.94-25.15
    .69-.1,1.29-.1,1.98-.1
    10.79,0,26.63,8.32,29.6,15.94
    1.29,3.17,.4,5.94-2.57,8.22
    -1.88,1.39-5.94-.49-10.99-2.97
    -4.75-2.28-10.1-4.85-15.15-5.55
    -1.39-.2-2.67-.3-3.96-.3
    -9.51,0-16.83,4.75-18.22,9.9
    -1.29,4.65,2.28,9.01,9.6,11.98
    l29.9,12.08c14.95,6.24,18.22,18.02,16.24,27.03Z"/>
</svg>