<?xml version="1.0" encoding="utf-8"?>
<!-- Generator: Adobe Illustrator 27.1.0, SVG Export Plug-In . SVG Version: 6.00 Build 0)  -->
<svg version="1.1" id="Layer_1" xmlns="http://www.w3.org/2000/svg" xmlns:xlink="http://www.w3.org/1999/xlink" x="0px" y="0px"
	 viewBox="0 0 268.3 244.3" style="enable-background:new 0 0 268.3 244.3;" xml:space="preserve">
<style type="text/css">
	.st0{fill:#2E3192;}
</style>
<g id="pro_0.0">
	<path class="st0" d="M228.3,244.3c-4.8-3.9-33.2-27-41.3-37.3c-4.8-6.2,1.5-14.4,3.6-16.9l28.8,27v-2.3
		c-0.2-42.9-21-90.4-55.9-126.9C124,46.4,69.8,21.9,11,18.8c-7.4-0.4-11.1-5.3-11-10C0.1,4.4,3.5,0,11,0c54.4,0,111,23.6,155.3,64.5
		c44.9,41.5,70.8,95.6,70.9,148.3v2.6l25.1-27.6c2.3,2.3,8.9,10.1,4.5,16.5C261,212.8,232.9,239.9,228.3,244.3z"/>
</g>
</svg>
