<?xml version="1.0" encoding="utf-8"?>
<!-- Generator: Adobe Illustrator 27.1.0, SVG Export Plug-In . SVG Version: 6.00 Build 0)  -->
<svg version="1.1" id="Layer_1" xmlns="http://www.w3.org/2000/svg" xmlns:xlink="http://www.w3.org/1999/xlink" x="0px" y="0px"
	 viewBox="0 0 126.9 242.5" style="enable-background:new 0 0 126.9 242.5;" xml:space="preserve">
<style type="text/css">
	.st0{fill:#2E3192;}
	.st1{fill:#FFFFFF;}
</style>
<g>
	<path class="st0" d="M49.4,241c-1.2,0-2.1-0.2-2.5-0.4C36,236,6,215.1,0.6,211.2c4-7.9,20.3-38.5,27.5-47.2c0.6-0.8,3-2.7,7.1-2.7
		c2.8,0,5.8,0.9,8.9,2.8l-19.9,33.2l1-0.1c60.3-6.4,87.3-50.3,87-88.3C111.9,67.2,79.8,22.3,8.9,16.2C3,16,0.4,11.9,0.5,8.2
		c0.1-3.7,2.8-7.7,8.5-7.7c0.2,0,0.3,0,0.5,0c36,1.5,66.1,13.8,87.1,35.6c18.5,19.2,29,44.9,29.5,72.2c0.8,46.5-29.2,98.8-97,104.1
		l-1.5,0.1l33.4,20.6C56.8,239.9,52,241,49.4,241z"/>
	<path class="st1" d="M9.1,0v1h0c0.2,0,0.3,0,0.5,0c35.9,1.5,65.9,13.8,86.8,35.5c18.5,19.1,28.9,44.7,29.4,71.8
		c0.5,25.6-8,49.9-23.7,68.5c-17.5,20.6-42.6,32.7-72.8,35.1l-3.1,0.2l2.6,1.6l31.6,19.6c-4.1,6.2-8.6,7.1-11,7.1
		c-1.4,0-2.2-0.3-2.4-0.4c-10.6-4.4-39.6-24.5-45.8-29c4.3-8.4,20.2-38.2,27.3-46.8c0.5-0.7,2.9-2.5,6.7-2.5c2.6,0,5.4,0.8,8.2,2.5
		l-19.1,31.9l-1,1.7l2-0.2c60.6-6.5,87.8-50.6,87.4-88.8c-0.4-41.9-32.7-87-103.9-93.2c-5.6-0.2-8-3.9-7.9-7.5C1.1,4.7,3.6,1,9.1,1
		L9.1,0 M9.1,0C-2.7,0-3.2,16.2,8.9,16.7c136.1,11.8,132.7,167.6,16.4,180l19.6-32.8c-3.8-2.3-7-3.1-9.6-3.1c-4.2,0-6.8,2-7.5,2.9
		c-7.7,9.3-25,42.1-27.8,47.7c5.1,3.7,35.6,25,46.7,29.6c0.5,0.2,1.4,0.5,2.7,0.5c3.1,0,8.1-1.4,12.4-8.5l-32.5-20.1
		C162.3,202.6,162.4,6.4,9.6,0C9.4,0,9.2,0,9.1,0L9.1,0z"/>
</g>
</svg>
