<?xml version="1.0" encoding="utf-8"?>
<!-- Generator: Adobe Illustrator 27.1.0, SVG Export Plug-In . SVG Version: 6.00 Build 0)  -->
<svg version="1.1" id="Layer_1" xmlns="http://www.w3.org/2000/svg" xmlns:xlink="http://www.w3.org/1999/xlink" x="0px" y="0px"
	 viewBox="0 0 266.5 238.5" style="enable-background:new 0 0 266.5 238.5;" xml:space="preserve">
<style type="text/css">
	.st0{fill:#2E3192;}
</style>
<g>
	<path class="st0" d="M225.3,238.5c-4.6-4.1-32.6-28.6-39.7-38.4c-4.5-6.2,2-14.3,4.2-16.7l26.4,26.1l-0.5-3.1
		c-4.4-25.2-19.4-85-64.9-96.7l-1.3-0.3l0.1,1.4c1.4,20.6-11.8,43.8-30,52.9c-5.1,2.6-10.3,3.9-15.5,3.9c-8.8,0-17.3-3.9-24.6-11.2
		C68.9,144.1,67.3,129,75.2,115c9.1-16.3,28.9-27.6,48-27.6c1.1,0,2.3,0,3.4,0.1l1.4,0.1l-0.4-1.4c-11-42-48.6-63.3-118.3-67.1
		C6.1,18.3,0,15.3,0,9.3C0,9.2,0,9,0,8.9c0-0.2,0.1-0.5,0.1-0.8C1,1.7,6.7,0,10,0h0.3c1.5,0,2.8,0,4.2,0c32.1,0,63,7.9,86.9,22.3
		c26.6,16.1,42.5,38.9,45.8,66l0.1,0.7l0.7,0.1c54.4,9.7,80.3,69.9,85.9,118.4l0.2,2l26.6-26.2c2.2,2.4,8.7,10.4,4.2,16.7
		C257.9,209.9,229.9,234.5,225.3,238.5z M122.5,103.7c-11.5,0-18.1,4.9-24.4,10.3c-8.2,7.1-13.5,24.2-7.4,31.4
		c2.5,2.9,6.7,4.6,11.4,4.6c4.1,0,10.5-1.4,17.8-7.8c9.5-8.6,13.4-21.7,11-37l-0.1-0.7l-0.7-0.1
		C127.4,103.9,124.9,103.7,122.5,103.7z"/>
</g>
</svg>
