<?xml version="1.0" encoding="utf-8"?>
<!-- Generator: Adobe Illustrator 27.1.0, SVG Export Plug-In . SVG Version: 6.00 Build 0)  -->
<svg version="1.1" id="Layer_2_00000090260375118284569610000018058769062800585405_" xmlns:ns0="http://www.w3.org/2000/svg"
	 xmlns="http://www.w3.org/2000/svg" xmlns:xlink="http://www.w3.org/1999/xlink" x="0px" y="0px" viewBox="0 0 200 100"
	 style="enable-background:new 0 0 200 100;" xml:space="preserve">
<style type="text/css">
	.st0{fill:#231F20;}
</style>
<g id="Layer_1-2">
	<g>
		<path class="st0" d="M115.5,40.1h51c5.3,0,9.5,4.3,9.5,9.5v1c0,5.3-4.3,9.5-9.5,9.5h-51c-5.3,0-9.5-4.3-9.5-9.5v-1
			C106,44.3,110.2,40.1,115.5,40.1z"/>
		<path class="st0" d="M104,85.2c1.6,1.9,2.1,4.4,1.9,6.8c-0.3,2.4-1.6,4.6-3.4,6.1c-4,3-9.8,2.3-13-1.7L65,65L40.4,96.4
			c-1.8,2.3-4.5,3.6-7.2,3.6c-1.9,0-4-0.7-5.7-1.9c-1.9-1.5-3.2-3.7-3.5-6.1c-0.3-2.4,0.3-4.9,1.9-6.8l27.3-35.1L25.9,14.9
			c-1.3-1.7-1.9-3.6-1.9-5.7c0-2.8,1.4-5.5,3.6-7.3c1.9-1.4,4.2-2.1,6.7-1.9c2.4,0.3,4.7,1.6,6.1,3.5L65,35L89.4,3.6
			c3.3-4.1,9.1-4.8,13.1-1.6c2.2,1.7,3.5,4.3,3.5,7.2c0,2-0.7,4-1.9,5.7L76.8,50.1l27.3,35.1H104z"/>
	</g>
</g>
</svg>
