<?xml version="1.0" encoding="UTF-8"?>
<svg id="Layer_2" data-name="Layer 2" xmlns="http://www.w3.org/2000/svg" viewBox="0 0 14.01 10">
  <defs>
    <style>
      .cls-1 {
        fill: #231f20;
      }
    </style>
  </defs>
  <g id="Layer_1-2" data-name="Layer 1">
    <g>
      <rect class="cls-1" x="7.01" y="4" width="7" height="2" rx=".95" ry=".95"/>
      <path class="cls-1" d="m6.78,1.25L2.41,9.54c-.15.29-.45.46-.75.46-.13,0-.26-.04-.39-.1-.2-.11-.35-.28-.42-.5-.07-.21-.05-.45.06-.65l1.88-3.58L.26,1.56c-.12-.11-.2-.27-.24-.47-.05-.25.03-.53.2-.71C.37.21.57.1.8.1c.22,0,.45.07.61.21l2.2,3.29L5.27.46c.12-.2.29-.35.51-.42.22-.07.45-.04.65.07.22.12.38.33.43.59.03.19,0,.38-.08.55Z"/>
    </g>
  </g>
</svg>