<?xml version="1.0" encoding="utf-8"?>
<!-- Generator: Adobe Illustrator 27.1.0, SVG Export Plug-In . SVG Version: 6.00 Build 0)  -->
<svg version="1.1" id="Layer_2_00000143590845904751324370000014811383012968679858_" xmlns:ns0="http://www.w3.org/2000/svg"
	 xmlns="http://www.w3.org/2000/svg" xmlns:xlink="http://www.w3.org/1999/xlink" x="0px" y="0px" viewBox="0 0 200 100"
	 style="enable-background:new 0 0 200 100;" xml:space="preserve">
<style type="text/css">
	.st0{fill:#231F20;}
</style>
<g id="Layer_1-2">
	<g>
		<path class="st0" d="M118.2,40h50.9c5.2,0,9.5,4.2,9.5,9.5v1c0,5.2-4.2,9.5-9.5,9.5h-50.9c-5.2,0-9.5-4.2-9.5-9.5v-1
			C108.7,44.2,112.9,40,118.2,40z"/>
		<path class="st0" d="M80.1,41.9c4.8,4.4,4.3,6.5,4.4,9.6c0.1,3.1-2.3,4.7-5.3,7.1C61.7,72.8,51.4,82.9,51.4,82.9s4.2,0.5,44.2,0.5
			c4,0,7.9,3.3,7.9,7.8c0,4.8-2.2,8.8-6.4,8.8c-23.5,0-40.2-0.5-59.6-0.5c-7.9,0-13.4-1.9-15.2-5.7c-1.7-3.6-1.2-9,5.5-15.2
			c19.1-17.2,34.7-28.8,34.7-28.8S40.7,30.2,25,14.3C21.8,11,20.7,8,21.9,5.7C23,3.7,27.4,0,31.1,0h67c7.4,0,7.7,13.1,0,13.1
			c-33.7,0-51.9,0.2-51.9,0.2l33.8,28.5L80.1,41.9z"/>
	</g>
</g>
</svg>
