<?xml version="1.0" encoding="utf-8"?>
<!-- Generator: Adobe Illustrator 27.1.0, SVG Export Plug-In . SVG Version: 6.00 Build 0)  -->
<svg version="1.1" id="Layer_2_00000119832363031229491700000016385624598628352130_" xmlns:ns0="http://www.w3.org/2000/svg"
	 xmlns="http://www.w3.org/2000/svg" xmlns:xlink="http://www.w3.org/1999/xlink" x="0px" y="0px" viewBox="0 0 200 100"
	 style="enable-background:new 0 0 200 100;" xml:space="preserve">
<style type="text/css">
	.st0{fill:#231F20;}
</style>
<g id="Layer_1-2">
	<g>
		<path class="st0" d="M132.2,40h51c5.2,0,9.5,4.3,9.5,9.5v1c0,5.2-4.3,9.5-9.5,9.5h-51c-5.2,0-9.5-4.3-9.5-9.5v-1
			C122.7,44.3,126.9,40,132.2,40z"/>
		<path class="st0" d="M114.6,100H79.2c-3.2,0-5.3-3.2-4.1-6.2c26.7-62.9,9.9-77.1-10.8-78.5c-0.4,0-0.8,0-1.2,0h-0.2
			c0,0-0.9,0-1.3,0s-0.8,0-1.2,0c-20.7,1.4-37.5,15.6-10.8,78.5c1.2,2.9-0.9,6.2-4.1,6.2H10.3c-1.4,0-6.6-12.7,1.2-17.3
			c6.9-4.1,9.9,0.9,18.1,1.1C7.1,34.1,29.9,4.2,57.4,0.1c0.8-0.2,9.4-0.2,10.2,0c27.4,4.1,50.2,34,27.8,83.6
			c8.2-0.2,11.2-5.1,18.1-1.1C121.3,87.2,116.1,99.9,114.6,100L114.6,100z"/>
	</g>
</g>
</svg>
