<?xml version='1.0' encoding='UTF-8'?>
<svg viewBox="0 0 275 275"
    xmlns="http://www.w3.org/2000/svg">
    <path fill="#2E3192" d="M265,200.1l-25.9,25.5c-5.7-49.3-31.8-109.5-86.7-119.3         
  C145,45.9,77.8,15.7,14.5,17.1         
  c-3.4-0.1-10.2,1.6-11.2,9         
  c0,0.5-0.1,0.9-0.1,1.3         
  c0,6.5,6.5,9.9,10.2,10.8         
  C82.7,42,120,63.1,130.9,104.6         
  c-20-1.5-42.4,10.2-52.4,28         
  c-8.1,14.4-6.4,29.9,4.5,42.6         
  c11.9,12,26.8,14.7,41.2,7.5         
  c18.7-9.4,31.9-33,30.5-53.9         
  c44.6,11.5,59.6,69.3,64.2,95.9         
  L194,200.1         
  c0,0-10.9,10.5-5,18.7         
  c7.9,10.8,40.5,39.1,40.5,39.1         
  s32.6-28.3,40.5-39.1         
  C275.9,210.6,265,200.1,265,200.1         
  L265,200.1z M123.4,159.5         
  c-12.4,11.1-23.7,8-27.7,3.3         
  c-5.5-6.5-1-22.9,7.3-30         
  c7-6,14.9-12,31.1-9.4         
  C136.4,138.1,132.7,151.1,123.4,159.5         
  L123.4,159.5z"/>
</svg>
