<?xml version="1.0" encoding="utf-8"?>
<!-- Generator: Adobe Illustrator 27.1.0, SVG Export Plug-In . SVG Version: 6.00 Build 0)  -->
<svg version="1.1" id="Layer_1" xmlns="http://www.w3.org/2000/svg" xmlns:xlink="http://www.w3.org/1999/xlink" x="0px" y="0px"
	 viewBox="0 0 275 325" style="enable-background:new 0 0 275 325;" xml:space="preserve">
<style type="text/css">
	.st0{fill:#2E3192;}
</style>
<path class="st0" d="M17.2,21.6C41.8,28.9,76.9,39,99.4,60.7c-20-1.5-32.1,8.2-43,21.7c-7.7,9.4-11.3,35,2.4,46.8
	c13.7,11.8,38,10.2,47.9,2.4c10.1-7.9,22.3-24.7,20.9-45.6c44.6,11.5,123.5,93.3,77.3,202.3l-5.5-34.6c0,0-15,2-15.1,12.1
	c0,13.4,9.4,55.5,9.4,55.5s43-3.5,55.8-7.5c9.6-3.1,7.1-18,7.1-18l-36,5.2c55.1-107.8-29.2-225.6-95.3-237.5
	C89.1,21.1,46.7,11,22.8,4.3C8.9,0.5,3.5,17.5,17.2,21.6z M101.2,112.6c-9.3,9.4-24.6,9.2-29.8,4.1c-6.1-6-5.9-20,3.3-28.5
	c9.2-8.5,19.4-13.2,35.6-10.6C112.6,92.3,111.3,102.5,101.2,112.6L101.2,112.6z"/>
</svg>
