<?xml version="1.0" encoding="utf-8"?>
<!-- Generator: Adobe Illustrator 27.1.0, SVG Export Plug-In . SVG Version: 6.00 Build 0)  -->
<svg version="1.1" id="Layer_1" xmlns="http://www.w3.org/2000/svg" xmlns:xlink="http://www.w3.org/1999/xlink" x="0px" y="0px"
	 viewBox="0 0 275 275" style="enable-background:new 0 0 275 275;" xml:space="preserve">
<style type="text/css">
	.st0{fill:#2E3192;}
</style>
<path class="st0" d="M12.8,35.1c47.3,1.2,118.6,40.2,90.6,69.8c-13.3-15-37.5-22.2-57.1-16.4c-15.8,4.7-25.4,17-26.4,33.7
	c0.2,16.9,9,29.2,24.3,34.1c20,6.3,45.9-1.4,59.4-17.4c27.8,39.1-51.5,67.9-71.2,68.6l17.9-30.1c0,0-12.8-8.1-19.4-0.4
	c-8.6,10.3-28.3,48.7-28.3,48.7s35.3,24.9,47.7,30c9.4,3.8,17-9.3,17-9.3l-31-19c33.4-3.2,130.8-43.6,81.3-106.1
	c46-46.2-31.5-106.2-104.8-106.9c-6.2,0-9.6,3.1-10.3,9.2l0,0C1.8,28.8,7.3,34.9,12.8,35.1L12.8,35.1z M61.7,139
	c-8.9,0-24.1-5.4-24.1-16.9s14.7-16.4,24.1-16.4s19.2,1.4,27.5,10.8c2,2.3,2.2,5.7,0.4,8.2C82.5,134.1,70.7,139,61.7,139L61.7,139z"
	/>
</svg>
