<?xml version="1.0" encoding="utf-8"?>
<!-- Generator: Adobe Illustrator 27.1.0, SVG Export Plug-In . SVG Version: 6.00 Build 0)  -->
<svg version="1.1" id="Layer_2_00000077311966246973505250000014777259671332230572_"
	 xmlns="http://www.w3.org/2000/svg" xmlns:xlink="http://www.w3.org/1999/xlink" x="0px" y="0px" viewBox="0 0 100 100"
	 style="enable-background:new 0 0 100 100;" xml:space="preserve">
<style type="text/css">
	.st0{fill:#231F20;}
</style>
<g id="Layer_1-2">
	<g>
		<path class="st0" d="M99.4,19.5c-3.6,11.6-15.4,50.6-19,63.3c-2,6.9-5.3,8.6-7.7,8.8c-0.2,0-0.4,0-0.6,0c-3.5,0-6.7-2.7-7.7-4.7
			c-0.7-1.5-2.9-7.2-5.4-13.8c-3-8-6.7-17.8-8.9-22.7c-2.2,4.9-6,14.8-9,22.9c-2.5,6.5-4.6,12.2-5.3,13.6c-1.1,2.1-4.7,5-8.3,4.7
			c-2.4-0.2-5.7-1.9-7.7-8.8c-3.8-13.3-16.8-56-19-63.3c-1-3-0.8-5.7,0.5-7.7c1.2-1.9,3.4-3.1,6.1-3.4c3.6-0.5,8.3,1.8,10.5,9.8
			c1.8,6.5,3.8,14.4,5.9,22.7c1.8,7.2,3.7,14.7,5.6,21.8C37.9,41.7,44,28,50,28c5.9,0,11.5,12.5,20.8,34.6
			c1.8-7.2,8.5-33.6,11.5-44.4c2.2-8,6.9-10.3,10.5-9.8c1.4,0.2,2.6,0.6,3.6,1.1s1.9,1.3,2.5,2.3C100.2,13.8,100.4,16.4,99.4,19.5z"
			/>
	</g>
</g>
</svg>
