<?xml version="1.0" encoding="UTF-8"?>
<svg id="Layer_2" data-name="Layer 2" xmlns="http://www.w3.org/2000/svg" viewBox="0 0 68.7 100">
  <defs>
    <style>
      .cls-1 {
        fill: #231f20;
      }
    </style>
  </defs>
  <g id="Layer_1-2" data-name="Layer 1">
    <path class="cls-1" d="m67.8,12.46L24.12,95.42c-1.46,2.92-4.48,4.58-7.51,4.58-1.27,0-2.63-.39-3.9-.97-2.05-1.07-3.51-2.83-4.19-4.97-.68-2.14-.49-4.48.58-6.53l18.81-35.78L2.58,15.58c-1.17-1.07-2.05-2.73-2.44-4.68-.49-2.53.29-5.26,2.05-7.12,1.46-1.66,3.51-2.73,5.85-2.83,2.24-.1,4.48.68,6.14,2.14l22.03,32.85L52.69,4.56c1.17-2.05,2.93-3.51,5.07-4.19,2.24-.68,4.48-.39,6.53.68,2.24,1.17,3.8,3.31,4.29,5.95.29,1.85.1,3.8-.78,5.46Z"/>
  </g>
</svg>