<?xml version="1.0" encoding="utf-8"?>
<!-- Generator: Adobe Illustrator 27.1.0, SVG Export Plug-In . SVG Version: 6.00 Build 0)  -->
<svg version="1.1" id="Layer_2_00000115485030646154700880000012353230614905938593_"
	 xmlns="http://www.w3.org/2000/svg" xmlns:xlink="http://www.w3.org/1999/xlink" x="0px" y="0px" viewBox="0 0 100 100"
	 style="enable-background:new 0 0 100 100;" xml:space="preserve">
<style type="text/css">
	.st0{fill:#231F20;}
</style>
<g id="Layer_1-2">
	<g>
		<path class="st0" d="M49.8,0C36.2,0,17.5,17.4,17.5,50c0,24.2,11.3,50,32.3,50c20.5,0,32.7-25.4,32.7-50C82.5,15.5,63.4,0,49.8,0z
			 M66.2,65.6c-0.5,6.8-6.3,18.8-16.3,18.8h-0.5C40.3,84,34.3,72.9,33.7,65.1c0-1-0.2-3.9,1.2-5.3c0.6-0.6,1.4-0.9,2.6-0.9h24.5
			c1.4,0,2.4,0.4,3.1,1.1C66,61.1,66.4,62.9,66.2,65.6z M49.9,15.6c8.6,0,14.9,10.6,15.4,17.8c0.2,2.7-0.2,4.6-1.2,5.6
			c-0.7,0.8-1.7,1.1-3.2,1.1H38.4c-1,0-1.8-0.3-2.4-0.9c-1.4-1.5-1.4-4.5-1.4-5.3C35.2,26.7,42,15.6,49.9,15.6z"/>
	</g>
</g>
</svg>
