<?xml version="1.0" encoding="utf-8"?>
<!-- Generator: Adobe Illustrator 27.1.0, SVG Export Plug-In . SVG Version: 6.00 Build 0)  -->
<svg version="1.1" id="Layer_2_00000036951422526102851260000004291154564078807997_"
	 xmlns="http://www.w3.org/2000/svg" xmlns:xlink="http://www.w3.org/1999/xlink" x="0px" y="0px" viewBox="0 0 120 100"
	 style="enable-background:new 0 0 120 100;" xml:space="preserve">
<style type="text/css">
	.st0{fill:#231F20;}
</style>
<g id="Layer_1-2">
	<path class="st0" d="M93.5,12.5l-43.7,83c-1.5,2.9-4.5,4.6-7.5,4.6c-1.3,0-2.6-0.4-3.9-1c-2-1.1-3.5-2.8-4.2-5s-0.5-4.5,0.6-6.5
		l18.8-35.8L28.2,15.6c-1.2-1.1-2-2.7-2.4-4.7c-0.5-2.5,0.3-5.3,2.1-7.1c1.5-1.7,3.5-2.7,5.9-2.8c2.2-0.1,4.5,0.7,6.1,2.1l22,32.8
		L78.3,4.6c1.2-2,2.9-3.5,5.1-4.2C85.7-0.3,87.9,0,89.9,1c2.2,1.2,3.8,3.3,4.3,5.9C94.5,8.9,94.3,10.8,93.5,12.5z"/>
</g>
</svg>
