<?xml version="1.0" encoding="UTF-8"?>
<svg id="Layer_2" data-name="Layer 2" xmlns="http://www.w3.org/2000/svg" viewBox="0 0 82.52 100">
  <defs>
    <style>
      .cls-1 {
        fill: #231f20;
      }
    </style>
  </defs>
  <g id="Layer_1-2" data-name="Layer 1">
    <path class="cls-1" d="m58.76,41.87c4.77,4.38,4.33,6.51,4.36,9.57.03,3.07-2.34,4.75-5.25,7.14-17.48,14.33-27.83,24.36-27.83,24.36,0,0,4.18.54,44.24.54,3.95,0,7.87,3.3,7.87,7.76,0,4.76-2.22,8.75-6.41,8.75-23.46,0-40.23-.49-59.67-.49-7.89,0-13.37-1.9-15.21-5.72-1.74-3.61-1.23-9.04,5.55-15.15,19.12-17.23,34.72-28.77,34.72-28.77,0,0-21.67-19.7-37.48-35.64C.38,10.96-.69,8.01.55,5.74,1.64,3.73,6.08,0,9.79,0h67.09c7.36,0,7.66,13.13.05,13.13-33.73,0-52.01.23-52.01.23l33.84,28.5Z"/>
  </g>
</svg>