<?xml version="1.0" encoding="utf-8"?>
<!-- Generator: Adobe Illustrator 27.1.0, SVG Export Plug-In . SVG Version: 6.00 Build 0)  -->
<svg version="1.1" id="Layer_2_00000167354865868843394620000013880381814538620307_"
	 xmlns="http://www.w3.org/2000/svg" xmlns:xlink="http://www.w3.org/1999/xlink" x="0px" y="0px" viewBox="0 0 120 100"
	 style="enable-background:new 0 0 120 100;" xml:space="preserve">
<style type="text/css">
	.st0{fill:#231F20;}
	.st1{fill:none;}
</style>
<g id="Layer_1-2">
	<path class="st0" d="M77.2,41.9c4.8,4.4,4.6,5.1,4.7,8.1c0,3.1-1.7,6.2-4.7,8.6C59.7,72.9,46.2,83,46.2,83s7.5,0.5,47.5,0.5
		c3.9,0,7.1,3.3,7.1,7.8c0,4.8-2.9,8.8-7.1,8.8c-23.5,0-39.5,0-58.9,0c-7.9,0-13.4-2.4-15.2-6.2c-1.7-3.6-1.2-9,5.6-15.2
		c19.1-17.2,34.7-28.8,34.7-28.8S38.2,33.4,22.4,17.5c-3.3-3.3-4.3-9.5-3.1-11.8c1.1-2,5.5-5.7,9.2-5.7h67.1c7.4,0,7.6,16.5,0,16.5
		c-33.7,0-49.4,0.2-49.4,0.2L77.2,41.9L77.2,41.9z"/>
</g>
<line class="st1" x1="89.9" y1="0" x2="89.9" y2="16.5"/>
</svg>
