<?xml version="1.0" encoding="UTF-8"?>
<svg id="Layer_2" data-name="Layer 2" xmlns="http://www.w3.org/2000/svg" viewBox="0 0 110.33 100">
  <defs>
    <style>
      .cls-1 {
        fill: #231f20;
      }
    </style>
  </defs>
  <g id="Layer_1-2" data-name="Layer 1">
    <path class="cls-1" d="m107.34,100h-35.36c-3.17,0-5.29-3.25-4.08-6.2,26.67-62.86,9.9-77.07-10.81-78.5-.38,0-.83-.08-1.21-.08h-.15c-.45-.08-.91-.08-1.28,0-.38,0-.83.08-1.21.08-20.7,1.44-37.48,15.64-10.8,78.5,1.21,2.95-.91,6.2-4.08,6.2H2.99c-1.44,0-6.57-12.69,1.21-17.3,6.88-4.08,9.9.91,18.06,1.06C-.18,34.11,22.64,4.19,50.06.11c.83-.15,9.37-.15,10.2,0,27.43,4.08,50.24,34,27.8,83.64,8.16-.15,11.18-5.14,18.06-1.06,7.78,4.61,2.65,17.3,1.21,17.3Z"/>
  </g>
</svg>