<?xml version="1.0" encoding="utf-8"?>
<!-- Generator: Adobe Illustrator 27.1.0, SVG Export Plug-In . SVG Version: 6.00 Build 0)  -->
<svg version="1.1" id="Layer_1" xmlns="http://www.w3.org/2000/svg" xmlns:xlink="http://www.w3.org/1999/xlink" x="0px" y="0px"
	 viewBox="0 0 228.2 356.6" style="enable-background:new 0 0 228.2 356.6;" xml:space="preserve">
<style type="text/css">
	.st0{fill:#2E3192;}
</style>
<g>
	<path class="st0" d="M177.7,356.6c-3.7-5.2-26.2-36.9-30.4-46.6c-3.1-7.1,4.9-13.5,7.6-15.4l20.1,33.2l0.4-2.7
		C204.5,154.4,15.3,25.6,5.9,18.8C1.2,15.4-2.6,8.3,2.3,2.9S12.7,0.7,17,3.6c9.4,6.3,211.1,148.8,176.2,324.6l-0.5,2.3l32.1-20
		c1.6,2.8,6.2,12.1,0.4,17.2C215.5,336.3,183.1,353.7,177.7,356.6z"/>
</g>
<text transform="matrix(1 0 0 1 -62.2504 -186.2495)" style="font-family:'MyriadPro-Regular'; font-size:60px;">from antiradial</text>
</svg>
