<?xml version="1.0" encoding="utf-8"?>
<!-- Generator: Adobe Illustrator 27.1.0, SVG Export Plug-In . SVG Version: 6.00 Build 0)  -->
<svg version="1.1" id="Layer_1" xmlns="http://www.w3.org/2000/svg" xmlns:xlink="http://www.w3.org/1999/xlink" x="0px" y="0px"
	 viewBox="0 0 228.5 359" style="enable-background:new 0 0 228.5 359;" xml:space="preserve">
<style type="text/css">
	.st0{fill:#2E3192;}
</style>
<g>
	<path class="st0" d="M172.4,359c-2.6-5.6-18.1-39.3-20.7-51.1c-1.6-7.5,7.6-12.2,10.6-13.5l13.5,34.2
		c15.5-35.5,29.7-131.2-37.9-178.3c0,0,4.8,31-20.7,47.5c-9.2,5.9-32.1,13.1-46.7-2.4s-10.7-36-2.7-46c21.1-26.4,42-22.9,51-21.3
		c-6-20.5-26.1-80.7-112.6-109.9c-9.9-2.9-8.4-22.3,7.5-17.3c43.4,17.9,112.1,65.3,122.8,129.2c89.7,50.6,74.8,155.9,55.4,206.4
		l35.2-13.3c1,3.1,3.7,13.1-2.9,16.9C213.7,346,178.3,357.2,172.4,359z M86.3,154.5c-4.5,4.5-14.2,17.8-4.7,28.7s26.3,0.2,31.2-4.8
		c15.3-13.9,10.6-33.9,10.6-33.9S104.7,136,86.3,154.5z"/>
</g>
<text transform="matrix(1 0 0 1 -126.3931 -776.0145)" style="font-family:'ArialMT'; font-size:60px;">from antiradial</text>
</svg>
