<?xml version="1.0" encoding="utf-8"?>
<!-- Generator: Adobe Illustrator 27.1.0, SVG Export Plug-In . SVG Version: 6.00 Build 0)  -->
<svg version="1.1" id="Layer_1"
	xmlns="http://www.w3.org/2000/svg"
	xmlns:xlink="http://www.w3.org/1999/xlink" x="0px" y="0px" viewBox="0 0 302.6 82.3" style="enable-background:new 0 0 302.6 82.3;" xml:space="preserve">
	<style type="text/css">
	.st0{fill:#2E3192;}
	</style>
	<g>
		<path class="st0" d="M302.5,41.2C302.5,41.2,302.6,41.2,302.5,41.2c-4,4.8-28.6,32.6-38.3,39.8c-1.4,1.1-8.4,4-16.6-4.2l26.8-27.2
		H9c-6.1,0-9.1-4.2-9-8.3C0,37,3,32.8,9,32.8h265.3L247.6,5.6c8.2-8.2,15.2-5.3,16.6-4.2C273.9,8.5,298.5,36.4,302.5,41.2
		C302.6,41.1,302.5,41.1,302.5,41.2z"/>
		<path class="st0" d="M372.4,45C372.4,45,372.4,45,372.4,45c-4,4.8-28.6,32.6-38.3,39.8c-1.4,1.1-8.4,4-16.6-4.2l26.8-27.2V36.6
		L317.4,9.4c8.2-8.2,15.2-5.3,16.6-4.2C343.7,12.3,368.3,40.2,372.4,45C372.4,44.9,372.4,44.9,372.4,45z"/>
		<path class="st0" d="M274.4-51.6v16.7H9c-6.1,0-9.1-4.2-9-8.3c-0.1-4.2,3-8.4,9-8.4H274.4z"/>
	</g>
</svg>
