<?xml version="1.0" encoding="utf-8"?>
<!-- Generator: Adobe Illustrator 27.1.0, SVG Export Plug-In . SVG Version: 6.00 Build 0)  -->
<svg version="1.1" id="Layer_1" xmlns="http://www.w3.org/2000/svg" xmlns:xlink="http://www.w3.org/1999/xlink" x="0px" y="0px"
	 viewBox="0 0 522.7 87.1" style="enable-background:new 0 0 522.7 87.1;" xml:space="preserve">
<style type="text/css">
	.st0{fill:#2E3192;}
</style>
<g>
	<path class="st0" d="M522.7,79.9C522.7,79.9,522.7,79.9,522.7,79.9C522.6,79.9,522.7,79.9,522.7,79.9c-6.2,1.2-42.8,7.7-54.8,7.2
		c-1.8,0-9.1-2.1-10.4-13.6l34.7-4.2C427.3,25,337.8,21.5,260.3,21.5c-78.4,0-174.6,19.1-243,64C6,92.5-8.4,75.2,6.1,66.5
		C83.4,19.9,182.8,0,260.3,0c76.4,0,176.3,7.2,245.1,51.7l-3.6-33.9c11.5-1.3,15.2,5.3,15.6,7.1C520.6,36.5,522.4,73.7,522.7,79.9z"
		/>
</g>
</svg>
