<?xml version="1.0" encoding="utf-8"?>
<svg version="1.1" id="Layer_1"
	xmlns="http://www.w3.org/2000/svg"
	xmlns:xlink="http://www.w3.org/1999/xlink" viewBox="0 0 413.4 378.8" style="enable-background:new 0 0 413.4 378.8;" xml:space="preserve">
	<style type="text/css">
	.st0{fill:#2E3192;}
	</style>
	<path fill="#2E3192" d="M405,317.1l-22.6,28.5c-11.2-78.7-72.6-210.4-127.5-220.2C247.5,65,74.6-1.4,11.3,0C7.9-0.1,1.1,1.6,0.1,9
	C0.1,9.5,0,9.9,0,10.3c0,6.5,6.5,9.9,10.2,10.8c69.3,3.8,212.3,61,223.2,102.5c-20-1.5-42.4,10.2-52.4,28
	c-8.1,14.4-6.4,29.9,4.5,42.6c11.9,12,26.8,14.7,41.2,7.5c18.7-9.4,31.9-33,30.5-53.9c44.6,11.5,95.6,139.6,105.1,199.2l-27.7-21.4
	c0,0-9.5,11.7-2.7,19.2c9.1,9.8,45,33.9,45,33.9s28.9-32.1,35.4-43.7C417.1,326.2,405,317.1,405,317.1L405,317.1z M225.9,178.5
	c-12.4,11.1-23.7,8-27.7,3.3c-5.5-6.5-1-22.9,7.3-30c7-6,14.9-12,31.1-9.3C238.9,157.1,235.2,170.2,225.9,178.5L225.9,178.5z"/>
</svg>
