<?xml version="1.0" encoding="utf-8"?>
<!-- Generator: Adobe Illustrator 27.1.0, SVG Export Plug-In . SVG Version: 6.00 Build 0)  -->
<svg version="1.1" id="Layer_1" xmlns="http://www.w3.org/2000/svg" xmlns:xlink="http://www.w3.org/1999/xlink" x="0px" y="0px"
	 viewBox="0 0 238.5 274.9" style="enable-background:new 0 0 238.5 274.9;" xml:space="preserve">
<style type="text/css">
	.st0{fill:#2E3192;}
</style>
<g>
	<path class="st0" d="M233.4,223.4C189.8,330,5.3,276.8,0,10.3c-0.3-13.8,16.7-13.6,17,0c4.7,241.9,163.7,297.8,201,207.1
		c14.3-34.7-7.2-57.3-35-74.7l3.3,37.4c-3.6,0.4-13.6,0.5-15.9-6.9c-3.5-11.5-6-48.7-6.5-54.8c5.1-1,52.7-8.4,54.5-8.3
		c7.8,0.3,10.2,10.3,10.8,13.5l-38.1,5.7C228.6,151.2,248.5,186.3,233.4,223.4z"/>
</g>
</svg>
