<?xml version="1.0" encoding="utf-8"?>
<!-- Generator: Adobe Illustrator 27.1.0, SVG Export Plug-In . SVG Version: 6.00 Build 0)  -->
<svg version="1.1" id="Layer_1" xmlns="http://www.w3.org/2000/svg" xmlns:xlink="http://www.w3.org/1999/xlink" x="0px" y="0px"
	 viewBox="0 0 230.5 252.2" style="enable-background:new 0 0 230.5 252.2;" xml:space="preserve">
<style type="text/css">
	.st0{fill:#2E3192;}
</style>
<g>
	<path class="st0" d="M186.9,252.2c-5,0-10-4.1-11.8-5.8l28.2-27.6C14.7,218.8-3,204.9,0.4,9.4C0.6-3.3,17.9-3,17.6,9.7
		c-3.2,185.9,10.2,191.6,185.7,191.7L175,174.7c1.8-1.6,6.7-5.6,11.7-5.6c1.8,0,3.5,0.5,5,1.6c8.5,6.2,34.5,35.2,38.8,39.9
		c-4,4.6-28.2,32.3-38.8,40C190.3,251.6,188.6,252.2,186.9,252.2z"/>
</g>
</svg>
