<?xml version="1.0" encoding="utf-8"?>
<!-- Generator: Adobe Illustrator 27.1.0, SVG Export Plug-In . SVG Version: 6.00 Build 0)  -->
<svg version="1.1" id="Layer_1"
	xmlns="http://www.w3.org/2000/svg"
	xmlns:xlink="http://www.w3.org/1999/xlink" x="0px" y="0px" viewBox="0 0 247.9 262.2" style="enable-background:new 0 0 247.9 262.2;" xml:space="preserve">
	<style type="text/css">
	.st0{fill:#2E3192;}
	.st1{fill:#2E3191;}
	</style>
	<g>
		<path class="st0" d="M204.2,262.2c-5,0-10-4.1-11.8-5.8l21.2-21.5c0.6-0.4,1.2-1,1.6-1.6l3.8-4l-2.5,0.1c-2.1,0.1-4.1,0.1-6.1,0.1
		c-28.8,0-49.5-8-61.7-23.8c-12.8-16.6-9.7-39.7-7.8-48.9l0.3-1.5l-2.9,0.6c-5.1,1.1-13.6,2.8-22.7,2.8c-13,0-23.2-3.6-30.5-10.6
		C71.3,134.2,73.5,112.2,74.8,99c0.3-2.7,0.5-5,0.6-6.8l0-1.3l-1.3,0.3c-3,0.8-7.7,1.3-12.5,1.3c-8.4,0-29.5-1.5-43.8-15.5
		C0.1,59.6,0.1,51.3,0,11.4l0-0.1C0,3.9,4.4,0,8.8,0c4.1,0,8.6,3.6,8.6,11.4c0,1.1-0.1,2.8-0.2,4.7c-0.7,11-2,34,11.1,47
		c6.8,6.7,16,10.1,27.3,10.1C70,73.2,85.3,68,98.6,63l2.7-1.1l-0.8,2.8c-9.9,34.5-13.7,58.1-2.5,69.1c5.2,5.1,13.1,7.7,23.5,7.7
		c19.5,0,41.6-9,45.9-10.8l3.9-1.7l-1.8,3.7c-13.2,27.6-16.1,48-8.5,60.6c6.7,11.2,21.9,17.6,41.9,17.6c0.4,0,0.9,0,1.4,0
		c1.3,0,2.9,0,4.7,0.1c2,0,4.1,0.1,5.9,0.1c0.7,0,1.4,0,2,0l2.3-0.1l-26.7-26.5c1.8-1.6,6.7-5.6,11.6-5.6c1.8,0,3.5,0.6,5,1.7
		c8.5,6.2,34.5,35.2,38.8,39.9c-4,4.6-28.1,32.3-38.8,40C207.7,261.6,206,262.2,204.2,262.2z"/>
	</g>
	<path class="st1" d="M348.4,6.5c0,8-4.4,36.1,10.6,51c18.1,17.9,48.6,7.4,69.2-0.3l4.6-1.8l-1.4,4.8c-9.9,34.6-13.6,57.5-2.8,68.1
	c18.6,18.4,67.9-3.1,68.4-3.3l6.2-2.7l-2.9,6.1c-12.2,25.5-16.3,46.8-8.5,59.7c6.4,10.7,21.2,17.1,41,17.1c2.7-0.1,9.9,0.2,14,0.1
	L521,179.7c0,0,10.5-10.8,18.7-4.7c9.4,6.9,39.5,40.7,39.5,40.7s-27.7,32.3-39.5,40.8c-8.2,6-18.7-5-18.7-5l22-22.3
	c0.6-0.4,1.1-0.9,1.5-1.5l2.2-2.3c-30,1.1-54.4-5.6-68.6-24.1c-13.1-17-9.8-41-8-49.7c-10.3,2.1-38.4,8.8-55.4-7.8
	c-17.4-17-10.6-45.9-10.3-56.5c-9.4,2.5-39.2,3.2-57.3-14.5c-18-17.7-18-26.2-18.1-66.4C329-9.7,348.4-10.3,348.4,6.5z"/>
</svg>
