<?xml version="1.0" encoding="utf-8"?>
<!-- Generator: Adobe Illustrator 27.1.0, SVG Export Plug-In . SVG Version: 6.00 Build 0)  -->
<svg version="1.1" id="Layer_1" xmlns="http://www.w3.org/2000/svg" xmlns:xlink="http://www.w3.org/1999/xlink" x="0px" y="0px"
	 viewBox="0 0 121.8 371.9" style="enable-background:new 0 0 121.8 371.9;" xml:space="preserve">
<style type="text/css">
	.st0{fill:#2E3192;}
	.st1{fill:#2E3191;}
</style>
<g>
	<path class="st0" d="M-137.4,370.9c-7.7-0.1-10.2-10.2-10.9-13.4l37.5-5.8l-2-1.4c-15.8-11.1-50.4-54.9-74.4-113.4
		c-21.7-53-42-135.4-15.2-227.3c1.9-6.7,6.7-9.1,10.6-9.1c3.2,0,6.2,1.5,8,4c2.1,2.9,2.5,7,1.1,11.5
		c-27.5,83.7-7.4,162.7,14.3,214.3c25,59.2,58.4,99.1,67.2,106.2l2,1.7l-6.3-38.3c0.7-0.1,1.6-0.1,2.7-0.1c4.9,0,11.2,1.2,12.9,6.9
		c3.2,10.1,6.8,48.8,7.4,55.1c-6,1.3-41.4,9.2-54.8,9.2C-137.2,370.9-137.4,370.9-137.4,370.9z"/>
</g>
<path class="st1" d="M495.7,358.5c0,0-4-45-7.5-56.2c-3-9.7-17.8-7.3-17.8-7.3l6,36.7c-18.1-14.7-133.2-161-81.2-319.4
	c5.7-17.5-16.8-23.7-21.6-7c-50.3,172.6,61.2,321.4,90.1,341.8l-36.1,5.6c0,0,1.9,15.1,12,15.2C454.2,368,495.7,358.5,495.7,358.5z"
	/>
<path class="st0" d="M121.8,363.2c-6.1,1.4-42.5,8.8-54.5,8.7c-1.8,0-9.1-1.9-10.7-13.3l37.8-5.6C25.8,285-10.3,153.6,2.6,15.3
	c2-22.1,21.4-19.1,18.7,2.1C2.8,165.7,57.8,291.2,104.4,339.6l-5.1-37.9c11.5-1.6,15.3,4.9,15.8,6.6
	C118.6,319.8,121.4,356.9,121.8,363.2z"/>
</svg>
