<?xml version="1.0" encoding="utf-8"?>
<!-- Generator: Adobe Illustrator 27.1.0, SVG Export Plug-In . SVG Version: 6.00 Build 0)  -->
<svg version="1.1" id="Layer_1" xmlns="http://www.w3.org/2000/svg" xmlns:xlink="http://www.w3.org/1999/xlink" x="0px" y="0px"
	 viewBox="0 0 127.3 370.6" style="enable-background:new 0 0 127.3 370.6;" xml:space="preserve">
<style type="text/css">
	.st0{fill:#2E3192;}
	.st1{fill:#2E3191;}
</style>
<g>
	<path class="st0" d="M72.4,370.5c-7.7-0.1-10.2-10.2-10.9-13.4l37.5-5.8l-2-1.4C81.2,338.8,46.6,295,22.6,236.5
		c-21.7-53-30-131.5-14.9-226c1-6.9,5.5-9.9,9.4-10.4c3.2-0.4,6.3,0.7,8.4,3c2.4,2.6,3.4,6.6,2.5,11.3
		c-16.7,86.5-8.3,164,13.4,215.6c25,59.2,58.4,99.1,67.2,106.2l2,1.7l-6.3-38.3c0.7-0.1,1.6-0.1,2.7-0.1c4.9,0,11.2,1.2,12.9,6.9
		c3.2,10.1,6.8,48.8,7.4,55.1c-6,1.3-41.4,9.2-54.8,9.2C72.6,370.5,72.4,370.5,72.4,370.5z"/>
</g>
<path class="st1" d="M512.5,358.1c0,0-4-45-7.5-56.2c-3-9.7-17.8-7.3-17.8-7.3l6,36.7C475.1,316.6,360,170.3,412,11.9
	c5.7-17.5-16.8-23.7-21.6-7c-50.3,172.6,61.2,321.4,90.1,341.8l-36.1,5.6c0,0,1.9,15.1,12,15.2C471,367.6,512.5,358.1,512.5,358.1z"
	/>
</svg>
