<?xml version="1.0" encoding="utf-8"?>
<!-- Generator: Adobe Illustrator 27.1.0, SVG Export Plug-In . SVG Version: 6.00 Build 0)  -->
<svg version="1.1" id="Layer_1" xmlns="http://www.w3.org/2000/svg" xmlns:xlink="http://www.w3.org/1999/xlink" x="0px" y="0px"
	 viewBox="0 0 169.4 161.2" style="enable-background:new 0 0 169.4 161.2;" xml:space="preserve">
<style type="text/css">
	.st0{fill:#2E3192;}
</style>
<path class="st0" d="M170.2,80.1L170.2,80.1c-1.1,21.5-8.3,40.3-20.8,54.6c-11.4,13-26.5,21.8-43.8,25.4c-5.4,1.2-11.1,1.8-17,1.8
	c-26.4,0-55.2-12.4-70.9-42.8l-8.9,23.8c0,0-10-3.6-8.7-10.6c2.2-9.6,13.9-34.6,15-37.1c2.7,0.7,29.1,8.8,37.6,13.7
	c6.2,3.6,2.2,13.5,2.2,13.5l-23.5-9.2c10.1,24.9,38.2,38.6,68.5,33.3c25.8-4.5,53.8-24.2,55-66.1c0.5-17.8-4.9-32.7-16-44.2
	c-17.5-18-43.4-21.9-48.9-21.9c-5.7,0-8.3-3.9-8.3-7.5c0-2,0.7-3.8,2.1-5.2c1.5-1.5,3.6-2.3,6.1-2.3c16.9,0,35.4,6.8,49.6,18.1
	C152.3,27.6,168.1,46.8,170.2,80.1z"/>
</svg>
