<?xml version="1.0" encoding="utf-8"?>
<!-- Generator: Adobe Illustrator 27.1.0, SVG Export Plug-In . SVG Version: 6.00 Build 0)  -->
<svg version="1.1" id="Layer_2_00000067943470925853274430000014016169332394375836_"
	 xmlns="http://www.w3.org/2000/svg" xmlns:xlink="http://www.w3.org/1999/xlink" x="0px" y="0px" viewBox="0 0 211.9 218.3"
	 style="enable-background:new 0 0 211.9 218.3;" xml:space="preserve">
<style type="text/css">
	.st0{fill:#2E3192;}
	.st1{fill:#EC1C24;}
	.st2{fill:#2E3191;}
	.st3{fill:#231F20;}
</style>
<g id="Layer_1-2_00000018938558089964873080000002854381780436272281_">
	<g>
		<path class="st0" d="M211.9,117.2c-0.7,32.6-17.3,52.6-31.2,63.7c-17.2,13.7-40,21.4-63,21.4c-51.8,0-83.5-36.3-82.7-84.9
			c0.4-19.6,8.2-39.3,21.6-54.1c14.1-15.6,32.9-24.1,52.8-24.1c19,0,36.8,7.4,50.1,20.7c12.7,12.8,20.1,30.2,20.1,47.7
			c0,17.2-11.2,40.9-35.8,52.3l25.6,6.6c0,0-2.3,10.5-9.4,10c-9.9-0.8-36.6-9.2-39.3-9.9c0.6-2.8,5-30.4,8.7-39.6
			c1.5-3.8,5.5-4.6,8.7-4.6c2.5,0,4.5,0.5,4.5,0.5l-5.8,25.8c18.2-10.2,29.1-25.6,29.1-41.3c0-26.4-22.7-54.6-56.4-54.6
			c-33.4,0-62.7,29.9-61.6,65.2c1.4,44,23.1,70.2,71.1,70.9c38.4,0.5,79.2-25.1,79.2-71.7c0-68.6-59.1-97-86.2-104.6
			c-8.5-2.3-5.4-14.6,3-12.3C135.2,5.9,213.6,32.7,211.9,117.2z"/>
	</g>
</g>
<g>
	<path class="st1" d="M562.6,216c0-5,3.9-9.2,8.7-9.2h18.2V-16.1c0-4.9,3.9-8.9,8.5-8.9h4.2c4.6,0,8.5,4,8.5,8.9v222.9h18.2
		c4.8,0,8.7,4.2,8.7,9.2s-3.9,9.1-8.7,9.1h-57.6C566.5,225,562.6,221,562.6,216z"/>
	<path class="st2" d="M637.6,270.5c0,5-3.9,9.2-8.7,9.2h-18.2v222.9c0,4.9-3.9,8.9-8.5,8.9H598c-4.6,0-8.5-4-8.5-8.9V279.7h-18.2
		c-4.8,0-8.7-4.2-8.7-9.2s3.9-9.1,8.7-9.1h57.6C633.7,261.4,637.6,265.5,637.6,270.5z"/>
</g>
<g>
	<g>
		<circle class="st3" cx="600.1" cy="-56.7" r="25"/>
		<circle class="st3" cx="900.1" cy="243.3" r="25"/>
		<circle class="st3" cx="600.1" cy="543.3" r="25"/>
		<circle class="st3" cx="300.1" cy="243.3" r="25"/>
		<circle class="st3" cx="743.2" cy="386.4" r="8.8"/>
		<circle class="st3" cx="457.1" cy="386.4" r="8.8"/>
		<circle class="st3" cx="457.1" cy="100.2" r="8.8"/>
		<circle class="st3" cx="743.2" cy="100.2" r="8.8"/>
		<circle class="st3" cx="600.1" cy="243.3" r="11.2"/>
	</g>
	<circle class="st3" cx="743.2" cy="243.3" r="4.7"/>
	<circle class="st3" cx="600.1" cy="386.4" r="4.7"/>
	<circle class="st3" cx="457.1" cy="243.3" r="4.7"/>
	<circle class="st3" cx="600.1" cy="100.2" r="4.7"/>
</g>
</svg>
