<?xml version="1.0" encoding="utf-8"?>
<!-- Generator: Adobe Illustrator 27.1.0, SVG Export Plug-In . SVG Version: 6.00 Build 0)  -->
<svg version="1.1" id="Layer_2_00000067943470925853274430000014016169332394375836_"
	 xmlns="http://www.w3.org/2000/svg" xmlns:xlink="http://www.w3.org/1999/xlink" x="0px" y="0px" viewBox="0 0 182.9 261.5"
	 style="enable-background:new 0 0 182.9 261.5;" xml:space="preserve">
<style type="text/css">
	.st0{fill:#2E3192;}
	.st1{fill:#EC1C24;}
	.st2{fill:#2E3191;}
	.st3{fill:#231F20;}
</style>
<g id="Layer_1-2_00000144313412631531932790000009516445523293907880_">
	<path class="st0" d="M107,94.1l25.9,6.3c-10.7-21.1-38-37.1-59.1-37.1c-32.2,0-59.1,29.5-59.1,67.4c0,40.3,31,71.8,71.3,70.4
		c95.6-2.1,129.2-154.5-2.8-187.5C73.3,9.7,79-4.1,91.5,1.2c143.5,44.9,102,213-6.3,213.8C39.2,215.3,0,179.3,0,130.8
		c0-46.1,32.5-82.2,73.9-82.2c18.6,0,57.3,12.2,70.6,44.6l6.1-25.9c0,0,10.5,2.3,10,9.4c-0.8,9.9-9.2,36.6-9.9,39.3
		c-2.8-0.6-30.4-5-39.6-8.7l0,0C104.4,104.6,107,94.1,107,94.1z"/>
</g>
<g>
	<path class="st1" d="M697.3,138.2c-5,0-9.2-3.9-9.2-8.7v-18.2H465.2c-4.9,0-8.9-3.9-8.9-8.5v-4.2c0-4.6,4-8.5,8.9-8.5h222.9V71.9
		c0-4.8,4.2-8.7,9.2-8.7s9.1,3.9,9.1,8.7v57.6C706.3,134.3,702.3,138.2,697.3,138.2z"/>
	<path class="st2" d="M618.8,271.1c0,5-3.9,9.2-8.7,9.2h-18.2v222.9c0,4.9-3.9,8.9-8.5,8.9h-4.2c-4.6,0-8.5-4-8.5-8.9V280.3h-18.2
		c-4.8,0-8.7-4.2-8.7-9.2s3.9-9.1,8.7-9.1h57.6C614.9,262,618.8,266.1,618.8,271.1z"/>
</g>
<g>
	<g>
		<circle class="st3" cx="581.3" cy="-56.1" r="25"/>
		<circle class="st3" cx="881.3" cy="243.9" r="25"/>
		<circle class="st3" cx="581.3" cy="543.9" r="25"/>
		<circle class="st3" cx="281.3" cy="243.9" r="25"/>
		<circle class="st3" cx="724.4" cy="387" r="8.8"/>
		<circle class="st3" cx="438.3" cy="387" r="8.8"/>
		<circle class="st3" cx="438.3" cy="100.8" r="8.8"/>
		<circle class="st3" cx="724.4" cy="100.8" r="8.8"/>
		<circle class="st3" cx="581.3" cy="243.9" r="11.2"/>
	</g>
	<circle class="st3" cx="724.4" cy="243.9" r="4.7"/>
	<circle class="st3" cx="581.3" cy="387" r="4.7"/>
	<circle class="st3" cx="438.3" cy="243.9" r="4.7"/>
	<circle class="st3" cx="581.3" cy="100.8" r="4.7"/>
</g>
</svg>
