<?xml version="1.0" encoding="UTF-8"?>
<svg id="Layer_2" data-name="Layer 2" xmlns="http://www.w3.org/2000/svg" viewBox="0 0 91.25 100">
  <defs>
    <style>
      .cls-1 {
        fill: #231f20;
      }
    </style>
  </defs>
  <g id="Layer_1-2" data-name="Layer 1">
    <path class="cls-1" d="m90.72,13.23c-1.97,7.84-13.67,65.51-15.77,73.3-2.1,7.8-4.36,13.35-9.04,13.46-4.9.12-6.39-2.75-11.67-12.51-5.28-9.76-16.57-34.69-24.37-55.62-5.29,18.95-7.25,39.71-11.63,54.85-2.45,8.49-5.8,13.6-10.18,12.9-.99-.16-10.47-2.62-7.5-13.6C2.75,77.95,15.33,26.03,20.16,9.86c4.83-16.17,15.4-8.53,17.29-4.41,1.89,4.12,23.11,56,26.67,65.29,1.9-8.51,6.88-45.04,10.83-62.73,1.34-6.01,8.13-8.81,10.98-7.63,2.86,1.18,6.77,5.02,4.8,12.86Z"/>
  </g>
</svg>