<?xml version="1.0" encoding="UTF-8"?>
<svg id="Layer_2" data-name="Layer 2" xmlns="http://www.w3.org/2000/svg" viewBox="0 0 63.26 100">
  <defs>
    <style>
      .cls-1 {
        fill: #231f20;
      }
    </style>
  </defs>
  <g id="Layer_1-2" data-name="Layer 1">
    <path class="cls-1" d="m1.8,4.75C22.8-2.05,45.28-1.45,53.25,5.91c13,12.02,11.73,27.97,5.3,37.78-9.61,14.68-39.31,14.22-39.31,14.22,0,0,2.03,32.29,2.03,37.03,0,3.37-5,5.06-7.39,5.06-2.61,0-8.38-1.11-8.77-5.06C-.09,41.92-1.56,11.9,1.8,4.75Zm16.42,38.41c23.74,2.4,31.24-6.46,29.23-20.01-2.01-13.55-27.09-9.98-30.1-8.53-1.08,15.62-.82,17.65.87,28.53Z"/>
  </g>
</svg>