<?xml version="1.0" encoding="UTF-8"?>
<svg id="Layer_2" data-name="Layer 2" xmlns="http://www.w3.org/2000/svg" viewBox="0 0 70.22 100">
  <defs>
    <style>
      .cls-1 {
        fill: #231f20;
      }
    </style>
  </defs>
  <g id="Layer_1-2" data-name="Layer 1">
    <path class="cls-1" d="m68.16,86.34l-27.01-30.3c8.67-2.49,14.65-6.38,18.04-11.36,6.58-10.17,7.68-26.51-5.38-38.57C45.53-1.47,23.41-2.07,2.27,4.71l-.6.2-.2.5C-1.11,10.79.08,27.64,2.17,58.14c.8,10.57,1.59,22.63,2.39,36.18.2,3.69,4.09,5.68,7.87,5.68,2.99,0,7.68-1.69,8.37-6.18.6-4.19-.5-28.71-.8-34.79h1.69l34.19,38.28c1.59,1.79,3.79,2.69,6.08,2.69,1.99,0,3.99-.7,5.48-2.09,3.39-2.99,3.69-8.27.7-11.56ZM17.92,43.19l-.3-1.99c-1.3-8.17-1.99-12.06-1.1-25.02,3.79-1,19.24-2.69,27.11,1.49,2.79,1.4,4.39,3.39,4.69,5.88.8,4.98-.6,9.47-3.79,12.96-5.18,5.28-14.55,7.68-26.61,6.68Z"/>
  </g>
</svg>