<?xml version="1.0" encoding="UTF-8"?>
<svg id="Layer_2" data-name="Layer 2" xmlns="http://www.w3.org/2000/svg" viewBox="0 0 81.89 100">
  <defs>
    <style>
      .cls-1 {
        fill: #231f20;
      }
    </style>
  </defs>
  <g id="Layer_1-2" data-name="Layer 1">
    <path class="cls-1" d="m79.94,85.08c1.56,1.95,2.14,4.39,1.85,6.82-.29,2.44-1.56,4.58-3.41,6.14-4,3.02-9.85,2.34-12.97-1.66l-24.47-31.39-24.47,31.39c-1.75,2.34-4.48,3.61-7.21,3.61-1.95,0-4-.68-5.65-1.95-1.95-1.46-3.22-3.7-3.51-6.14-.29-2.44.29-4.87,1.85-6.82l27.3-35.1L1.95,14.89c-1.27-1.66-1.95-3.61-1.95-5.65C0,6.41,1.36,3.68,3.61,1.93,5.46.47,7.8-.22,10.33.08c2.44.29,4.68,1.56,6.14,3.51l24.47,31.39L65.32,3.59c3.31-4.09,9.07-4.78,13.06-1.56,2.24,1.66,3.51,4.29,3.51,7.21,0,2.05-.68,4-1.95,5.65l-27.3,35.09,27.3,35.1Z"/>
  </g>
</svg>