<?xml version="1.0" encoding="UTF-8"?>
<svg id="Layer_2" data-name="Layer 2" xmlns="http://www.w3.org/2000/svg" viewBox="0 0 85.88 100">
  <defs>
    <style>
      .cls-1 {
        fill: #231f20;
      }
    </style>
  </defs>
  <g id="Layer_1-2" data-name="Layer 1">
    <path class="cls-1" d="m83.65,81.35c-9.34-22.67-18.56-43.87-22.12-52.01-3.78-8.44-6.67-15.21-7.45-17.17C50.86,3.44,48.08.39,42.86,0c-5,.39-7.89,3.44-11.12,12.17-.67,1.96-3.56,8.73-7.34,17.17-7.34,16.58-15.56,36.02-22.23,52.01-2.78,7.07-2.89,12.07-.33,15.21,1.89,2.26,4.89,3.43,9,3.43h64.25c4.11,0,7.11-1.18,9-3.43,1.22-1.47,1.78-3.43,1.78-5.79,0-2.55-.67-5.69-2.22-9.42Zm-16.67,3.43H18.96c1.67-4.22,4.89-12.46,8.67-21.79,5.56-14.13,12.12-30.72,15.34-38.96,3.89,9.81,12.23,31.11,18.34,46.32l5.67,14.43Z"/>
  </g>
</svg>