<?xml version="1.0" encoding="UTF-8"?>
<svg id="Layer_2" data-name="Layer 2" xmlns="http://www.w3.org/2000/svg" viewBox="0 0 76.79 100">
  <defs>
    <style>
      .cls-1 {
        fill: #231f20;
      }
    </style>
  </defs>
  <g id="Layer_1-2" data-name="Layer 1">
    <path class="cls-1" d="m.77,86.51c.59-2.94,19.69-55.35,30.18-79.36C34.18-.1,37.02,0,38.39,0c1.37,0,4.21-.1,7.45,7.15,10.48,24,29.59,76.42,30.18,79.36,2.25,9.99-.78,11.56-4.41,13.03-2.84,1.27-8.62.2-11.17-6.96-1.57-4.21-22.04-58.59-22.04-58.59,0,0-20.48,54.37-22.04,58.59-2.55,7.15-8.33,8.23-11.17,6.96-3.62-1.47-6.66-3.04-4.41-13.03Z"/>
  </g>
</svg>