<?xml version="1.0" encoding="UTF-8"?>
<svg id="Layer_2" data-name="Layer 2" xmlns="http://www.w3.org/2000/svg" viewBox="0 0 16.15 10">
  <defs>
    <style>
      .cls-1 {
        fill: #231f20;
      }
    </style>
  </defs>
  <g id="Layer_1-2" data-name="Layer 1">
    <g>
      <path class="cls-1" d="m8.67,1.67c-.5,2.51-1.03,3.37-3.39,3.82-.04,0-.07.04-.08.07v3.6c0,.22-.1.44-.25.6s-.36.24-.59.24-.43-.09-.61-.24c-.16-.16-.24-.38-.24-.6v-3.6s-.05-.06-.09-.07C1.07,5.04.54,4.18.04,1.67-.04,1.31,0,1.02.16.84c.17-.21.42-.24.56-.24.24,0,.43.22.56.45.13.23.2.47.21.54.25,1.71.73,2.29,1.85,2.29h.09s.07-.02.09-.06V.78c.12-.28.2-.48.31-.6.07-.06.15-.1.23-.13.05-.02.1-.03.14-.04.11-.02.24-.02.33,0,.05,0,.1.02.15.04.07,0,.15.06.22.13.12.12.21.31.3.6v.03s.02.03.02.05v2.94s0,.02,0,.04c0,.03.05.05.09.05,1.2.04,1.68-.54,1.93-2.29.03-.13.28-.99.76-.99h0c.14,0,.39.03.56.24.15.19.19.47.12.83Z"/>
      <rect class="cls-1" x="9.15" y="4" width="7" height="2" rx=".95" ry=".95"/>
    </g>
  </g>
</svg>