<svg xmlns="http://www.w3.org/2000/svg" version="1.1" id="Layer_2_00000170976901285289158630000005074868748275876237_" style="enable-background:new 0 0 200 100;" viewBox="24.45 0 151.15 99.97">
    <g id="Layer_1-2">
        <g>
            <path fill="#00000" d="M25.2,86.4c0.6-2.9,19.7-55.4,30.2-79.3C58.6,0,61.4,0,62.8,0s4.2,0,7.4,7.2c10.5,24,29.6,76.3,30.2,79.3    c2.3,10-0.8,11.6-4.4,13c-2.8,1.3-8.6,0.2-11.2-7c-1.6-4.2-22-58.6-22-58.6s-20.5,54.4-22,58.6c-2.5,7.2-8.3,8.2-11.2,7    C26,98,23,96.5,25.2,86.4L25.2,86.4z"></path>
            <path fill="#00000" d="M115.1,40h51c5.2,0,9.5,4.3,9.5,9.5v1c0,5.2-4.3,9.5-9.5,9.5h-51c-5.2,0-9.5-4.3-9.5-9.5v-1    C105.6,44.2,109.8,40,115.1,40z"></path>
        </g>
    </g>
</svg>