<?xml version="1.0" encoding="UTF-8"?>
<svg id="Layer_1" data-name="Layer 1" xmlns="http://www.w3.org/2000/svg" viewBox="0 0 258.08 267.88">
  <defs>
    <style>
      .cls-1 {
        fill: #2e3192;
      }
    </style>
  </defs>
  <path class="cls-1" d="m218.55,266.12c-8.2,5.94-18.74-5.02-18.74-5.02l22.06-22.34c.57-.42,1.06-.92,1.48-1.48l2.19-2.33c-29.98,1.13-46.17-2.97-60.45-17.26s-13.75-33.24-10.25-46.61c-12.9,4.57-31.59,4.77-42.75-6.39-11.16-11.16-10.05-24.16-5.71-42.08-16.27,6.14-33.98,2.38-42.41-6.04-8.43-8.43-9.78-23.73-4.9-41.26-16.7,6.3-27.9,8.47-43.98-7.61C-.97,51.6.01,23.42.01,13.08c0-17.89,18.59-17.21,18.59.7,0,17.91,2.89,33.29,10.01,40.41,7.12,7.12,19.95,4.91,29.11,1.57,9.17-3.34,27.68-11.69,28.89-12.28s4.77-2.53,4.77-2.53c0,0-1.53,3.1-2.37,5.08-.84,1.98-8.97,20.46-11.46,29.56s-6.02,21.53-.07,27.47c5.95,5.95,21.22,3.68,29.13,1.58,7.91-2.09,25.37-11.38,28.16-12.78,2.79-1.4,4.95-2.59,4.95-2.59,0,0-1.32,2.32-2.56,4.87-1.27,2.61-10.06,19.64-12.76,28.29s-6.69,20.86,1.2,28.75c7.89,7.89,19.73,2.19,27.78.23,8.04-1.96,26.27-9.47,29.2-10.87,2.99-1.43,5.6-2.8,5.6-2.8,0,0-2.12,3.98-2.96,5.73-.83,1.75-8.73,20.41-10.51,29.27-2.68,13.32-4.37,24.37,3.29,32.03,7.66,7.66,13.97,9.86,33.76,9.86,2.69-.14,9.9.14,14,0l-25.95-25.39s10.54-10.82,18.74-4.74c9.4,7,39.53,40.8,39.53,40.8,0,0-27.72,32.24-39.53,40.8Z"/>
</svg>