<?xml version="1.0" encoding="utf-8"?>
<!-- Generator: Adobe Illustrator 27.1.0, SVG Export Plug-In . SVG Version: 6.00 Build 0)  -->
<svg version="1.1" id="Layer_2_00000101821533019054110190000002220138579624444334_"
	 xmlns="http://www.w3.org/2000/svg" xmlns:xlink="http://www.w3.org/1999/xlink" x="0px" y="0px" viewBox="0 0 275 275"
	 style="enable-background:new 0 0 275 275;" xml:space="preserve">
<style type="text/css">
	.st0{fill:#2E3192;}
</style>
<g id="Layer_1-2">
	<path class="st0" d="M265,200.1l-25.9,25.5c-5.7-49.3-31.8-109.5-86.7-119.3C145,45.9,77.8,15.7,14.5,17.1
		c-3.4-0.1-10.2,1.6-11.2,9c0,0.5-0.1,0.9-0.1,1.3c0,6.5,6.5,9.9,10.2,10.8C82.7,42,120,63.1,130.9,104.6c-20-1.5-42.4,10.2-52.4,28
		c-8.1,14.4-6.4,29.9,4.5,42.6c11.9,12,26.8,14.7,41.2,7.5c18.7-9.4,31.9-33,30.5-53.9c44.6,11.5,59.6,69.3,64.2,95.9L194,200.1
		c0,0-10.9,10.5-5,18.7c7.9,10.8,40.5,39.1,40.5,39.1s32.6-28.3,40.5-39.1C275.9,210.6,265,200.1,265,200.1L265,200.1z M123.4,159.5
		c-12.4,11.1-23.7,8-27.7,3.3c-5.5-6.5-1-22.9,7.3-30c7-6,14.9-12,31.1-9.4C136.4,138.1,132.7,151.1,123.4,159.5L123.4,159.5z"/>
</g>
</svg>
