<?xml version="1.0" encoding="UTF-8"?>
<svg id="Layer_1" data-name="Layer 1" xmlns="http://www.w3.org/2000/svg" viewBox="0 0 260.88 202.15">
  <defs>
    <style>
      .cls-1 {
        fill: #2e3192;
      }

      .cls-2 {
        fill: #231f20;
      }
    </style>
  </defs>
  <g>
    <path d="m0,45.34c.02-.17.04-.34.06-.5.13-.94.33-1.86.6-2.77.67-2.25,1.73-4.3,3.14-6.18.83-1.11,1.74-2.15,2.68-3.17,1.56-1.68,3.21-3.28,4.89-4.84,1.54-1.43,3.08-2.86,4.56-4.36.66-.67,1.32-1.35,1.91-2.09.88-1.1,1.52-2.33,1.86-3.7.17-.68.23-1.36.19-2.06-.03-.6-.11-1.18-.29-1.75-.51-1.6-1.6-2.61-3.21-3.09-.67-.2-1.36-.26-2.05-.25-.71,0-1.41.1-2.08.33-1.37.48-2.33,1.39-2.88,2.72-.24.58-.41,1.19-.52,1.81-.09.48-.15.97-.18,1.46,0,.03,0,.06-.01.09-2.62-.26-5.23-.52-7.86-.78.01-.12.02-.23.03-.34.12-.91.28-1.82.51-2.71.32-1.2.76-2.35,1.39-3.43.86-1.48,2.04-2.65,3.51-3.55,1.31-.8,2.71-1.36,4.21-1.71.74-.17,1.49-.29,2.24-.36,1.04-.1,2.09-.11,3.13-.06,1.1.06,2.18.2,3.24.47,1.59.4,3.06,1.04,4.37,2.02,1.56,1.18,2.77,2.64,3.56,4.44.38.87.62,1.77.76,2.7.12.81.15,1.62.11,2.43-.09,2.03-.59,3.95-1.5,5.77-.65,1.3-1.45,2.51-2.33,3.67-.74.98-1.57,1.86-2.44,2.73-1.14,1.14-2.33,2.23-3.53,3.31-1.25,1.13-2.5,2.27-3.7,3.45-.82.8-1.56,1.67-2.17,2.64-.06.1-.12.19-.19.31h15.85c.03.1.04,7.13.01,7.34H0Z"/>
    <g>
      <path class="cls-2" d="m80.55,30.93c0,8.36-6.71,14.41-15.82,14.41-4.79,0-8.53-1.31-10.45-2.52l-1.15-.71,2.4-7.15,1.82,1.11c1.63.81,4.41,1.81,7.29,1.81,3.64,0,7.29-2.22,7.29-6.35-.1-5.44-5.08-6.55-9.2-6.55-1.92,0-3.45.2-4.7.3l-2.68.3,3.07-21.56h21.38v7.66h-14.77l-.96,5.94h1.15c3.26,0,6.52.81,9.11,2.22,3.93,2.22,6.23,6.25,6.23,11.08Z"/>
      <ellipse class="cls-2" cx="43.06" cy="39.6" rx="5.71" ry="5.74"/>
    </g>
  </g>
  <path class="cls-1" d="m129.19,64.01c6.73-9.13,19.58-38.43,21.01-41.31-2.79-1.65-29.92-18.56-40.7-22.3-7.79-2.62-13.32,8.4-13.32,8.4l26.98,14.16c-51.9,15.32-56.24,68.7-56.24,81.96,0,57.38,43.75,97.22,96.5,97.22,55.47,0,97.46-43.06,97.46-98.52,0-41.89-27.55-76.77-67.86-88.87-12.85-3.72-17.35,9.87-7.12,15.23.8.42,1.68.78,2.66,1.09,33.42,10.33,55.35,37.97,55.35,72.55,0,46.13-34.36,81.56-80.49,81.56-43.41,0-79.65-36.87-79.65-80.28,0-13.25,2.19-51.02,44-67.16l-14.37,26.88s10.82,5.96,15.79-.6Z"/>
</svg>