<?xml version="1.0" encoding="utf-8"?>
<svg version="1.1" id="Layer_1"
	xmlns="http://www.w3.org/2000/svg"
	xmlns:xlink="http://www.w3.org/1999/xlink" viewBox="0 0 349.4 173.9" style="enable-background:new 0 0 349.4 173.9;" xml:space="preserve">
	<style type="text/css">
	.st0{fill:#2E3192;}
	</style>
	<path fill="#2E3192" d="M13.6,22.1C31.7,21.5,104.8,13,152,51.6c-19.8,3-29.5,15.2-37.1,30.7c-5.4,10.9-3.2,36.7,12.8,45.1
	c16,8.4,39.3,1.4,47.3-8.4c8.1-9.9,16.2-29.1,10.2-49.2c73.6,2,137.3,94.1,130.3,86.3l-35-1.4c0,0-1,15.1,8.9,17.2
	c13.1,2.7,56.3,1.6,56.3,1.6s5-42.9,3.5-56.2c-1.2-10-16.3-10.4-16.3-10.4l-1.9,36.3c18.6,20.8-59.3-99.2-153.1-94.8
	C126.6-5.4,34.3-1.3,10.7,1.3C-3.6,2.8-4.5,22.8,13.6,22.1L13.6,22.1z M165.4,101.8c-7,11.3-21.9,14.4-28.1,10.7
	C130,108,127,94.3,134.1,84c7.1-10.3,16-17.2,32.3-18.3C172,79.5,172.9,89.7,165.4,101.8L165.4,101.8z"/>
</svg>
