<?xml version="1.0" encoding="UTF-8"?>
<svg id="Layer_1" data-name="Layer 1" xmlns="http://www.w3.org/2000/svg" xmlns:xlink="http://www.w3.org/1999/xlink" viewBox="0 0 127.18 112.5">
  <defs>
    <style>
      .cls-1 {
        fill: url(#Sky_4-3);
      }

      .cls-2 {
        fill: url(#Sky_4-2);
      }

      .cls-3 {
        fill: url(#Sky_4);
      }
    </style>
    <linearGradient id="Sky_4" data-name="Sky 4" x1="0" y1="44.05" x2="124.69" y2="44.05" gradientUnits="userSpaceOnUse">
      <stop offset="0" stop-color="#dce9f7"/>
      <stop offset=".5" stop-color="#b9d6ef"/>
      <stop offset="1" stop-color="#78b7e3"/>
    </linearGradient>
    <linearGradient id="Sky_4-2" data-name="Sky 4" x1="29.64" y1="82.82" x2="127.18" y2="82.82" xlink:href="#Sky_4"/>
    <linearGradient id="Sky_4-3" data-name="Sky 4" x1="18.58" y1="95.97" x2="126.69" y2="95.97" xlink:href="#Sky_4"/>
  </defs>
  <path class="cls-3" d="m38.19.19c-.32.07-1.32.32-2.19.53-4.16.99-9.01,5.08-11.33,9.59-2.14,4.09-2.99,7.54-3.01,12.09,0,6.27,1.9,11.63,5.82,16.36,2.17,2.61,2.17,3.24,0,.81-1.58-1.76-6.76-2.61-10.65-1.76C6.88,39.95,0,50.04,0,62.34c.03,7.76,2.43,14.45,6.97,19.42,2.22,2.43,6.15,4.97,9.1,5.85,2.87.85,7.73.56,10.54-.67,11.41-4.9,15.22-21.86,7.11-31.51-6.82-8.07-17.88-5.01-20.13,5.53-1.14,5.32.91,10.89,4.92,13.47,1.08.71,1.7.81,4.18.81,3.48,0,4.71-.6,6.99-3.49.88-1.06,1.2-1.34.82-.71-.94,1.62-2.6,3.31-4.13,4.16-1.9,1.06-5.77,1.02-7.7-.04-2.05-1.13-4.13-3.63-5.09-6.2-.73-1.87-.85-2.61-.82-5.18,0-4.27.79-6.52,3.31-9.55s4.33-3.91,8.02-4.12c4.04-.21,7.2,1.16,9.98,4.41,4.92,5.68,6.15,14.07,3.25,22.38-.18.49.23.39,1.96-.56,5.97-3.31,11.15-4.79,16.92-4.79,6.76,0,9.69.81,24.29,6.7,13.14,5.29,15.13,5.82,22.1,5.82,5.88,0,7.7-.39,11.47-2.47,3.86-2.12,6.26-4.55,8.31-8.35,3.07-5.75,3.1-12.83.09-18.15-1.23-2.15-2.43-3.31-4.74-4.62-1.4-.81-2.08-.95-4.16-.95s-2.75.14-4.13.92c-3.34,1.9-5.3,5.39-5.33,9.48,0,1.3.18,2.82.44,3.56.61,1.73,2.17,3.77,3.48,4.58,1.52.92,4.27.92,5.79-.04,3.6-2.19,3.75-7.9.26-9.48-1.17-.53-2.49-.11-3.51,1.16-.7.81-.82.92-.56.28.85-1.94,3.37-2.71,4.95-1.52,2.49,1.9,2.84,5.89.7,8.6-1.29,1.66-2.75,2.36-4.77,2.36-2.31,0-3.95-.92-5.53-3.07-3.63-5.01-2.14-12.8,3.16-16.39,1.67-1.16,2.84-2.89,4.1-6.2.61-1.62.79-2.68.88-5.39.2-5.32-.76-8.57-3.63-12.27-5.24-6.8-14.05-6.91-19.61-.25-1,1.2-2.08,2.82-2.43,3.67-.91,2.12-1,1.83-.18-.6,2.78-8.18.47-17.27-5.53-21.96-3.57-2.78-8.66-3.6-12.55-2.01-5.09,2.04-9.42,8.11-10.04,13.92-.2,2.01-.7,2.61-.7.88,0-1.59-1.11-5.64-2.25-8.14-1.61-3.49-4.98-7.33-8.02-9.09-3.37-1.97-7.7-2.96-10.36-2.33Z"/>
  <path class="cls-2" d="m126.43,69.25c-.97,2.75-3.57,7.23-5.59,9.73-5.77,7.01-13.96,10.43-22.07,9.17-3.92-.63-8.31-2.12-15.8-5.32-13.4-5.78-16.45-6.7-23.44-6.94-3.89-.14-5.65-.07-7.9.39-5.27,1.09-10.68,3.67-15.07,7.16-2.05,1.59-7.11,6.77-6.91,7.01.06.07,1.4-.63,3.01-1.62,6.2-3.74,11.18-5.11,18.55-5.11s9.95.78,21.25,6.2c10.54,5.04,14.31,6.52,19.58,7.54,3.07.6,8.55.67,11.27.14,10.54-2.01,19.43-10.96,22.65-22.7.56-2.04,1.38-6.98,1.2-7.19-.09-.07-.41.63-.73,1.55Z"/>
  <path class="cls-1" d="m125.69,81.69c-1.2,3.31-3.86,7.93-6.2,10.79-5.97,7.26-13.49,10.79-22.04,10.33-5.44-.28-10.01-1.66-20.11-6.1-15.13-6.66-20.75-8.14-29.06-7.79-4.83.21-8.17.92-12.2,2.54-5.47,2.22-11.27,6.38-15.22,10.93l-2.28,2.64,3.13-1.97c9.92-6.13,20.87-7.97,31.05-5.11,3.57,1.02,7.99,2.86,14.93,6.24,13.37,6.52,19.32,8.32,27.28,8.32,4.1-.04,6.35-.39,9.66-1.55,9.63-3.38,17.76-12.83,20.72-24.08.73-2.86,1.49-7.19,1.32-7.44-.06-.07-.5.95-.97,2.26Z"/>
</svg>