<?xml version="1.0" encoding="UTF-8"?>
<svg id="Layer_1" data-name="Layer 1" xmlns="http://www.w3.org/2000/svg" viewBox="0 0 97.54 125">
  <defs>
    <style>
      .cls-1 {
        fill: #f4ea02;
      }

      .cls-1, .cls-2 {
        fill-rule: evenodd;
      }

      .cls-2 {
        fill: #f2673a;
      }
    </style>
  </defs>
  <path class="cls-2" d="m97.54,79.19c0,19.84-13.58,36.71-32.51,42.97-.41.16-.82.25-1.23.41.16-.08.33-.25.49-.33,11.19-8.23,19.67-28.81-2.8-36.8,7.82,16.63-9.47,21.07-16.13,10.62-4.69-7.33-3.87-20.25-2.47-26.75,2.47-11.44,5.84-20.66,5.27-34.16-2.14,24.12-45.6,54.49-8.81,88.49.16.16.25.25.41.41-.58-.08-1.15-.16-1.73-.33C16.22,119.19,0,101,0,79.27c0-12.68,4.53-22.39,14.49-30.95-.91,2.72-1.98,5.43-2.8,8.15-4.94,16.79,9.38,21.65,7.98,5.76C16.63,27.74,53.09,19.84,43.38,0c15.72,7.57,28.23,19.1,25.35,37.45-.74,4.86-3.79,13.91-2.39,18.44,2.63,8.4,16.63,8.31,17.12-7.33,5.52,4.45,10.04,11.52,12.18,18.11,1.4,3.7,1.89,7.9,1.89,12.51Z"/>
  <path class="cls-1" d="m63.79,122.57c-8.4,2.63-15.72,3.13-24.04,1.48-37.37-34,5.93-64.78,8.4-88.9.58,13.5-2.8,22.72-5.27,34.16-1.4,6.5-2.22,19.43,2.47,26.75,6.67,10.45,23.95,6.01,16.13-10.62,22.97,7.82,13.91,28.81,2.3,37.12Z"/>
</svg>