<?xml version="1.0" encoding="UTF-8"?>
<svg id="Layer_2" data-name="Layer 2" xmlns="http://www.w3.org/2000/svg" viewBox="0 0 83.67 45">
  <defs>
    <style>
      .cls-1 {
        fill: #010101;
      }
    </style>
  </defs>
  <g id="Layer_1-2" data-name="Layer 1">
    <g>
      <path class="cls-1" d="m29.85,44.46l-.31.54H0v-1.61c.1-.54.1-.86.21-1.07.1-.75.21-1.39.52-2.14.73-2.36,1.77-4.61,3.24-6.65.84-1.18,1.88-2.36,2.82-3.43,1.57-1.72,3.24-3.43,4.91-5.04l.42-.43c1.46-1.39,2.82-2.68,4.18-4.07.21-.32.63-.64.94-1.07.31-.32.63-.64.84-1.07.94-1.18,1.46-2.25,1.67-3.32l.1-.21c0-.64.1-1.07.1-1.72,0,0,0-.21-.1-.43,0-.43,0-.64-.1-1.07-.52-1.29-1.25-2.14-2.61-2.47-.84-.32-2.19-.32-3.55.11-1.04.43-1.77,1.07-2.19,2.14-.21.54-.31,1.18-.42,1.72s-.21.96-.21,1.29v1.18h-1.15c-1.36-.21-2.71-.32-3.97-.43-1.36-.11-2.61-.32-3.86-.43l-.94-.11v-1.29c.1-1.07.21-2.14.63-3.11.31-1.5.73-2.68,1.36-3.75.83-1.61,2.09-2.89,3.97-4.07,1.25-.86,2.71-1.5,4.49-1.93.73-.21,1.46-.32,2.4-.43,1.15-.11,2.19-.11,3.34,0,1.04,0,2.3.21,3.34.43,1.88.54,3.44,1.29,4.8,2.36,1.67,1.29,2.92,2.89,3.86,5.04.42.86.73,1.82.84,3.11.1.97.21,1.82.1,2.68,0,2.14-.52,4.4-1.57,6.43-.73,1.5-1.67,2.89-2.4,3.97-.94,1.07-1.77,2.04-2.61,2.89-1.15,1.29-2.4,2.47-3.65,3.54-1.15,1.18-2.4,2.25-3.55,3.54-.42.43-.73.75-1.04,1.18h14.82v1.07c.1,7.72,0,7.83-.1,8.15Z"/>
      <path class="cls-1" d="m83.67,29.31c0,9.11-7.34,15.69-17.31,15.69-5.24,0-9.34-1.43-11.43-2.74l-1.26-.77,2.62-7.79,1.99,1.21c1.78.88,4.83,1.98,7.97,1.98,3.99,0,7.97-2.41,7.97-6.91-.1-5.93-5.56-7.13-10.07-7.13-2.1,0-3.78.22-5.14.33l-2.94.33L59.44,0h23.39v8.34h-16.15l-1.05,6.48h1.26c3.57,0,7.13.88,9.97,2.41,4.3,2.41,6.82,6.8,6.82,12.07Z"/>
      <circle class="cls-1" cx="43.67" cy="38.75" r="6.25"/>
    </g>
  </g>
</svg>