<?xml version="1.0" encoding="utf-8"?>
<!-- Generator: Adobe Illustrator 27.1.0, SVG Export Plug-In . SVG Version: 6.00 Build 0)  -->
<svg version="1.1" id="Layer_1" xmlns="http://www.w3.org/2000/svg" xmlns:xlink="http://www.w3.org/1999/xlink" x="0px" y="0px"
	 viewBox="0 0 240.8 216.5" style="enable-background:new 0 0 240.8 216.5;" xml:space="preserve">
<style type="text/css">
	.st0{fill:#2E3192;}
	.st1{fill:#EC1C24;}
	.st2{fill:#2E3191;}
	.st3{fill:#231F20;}
</style>
<g>
	<path class="st0" d="M-816.3-143.3L-816.3-143.3C-816.3-143.4-816.3-143.3-816.3-143.3c-1.2-6.2-7.7-42.8-7.2-54.8
		c0-1.8,2.1-9.1,13.6-10.4l4.2,34.7c44.3-64.9,47.8-154.4,47.8-231.9c0-78.4-19.1-174.6-64-243c-7-11.3,10.3-25.7,19-11.2
		c46.6,77.3,66.5,176.7,66.5,254.2c0,76.4-7.2,176.3-51.7,245.1l33.9-3.6c1.3,11.5-5.3,15.2-7.1,15.6
		C-772.9-145.4-810.1-143.6-816.3-143.3z"/>
</g>
<text transform="matrix(1 0 0 1 -224.9017 -476.6086)" style="font-family:'ArialMT'; font-size:60px;">from nonradial</text>
<g>
	<path class="st1" d="M-1402.7-462.3c5,0,9.2,3.9,9.2,8.7v18.2h222.9c4.9,0,8.9,3.9,8.9,8.5v4.2c0,4.6-4,8.5-8.9,8.5h-222.9v18.2
		c0,4.8-4.2,8.7-9.2,8.7s-9.1-3.9-9.1-8.7v-57.6C-1411.8-458.4-1407.7-462.3-1402.7-462.3z"/>
	<path class="st2" d="M-1170.9-101.1c-5,0-9.2-3.9-9.2-8.7V-128h-222.9c-4.9,0-8.9-3.9-8.9-8.5v-4.2c0-4.6,4-8.5,8.9-8.5h222.9
		v-18.2c0-4.8,4.2-8.7,9.2-8.7s9.1,3.9,9.1,8.7v57.6C-1161.8-105-1165.9-101.1-1170.9-101.1z"/>
</g>
<g>
	<g>
		<circle class="st3" cx="-1286.8" cy="-581.7" r="25"/>
		<circle class="st3" cx="-986.8" cy="-281.7" r="25"/>
		<circle class="st3" cx="-1286.8" cy="18.3" r="25"/>
		<circle class="st3" cx="-1586.8" cy="-281.7" r="25"/>
		<circle class="st3" cx="-1143.7" cy="-138.6" r="8.8"/>
		<circle class="st3" cx="-1429.9" cy="-138.6" r="8.8"/>
		<circle class="st3" cx="-1429.9" cy="-424.8" r="8.8"/>
		<circle class="st3" cx="-1143.7" cy="-424.8" r="8.8"/>
		<circle class="st3" cx="-1286.8" cy="-281.7" r="11.2"/>
	</g>
	<circle class="st3" cx="-1143.7" cy="-281.7" r="4.7"/>
	<circle class="st3" cx="-1286.8" cy="-138.6" r="4.7"/>
	<circle class="st3" cx="-1429.9" cy="-281.7" r="4.7"/>
	<circle class="st3" cx="-1286.8" cy="-424.8" r="4.7"/>
</g>
<g>
	<path class="st0" d="M-1363.6-162.9c-10.6-7.7-34.8-35.4-38.8-40c4.3-4.7,30.3-33.7,38.8-39.9c1.5-1.1,3.2-1.6,5-1.6
		c5,0,9.9,4,11.7,5.6l-28.4,26.7c175.5-0.1,168.5,3.4,170.7-182.5c0.1-9.9,18.7-10,18.7-0.3c0,195.5-0.8,200.2-189.3,200.2
		l28.2,27.6c-1.8,1.7-6.8,5.8-11.8,5.8C-1360.5-161.3-1362.2-161.9-1363.6-162.9z"/>
</g>
<g>
	<path class="st0" d="M239.2,177.7c-7.7,10.6-35.4,34.8-40,38.8c-4.7-4.3-33.7-30.3-39.9-38.8c-1.1-1.5-1.6-3.2-1.6-5
		c0-5,4-9.9,5.6-11.7l26.7,28.4C190,14,193.4,20.9,7.5,18.7C-2.4,18.6-2.5,0,7.2,0c195.5,0,200.2,0.8,200.2,189.3l27.6-28.2
		c1.7,1.8,5.8,6.8,5.8,11.8C240.8,174.6,240.2,176.3,239.2,177.7z"/>
</g>
</svg>
