<?xml version="1.0" encoding="utf-8"?>
<!-- Generator: Adobe Illustrator 27.1.0, SVG Export Plug-In . SVG Version: 6.00 Build 0)  -->
<svg version="1.1" id="Layer_1" xmlns="http://www.w3.org/2000/svg" xmlns:xlink="http://www.w3.org/1999/xlink" x="0px" y="0px"
	 viewBox="0 0 241.8 220.6" style="enable-background:new 0 0 241.8 220.6;" xml:space="preserve">
<style type="text/css">
	.st0{fill:#2E3192;}
</style>
<text transform="matrix(1 0 0 1 -116.5624 -736.7205)" style="font-family:'ArialMT'; font-size:60px;">from nonradial</text>
<g>
	<path class="st0" d="M194.8,220.6c-4-4.7-28.2-33-33.9-43.6c-3.6-6.7,4-13.8,6.5-15.9l22.4,29.6c12.5-49.3-3.3-98.1-22.1-107
		c1.2,12,0,23.3-7.1,30.4c-9.6,9.6-34.3,15.1-50.2-0.8c-17.6-17.6-11-38.9-0.5-49.9c8.3-8.6,21.8-9.5,29.2-9.5
		c-25.4-44.5-97.8-37.3-128-33.2c-13.9,1.9-15.4-15-0.8-16.8c92.2-11.1,120,3.2,153.3,56.2c43.1,14.4,56.2,82.7,44,133l30-22.1
		c1.8,2.7,7.1,11.5,1.8,17.1C231.2,196.9,200,217.3,194.8,220.6z M123.3,76.6c-7.2,7.2-6.6,18.4-0.6,24.4c5.9,5.9,19.2,5.2,24.6-0.3
		c7.8-7.8,6.3-17.8,1.9-26.3C140.3,70.9,130.5,69.4,123.3,76.6z"/>
</g>
</svg>
