<?xml version="1.0" encoding="utf-8"?>
<!-- Generator: Adobe Illustrator 27.1.0, SVG Export Plug-In . SVG Version: 6.00 Build 0)  -->
<svg version="1.1" id="Layer_1" xmlns="http://www.w3.org/2000/svg" xmlns:xlink="http://www.w3.org/1999/xlink" x="0px" y="0px"
	 viewBox="0 0 242 222.1" style="enable-background:new 0 0 242 222.1;" xml:space="preserve">
<style type="text/css">
	.st0{fill:#2E3192;}
</style>
<text transform="matrix(1 0 0 1 -276.2881 -201.3727)" style="font-family:'ArialMT'; font-size:60px;">from nonradial</text>
<g>
	<path class="st0" d="M188.3,222.1c-3-5.4-21.3-37.8-24.8-49.3c-2.2-7.3,6.6-12.8,9.5-14.3l16.3,33.4c21.7-46,5.3-96.3-22.6-107.7
		c1.2,12,0,23.3-7.1,30.4c-9.6,9.6-34.3,15.1-50.2-0.8c-17.6-17.6-11-38.9-0.5-49.9c8.3-8.6,21.8-9.5,29.2-9.5
		c-22.5-51-96.6-36.8-126.3-30.4C-2,26.9-4.9,10.2,9.5,7.2c91-18.5,125.7,0.6,152.9,53.3c52.6,16.6,65.4,90,43.7,137l33.7-15.9
		c1.2,3,4.7,12.7-1.5,17.2C228.6,205.8,194,219.8,188.3,222.1z M122.2,77c-7.2,7.2-6.6,18.4-0.6,24.4c5.9,5.9,19.2,5.2,24.6-0.3
		c7.8-7.8,6.3-17.8,1.9-26.3C139.2,71.3,129.4,69.8,122.2,77z"/>
</g>
</svg>
