<?xml version="1.0" encoding="utf-8"?>
<!-- Generator: Adobe Illustrator 27.1.0, SVG Export Plug-In . SVG Version: 6.00 Build 0)  -->
<svg version="1.1" id="Layer_1"
	xmlns="http://www.w3.org/2000/svg"
	xmlns:xlink="http://www.w3.org/1999/xlink" x="0px" y="0px" viewBox="0 0 385.2 114.5" style="enable-background:new 0 0 385.2 114.5;" xml:space="preserve">
	<style type="text/css">
	.st0{fill:#2E3192;}
	</style>
	<g>
		<g>
			<path class="st0" d="M347.6,2c-8-6.2-18.9,4.3-18.9,4.3l22.9,26.6c-67.8-9.5-132.9-8.6-172.5,19.3C105.5,42.5,11.6,88.3,2.9,95.3
			c-8.5,6.8,3.3,21,14.5,13.5C23.3,105,86.2,71.6,160.9,67c-5,6.3-9.7,10.2-5.8,27.1c2.7,11.8,17.6,23.2,35.2,19.7
			c17.8-3.5,27.3-18.4,27.3-31c0-12.8-8.1-20.4-13.7-24.1c54.4-20,100.7-12.6,147.8-7l-25.5,25.5c0,0,10.1,11.3,18.4,5.6
			c11.1-7.5,40.6-39,40.6-39S358.1,10.3,347.6,2z M200.7,82c1.6,7.7-5.1,16-13,16.8s-17.5-6.5-17.3-14.4c0.2-7.9,4.5-10.5,12.9-15.8
			C190.7,70.3,199,74.2,200.7,82z"/>
		</g>
	</g>
</svg>
