<?xml version="1.0" encoding="utf-8"?>
<!-- Generator: Adobe Illustrator 27.1.0, SVG Export Plug-In . SVG Version: 6.00 Build 0)  -->
<svg version="1.1" id="Layer_1" xmlns="http://www.w3.org/2000/svg" xmlns:xlink="http://www.w3.org/1999/xlink" x="0px" y="0px"
	 viewBox="0 0 342.2 227.3" style="enable-background:new 0 0 342.2 227.3;" xml:space="preserve">
<style type="text/css">
	.st0{fill:#2E3192;}
</style>
<text transform="matrix(1 0 0 1 102.4339 -249.1613)" style="font-family:'ArialMT'; font-size:60px;">from nonradial</text>
<g>
	<path class="st0" d="M323.3,191.1c-39,60.9-111.9,37.3-139.8-14.4L172,212.1c-3.1-1.3-12.6-5.4-11.5-13.2
		c2-11.9,15.6-46.5,17.8-52.2c6.1,1.6,42.1,10.6,52.8,16c6.9,3.6,4.7,13.7,3.8,16.8l-36.1-10c29.5,50.3,85.5,49.2,111,10.6
		c78-118-162.7-171.6-295.7-161.8C-4.4,18.4-4.4,2.1,12.4,0.9C147.9-7.8,415.4,47.4,323.3,191.1z"/>
</g>
</svg>
