<?xml version="1.0" encoding="utf-8"?>
<!-- Generator: Adobe Illustrator 27.1.0, SVG Export Plug-In . SVG Version: 6.00 Build 0)  -->
<svg version="1.1" id="Layer_1" xmlns="http://www.w3.org/2000/svg" xmlns:xlink="http://www.w3.org/1999/xlink" x="0px" y="0px"
	 viewBox="0 0 350 118.9" style="enable-background:new 0 0 350 118.9;" xml:space="preserve">
<style type="text/css">
	.st0{fill:#2E3192;}
</style>
<text transform="matrix(1 0 0 1 -54.6805 -1345.8525)" style="font-family:'ArialMT'; font-size:60px;">from nonradial</text>
<g>
	<path class="st0" d="M348.4,112.9c-6.2,0.4-43.3,2.8-55.2,0.9c-7.6-1.2-8.7-11.5-8.8-14.8l37.1-0.2c-20.8-16.6-63.2-45.8-111-52.4
		c4.9,11,4.1,24.2-1.9,34.6s-23,22.5-45.4,11.7S147,57.5,151.5,50.2s9.8-13.6,26.5-18C131.1,19,68.5,18.7,13.3,18.7
		C-1,18.7-6.1,0.1,9.7,0.1c68.7,0,164.5,2.8,190.1,26.4c60.8,9.7,105.7,35.3,134.3,59.6l0.3-37.3c3.3,0.1,13.5,1.2,14.8,8.8
		C351.2,69.6,348.8,106.8,348.4,112.9z M164.9,57.4c-5,7.3-1.8,17,5.8,20.7c7.5,3.7,18.8,0.7,23.1-6.6s4.7-10.3-2.8-26.3
		C174.7,48.7,169.9,50.1,164.9,57.4z"/>
</g>
</svg>
