<?xml version="1.0" encoding="utf-8"?>
<!-- Generator: Adobe Illustrator 27.1.0, SVG Export Plug-In . SVG Version: 6.00 Build 0)  -->
<svg version="1.1" id="Layer_1" xmlns="http://www.w3.org/2000/svg" xmlns:xlink="http://www.w3.org/1999/xlink" x="0px" y="0px"
	 viewBox="0 0 247.7 150" style="enable-background:new 0 0 247.7 150;" xml:space="preserve">
<style type="text/css">
	.st0{fill:#2E3192;}
</style>
<text transform="matrix(1 0 0 1 -84.8985 -1083.0078)" style="font-family:'ArialMT'; font-size:60px;">from nonradial</text>
<g>
	<path class="st0" d="M184.2,9.6l32.2,16.5C189.8,33.8,136.3,62,124.5,75c-8.9-8.8-61.2-44-113.1-55.9C0.3,16.5-3.1,31.3,5.6,33.9
		C85,57.7,112.3,88.5,112.3,88.5c-9.8,8.6-16.6,17.8-16.6,31.6c0,8.5,5.3,29.9,27.9,29.9c22.5,0,29.9-20.5,29.9-29.9
		c0-15.9-10.7-25.4-16.7-31.9c14-15.7,53.9-35.8,86.2-45.3l0.2,0.7l-16.5,33.2c3,1.3,12.7,5,17.2-1.2c7.1-9.8,21.6-44.1,24-49.7
		c-5.2-3.1-37.4-22-49-25.6C191.4-1.9,185.8,6.8,184.2,9.6z M138.1,120.1c0,10-8,15.4-14.6,15.4s-12.7-5.2-12.7-15.4
		s7.2-17.8,12.7-21.1C129,102.1,138.1,110.1,138.1,120.1z"/>
</g>
</svg>
