<?xml version="1.0" encoding="utf-8"?>
<!-- Generator: Adobe Illustrator 27.1.0, SVG Export Plug-In . SVG Version: 6.00 Build 0)  -->
<svg version="1.1" id="Layer_1" xmlns="http://www.w3.org/2000/svg" xmlns:xlink="http://www.w3.org/1999/xlink" x="0px" y="0px"
	 viewBox="0 0 234.5 230.2" style="enable-background:new 0 0 234.5 230.2;" xml:space="preserve">
<style type="text/css">
	.st0{fill:#2E3192;}
</style>
<text transform="matrix(1 0 0 1 -31.3777 -228.6226)" style="font-family:'ArialMT'; font-size:60px;">from nonradial</text>
<g>
	<path class="st0" d="M193.4,230.2c-4.6-4.1-32.6-28.6-39.7-38.4c-4.5-6.2,2-14.3,4.2-16.7l26.4,26.1c-2.9-26.4-5.2-97.3-23.7-104.8
		c1.2,12,0,23.3-7.1,30.4c-9.6,9.6-34.3,15.1-50.2-0.8c-17.6-17.6-11-38.9-0.5-49.9c8.3-8.6,19.9-9.8,27.3-9.8
		C107.3,27.7,59.2,27.1,9.9,19c-14-2.3-13.2-21.1,2.4-18.8C76.5,9.5,129.6,21,156.4,72.9c41.4,6.7,42.7,90.9,45.8,128.3l26.6-26.2
		c2.2,2.4,8.7,10.4,4.2,16.7C226,201.6,198,226.2,193.4,230.2z M116.1,89.4c-7.2,7.2-6.6,18.4-0.6,24.4c5.9,5.9,19.2,5.2,24.6-0.3
		c7.8-7.8,6.3-17.8,1.9-26.3C133.1,83.7,123.3,82.2,116.1,89.4z"/>
</g>
</svg>
