<?xml version="1.0" encoding="utf-8"?>
<!-- Generator: Adobe Illustrator 27.1.0, SVG Export Plug-In . SVG Version: 6.00 Build 0)  -->
<svg version="1.1" id="Layer_1" xmlns="http://www.w3.org/2000/svg" xmlns:xlink="http://www.w3.org/1999/xlink" x="0px" y="0px"
	 viewBox="0 0 350 118.9" style="enable-background:new 0 0 350 118.9;" xml:space="preserve">
<style type="text/css">
	.st0{fill:#2E3192;}
	.st1{fill:#EC1C24;}
	.st2{fill:#2E3191;}
	.st3{fill:#231F20;}
</style>
<text transform="matrix(1 0 0 1 -395.4388 -476.7056)" style="font-family:'ArialMT'; font-size:60px;">from nonradial</text>
<g>
	<path class="st0" d="M-772.8-61.5c-0.4-6.2-2.8-43.3-0.9-55.2c1.2-7.6,11.5-8.7,14.8-8.8l0.2,37.1c16.6-20.7,44.5-64.2,51.1-112
		c-11,4.9-32.8,4.5-49.2-5.1s-28.7-25.8-18-48.3s39.5-21.3,53.8-11.8s24.3,17.1,28.8,33.8c13.3-46.9,13.5-109.5,13.5-164.7
		c0-14.2,18.6-19.3,18.6-3.6c0,68.7,3.1,134-26.4,190.1c-9.7,60.8-35.3,105.7-59.6,134.3l37.3,0.3c-0.1,3.3-1.2,13.5-8.8,14.8
		C-729.5-58.7-766.7-61.1-772.8-61.5z M-731.1-251.6c-10.2-5-26.1-2.1-29.9,5.4c-3.7,7.5,2.9,20.3,13.7,25.8
		c11.4,5.8,24.5,7,40.4-0.4C-710.4-237.2-720.8-246.5-731.1-251.6z"/>
</g>
<g>
	<path class="st0" d="M348.4,112.9c-6.2,0.4-43.3,2.8-55.2,0.9c-7.6-1.2-8.7-11.5-8.8-14.8l37.1-0.2c-20.7-16.6-64.2-44.5-112-51.1
		c4.9,11,4.5,32.8-5.1,49.2s-25.8,28.7-48.3,18S134.7,75.3,144.2,61c9.5-14.3,17.1-24.3,33.8-28.8C131.1,19,68.5,18.7,13.3,18.7
		C-1,18.7-6.1,0.1,9.7,0.1c68.7,0,134-3.1,190.1,26.4c60.8,9.7,105.7,35.3,134.3,59.6l0.3-37.3c3.3,0.1,13.5,1.2,14.8,8.8
		C351.2,69.6,348.8,106.8,348.4,112.9z M158.3,71.2c-5,10.2-2.1,26.1,5.4,29.9c7.5,3.7,20.3-2.9,25.8-13.7c5.8-11.4,7-24.5-0.4-40.4
		C172.7,50.5,163.3,60.9,158.3,71.2z"/>
</g>
<g>
	<path class="st0" d="M-1399.2-98.4c-0.4-6.2-2.8-43.3-0.9-55.2c1.2-7.6,11.5-8.7,14.8-8.8l0.2,37.1c16.6-20.7,45.4-50.4,50.1-98.7
		c-7.6,9.4-27.2,18.8-46.2,17.6c-19-1.2-37.3-10.1-37.8-35c-0.5-24.9,25.7-36.8,42.7-34.8c17,2,29.4,4.3,40.9,17.2
		c11.2-43.5-6-86.9-35.2-127.4c-8.3-11.5,5.6-24.2,15-11.6c38.7,52,52.9,100.3,35.1,155.9c14.3,55.7-27.7,100.9-52,129.5l37.3,0.3
		c-0.1,3.3-1.2,13.5-8.8,14.8C-1356-95.5-1393.1-98-1399.2-98.4z M-1379-259c-11.4,0.1-24.3,9.9-24.2,18.3
		c0,8.3,11.7,16.8,23.8,16.8c12.8,0.1,25-4.8,35.9-18.6C-1354.1-255.5-1367.5-259.2-1379-259z"/>
</g>
<g>
	<path class="st1" d="M-922.5-475.1c5,0,9.2,3.9,9.2,8.7v18.2h222.9c4.9,0,8.9,3.9,8.9,8.5v4.2c0,4.6-4,8.5-8.9,8.5h-222.9v18.2
		c0,4.8-4.2,8.7-9.2,8.7s-9.1-3.9-9.1-8.7v-57.6C-931.6-471.2-927.5-475.1-922.5-475.1z"/>
	<path class="st2" d="M-844.1-35.4c0-5,3.9-9.2,8.7-9.2h18.2v-222.9c0-4.9,3.9-8.9,8.5-8.9h4.2c4.6,0,8.5,4,8.5,8.9v222.9h18.2
		c4.8,0,8.7,4.2,8.7,9.2c0,5-3.9,9.1-8.7,9.1h-57.6C-840.2-26.3-844.1-30.4-844.1-35.4z"/>
</g>
<g>
	<g>
		<circle class="st3" cx="-806.6" cy="-594.4" r="25"/>
		<circle class="st3" cx="-506.6" cy="-294.4" r="25"/>
		<circle class="st3" cx="-806.6" cy="5.6" r="25"/>
		<circle class="st3" cx="-1106.6" cy="-294.4" r="25"/>
		<circle class="st3" cx="-663.5" cy="-151.4" r="8.8"/>
		<circle class="st3" cx="-949.7" cy="-151.4" r="8.8"/>
		<circle class="st3" cx="-949.7" cy="-437.5" r="8.8"/>
		<circle class="st3" cx="-663.5" cy="-437.5" r="8.8"/>
		<circle class="st3" cx="-806.6" cy="-294.4" r="11.2"/>
	</g>
	<circle class="st3" cx="-663.5" cy="-294.4" r="4.7"/>
	<circle class="st3" cx="-806.6" cy="-151.4" r="4.7"/>
	<circle class="st3" cx="-949.7" cy="-294.4" r="4.7"/>
	<circle class="st3" cx="-806.6" cy="-437.5" r="4.7"/>
</g>
</svg>
