<?xml version="1.0" encoding="utf-8"?>
<!-- Generator: Adobe Illustrator 27.1.0, SVG Export Plug-In . SVG Version: 6.00 Build 0)  -->
<svg version="1.1" id="Layer_1" xmlns="http://www.w3.org/2000/svg" xmlns:xlink="http://www.w3.org/1999/xlink" x="0px" y="0px"
	 viewBox="0 0 384.7 120.2" style="enable-background:new 0 0 384.7 120.2;" xml:space="preserve">
<style type="text/css">
	.st0{fill:#2E3192;}
</style>
<text transform="matrix(1 0 0 1 8.9706 -220.6001)" style="font-family:'ArialMT'; font-size:60px;">from nonradial</text>
<g>
	<path class="st0" d="M384.7,109c-6.2,1.5-43.9,10.8-54.5,11.2c-7.7,0.3-10.8-9.5-11.5-12.7l38.3-6.5l-2.3-1.4
		C206.3,10.1,25.3,18.4,13.8,20.2c-5.7,1-13.4-1.4-13.8-8.7s5.8-8.9,10.9-9.9c11.1-2.1,202.2-14.2,353,82.7l2,1.3l-5.2-36.9
		c3.2-0.4,13.5-0.9,15.9,6.5C380.7,67.3,384,103,384.7,109z"/>
</g>
</svg>
