<?xml version="1.0" encoding="utf-8"?>
<!-- Generator: Adobe Illustrator 27.1.0, SVG Export Plug-In . SVG Version: 6.00 Build 0)  -->
<svg version="1.1" id="Layer_1" xmlns="http://www.w3.org/2000/svg" xmlns:xlink="http://www.w3.org/1999/xlink" x="0px" y="0px"
	 viewBox="0 0 234.5 242.9" style="enable-background:new 0 0 234.5 242.9;" xml:space="preserve">
<style type="text/css">
	.st0{fill:#2E3192;}
</style>
<text transform="matrix(1 0 0 1 -31.3777 -228.6226)" style="font-family:'ArialMT'; font-size:60px;">from nonradial</text>
<g>
	<path class="st0" d="M193.4,242.9c-4.6-4.1-32.6-28.6-39.7-38.4c-4.5-6.2,2-14.3,4.2-16.7l26.4,26.1c-2.9-26.4-3.5-67.7-34.3-105.2
		c1.2,12-6,32.5-20.3,45.1c-14.3,12.6-33.5,19.2-51.5,2s-7.8-44.2,5.6-54.8s23.9-17.8,41.1-16.7C102,45.5,59.2,27.1,9.9,19
		c-14-2.3-13.2-21.1,2.4-18.8c64.1,9.4,108.3,33.6,135.1,85.4c49.4,29.3,51.7,90.9,54.8,128.3l26.6-26.2c2.2,2.4,8.7,10.4,4.2,16.7
		C226,214.3,198,238.9,193.4,242.9z M94.1,115c-8,8.2-10.2,24.2-4.2,30.1c5.9,5.9,20.1,3.6,28.7-4.9c9.1-9,14.3-21.1,12.2-38.5
		C114.2,99.9,102.1,106.8,94.1,115z"/>
</g>
</svg>
