<?xml version="1.0" encoding="utf-8"?>
<!-- Generator: Adobe Illustrator 27.1.0, SVG Export Plug-In . SVG Version: 6.00 Build 0)  -->
<svg version="1.1" id="Layer_1"
	xmlns="http://www.w3.org/2000/svg"
	xmlns:xlink="http://www.w3.org/1999/xlink" x="0px" y="0px" viewBox="0 0 413.5 360.9" style="enable-background:new 0 0 413.5 360.9;" xml:space="preserve">
	<style type="text/css">
	.st0{fill:#2E3192;}
	</style>
	<g>
		<g>
			<path class="st0" d="M18.6,105.2C119,34.3,252.1-17.6,315.5,54h-0.7c-19.1,0-38.9,11.3-48,27.6c-7.9,14-6.3,29.1,4.3,41.4
			c7.3,7.3,15.8,11.2,24.6,11.2c5.2,0,10.4-1.3,15.5-3.9c18.2-9.1,31.4-32.3,30-52.9l0-0.6c77.9,47.3,79.1,160.8-25.1,256.4
			l-2.8-37.2c-3.1,0.3-13.4,1.6-14.5,9.3c-1.4,11.9,2.2,48.9,2.8,55.1c6.2,0.2,43.4,1.4,55.2-0.8c7.7-1.6,8.3-11.9,8.5-15.3
			l-36.6,1.1C434.2,248.3,445,115.9,339.8,56.2C273.5-37.4,153.3-6.2,4.4,91.9C-6.1,98.9,3.5,115.9,18.6,105.2z M322.4,71.1l0.1,0.7
			c2.4,15.3-1.5,28.4-11,37c-7.3,6.4-13.7,7.8-17.8,7.8c-4.7,0-8.9-1.7-11.4-4.6c-6.1-7.2-0.8-24.3,7.4-31.4
			c6.3-5.4,12.9-10.3,24.4-10.3c2.4,0,4.9,0.2,7.6,0.7L322.4,71.1z"/>
		</g>
	</g>
	<text transform="matrix(1 0 0 1 -8.1695 -379.7668)" style="font-family:'ArialMT'; font-size:60px;">from nonradial</text>
</svg>
