<?xml version="1.0" encoding="utf-8"?>
<!-- Generator: Adobe Illustrator 27.1.0, SVG Export Plug-In . SVG Version: 6.00 Build 0)  -->
<svg version="1.1" id="Layer_1" xmlns="http://www.w3.org/2000/svg" xmlns:xlink="http://www.w3.org/1999/xlink" x="0px" y="0px"
	 viewBox="0 0 417.9 191.9" style="enable-background:new 0 0 417.9 191.9;" xml:space="preserve">
<style type="text/css">
	.st0{fill:#2E3192;}
</style>
<text transform="matrix(1 0 0 1 -120.6525 -922.8121)" style="font-family:'ArialMT'; font-size:60px;">from nonradial</text>
<g>
	<g>
		<g>
			<path class="st0" d="M4.6,69.1c213.1-132.6,377.1-48,408.8,35.6c21,65-34.2,115.6-102.8,50.6l1.2,36.6
				c-3.4-0.2-13.7-0.8-15.3-8.5c-2.2-11.8-1.1-49-1-55.2c6.2-0.6,43.2-4.3,55.1-3c7.7,1.1,9,11.4,9.3,14.5l-37.2,2.9
				c56.4,46.6,83.9,15.4,72.6-28.5c-20-72.6-185.1-157.7-376.1-29.8C3.3,93.8-6.2,75.6,4.6,69.1z"/>
		</g>
	</g>
</g>
</svg>
