<svg xmlns="http://www.w3.org/2000/svg" version="1.1" id="Layer_2_00000145743219545497903300000015379546888556730517_" style="enable-background:new 0 0 200 100;" viewBox="29.95 0.02 140.05 99.98">  	<g id="Layer_1-2"> 		<g> 			<path fill="#00000" d="M109.5,40h51c5.2,0,9.5,4.3,9.5,9.5v1c0,5.2-4.3,9.5-9.5,9.5h-51c-5.2,0-9.5-4.3-9.5-9.5v-1    C100,44.2,104.3,40,109.5,40z"></path> 			<path fill="#00000" d="M97.7,12.5L54,95.4c-1.5,2.9-4.5,4.6-7.5,4.6c-1.3,0-2.6-0.4-3.9-1c-2-1.1-3.5-2.8-4.2-5    c-0.7-2.1-0.5-4.5,0.6-6.5l18.8-35.8L32.5,15.6c-1.2-1.1-2-2.7-2.4-4.7c-0.5-2.5,0.3-5.3,2-7.1C33.6,2.1,35.6,1,37.9,1    c2.2,0,4.5,0.7,6.1,2.1L66,36L82.6,4.6c1.2-2,2.9-3.5,5.1-4.2s4.5-0.4,6.5,0.7C96.4,2.3,98,4.4,98.5,7    C98.8,8.9,98.5,10.8,97.7,12.5z"></path> 		</g> 	</g> </svg>