<?xml version="1.0" encoding="utf-8"?>
<!-- Generator: Adobe Illustrator 27.1.0, SVG Export Plug-In . SVG Version: 6.00 Build 0)  -->
<svg version="1.1" id="Layer_1" xmlns="http://www.w3.org/2000/svg" xmlns:xlink="http://www.w3.org/1999/xlink" x="0px" y="0px"
	 viewBox="0 0 180.3 188.4" style="enable-background:new 0 0 180.3 188.4;" xml:space="preserve">
<style type="text/css">
	.st0{fill:#2E3192;}
</style>
<g>
	<path class="st0" d="M136.7,188.4c-5,0-10-4.1-11.8-5.8l28.2-27.6h-14.3C30,155,0,143.4,0,13.2C0-4.9,18.7-4,18.7,13.5
		c0,124.3,22.3,124.1,132,124.1h2.5l-28.4-26.7c1.8-1.6,6.7-5.6,11.7-5.6c1.8,0,3.5,0.5,5,1.6c8.5,6.2,34.5,35.2,38.8,39.9
		c-4,4.6-28.2,32.3-38.8,40C140.1,187.8,138.4,188.4,136.7,188.4z"/>
</g>
<text transform="matrix(1 0 0 1 -255.7053 -559.2655)" style="font-family:'ArialMT'; font-size:60px;">from antiradial</text>
</svg>
