<?xml version="1.0" encoding="utf-8"?>
<!-- Generator: Adobe Illustrator 27.1.0, SVG Export Plug-In . SVG Version: 6.00 Build 0)  -->
<svg version="1.1" id="Layer_1" xmlns="http://www.w3.org/2000/svg" xmlns:xlink="http://www.w3.org/1999/xlink" x="0px" y="0px"
	 viewBox="0 0 364.9 117.4" style="enable-background:new 0 0 364.9 117.4;" xml:space="preserve">
<style type="text/css">
	.st0{fill:#2E3192;}
</style>
<g>
	<path class="st0" d="M333,115c-5.4,5.4-14.4,0.1-17.3-1.6l22-30.9l-2.4,0.4C214.8,94.3,91.9,72.4,8.2,20.5
		c-16.3-8.8-5.9-27.1,10-18.1c84,55.2,195.9,66.4,315.4,62.6l2.6-0.2l-31.8-22.2c0.4-0.6,1.1-1.2,1.8-2c3.4-3.5,8.7-7.1,13.9-4.5
		c9.5,4.8,39.7,29.2,44.6,33.2c-3.3,5.2-22.3,36.1-31.7,45.7C333.2,114.8,333,115,333,115z"/>
</g>
<text transform="matrix(1 0 0 1 5.6966 -539.4343)" style="font-family:'ArialMT'; font-size:60px;">from antiradial</text>
</svg>
