<?xml version="1.0" encoding="utf-8"?>
<svg version="1.1" id="Layer_1"
	xmlns="http://www.w3.org/2000/svg"
	xmlns:xlink="http://www.w3.org/1999/xlink" viewBox="0 0 200 350" xml:space="preserve">
	<style type="text/css">
	.st0{fill:#2E3192;}
	</style>
	<path fill="#2E3192" d="M70.2,343.9c-10-1.6-9.7-16.8-9.7-16.8l31.4-0.1c0.7,0.1,1.4,0.1,2.1,0l3.2-0.1c-22-20.4-30.5-34.8-30.5-54.9
	c0.1-20.2,13.7-33.2,25.7-40.2c-12.4-5.9-25.7-19-25.7-34.8c0-15.8,10-24.3,25.7-33.8C76.7,156,66.8,140.9,66.8,129
	s9.8-23.7,25.7-32.7C76.2,89,66.8,82.6,66.8,59.8c-0.1-22.9,20.5-42.1,27.8-49.4c12.7-12.7,25.3,1,12.7,13.6S85.7,49.6,85.7,59.7
	s10.7,17.6,19.4,21.7c8.8,4.2,27.9,11.3,29.1,11.7c1.3,0.4,5.2,1.6,5.2,1.6s-3.2,1.1-5.2,1.8c-2,0.8-20.9,8.1-29.1,12.8
	s-19.4,11-19.5,19.4c0,8.3,12.4,17.6,19.4,21.7c7.1,4.1,26,9.9,29,10.9c3,1,5.3,1.6,5.3,1.6s-2.5,0.7-5.3,1.6s-21,6.7-29.1,11
	s-19.5,10-19.4,21.1c0.1,11.1,12.4,15.5,19.5,19.8c7.1,4.2,25.3,11.9,28.4,12.9c3.1,1.1,5.9,2,5.9,2s-4.3,1.3-6.2,1.9
	c-1.8,0.7-20.6,8.3-28.1,13.3c-11.3,7.5-20.4,14.1-20.3,25c0,10.9,2.9,16.9,16.9,30.9c2,1.8,6.9,7.1,9.9,9.9l-0.4-36.3
	c0,0,15.1-0.2,16.5,9.9c1.7,11.6-0.9,56.8-0.9,56.8S84.7,346.1,70.2,343.9L70.2,343.9z"/>
</svg>
