<?xml version="1.0" encoding="utf-8"?>
<svg version="1.1" id="Layer_1"
	xmlns="http://www.w3.org/2000/svg"
	xmlns:xlink="http://www.w3.org/1999/xlink" viewBox="0 0 200 350" xml:space="preserve">

	<path fill="#2E3192" d="M129.3,330.1c0,0,2.6-45.2,0.8-56.7c-1.5-10.1-16.5-9.9-16.5-9.9l0.4,37.8c-54-49.4-26.8-85.1,28.4-117.2
	c-54.9-34.7-103.9-62.9-18.5-148.4c9.5-9.5-4.9-24.1-14.4-14.6c-59.3,59.3-76,121.1-5.1,164.3c-52.5,40-51.8,76.2-3.2,128.5
	l-38.3,0.3c0,0-0.4,15.2,9.7,16.8C86.9,333.4,129.3,330.1,129.3,330.1z"/>
</svg>
