<?xml version="1.0" encoding="utf-8"?>
<!-- Generator: Adobe Illustrator 27.1.0, SVG Export Plug-In . SVG Version: 6.00 Build 0)  -->
<svg version="1.1" id="Layer_1" xmlns="http://www.w3.org/2000/svg" xmlns:xlink="http://www.w3.org/1999/xlink" x="0px" y="0px"
	 viewBox="0 0 217.9 391.7" style="enable-background:new 0 0 217.9 391.7;" xml:space="preserve">
<style type="text/css">
	.st0{fill:#2E3192;}
</style>
<g>
	<path class="st0" d="M111.6,391.7C5.9,404.1-0.8,297.7,36.7,266.5l-36,9.6c-0.6-3.3-2.3-13.5,4.8-16.8c11-4.8,47.5-12.2,53.5-13.4
		c2,5.9,14,41.1,15.3,53c0.7,7.7-9,11.4-12,12.4L51,275.6c-30.3,34.7-15.2,111.3,61,99.7c165.2-25.1,75.1-310.8-76.5-357.9
		C18,12,24.9-3.8,40.9,1.2C212.5,54.7,302.8,369.2,111.6,391.7z"/>
</g>
</svg>
