<?xml version="1.0" encoding="utf-8"?>
<!-- Generator: Adobe Illustrator 27.1.0, SVG Export Plug-In . SVG Version: 6.00 Build 0)  -->
<svg version="1.1" id="Layer_1" xmlns="http://www.w3.org/2000/svg" xmlns:xlink="http://www.w3.org/1999/xlink" x="0px" y="0px"
	 viewBox="0 0 228.3 357.6" style="enable-background:new 0 0 228.3 357.6;" xml:space="preserve">
<style type="text/css">
	.st0{fill:#2E3192;}
</style>
<g>
	<path class="st0" d="M166.6,357.6c-1.4-6.2-9.7-44.2-9.8-54.7c-0.1-7.8,9.8-10.5,13-11.2l5.6,38.4l1.4-2.3
		c28.2-44.1,33-94.7,13.9-146.5C163.8,108.2,92.7,44.6,9.5,19.2c-3.9-1.3-7.1-4-8.7-7.4c-1-2.2-1.1-4.3-0.3-6.2C2.1,1.8,4.7,0,8.7,0
		c1.7,0,3.6,0.3,5.8,1C105.9,28.8,180.4,95.9,209,176c20.4,57.2,14.4,114.6-17,161.5l-1.3,1.9l37.4-5.9c0.4,3.2,1,13.6-6.3,16
		C209.3,353.7,172.7,357.1,166.6,357.6z"/>
</g>
</svg>
