<?xml version="1.0" encoding="utf-8"?>
<!-- Generator: Adobe Illustrator 27.1.0, SVG Export Plug-In . SVG Version: 6.00 Build 0)  -->
<svg version="1.1" id="Layer_2_00000098917429815362816250000013689750864772693143_"
	 xmlns="http://www.w3.org/2000/svg" xmlns:xlink="http://www.w3.org/1999/xlink" x="0px" y="0px" viewBox="0 0 100 100"
	 style="enable-background:new 0 0 100 100;" xml:space="preserve">
<style type="text/css">
	.st0{fill:#231F20;}
</style>
<g id="Layer_1-2">
	<path class="st0" d="M86.6,90.1C77.8,60.2,63.5,21.7,61.8,17C60,12.4,54,0,50,0S39.9,12.4,38.1,17c-1.7,4.7-16,43.2-24.7,73.1
		c-2.4,8.4,0.5,9.1,1.7,9.4c16.1,2.1,13.2-3,15.7-14c2.3-10,2.2-14.6,10-14.6c3.8,0,5.6,0.1,9.2,0.1c3.6,0,5.3-0.1,9.1-0.1
		c7.8,0,7.7,4.6,10,14.6c2.5,11-0.4,16.1,15.7,14C86,99.2,88.9,98.5,86.6,90.1z M57.5,56.4H42.4c-1.4,0-2.3-0.7-1.9-2.3L50,19.6
		l9.4,34.5C59.8,55.7,58.9,56.4,57.5,56.4z"/>
</g>
</svg>
