<?xml version="1.0" encoding="UTF-8"?>
<svg id="Layer_2" data-name="Layer 2" xmlns="http://www.w3.org/2000/svg" viewBox="0 0 63.79 100">
  <defs>
    <style>
      .cls-1 {
        fill: #231f20;
      }
    </style>
  </defs>
  <g id="Layer_1-2" data-name="Layer 1">
    <path class="cls-1" d="m35.48,48.6C79.43,29.26,43.44-16.16,2.72,5.92c-.39.21-.68.6-.75,1.05C-1.83,33.26.42,68.83,4,94.03c.18,1.29,1.16,2.34,2.42,2.69,62.22,17.12,76.8-37.84,29.07-48.12Zm6.55-24.71c0,11.34-19.78,15.07-27.4,15.07-1.28-2.6-.18-24.26.69-25.28,8.99-2.53,26.72.36,26.72,10.21Zm-23.82,61.68c-1.74-11.03-2.04-14.08-1.42-25.35,4.74-.55,33.21-.96,32.88,13.78-.26,11.53-24.44,13.77-31.46,11.57Z"/>
  </g>
</svg>