<?xml version="1.0" encoding="UTF-8"?>
<svg id="Layer_2" data-name="Layer 2" xmlns="http://www.w3.org/2000/svg" viewBox="0 0 65.45 100">
  <defs>
    <style>
      .cls-1 {
        fill: #231f20;
      }
    </style>
  </defs>
  <g id="Layer_1-2" data-name="Layer 1">
    <path class="cls-1" d="m15.07,29.75c.04,3.62.16,10.25.16,10.25,0,0,21.84.13,35.26.75,4.96.23,8.95-.68,9.53,7.83.41,6.07-3.15,7.36-8.74,7.77-12.78.95-34.93.49-34.93.49,0,0,.25,11.72.65,16.6.32,3.98,1.01,8.92,1.01,8.92,0,0,35.35.13,39.31.02,3.3-.1,8.41-.04,8.11,8.46-.31,8.97-4.18,8.37-9.78,8.77-14.91,1.05-41.2.02-48.38-3.85C-2.95,90.26-.62,40.74,3.56,6.61,4.39-.16,43.38-.54,53.11.35c4.44.41,6.66,5.31,6.71,8.29.05,3.17-.03,8.76-5.88,9.09-13.84.78-38.62,1.64-38.62,1.64,0,0-.27,8.06-.24,10.38Z"/>
  </g>
</svg>