<?xml version="1.0" encoding="UTF-8"?>
<svg id="Layer_2" data-name="Layer 2" xmlns="http://www.w3.org/2000/svg" viewBox="0 0 81.14 100">
  <defs>
    <style>
      .cls-1 {
        fill: #231f20;
      }
    </style>
  </defs>
  <g id="Layer_1-2" data-name="Layer 1">
    <path class="cls-1" d="m71.76,16.55c-4.2-.22-11.14-.39-13.26-.52-25.01-1.56-39.91,17.73-42.26,40.79-.76,7.43.74,12.37,6.26,17.71,9.58,8.82,26.51,10.8,36.84,3.3,2.87-2.09,5.57-5.66,6.75-9.2,2.33-7.02-.56-11.25-7.28-11.46-5.54-.18-11.1.73-16.66.95-4.68.19-9.82.53-11.08-6.23-1.06-5.68,3.5-10.44,10.69-11.31,5.99-.72,12.03-.82,18.04-1.34,4.09-.36,9.19-.06,14.12-.32,8.58,15.66,9.28,24.54,3.37,39.1-6.58,16.21-19.02,22.27-33.78,21.98-7.63-.15-16.11-2.09-22.65-6.24C-2.35,79.02-5.45,56.64,7.87,29.76,20.9-.37,50.37.07,63.21,0c8.35-.05,10.59,1.48,8.55,16.55Z"/>
  </g>
</svg>