<?xml version="1.0" encoding="UTF-8"?>
<svg id="Layer_2" data-name="Layer 2" xmlns="http://www.w3.org/2000/svg" viewBox="0 0 66.4 100">
  <defs>
    <style>
      .cls-1 {
        fill: #231f20;
      }
    </style>
  </defs>
  <g id="Layer_1-2" data-name="Layer 1">
    <path class="cls-1" d="m66.4,10.71v79.78c0,8.21-2.3,9.51-8.4,9.51-6.7,0-7.5-2-7.5-9.01,0-27.53,1.2-31.43-8.9-31.73-3.4-.2-13-.2-16.8,0-10.1.3-8.9,4.2-8.9,31.73,0,7.01-.8,9.01-7.5,9.01-6.1,0-8.4-1.3-8.4-9.51V10.71C0,1.1,3.9,0,8.8,0s7.1,2,7.1,10.41c0,27.63,1.1,32.53,7.6,32.53h19.4c6.5,0,7.6-4.9,7.6-32.53,0-8.41,2.2-10.41,7.1-10.41s8.8,1.1,8.8,10.71Z"/>
  </g>
</svg>