<?xml version="1.0" encoding="utf-8"?>
<!-- Generator: Adobe Illustrator 27.1.0, SVG Export Plug-In . SVG Version: 6.00 Build 0)  -->
<svg version="1.1" id="Layer_2_00000045611018854775086780000016117078218142878366_"
	 xmlns="http://www.w3.org/2000/svg" xmlns:xlink="http://www.w3.org/1999/xlink" x="0px" y="0px" viewBox="0 0 120 100"
	 style="enable-background:new 0 0 120 100;" xml:space="preserve">
<style type="text/css">
	.st0{fill:#231F20;}
</style>
<g id="Layer_1-2">
	<path class="st0" d="M96.7,92.6c0,6.5-3.6,7.4-15,7.4H38.3c-11.3,0-15-0.9-15-7.4s4.9-7.3,17.5-7.3s11.7,3.2,11.7-35.5s1-35-20-35
		c-4.9,0-9.2-1.6-9.2-7.2s2-7.5,9.9-7.5h53.5c7.9,0,9.9,2,9.9,7.5s-4.3,7.2-9.2,7.2c-21,0-20-3.7-20,35S66,85.3,79.1,85.3
		S96.7,86.1,96.7,92.6L96.7,92.6z"/>
</g>
</svg>
