<?xml version="1.0" encoding="utf-8"?>
<!-- Generator: Adobe Illustrator 27.1.0, SVG Export Plug-In . SVG Version: 6.00 Build 0)  -->
<svg version="1.1" id="Layer_2_00000170973493476482676480000010890430071367745460_"
	 xmlns="http://www.w3.org/2000/svg" xmlns:xlink="http://www.w3.org/1999/xlink" x="0px" y="0px" viewBox="0 0 120 120"
	 style="enable-background:new 0 0 120 120;" xml:space="preserve">
<style type="text/css">
	.st0{fill:#231F20;}
</style>
<g id="Layer_1-2">
	<path class="st0" d="M62.2,45.5C59.8,27.1,65.5,28,42.3,28C37.4,28,31,24.2,31,19.5S32.8,10,42.3,10c2.9,0,30.2-0.1,52.3,0
		c7.7,0,13.2,2.4,13.2,9.5c0,5.7-4.2,8.5-13.2,8.5c-18.9,0-16.5-1.4-16.5,17.8c0,22.2,1,31.8-2.9,39.7c-20.8,42.2-63,23.3-63-8.1
		c0-5.9,1.6-9,7.5-9.4c5.3-0.4,6.6,4.9,7.7,9C35,104.6,70,94.3,62.2,45.5z"/>
</g>
</svg>
