<?xml version="1.0" encoding="UTF-8"?>
<svg id="Layer_2" data-name="Layer 2" xmlns="http://www.w3.org/2000/svg" viewBox="0 0 95.7 100">
  <defs>
    <style>
      .cls-1 {
        fill: #231f20;
      }
    </style>
  </defs>
  <g id="Layer_1-2" data-name="Layer 1">
    <path class="cls-1" d="m50.04,35.47c-2.36-18.41,3.17-15.52-19.99-15.52-4.88,0-11.17-2.37-11.01-8.45.19-6.89,1.8-10.2,11.29-10.2C33.25,1.3,60.53-.12,82.57,0c7.67.04,13.13,3.12,13.13,10.19,0,5.67-4.3,9.17-13.35,9.17-18.92,0-16.43-2.7-16.43,16.52,0,22.24,1.03,31.76-2.9,39.7C42.2,117.73,0,98.87,0,67.44c0-5.92,1.58-8.98,7.49-9.39,5.31-.37,6.61,4.94,7.72,8.97,7.61,27.59,41.56,20.82,34.83-31.55Z"/>
  </g>
</svg>