<?xml version="1.0" encoding="UTF-8"?>
<svg id="Layer_2" data-name="Layer 2" xmlns="http://www.w3.org/2000/svg" viewBox="0 0 67.54 100">
  <defs>
    <style>
      .cls-1 {
        fill: #231f20;
      }
    </style>
  </defs>
  <g id="Layer_1-2" data-name="Layer 1">
    <path class="cls-1" d="m17.7,61.13c0,16.27-.02,21.59-.02,30.98,0,6.62-2.88,7.89-8.01,7.89-5.23,0-9.28-2.91-9.28-8.72C.38,79.76,0,29.72,0,5.69,0,.46,3.44,0,6.46,0c4.05,0,8.63,1.42,8.64,5.73,0,10.17.79,31.59.79,31.59,0,0,18.67-17.48,25-24.17,4.12-4.35,10.02-5.04,13.02-1.4,3,3.64,4.66,5.98-.98,11.53-8.52,8.39-10.42,12.13-24.64,25.27,8.28,8.57,21.84,19.93,36.06,36.22,4.48,5.13,3.43,11.36,1.71,13.02-1.72,1.66-7.96,2.35-11.89-1.67-3.94-4.02-19.22-20.94-36.48-35Z"/>
  </g>
</svg>