<?xml version="1.0" encoding="utf-8"?>
<!-- Generator: Adobe Illustrator 27.1.0, SVG Export Plug-In . SVG Version: 6.00 Build 0)  -->
<svg version="1.1" id="Layer_2_00000182498683553722626540000014110328808373250458_"
	 xmlns="http://www.w3.org/2000/svg" xmlns:xlink="http://www.w3.org/1999/xlink" x="0px" y="0px" viewBox="0 0 120 100"
	 style="enable-background:new 0 0 120 100;" xml:space="preserve">
<style type="text/css">
	.st0{fill:#231F20;}
</style>
<g id="Layer_1-2">
	<path class="st0" d="M111.8,99.9c-4.7,0.6-9.6-2.7-12-11.5c-4.2-15.4-9.4-37-14.4-56.3C74.3,59.3,66.7,76,60.4,75.9
		c-0.1,0-0.2,0-0.4-0.1c-0.1,0.1-0.2,0.1-0.4,0.1C53.3,76,45.7,59.3,34.6,32.1C29.4,51.4,24.4,73,20.2,88.4
		c-2.4,8.6-7.3,12.1-12,11.5C2.3,99.2-1.7,95,0.7,87.4c2.5-8.1,18.5-60.6,23.2-77.1c4.8-16.6,16-9.1,18.1-4.9
		C44,9.4,55.6,42,60,51.2c4.4-9.3,16-41.8,18.1-46c2-4.1,13.3-11.6,18.1,4.9c4.6,16.6,20.5,69.1,23,77.2
		C121.7,95,117.7,99.2,111.8,99.9L111.8,99.9z"/>
</g>
</svg>
