<svg xmlns="http://www.w3.org/2000/svg" version="1.1" id="Layer_2_00000050664677976902956350000012833660850593364407_" style="style=&quot;enable-background:new 0 0 200.0 100.0&quot;" viewBox="14.22 0.05 90.89 100.05">  	<g id="Layer_1-2"> 		<path fill="#00000" d="M90.4,86.9C87.7,98.7,84.7,100,80.3,100s-6.2-0.6-11.7-12.5S53,54,44.8,33.2c-4.4,19.4-10.1,41.7-13,53.1   s-7.1,14.4-11.5,13.7c-1-0.2-8.3-3-5.4-14c2.2-8.1,16.8-64.2,19.6-76.1c2.9-12,14.2-12.5,17.3-4.4c3.3,8.4,22,56.9,25.5,66.2   c1.9-8.5,8.4-52.1,10.3-61.4s6.6-10.2,10-10.2s8.3,2.3,7.4,10.6C104.7,14.3,93.1,75,90.4,86.9z"></path> 	</g> </svg>