<?xml version="1.0" encoding="utf-8"?>
<!-- Generator: Adobe Illustrator 27.1.0, SVG Export Plug-In . SVG Version: 6.00 Build 0)  -->
<svg version="1.1" id="Layer_1" xmlns="http://www.w3.org/2000/svg" xmlns:xlink="http://www.w3.org/1999/xlink" x="0px" y="0px"
	 viewBox="0 0 365.3 115.8" style="enable-background:new 0 0 365.3 115.8;" xml:space="preserve">
<style type="text/css">
	.st0{fill:#2E3192;}
</style>
<text transform="matrix(1 0 0 1 5.8964 -539.2155)" style="font-family:'ArialMT'; font-size:60px;">from nonradial</text>
<path class="st0" d="M365.3,74.6c-4,4.8-28.6,32.6-38.3,39.8c-1.4,1.1-8.4,4-16.6-4.2L337.2,83c-75.4,3.2-225.9-15.5-327-62.3
	C-7.4,14.9-0.3-4.9,16.9,1.1c119.5,51.4,193.9,59.8,320.2,65C310.4,39,310.4,39,310.4,39c8.2-8.2,15.2-5.3,16.6-4.2
	C336.7,41.9,361.3,69.8,365.3,74.6z"/>
<path class="st0" d="M416.8,142.6C416.8,142.6,416.8,142.6,416.8,142.6C416.8,142.6,416.8,142.5,416.8,142.6z"/>
</svg>
