<?xml version="1.0" encoding="utf-8"?>
<!-- Generator: Adobe Illustrator 27.1.0, SVG Export Plug-In . SVG Version: 6.00 Build 0)  -->
<svg version="1.1" id="Layer_1" xmlns="http://www.w3.org/2000/svg" xmlns:xlink="http://www.w3.org/1999/xlink" x="0px" y="0px"
	 viewBox="0 0 364.9 117.4" style="enable-background:new 0 0 364.9 117.4;" xml:space="preserve">
<style type="text/css">
	.st0{fill:#2E3192;}
</style>
<g>
	<path class="st0" d="M327.4,114.3c-6.1,4.6-14.3-2-16.9-4.1l26.2-27.4l-2.4,0C213.4,76.7,91.9,72.4,8.2,20.5
		c-16.3-8.8-5.9-27.1,10-18.1c84,55.2,198.2,49,317,62.5l2.6,0.2l-28.3-26.6c0.5-0.5,1.3-1,2.1-1.7c3.9-3,9.6-5.8,14.4-2.4
		c8.7,6.1,35.1,34.6,39.3,39.3C361.3,78.3,338.1,106.1,327.4,114.3C327.6,114.1,327.4,114.3,327.4,114.3z"/>
</g>
<text transform="matrix(1 0 0 1 5.6966 -539.4344)" style="font-family:'ArialMT'; font-size:60px;">from nonradial</text>
</svg>
