<?xml version="1.0" encoding="utf-8"?>
<!-- Generator: Adobe Illustrator 27.1.0, SVG Export Plug-In . SVG Version: 6.00 Build 0)  -->
<svg version="1.1" id="Layer_1" xmlns="http://www.w3.org/2000/svg" xmlns:xlink="http://www.w3.org/1999/xlink" x="0px" y="0px"
	 viewBox="0 0 309.3 231.5" style="enable-background:new 0 0 309.3 231.5;" xml:space="preserve">
<style type="text/css">
	.st0{fill:#2E3192;}
</style>
<g>
	<path class="st0" d="M305.7,111.3c35.9,147.1-198.8,204.3-304.5-95C-4.5,0.1,11.7-7.7,18,10.6c96.2,278.3,299.3,225.5,270.5,106.7
		c-10-41.2-80-57.3-107.3-20.8l37.5,0.5c0.1,3.6-0.8,13.6-8.5,15.1c-11.8,2.3-49,1.1-55.2,0.9c-0.5-5.2-3-53.2-2.8-55.1
		c1.1-7.7,11.2-9.1,14.5-9.4l1.8,38.5C199.1,42.7,290.6,49.4,305.7,111.3z"/>
</g>
</svg>
