<?xml version="1.0" encoding="utf-8"?>
<!-- Generator: Adobe Illustrator 27.1.0, SVG Export Plug-In . SVG Version: 6.00 Build 0)  -->
<svg version="1.1" id="Layer_1" xmlns="http://www.w3.org/2000/svg" xmlns:xlink="http://www.w3.org/1999/xlink" x="0px" y="0px"
	 viewBox="0 0 364.2 115.4" style="enable-background:new 0 0 364.2 115.4;" xml:space="preserve">
<style type="text/css">
	.st0{fill:#2E3192;}
</style>
<text transform="matrix(1 0 0 1 -150.8358 -754.7618)" style="font-family:'ArialMT'; font-size:60px;">from nonradial</text>
<g>
	<path class="st0" d="M8.1,19.1c38.3,27.7,94.3,45.8,153.1,40.2c22.9,21.6,76.5,19.5,172.4,22.5l-22,28.7c2.7,2,11.1,7.9,17,3
		c0,0,0.1-0.1,0.1,0c10-8.7,31.7-37.9,35.4-42.9c-4.6-4.3-32.6-31.3-41.7-36.8c-5-3.2-10.5,0-14.3,3.3c-0.8,0.7-1.5,1.3-2,1.9
		l27.5,27.2c3.9-1-136.4-3.4-146.1-11.6c-0.1-0.1,11.7-2.3,15.1-11.1c5-13.1,0.9-28.9-14.4-36.1s-31.5-3-38.8,12.7
		c-4.3,9.3-0.5,17,1.3,23.3c-60.4,0.3-98-13-134.1-40.4C1.8-6.8-7.6,9.3,8.1,19.1z M164.2,27.6c3.3-7.3,12.1-9.4,18.3-6.6
		c6.1,2.8,8.6,11.4,5.6,17.6s-11.5,7.4-17.6,7.8C165.3,41.6,160.9,34.9,164.2,27.6z"/>
</g>
</svg>
