<?xml version="1.0" encoding="utf-8"?>
<!-- Generator: Adobe Illustrator 27.1.0, SVG Export Plug-In . SVG Version: 6.00 Build 0)  -->
<svg version="1.1" id="Layer_1"
	xmlns="http://www.w3.org/2000/svg"
	xmlns:xlink="http://www.w3.org/1999/xlink" x="0px" y="0px" viewBox="0 0 364.4 114.3" style="enable-background:new 0 0 364.4 114.3;" xml:space="preserve">
	<style type="text/css">
	.st0{fill:#2E3192;}
	</style>
	<text transform="matrix(1 0 0 1 -150.8437 -754.7646)" style="font-family:'ArialMT'; font-size:60px;">from nonradial</text>
	<g>
		<path class="st0" d="M8.1,19.1c38.3,27.7,94.3,45.8,153.1,40.2c54.5,50.4,142.1,29.1,172,22.3l-24.4,26.8
		c2.5,2.2,10.4,8.8,16.7,4.4c0,0,0.1-0.1,0.1,0c10.7-7.9,34.6-35.2,38.7-39.9c-4.2-4.7-30-33.8-38.6-40c-4.7-3.6-10.5-0.8-14.5,2.1
		c-0.9,0.6-1.6,1.2-2.1,1.7l25.1,26.9c-29.3,5.2-112.6,25.8-150.5-6.4c-0.1-0.1,15.7-4.8,19.1-13.6c5-13.1,0.9-28.9-14.4-36.1
		s-31.5-3-38.8,12.7c-4.3,9.3-0.5,17,1.3,23.3C90.5,43.8,52.9,30.5,16.8,3.1C1.8-6.8-7.6,9.3,8.1,19.1z M164.2,27.6
		c3.3-7.3,12.1-9.4,18.3-6.6c6.1,2.8,8.6,11.4,5.6,17.6c-3,6.2-11.5,7.4-17.6,7.8C165.3,41.6,160.9,34.9,164.2,27.6z"/>
	</g>
</svg>
