<?xml version="1.0" standalone="no"?>
<!DOCTYPE svg PUBLIC "-//W3C//DTD SVG 20010904//EN"
 "http://www.w3.org/TR/2001/REC-SVG-20010904/DTD/svg10.dtd">
<svg version="1.0" xmlns="http://www.w3.org/2000/svg"
 width="1280.000000pt" height="1273.000000pt" viewBox="0 0 1280.000000 1273.000000"
 preserveAspectRatio="xMidYMid meet">
<metadata>
Created by potrace 1.15, written by Peter Selinger 2001-2017
</metadata>
<g transform="translate(0.000000,1273.000000) scale(0.100000,-0.100000)"
fill="#000000" stroke="none">
<path d="M2870 12719 c-954 -83 -1816 -594 -2344 -1389 -278 -418 -446 -876
-508 -1385 -19 -160 -16 -575 5 -738 93 -701 399 -1328 887 -1818 756 -759
1812 -1077 2868 -863 820 166 1561 682 2017 1404 90 144 222 409 279 566 126
341 198 721 195 1026 l-2 123 -8 -95 c-13 -133 -55 -363 -95 -506 -175 -640
-579 -1213 -1130 -1601 -634 -446 -1418 -623 -2186 -493 -682 116 -1321 487
-1762 1024 -670 814 -847 1922 -464 2903 95 244 269 543 444 763 86 108 334
356 444 444 433 344 952 559 1510 626 l155 18 -105 0 c-58 -1 -148 -4 -200 -9z"/>
<path d="M9455 12724 c-566 -45 -1073 -216 -1525 -517 -677 -450 -1158 -1151
-1329 -1935 -57 -262 -66 -349 -66 -677 0 -328 9 -415 66 -677 205 -941 853
-1750 1732 -2162 566 -266 1217 -356 1837 -255 1057 173 1959 880 2378 1864
158 371 237 734 247 1135 l4 175 -14 -125 c-56 -491 -186 -875 -431 -1270
-111 -180 -231 -329 -413 -510 -256 -256 -465 -406 -776 -560 -271 -133 -560
-224 -866 -272 -193 -30 -636 -33 -824 -5 -851 126 -1573 580 -2040 1282 -242
363 -385 735 -457 1185 -20 125 -23 182 -23 415 1 290 11 398 61 625 151 680
533 1274 1090 1696 440 332 934 522 1519 583 l80 8 -105 0 c-58 0 -123 -2
-145 -3z"/>
<path d="M3534 12660 c353 -48 618 -129 916 -280 509 -259 918 -674 1175
-1195 462 -933 336 -2045 -322 -2860 -92 -113 -269 -292 -388 -390 -392 -326
-918 -541 -1460 -596 -150 -15 -490 -6 -635 16 -583 91 -1090 345 -1501 755
-234 232 -373 426 -515 715 -150 306 -230 593 -264 945 -8 85 -8 79 -4 -60 18
-658 305 -1324 784 -1823 620 -647 1518 -964 2410 -851 331 42 615 128 920
280 702 350 1228 973 1453 1724 83 275 111 478 111 800 1 268 -7 350 -51 570
-189 946 -878 1748 -1793 2088 -278 103 -566 162 -870 176 l-105 5 139 -19z"/>
<path d="M9990 12669 c296 -41 406 -64 595 -125 916 -299 1600 -1067 1790
-2008 40 -200 49 -300 49 -531 0 -280 -25 -468 -95 -715 -172 -608 -554 -1139
-1069 -1489 -348 -236 -717 -380 -1150 -448 -163 -26 -587 -26 -750 0 -596 94
-1111 351 -1525 763 -413 411 -694 988 -755 1549 -18 166 -21 187 -26 182 -10
-10 19 -342 42 -477 145 -861 689 -1609 1477 -2030 444 -237 998 -355 1499
-321 531 37 984 189 1413 476 316 210 580 475 790 790 625 940 629 2162 10
3105 -236 361 -541 654 -911 878 -384 231 -799 363 -1267 401 -149 13 -210 12
-117 0z"/>
<path d="M2920 12609 c-1354 -164 -2350 -1311 -2307 -2659 7 -212 27 -356 77
-556 50 -196 94 -313 190 -509 254 -517 656 -918 1181 -1179 316 -157 614
-236 1003 -267 137 -10 201 -6 89 6 -233 26 -376 55 -563 116 -796 262 -1412
919 -1615 1724 -55 221 -69 341 -70 600 0 248 12 359 62 570 58 248 190 553
330 765 323 488 791 838 1353 1012 412 127 897 135 1334 24 692 -178 1278
-657 1591 -1301 115 -237 189 -477 221 -717 20 -155 33 -208 28 -113 -16 254
-49 450 -110 651 -263 871 -970 1545 -1854 1769 -211 54 -328 67 -605 70 -143
2 -294 -1 -335 -6z"/>
<path d="M9485 12613 c-22 -2 -96 -13 -164 -24 -1032 -164 -1878 -950 -2116
-1964 -52 -221 -60 -303 -60 -595 0 -292 8 -374 60 -595 230 -982 1029 -1751
2025 -1949 69 -14 170 -29 225 -35 152 -15 291 -23 285 -17 -3 3 -66 12 -139
21 -280 32 -540 109 -796 234 -749 368 -1252 1068 -1360 1894 -29 227 -17 564
30 792 182 894 870 1629 1750 1870 595 163 1208 105 1756 -167 685 -339 1171
-968 1319 -1708 16 -80 33 -185 38 -235 l9 -90 1 70 c3 139 -28 359 -78 555
-87 345 -268 706 -497 990 -95 118 -269 291 -390 387 -396 315 -862 508 -1355
562 -90 10 -450 13 -543 4z"/>
<path d="M3071 11904 c94 -154 135 -308 126 -474 -7 -135 -33 -226 -107 -375
-72 -144 -136 -235 -354 -501 -389 -475 -536 -729 -624 -1080 -57 -224 -63
-407 -21 -619 67 -337 289 -634 585 -783 58 -29 173 -72 193 -72 6 0 -14 35
-43 78 -200 290 -247 608 -136 914 33 90 49 119 56 102 2 -5 21 -39 42 -74 74
-127 201 -236 323 -279 30 -11 55 -18 57 -16 2 2 -9 23 -26 47 -98 144 -135
323 -97 473 26 103 89 215 235 416 78 107 157 222 177 256 37 63 53 67 53 15
0 -43 40 -223 72 -321 46 -144 97 -269 193 -467 187 -386 220 -516 179 -712
-29 -142 -93 -267 -191 -373 l-55 -59 66 0 c249 0 516 158 673 397 203 310
224 725 58 1168 -46 123 -101 233 -244 489 -168 301 -206 417 -198 591 6 141
57 265 151 372 l28 33 -39 0 c-22 0 -74 -9 -115 -19 -171 -44 -312 -146 -431
-311 -15 -21 -17 -22 -13 -5 29 119 34 353 11 494 -52 320 -242 590 -500 712
-132 62 -133 62 -84 -17z"/>
<path d="M10177 11837 c-38 -150 -115 -292 -236 -432 -33 -38 -138 -140 -232
-225 -317 -287 -441 -461 -545 -765 -32 -95 -38 -126 -42 -221 -5 -125 9 -197
58 -301 16 -35 27 -63 25 -63 -9 0 -89 125 -113 178 -14 31 -33 88 -42 126
l-17 70 -23 -85 c-92 -341 -75 -687 51 -1062 63 -186 168 -417 260 -571 l18
-29 16 39 c52 121 226 563 281 710 185 503 298 997 330 1437 4 54 10 99 13
101 15 10 -14 -441 -40 -614 -75 -496 -173 -826 -466 -1570 -47 -118 -120
-316 -163 -440 -43 -124 -88 -249 -99 -278 -16 -39 -18 -54 -8 -57 26 -9 91
-24 92 -22 0 1 33 106 73 232 39 127 82 261 94 300 l23 69 105 71 c524 350
889 783 1089 1290 37 96 101 300 101 325 0 6 -18 -11 -40 -38 -21 -28 -54 -61
-72 -75 -32 -24 -111 -67 -123 -67 -3 0 32 37 79 83 60 59 87 93 96 122 7 22
15 103 17 180 4 114 1 162 -16 257 -40 221 -123 464 -304 883 -66 154 -141
331 -167 392 -26 62 -48 115 -51 117 -2 2 -12 -28 -22 -67z"/>
<path d="M2825 6255 c-724 -72 -1388 -387 -1905 -905 -498 -497 -803 -1119
-897 -1827 -21 -161 -24 -579 -5 -733 90 -732 393 -1360 902 -1870 255 -257
521 -445 862 -610 622 -301 1326 -385 2008 -240 1322 281 2318 1383 2465 2727
8 78 14 197 14 265 l-2 123 -8 -95 c-21 -230 -87 -516 -171 -740 -306 -823
-963 -1459 -1803 -1747 -145 -49 -349 -99 -515 -125 -125 -19 -183 -22 -425
-22 -240 0 -301 3 -424 22 -754 118 -1427 510 -1884 1097 -169 216 -343 528
-432 768 -424 1154 -94 2423 836 3221 454 389 991 620 1609 690 l115 13 -105
1 c-58 0 -163 -6 -235 -13z"/>
<path d="M9385 6259 c-1250 -110 -2322 -968 -2709 -2168 -97 -300 -136 -540
-143 -881 -9 -427 43 -758 183 -1149 54 -152 199 -447 288 -589 680 -1078
1931 -1638 3186 -1426 447 75 883 253 1257 511 709 489 1190 1261 1317 2113
23 150 36 319 35 440 l-2 105 -8 -85 c-75 -746 -361 -1349 -875 -1851 -452
-440 -1007 -711 -1649 -806 -188 -27 -621 -25 -815 5 -533 83 -1012 293 -1423
624 -504 406 -881 1016 -1011 1635 -53 256 -61 331 -60 623 0 312 15 444 80
701 293 1168 1272 2033 2469 2183 66 9 136 17 155 19 75 8 -181 4 -275 -4z"/>
<path d="M3505 6205 c337 -41 625 -125 916 -270 531 -265 942 -677 1205 -1210
461 -935 336 -2043 -323 -2860 -102 -126 -330 -348 -453 -441 -420 -316 -884
-496 -1405 -545 -154 -14 -464 -7 -613 15 -764 114 -1426 530 -1854 1166 -245
364 -394 789 -438 1250 -8 85 -8 79 -4 -60 28 -989 641 -1933 1554 -2391 916
-459 2004 -396 2854 165 234 155 478 375 648 586 229 284 417 645 518 992 78
270 104 469 104 783 1 263 -7 346 -51 565 -120 601 -457 1174 -924 1574 -494
423 -1093 661 -1734 690 l-120 5 120 -14z"/>
<path d="M10060 6200 c345 -44 640 -135 930 -286 1168 -609 1718 -1969 1299
-3214 -133 -396 -351 -744 -653 -1045 -418 -416 -933 -672 -1528 -761 -144
-21 -467 -29 -610 -15 -829 81 -1556 515 -2004 1196 -235 357 -384 781 -423
1204 -6 63 -13 117 -17 120 -14 14 16 -335 42 -494 144 -863 716 -1636 1509
-2040 300 -153 635 -253 990 -296 144 -18 493 -15 646 5 337 43 626 130 925
276 578 284 1068 789 1328 1368 408 909 317 1948 -242 2762 -282 412 -658 734
-1114 955 -350 170 -711 260 -1113 279 l-110 5 145 -19z"/>
<path d="M3054 6159 c-368 -22 -707 -116 -1039 -288 -402 -208 -724 -497 -979
-880 -86 -128 -217 -387 -270 -532 -152 -416 -194 -895 -116 -1340 182 -1048
1011 -1889 2064 -2094 152 -30 531 -67 515 -50 -3 3 -55 10 -115 16 -1073 104
-1964 913 -2168 1968 -51 260 -59 574 -21 821 82 539 330 1021 721 1400 388
376 856 602 1401 677 145 19 458 21 598 4 845 -106 1561 -611 1925 -1356 119
-243 194 -483 226 -727 21 -162 33 -205 27 -103 -20 373 -106 710 -262 1030
-466 948 -1446 1517 -2507 1454z"/>
<path d="M9590 6160 c-544 -33 -1052 -227 -1480 -566 -120 -95 -341 -321 -431
-439 -279 -367 -439 -739 -516 -1200 -14 -88 -18 -165 -18 -385 0 -292 8 -374
60 -595 246 -1051 1147 -1854 2220 -1979 150 -17 345 -28 300 -16 -16 4 -49 8
-72 9 -78 2 -328 50 -453 86 -406 118 -743 319 -1051 625 -395 392 -632 872
-704 1423 -17 137 -20 432 -4 575 58 537 316 1071 704 1457 545 543 1291 796
2063 700 1033 -129 1887 -922 2091 -1942 17 -81 35 -188 40 -238 l10 -90 -4
126 c-17 510 -229 1062 -571 1489 -152 190 -385 398 -604 543 -209 137 -533
279 -779 342 -245 62 -546 90 -801 75z"/>
<path d="M3155 5439 c-620 -966 -1072 -1838 -1212 -2338 -60 -217 -58 -425 8
-638 190 -610 834 -1072 1379 -990 142 21 253 58 390 128 484 249 820 787 786
1259 -25 349 -323 1023 -853 1924 -108 184 -357 588 -418 679 l-34 50 -46 -74z"/>
<path d="M8845 5184 c-11 -2 -45 -9 -75 -15 -142 -28 -308 -144 -387 -272 -73
-116 -102 -214 -103 -343 0 -178 65 -330 199 -464 74 -74 74 -92 0 -23 -54 50
-231 74 -364 50 -340 -61 -575 -347 -575 -696 1 -220 83 -410 238 -551 76 -69
210 -141 311 -166 98 -24 264 -16 360 19 390 139 520 620 243 894 -233 229
-611 142 -688 -157 -39 -151 31 -309 168 -382 37 -20 58 -23 143 -23 119 0
161 17 239 99 30 30 41 38 28 20 -32 -46 -89 -94 -141 -118 -65 -30 -197 -29
-263 1 -70 32 -141 103 -174 176 -25 53 -29 74 -28 147 0 121 27 185 113 271
84 84 148 111 274 117 138 6 246 -33 341 -125 168 -161 210 -399 111 -635 -6
-14 8 -11 67 16 204 94 381 136 578 136 231 0 331 -23 830 -190 449 -150 517
-165 755 -165 201 0 263 11 392 70 132 60 214 129 284 237 105 163 106 364 3
515 -42 61 -83 94 -162 131 -48 23 -71 27 -142 27 -71 0 -94 -4 -141 -26 -114
-54 -181 -153 -182 -269 0 -37 6 -80 15 -101 21 -49 74 -107 119 -130 52 -26
146 -26 198 1 123 62 128 224 9 269 -40 15 -85 3 -120 -33 -24 -23 -28 -26
-19 -8 29 55 115 77 169 43 85 -54 97 -167 24 -244 -44 -47 -94 -67 -163 -67
-79 0 -135 26 -189 87 -124 142 -73 363 108 465 57 33 97 82 140 176 21 46 27
76 30 153 7 151 -26 243 -124 348 -179 193 -480 196 -670 7 -34 -34 -71 -80
-83 -104 -31 -60 -34 -52 -6 17 95 232 16 490 -189 623 -122 79 -296 102 -429
57 -174 -58 -322 -230 -343 -395 -7 -57 -24 -74 -24 -25 0 45 -38 160 -77 231
-55 99 -170 208 -274 258 -115 56 -263 84 -354 66z"/>
<path d="M11860 3225 c-33 -78 -122 -205 -191 -276 -197 -199 -477 -296 -754
-260 -134 18 -284 60 -540 151 -458 164 -562 190 -801 197 -133 4 -193 2 -270
-11 -180 -31 -365 -104 -515 -203 -70 -45 -243 -192 -236 -199 2 -2 48 18 103
46 212 106 382 145 634 145 250 0 340 -22 726 -176 360 -143 489 -185 669
-214 105 -17 292 -19 385 -4 360 57 664 311 774 644 19 58 47 198 41 204 -3 2
-14 -18 -25 -44z"/>
<path d="M11835 2872 c-41 -94 -132 -225 -212 -306 -204 -206 -461 -306 -753
-293 -186 8 -342 47 -687 173 -517 189 -709 231 -993 221 -165 -6 -279 -26
-417 -72 -187 -63 -385 -181 -520 -310 l-78 -75 107 56 c339 174 713 226 1061
145 122 -29 273 -81 510 -177 457 -185 660 -236 932 -236 140 1 217 11 330 44
329 96 607 364 708 683 25 81 51 204 45 211 -2 2 -17 -27 -33 -64z"/>
</g>
</svg>
