<?xml version="1.0" encoding="utf-8"?>
<!-- Generator: Adobe Illustrator 27.1.0, SVG Export Plug-In . SVG Version: 6.00 Build 0)  -->
<svg version="1.1" id="Layer_1" xmlns="http://www.w3.org/2000/svg" xmlns:xlink="http://www.w3.org/1999/xlink" x="0px" y="0px"
	 viewBox="0 0 209.5 367.8" style="enable-background:new 0 0 209.5 367.8;" xml:space="preserve">
<style type="text/css">
	.st0{fill:#2E3192;}
</style>
<g>
	<path class="st0" d="M148.1,367.8c-1.3-6-9.2-42.3-9.2-54.4c0.1-7.7,10.1-10.3,13.3-10.9l5.8,36.3l1.4-2.3
		c34-55.1,39.1-125.8,13.5-189.3c-14.3-35.6-36-61.8-55.3-66.8l-1.3-0.3l0.1,1.4c1.3,20.1-10.2,36.7-20.5,44.7
		c-4.7,3.7-12.8,5.9-21.4,5.9c-10.1,0-19.1-3-25.3-8.3c-13.4-11.5-9.4-36.7-2.3-45.4c9-11.2,19.9-21.5,38.2-21.5
		c1.3,0,2.6,0.1,3.9,0.1l2.8,0.2l-2-1.9C67.6,33.8,33.6,23.7,8.7,16.3l-1.5-0.4c-6-1.8-7.6-6.1-7.2-9.2C0.5,3.5,3.4,0,8.7,0
		c1.2,0,2.4,0.2,3.6,0.5c1.1,0.3,2.3,0.7,3.6,1c24,6.6,64.2,17.8,98.4,57.9l0.2,0.3l0.4,0.1c26.8,4.8,54.8,34.7,73.1,77.9
		c23.7,55.9,32.3,140.5-14.5,210.4l-1.3,1.9l37.2-5.4c0.3,3.2,0.8,13.6-6.5,15.9C191.3,364,154.3,367.3,148.1,367.8z M91.6,71.1
		c-10.6,0-19.1,3.6-27.8,11.6c-4.8,4.5-7.7,10.8-7.8,17.4c-0.1,5.1,1.5,9.7,4.5,12.6c2.4,2.4,6.7,3.8,11.8,3.8
		c7.4,0,14.5-2.9,19.4-7.9c10.8-10.8,11.6-21.7,9.4-35.9l-0.1-0.7l-0.7-0.1C97.2,71.4,94.3,71.1,91.6,71.1z"/>
</g>
<path class="st0" d="M226.3,23.6c24.6,7.3,59.7,17.4,82.2,39.1c-20-1.5-32.1,8.2-43,21.7c-7.7,9.4-11.3,35,2.4,46.8
	c13.7,11.8,38,10.2,47.9,2.4c10.1-7.9,22.3-24.7,20.9-45.6c44.6,11.5,109.1,144.7,41.2,254.6l-5.5-34.6c0,0-15,2-15.1,12.1
	c0,13.4,9.4,55.5,9.4,55.5s43-3.5,55.8-7.5c9.6-3.1,7.1-18,7.1-18l-36,5.2c77.7-115.9,6.9-277.9-59.2-289.8
	C298.2,23.1,255.8,13,231.9,6.3C218,2.5,212.6,19.5,226.3,23.6z M310.3,114.6c-9.3,9.4-24.6,9.2-29.8,4.1c-6.1-6-5.9-20,3.3-28.5
	c9.2-8.5,19.4-13.2,35.6-10.6C321.7,94.3,320.4,104.5,310.3,114.6L310.3,114.6z"/>
</svg>
