<?xml version="1.0" encoding="utf-8"?>
<!-- Generator: Adobe Illustrator 27.1.0, SVG Export Plug-In . SVG Version: 6.00 Build 0)  -->
<svg version="1.1" id="Layer_1" xmlns="http://www.w3.org/2000/svg" xmlns:xlink="http://www.w3.org/1999/xlink" x="0px" y="0px"
	 viewBox="0 0 191.2 366.9" style="enable-background:new 0 0 191.2 366.9;" xml:space="preserve">
<style type="text/css">
	.st0{fill:#2E3192;}
</style>
<g>
	<path class="st0" d="M119.9,366.9c-1.3-6-9.2-42.3-9.2-54.4c0.1-7.7,10.1-10.3,13.3-10.9l5.8,36.3c71.3-98,50.3-259-12.9-264.4
		c0,0,3.2,35.3-22.3,51.8c-9.2,5.9-32.1,13.1-46.7-2.4s-10.7-36-2.7-46c21.1-26.4,41-22.5,50-20.9c-4-8-22.3-31.8-87.6-41.9
		C-2.5,12.5-3.2-0.8,9.5,0c24,1.5,83.8,14.1,104.5,57.6c86.8,11.2,105.6,177.2,30,291.5l37.2-5.4c0.3,3.2,0.8,13.6-6.5,15.9
		C163.1,363.1,126.1,366.4,119.9,366.9z M60.9,81.3c-4.5,4.5-12,20.1-2.6,31.1s27.2,0.3,32.1-4.7c15.3-13.9,11.1-37.7,11.1-37.7
		S79.3,62.8,60.9,81.3z"/>
</g>
<path class="st0" d="M215.4,22.7c24.6,7.3,69.2,17.4,91.7,39.1c-20-1.5-32.1,8.2-43,21.7c-7.7,9.4-11.3,35,2.4,46.8
	c13.7,11.8,38,10.2,47.9,2.4c10.1-7.9,22.3-24.7,20.9-45.6c44.6,11.5,109.1,144.7,41.2,254.6l-5.5-34.6c0,0-15,2-15.1,12.1
	c0,13.4,9.4,55.5,9.4,55.5s43-3.5,55.8-7.5c9.6-3.1,7.1-18,7.1-18l-36,5.2c77.7-115.9,6.9-277.9-59.2-289.8
	c-36.2-42.4-78.6-52.5-102.5-59.2C216.7,1.6,201.7,18.6,215.4,22.7z M309,113.7c-9.3,9.4-24.6,9.2-29.8,4.1c-6.1-6-5.9-20,3.3-28.5
	c9.2-8.5,19.4-13.2,35.6-10.6C320.4,93.4,319.1,103.6,309,113.7L309,113.7z"/>
</svg>
