<?xml version="1.0" encoding="utf-8"?>
<!-- Generator: Adobe Illustrator 27.1.0, SVG Export Plug-In . SVG Version: 6.00 Build 0)  -->
<svg version="1.1" id="Layer_1" xmlns="http://www.w3.org/2000/svg" xmlns:xlink="http://www.w3.org/1999/xlink" x="0px" y="0px"
	 viewBox="0 0 232.9 405.2" style="enable-background:new 0 0 232.9 405.2;" xml:space="preserve">
<style type="text/css">
	.st0{fill:#2E3192;}
	.st1{fill:#2E3191;}
</style>
<g>
	<path class="st0" d="M111.3,405.2c-38.7,0-73.1-17.3-87.8-44c-9.9-18.1-15.8-48.9,12.5-93.5l1.3-2l-36.9,7.4
		c-0.5-3.2-1.6-13.5,5.7-16.4c11.3-4.1,48.1-9.5,54.2-10.3c1.7,6,11.6,41.8,12.2,53.8c0.3,7.7-9.6,10.9-12.7,11.7l-8.2-37.1l-1.3,2
		c-23.2,35.6-18.8,60.1-11.1,74.4c11.4,21,37.7,34,68.8,34c31.2,0,59.7-12.8,78.1-35.2c20.9-25.4,29.8-54.6,26.2-86.7
		c-5.3-47.9-41.6-128.1-183.7-238.1c-2.9-2.2-4.9-3.8-6-4.7c-4.7-4-6.5-9-4.9-13.6C19.1,2.8,23.2,0,27.8,0c3.3,0,6.7,1.4,9.8,4.1
		c5.5,4.8,11.3,9.8,17.2,14.9c49.4,42.9,111,96.3,147.3,155.6c19.6,32.1,30,63.3,30.9,92.7c1,33.9-10.7,67-34.7,98.3
		C178.9,390.8,147.2,405.2,111.3,405.2z"/>
</g>
<path class="st1" d="M324.5,267.2l-35.6,7.1c0,0-3.4-14.7,6.1-18.5c12.6-4.6,55.3-10.5,55.3-10.5s11.8,41.6,12.5,54.9
	c0.4,10.1-14.5,13-14.5,13l-7.9-35.8c-66.1,101.5,77,141.5,134.2,72C583.1,217.9,327.3,34.8,311.2,21.3
	c-14.9-12.5,1.7-30.7,16.3-17.9c97.6,85.5,269.8,220.7,160.8,362.9C424.5,449.4,242.5,396.2,324.5,267.2z"/>
</svg>
