<?xml version="1.0" encoding="utf-8"?>
<!-- Generator: Adobe Illustrator 27.1.0, SVG Export Plug-In . SVG Version: 6.00 Build 0)  -->
<svg version="1.1" id="Layer_1" xmlns="http://www.w3.org/2000/svg" xmlns:xlink="http://www.w3.org/1999/xlink" x="0px" y="0px"
	 viewBox="0 0 126.9 242.5" style="enable-background:new 0 0 126.9 242.5;" xml:space="preserve">
<style type="text/css">
	.st0{fill:#2E3192;}
	.st1{fill:#2E3191;}
</style>
<g>
	<path class="st0" d="M50.7,242.5c-1.1,0-2.1-0.2-3.2-0.6c-9.7-4-42-25.7-47.3-29.2c2.8-5.5,19.4-38.2,27.8-48.2
		c1.7-2.1,4.1-3.1,7-3.1c4.2,0,8.5,2.1,10.3,3l-18,30.6c-0.4,0.3-0.8,0.7-1.1,1.2l-1.9,2.5l3-0.9c49.3-15.4,79.9-51,78.1-90.6
		c-1.5-33.1-27.7-73.7-96.5-88.5c-6.7-1.4-9.3-6.4-8.8-10.6C0.5,4,3.6,0,9.6,0c0.9,0,1.9,0.1,2.9,0.3c35.3,6.6,64.7,20.9,84.9,41.4
		c18.4,18.6,28.6,41.3,29.4,65.6c0.8,22.9-7.2,45.7-22.6,64.3c-16.7,20.3-41.4,35.1-71.5,42.9l-2.4,0.6l32.3,18.8
		C61.2,236.3,56.5,242.5,50.7,242.5z"/>
</g>
<path class="st1" d="M220.9-18c149.7,28,150.3,182.5,20.3,216.2l31.1,18.1c0,0-7.5,13-17,9.2c-10.7-4.4-48.2-29.8-48.2-29.8
	s19-38.1,28.3-49.2c6.5-7.9,19.4,0.2,19.4,0.2l-18.6,31.6c-0.4,0.3-0.8,0.7-1.1,1.1C342.3,145.8,340.2,28.7,216.8,2.2
	C201.9-1,205-21,220.9-18z"/>
</svg>
