<?xml version="1.0" encoding="utf-8"?>
<!-- Generator: Adobe Illustrator 27.1.0, SVG Export Plug-In . SVG Version: 6.00 Build 0)  -->
<svg version="1.1" id="Layer_1" xmlns="http://www.w3.org/2000/svg" xmlns:xlink="http://www.w3.org/1999/xlink" x="0px" y="0px"
	 viewBox="0 0 232.5 402.2" style="enable-background:new 0 0 232.5 402.2;" xml:space="preserve">
<style type="text/css">
	.st0{fill:#2E3192;}
	.st1{fill:#2E3191;}
</style>
<g>
	<path class="st0" d="M205.2,359.9c-19.1,24.8-57.6,42.3-93,42.3c-38.1,0-72-17-86.5-43.2c-9.7-17.7-16.6-48,11.1-91.8l-36.2,8.6
		C0,272.5-1.7,262.3,5.4,259c11-4.8,47.5-12.2,53.5-13.4c2,5.9,14,41.1,15.3,53c0.7,7.7-9,11.4-12,12.4l-11-36.1
		c0,0-29.8,42.6-12.4,75.5c11.4,21.6,38.5,34.8,70.1,34.8c31.7,0,60.6-13,79.2-35.8c21.2-25.8,30.2-55.4,26.5-87.8
		C209.3,213.5,173,132.9,30.3,22.5c-3-2.3-5-3.9-6-4.7c-4.2-3.6-5.8-7.9-4.4-12C21.2,2.4,24.8,0,28.7,0c3,0,6,1.3,8.8,3.7
		c4.5,3.9,9.1,7.9,13.9,12l3.8,3.3c49.2,42.7,110.4,95.9,146.5,154.8c19.5,31.9,29.8,62.8,30.7,92
		C233.4,299.4,229,328.8,205.2,359.9z"/>
</g>
<path class="st1" d="M331.1,265.7l-35.6,7.1c0,0-3.4-14.7,6.1-18.5c12.6-4.6,55.3-10.5,55.3-10.5s11.8,41.6,12.5,54.9
	c0.4,10.1-14.5,13-14.5,13l-7.9-35.8c-66.1,101.5,77,141.5,134.2,72C589.7,216.4,333.9,33.3,317.8,19.8
	c-14.9-12.5,1.7-30.7,16.3-17.9c97.6,85.5,269.8,220.7,160.8,362.9C431.1,447.9,249.1,394.7,331.1,265.7z"/>
</svg>
