<?xml version="1.0" encoding="utf-8"?>
<!-- Generator: Adobe Illustrator 27.1.0, SVG Export Plug-In . SVG Version: 6.00 Build 0)  -->
<svg version="1.1" id="Layer_1" xmlns="http://www.w3.org/2000/svg" xmlns:xlink="http://www.w3.org/1999/xlink" x="0px" y="0px"
	 viewBox="0 0 240.6 405.9" style="enable-background:new 0 0 240.6 405.9;" xml:space="preserve">
<style type="text/css">
	.st0{fill:#2E3191;}
</style>
<path class="st0" d="M36.2,270.1l-35.6,7.1c0,0-3.4-14.7,6.1-18.5C19.3,254,62,248.2,62,248.2s11.8,41.6,12.5,54.9
	c0.4,10.1-14.5,13-14.5,13l-7.9-35.8c-66.1,101.5,77,141.5,134.2,72C294.8,220.8,96.9,42.3,21.6,19.9c-13.2-8-2.2-27.1,14.3-17
	C137.2,40,322.7,240.3,200,369.1C127.7,445-45.8,399.1,36.2,270.1z"/>
</svg>
