<?xml version="1.0" encoding="utf-8"?>
<!-- Generator: Adobe Illustrator 27.1.0, SVG Export Plug-In . SVG Version: 6.00 Build 0)  -->
<svg version="1.1" id="Layer_1" xmlns="http://www.w3.org/2000/svg" xmlns:xlink="http://www.w3.org/1999/xlink" x="0px" y="0px"
	 viewBox="0 0 129 242" style="enable-background:new 0 0 129 242;" xml:space="preserve">
<style type="text/css">
	.st0{fill:#2E3192;}
</style>
<path class="st0" d="M10.4,20.7C57.7,21.9,129,60.9,101,90.5c-13.3-15-37.5-22.2-57.1-16.4c-15.8,4.7-25.4,17-26.4,33.7
	c0.2,16.9,9,29.2,24.3,34.1c20,6.3,45.9-1.4,59.4-17.4c27.8,39.1-51.5,67.9-71.2,68.6L47.9,163c0,0-12.8-8.1-19.4-0.4
	c-8.6,10.3-28.3,48.7-28.3,48.7s35.3,24.9,47.7,30c9.4,3.8,17-9.3,17-9.3l-31-19c33.4-3.2,130.8-43.6,81.3-106.1
	C161.2,60.7,83.7,0.7,10.4,0C4.2,0,0.8,3.1,0.1,9.2l0,0C-0.6,14.4,4.9,20.5,10.4,20.7L10.4,20.7z M59.3,124.6
	c-8.9,0-24.1-5.4-24.1-16.9s14.7-16.4,24.1-16.4s19.2,1.4,27.5,10.8c2,2.3,2.2,5.7,0.4,8.2C80.1,119.7,68.3,124.6,59.3,124.6
	L59.3,124.6z"/>
</svg>
