<?xml version="1.0" encoding="utf-8"?>
<!-- Generator: Adobe Illustrator 27.1.0, SVG Export Plug-In . SVG Version: 6.00 Build 0)  -->
<svg version="1.1" id="Layer_1" xmlns="http://www.w3.org/2000/svg" xmlns:xlink="http://www.w3.org/1999/xlink" x="0px" y="0px"
	 viewBox="0 0 211.6 392.3" style="enable-background:new 0 0 211.6 392.3;" xml:space="preserve">
<style type="text/css">
	.st0{fill:#2E3192;}
	.st1{fill:#2E3191;}
</style>
<g>
	<path class="st0" d="M95.4,392.3c-106.4,0-90.6-119.5-58-145l-36.8,8.9c-0.6-3.3-2.3-13.5,4.8-16.8c11-4.8,47.5-12.2,53.5-13.4
		c2,5.9,14,41.1,15.3,53c0.7,7.7-9,11.4-12,12.4l-11.8-36.1C15,285.4,18.6,375.9,95.7,375.9c142.6,0,124.9-308.1-70.5-358.5
		C10.5,13.7,13.9-3.8,37.7,1.8C236.7,48.7,275.2,392.3,95.4,392.3z"/>
</g>
<path class="st1" d="M326.3,245.1l-35.6,7.1c0,0-3.4-14.7,6.1-18.5c12.6-4.6,55.3-10.5,55.3-10.5s11.8,41.6,12.5,54.9
	c0.4,10.1-14.5,13-14.5,13l-7.9-35.8c-66.1,101.5,77,141.5,134.2,72C584.9,195.8,329.1,12.7,313-0.8c-14.9-12.5,1.7-30.7,16.3-17.9
	C426.9,66.8,599.1,202,490.1,344.2C426.3,427.3,244.3,374.1,326.3,245.1z"/>
</svg>
