<?xml version="1.0" encoding="utf-8"?>
<!-- Generator: Adobe Illustrator 27.1.0, SVG Export Plug-In . SVG Version: 6.00 Build 0)  -->
<svg version="1.1" id="Layer_1" xmlns="http://www.w3.org/2000/svg" xmlns:xlink="http://www.w3.org/1999/xlink" x="0px" y="0px"
	 viewBox="0 0 211.5 369.8" style="enable-background:new 0 0 211.5 369.8;" xml:space="preserve">
<style type="text/css">
	.st0{fill:#2E3192;}
</style>
<path class="st0" d="M8,17.8c24.6,7.3,59.7,17.4,82.2,39.1c-20-1.5-32.1,8.2-43,21.7c-7.7,9.4-11.3,35,2.4,46.8s38,10.2,47.9,2.4
	c10.1-7.9,22.3-24.7,20.9-45.6c44.6,11.5,109.1,144.7,41.2,254.6l-5.5-34.6c0,0-15,2-15.1,12.1c0,13.4,9.4,55.5,9.4,55.5
	s43-3.5,55.8-7.5c9.6-3.1,7.1-18,7.1-18l-36,5.2c77.7-115.9,6.9-277.9-59.2-289.8C79.9,17.3,37.5,7.2,13.6,0.5
	C-0.3-3.3-5.7,13.7,8,17.8z M92,108.8c-9.3,9.4-24.6,9.2-29.8,4.1c-6.1-6-5.9-20,3.3-28.5s19.4-13.2,35.6-10.6
	C103.4,88.5,102.1,98.7,92,108.8L92,108.8z"/>
</svg>
