<?xml version="1.0" encoding="utf-8"?>
<!-- Generator: Adobe Illustrator 27.1.0, SVG Export Plug-In . SVG Version: 6.00 Build 0)  -->
<svg version="1.1" id="Layer_1" xmlns="http://www.w3.org/2000/svg" xmlns:xlink="http://www.w3.org/1999/xlink" x="0px" y="0px"
	 viewBox="0 0 234.9 407.2" style="enable-background:new 0 0 234.9 407.2;" xml:space="preserve">
<style type="text/css">
	.st0{fill:#2E3191;}
</style>
<path class="st0" d="M36.2,268.2l-35.6,7.1c0,0-3.4-14.7,6.1-18.5c12.6-4.6,55.3-10.5,55.3-10.5s11.8,41.6,12.5,54.9
	c0.4,10.1-14.5,13-14.5,13l-7.9-35.8c-66.1,101.5,77,141.5,134.2,72C294.8,218.9,39,35.8,22.9,22.3C8,9.8,24.6-8.4,39.2,4.4
	C136.8,89.9,309,225.1,200,367.3C136.2,450.4-45.8,397.2,36.2,268.2z"/>
</svg>
