<?xml version="1.0" encoding="utf-8"?>
<!-- Generator: Adobe Illustrator 27.1.0, SVG Export Plug-In . SVG Version: 6.00 Build 0)  -->
<svg version="1.1" id="Layer_1" xmlns="http://www.w3.org/2000/svg" xmlns:xlink="http://www.w3.org/1999/xlink" x="0px" y="0px"
	 viewBox="0 0 216 383.1" style="enable-background:new 0 0 216 383.1;" xml:space="preserve">
<style type="text/css">
	.st0{fill:#2E3192;}
	.st1{fill:#2E3191;}
</style>
<g>
	<path class="st0" d="M188.3,338.1c-19,24.7-48.5,45-83.8,45c-37.7,0-66.2-14.6-80.6-40.5c-14-25.5-15.9-57,13.6-92.8l-36.8,8.9
		c-0.6-3.3-2.3-13.5,4.8-16.8c11-4.8,47.5-12.2,53.5-13.4c2,5.9,14,41.1,15.3,53c0.7,7.7-9,11.4-12,12.4l-11.8-36.1
		c-4.2,6.5-29.2,43.6-13.1,73.9c11.5,21.8,34.9,36.3,67.1,36.3c32.1,0,49.5-16.2,68.3-39.2c21.5-26.1,29.1-55.5,25.4-88.2
		c-5.3-48.3-42.6-148-175.9-224.1C9,9,16-7.6,34.1,4c39.7,25.6,169.1,108.8,181.2,240.7C218.3,278.2,212,307.1,188.3,338.1z"/>
</g>
<path class="st1" d="M326.4,247.6l-35.6,7.1c0,0-3.4-14.7,6.1-18.5c12.6-4.6,55.3-10.5,55.3-10.5s11.8,41.6,12.5,54.9
	c0.4,10.1-14.5,13-14.5,13l-7.9-35.8c-66.1,101.5,77,141.5,134.2,72C585,198.3,329.2,15.2,313.1,1.7c-14.9-12.5,1.7-30.7,16.3-17.9
	C427,69.3,599.2,204.5,490.2,346.7C426.4,429.8,244.4,376.6,326.4,247.6z"/>
</svg>
