<?xml version="1.0" encoding="utf-8"?>
<!-- Generator: Adobe Illustrator 27.1.0, SVG Export Plug-In . SVG Version: 6.00 Build 0)  -->
<svg version="1.1" id="Layer_1" xmlns="http://www.w3.org/2000/svg" xmlns:xlink="http://www.w3.org/1999/xlink" x="0px" y="0px"
	 viewBox="0 0 266.5 238.5" style="enable-background:new 0 0 266.5 238.5;" xml:space="preserve">
<style type="text/css">
	.st0{fill:#2E3192;}
</style>
<g>
	<path class="st0" d="M225.3,238.5c-4.6-4.1-32.6-28.6-39.7-38.4c-4.5-6.2,2-14.3,4.2-16.7l26.4,26.1l-0.5-3.1
		c-4.4-25.2-19.4-85-64.9-96.7l-1.3-0.3l0.1,1.4c1.4,20.6-11.8,43.8-30,52.9c-5.1,2.6-10.3,3.9-15.5,3.9c-8.8,0-17.3-3.9-24.6-11.2
		C68.9,144.1,67.3,129,75.2,115c9.1-16.3,28.9-27.6,48-27.6c1.1,0,2.3,0,3.4,0.1l1.4,0.1l-0.4-1.4c-11-42-48.6-63.3-118.3-67.1
		C6.1,18.3,0,15.3,0,9.3C0,9.2,0,9,0,8.9c0-0.2,0.1-0.5,0.1-0.8C1,1.7,6.7,0,10,0l0.3,0c1.5,0,2.8,0,4.2,0c32.1,0,63,7.9,86.9,22.3
		c26.6,16.1,42.5,38.9,45.8,66l0.1,0.7l0.7,0.1c54.4,9.7,80.3,69.9,85.9,118.4l0.2,2l26.6-26.2c2.2,2.4,8.7,10.4,4.2,16.7
		C257.9,209.9,229.9,234.5,225.3,238.5z M122.5,103.7c-11.5,0-18.1,4.9-24.4,10.3c-8.2,7.1-13.5,24.2-7.4,31.4
		c2.5,2.9,6.7,4.6,11.4,4.6c4.1,0,10.5-1.4,17.8-7.8c9.5-8.6,13.4-21.7,11-37l-0.1-0.7l-0.7-0.1
		C127.4,103.9,124.9,103.7,122.5,103.7z"/>
</g>
<path class="st0" d="M626.8,212.6l-25.9,25.5c-5.7-49.3-31.8-109.5-86.7-119.3c-7.4-60.4-74.6-90.6-137.9-89.2
	c-3.4-0.1-10.2,1.6-11.2,9c0,0.5-0.1,0.9-0.1,1.3c0,6.5,6.5,9.9,10.2,10.8c69.3,3.8,106.6,24.9,117.5,66.4
	c-20-1.5-42.4,10.2-52.4,28c-8.1,14.4-6.4,29.9,4.5,42.6c11.9,12,26.8,14.7,41.2,7.5c18.7-9.4,31.9-33,30.5-53.9
	c44.6,11.5,59.6,69.3,64.2,95.9l-24.9-24.6c0,0-10.9,10.5-5,18.7c7.9,10.8,40.5,39.1,40.5,39.1s32.6-28.3,40.5-39.1
	C637.7,223.1,626.8,212.6,626.8,212.6L626.8,212.6z M485.2,172c-12.4,11.1-23.7,8-27.7,3.3c-5.5-6.5-1-22.9,7.3-30
	c7-6,14.9-12,31.1-9.4C498.2,150.6,494.5,163.6,485.2,172L485.2,172z"/>
</svg>
