<?xml version="1.0" encoding="UTF-8"?>
<svg id="Layer_1" data-name="Layer 1" xmlns="http://www.w3.org/2000/svg" viewBox="0 0 201.24 133.6">
  <defs>
    <style>
      .cls-1 {
        fill: #d1d3d4;
      }

      .cls-2 {
        fill: #231f20;
      }
    </style>
  </defs>
  <rect class="cls-1" width="201.24" height="133.6"/>
  <path class="cls-2" d="m104.33,101.71l-9.67-9.87-.2-.20
    c12.26-21.73,5.08-44.65-1.20-56.21-8.67-15.65-39.27-26.21-57.80-12.36-20.73,15.35-26.41,32.59-20.93,62.29
    c2.99,16.64,23.22,34.78,47.84,30.70,7.87-1.40,15.15-5.28,21.13-10.66l8.37,8.57c3.39,3.39,8.87,3.49,12.36,0.10
    c3.49-3.39,3.49-8.97,0.10-12.36Zm-67.57-11.36c-7.77-7.67-10.46-31.19.60-45.64,12.36-15.95,32.09-8.97,37.57-4.09
    c6.38,5.78,15.25,22.62,8.07,39.27l-1-1v-.10l-10.17-10.27c-3.39-3.49-8.97-3.49-12.36-.10-1.79,1.59-2.59,3.89-2.59,6.18
    s.80,4.48,2.49,6.18l10.96,11.16,1.50,1.49c-11.36,7.47-26.51,5.48-35.08-3.09Z"/>
  <path class="cls-2" d="m184.47,92.98c-2.48,11.88-14.46,23.66-32.38,23.66h-1.09c-10-.40-27.82-2.57-35.15-12.48
    c-3.86-5.25-4.65-11.29-1.88-14.36,2.38-2.67,6.83-2.38,12.28.79,10.79,10.59,25.25,10.79,34.16,6.44
    c5.25-2.57,8.22-6.54,7.72-10.30-.30-3.27-3.56-9.41-21.19-13.47-24.95-5.64-35.54-19.80-34.85-31.39.59-10.30,10.40-22.38,35.94-25.15
    .69-.10,1.29-.10,1.98-.10,10.79,0,26.63,8.32,29.60,15.94,1.29,3.17.40,5.94-2.57,8.22-1.88,1.39-5.94-.49-10.99-2.97
    c-4.75-2.28-10.10-4.85-15.15-5.55-1.39-.20-2.67-.30-3.96-.30-9.51,0-16.83,4.75-18.22,9.90-1.29,4.65,2.28,9.01,9.60,11.98
    l29.90,12.08c14.95,6.24,18.22,18.02,16.24,27.03Z"/>
</svg>