<?xml version="1.0" encoding="UTF-8"?>
<svg id="Layer_1" data-name="Layer 1" xmlns="http://www.w3.org/2000/svg" viewBox="0 0 201.24 133.6">
  <defs>
    <style>
      .cls-1 {
        fill: #d1d3d4;
      }

      .cls-2 {
        fill: #231f20;
      }
    </style>
  </defs>
  <rect class="cls-1" width="201.24" height="133.6"/>
  <path class="cls-2" d="m104.33,101.71l-9.67-9.87-.2-.2c12.26-21.73,5.08-44.65-1.2-56.21-8.67-15.65-39.27-26.21-57.8-12.36-20.73,15.35-26.41,32.59-20.93,62.29,2.99,16.64,23.22,34.78,47.84,30.7,7.87-1.4,15.15-5.28,21.13-10.66l8.37,8.57c3.39,3.39,8.87,3.49,12.36.1,3.49-3.39,3.49-8.97.1-12.36Zm-67.57-11.36c-7.77-7.67-10.46-31.19.6-45.64,12.36-15.95,32.09-8.97,37.57-4.09,6.38,5.78,15.25,22.62,8.07,39.27l-1-1v-.1l-10.17-10.27c-3.39-3.49-8.97-3.49-12.36-.1-1.79,1.59-2.59,3.89-2.59,6.18s.8,4.48,2.49,6.18l10.96,11.16,1.5,1.49c-11.36,7.47-26.51,5.48-35.08-3.09Z"/>
  <path class="cls-2" d="m184.47,92.98c-2.48,11.88-14.46,23.66-32.38,23.66h-1.09c-10-.4-27.82-2.57-35.15-12.48-3.86-5.25-4.65-11.29-1.88-14.36,2.38-2.67,6.83-2.38,12.28.79,10.79,10.59,25.25,10.79,34.16,6.44,5.25-2.57,8.22-6.54,7.72-10.3-.3-3.27-3.56-9.41-21.19-13.47-24.95-5.64-35.54-19.8-34.85-31.39.59-10.3,10.4-22.38,35.94-25.15.69-.1,1.29-.1,1.98-.1,10.79,0,26.63,8.32,29.6,15.94,1.29,3.17.4,5.94-2.57,8.22-1.88,1.39-5.94-.49-10.99-2.97-4.75-2.28-10.1-4.85-15.15-5.55-1.39-.2-2.67-.3-3.96-.3-9.51,0-16.83,4.75-18.22,9.9-1.29,4.65,2.28,9.01,9.6,11.98l29.9,12.08c14.95,6.24,18.22,18.02,16.24,27.03Z"/>
</svg>