<?xml version="1.0" encoding="UTF-8"?>
<svg id="Layer_1" data-name="Layer 1" xmlns="http://www.w3.org/2000/svg" viewBox="0 0 201.24 133.6">
  <defs>
    <style>
      .cls-1 {
        fill: #d1d3d4;
      }

      .cls-2 {
        fill: #231f20;
      }
    </style>
  </defs>
  <rect class="cls-1" width="201.24" height="133.6"/>
  <path class="cls-2" d="m104.88,85.78c-5.48-29.72.27-46.92,20.93-62.33,
    18.59-13.87,49.19-3.28,57.82,12.36,7.26,13.15,15.43,40.87-4.7,64.87,
    -6.7,7.99-15.89,14.03-26.18,15.74-24.58,4.09-44.8-13.98-47.87-30.65Z
  m22.26,4.99c11.41,11.3,34.07,11.11,44.53-7.04,10.18-17.66,.56-36.59,
    -6.29-42.71,-5.48-4.9-25.31-11.87-37.59,4.11,-11.11,14.46-8.41,37.96,
    -.65,45.64Z"/>
  <path class="cls-2" d="m97.19,93.35c-2.48,11.88-14.46,23.66-32.38,23.66h-1.09,
    c-10-.4-27.82-2.57-35.15-12.48-3.86-5.25-4.65-11.29-1.88-14.36,2.38-2.67,
    6.83-2.38,12.28,.79,10.79,10.59,25.25,10.79,34.16,6.44,5.25-2.57,8.22-6.54,
    7.72-10.3,-.3-3.27-3.56-9.41-21.19-13.47-24.95-5.64-35.54-19.8-34.85-31.39,
    .59-10.3,10.4-22.38,35.94-25.15,.69-.1,1.29-.1,1.98-.1,10.79,0,26.63,8.32,
    29.6,15.94,1.29,3.17,.4,5.94-2.57,8.22-1.88,1.39-5.94-.49-10.99-2.97,
    -4.75-2.28-10.1-4.85-15.15-5.55-1.39-.2-2.67-.3-3.96-.3-9.51,0-16.83,4.75,
    -18.22,9.9-1.29,4.65,2.28,9.01,9.6,11.98l29.9,12.08c14.95,6.24,18.22,18.02,
    16.24,27.03Z"/>
</svg>