<?xml version="1.0" encoding="UTF-8"?>
<svg id="Layer_1" data-name="Layer 1" xmlns="http://www.w3.org/2000/svg" viewBox="0 0 201.24 133.6">
  <defs>
    <style>
      .cls-1 {
        fill: #d1d3d4;
      }

      .cls-2 {
        fill: #231f20;
      }
    </style>
  </defs>
  <rect class="cls-1" y="0" width="201.24" height="133.6"/>
  <path class="cls-2" d="m97.21,85.41c-5.48-29.72.27-46.92,20.93-62.33,
    18.59-13.87,49.19-3.28,57.82,12.36,7.26,13.15,15.43,40.87-4.7,
    64.87-6.7,7.99-15.89,14.03-26.18,15.74-24.58,4.09-44.8-13.98-47.87-30.65Z
    m22.26,4.99c11.41,11.3,34.07,11.11,44.53-7.04,10.18-17.66,.56-36.59-6.29,
    -42.71-5.48-4.9-25.31-11.87-37.59,4.11-11.11,14.46-8.41,37.96-.65,45.64Z"/>
  <path class="cls-2" d="m95.25,25.9c-.1,4.9-3.8,7.8-11.7,7.7h-20.9v74.74c0,4.5,
    -3.7,8.3-8.3,8.3s-8.3-3.8-8.3-8.3V33.6h-20.9c-7.9.1-11.6-2.8-11.7-7.7-.2-6.2,
    4.5-8.9,11.2-9.1,8.2-.2,51.2-.2,59.4,0,6.7,.2,11.4,2.9,11.2,9.1Z"/>
</svg>