<?xml version="1.0" encoding="UTF-8"?>
<svg id="Layer_2" data-name="Layer 2" xmlns="http://www.w3.org/2000/svg" viewBox="0 0 87.05 100">
  <defs>
    <style>
      .cls-1 {
        fill: #231f20;
      }
    </style>
  </defs>
  <g id="Layer_1-2" data-name="Layer 1">
    <path class="cls-1" d="m86.72,16.71c-5,25.09-10.29,33.71-33.9,38.22-.39.1-.69.39-.78.69v35.96c0,2.16-.98,4.41-2.55,5.98-1.57,1.57-3.63,2.45-5.88,2.45s-4.31-.88-6.08-2.45c-1.57-1.57-2.45-3.82-2.45-5.98l-.1-35.96c0-.29-.39-.59-.78-.69C10.68,50.42,5.39,41.79.39,16.71-.39,13.08,0,10.24,1.57,8.38c1.67-2.06,4.21-2.35,5.59-2.35,2.35,0,4.31,2.16,5.59,4.51,1.27,2.25,1.96,4.7,2.06,5.39,2.55,17.05,7.25,22.93,18.52,22.93h.88c.29,0,.69-.2.88-.59V8.38l.1-.59c1.08-2.84,1.86-4.8,3.04-5.98.69-.59,1.47-.98,2.25-1.27.49-.2.98-.29,1.37-.39,1.08-.2,2.35-.2,3.33,0,.49.1.98.2,1.47.39.69.1,1.47.59,2.16,1.27,1.18,1.18,2.06,3.14,3.04,5.98l.1.29c0,.1.1.29.1.49l-.1,29.4c0,.1,0,.2.1.39.1.29.49.49.88.49,11.95.39,16.76-5.39,19.3-22.93.29-1.27,2.84-9.9,7.64-9.9h.1c1.37,0,3.92.29,5.59,2.35,1.47,1.86,1.86,4.7,1.18,8.33Z"/>
  </g>
</svg>