<?xml version="1.0" encoding="UTF-8"?>
<svg id="Layer_2" data-name="Layer 2" xmlns="http://www.w3.org/2000/svg" viewBox="0 0 66.02 100">
  <g id="Layer_1-2" data-name="Layer 1">
    <path d="m61.37,41.23c-1.63-2-3.45-3.72-5.26-5.26C85.54,2.51,16.77-18.2,15.81,22.44c-.1,19.31-.19,34.51-.18,53.83-6.84-2.12-14.49,2.29-15.61,9.8-.72,18.86,18.23,15.64,25.05,7.42,2.6-3.13,3.59-5.62,4.45-15.14,25.75,13.69,45.99-14.87,31.84-37.12Zm-11.07,25.87c-7.74,6.07-11.2.13-16.61-1.46-1.2-.35-2.45-.23-3.72.27-.02-15.39.07-30.58.18-46.19-1.3-8.64,11.02-11.43,16.42-5.63,4.55,4.88,3.74,13.26-1.72,15.16-17.73-4.72-15.97,20.84,0,14.43,7.53,2.23,13.19,15.47,5.45,23.42Z"/>
  </g>
</svg>